<svg width="672" height="160" viewBox="0 0 672 160" fill="none" xmlns="http://www.w3.org/2000/svg">
<path d="M180.497 37.7375H217.975C229.092 37.7375 237.361 40.325 242.657 45.625C246.273 49.375 248.471 54.1625 248.471 60.7563V61.275C248.471 71.6188 242.526 77.7 235.163 81.1938C244.986 84.6875 251.575 90.7625 251.575 102.663V103.181C251.575 118.7 239.684 128.269 218.1 128.269H180.491V37.7375H180.497ZM225.601 65.5438C225.601 59.9813 221.591 57.1375 214.746 57.1375H203.118V74.0813H214.234C221.473 74.0813 225.607 71.2375 225.607 65.675V65.5438H225.601ZM228.449 99.95C228.449 94.65 224.446 91.1563 216.689 91.1563H203.118V108.875H216.814C224.183 108.875 228.443 105.644 228.443 100.081V99.95H228.449Z" fill="white"/>
<path d="M256.022 92.4438V37.7375H279.542V92.575C279.542 103.569 284.713 108.744 292.851 108.744C300.995 108.744 306.16 103.831 306.16 92.9625V37.7375H329.549V91.925C329.549 118.438 314.816 129.95 292.589 129.95C270.368 129.95 256.022 118.181 256.022 92.4438Z" fill="white"/>
<path d="M454.25 37.7375H477.638V128.269H454.25V37.7375Z" fill="white"/>
<path d="M485.695 110.813L523.304 57.9125H486.863V37.7375H553.807V55.0688L516.072 107.969H553.807V128.275H485.695V110.813Z" fill="white"/>
<path d="M562.744 37.7375H586.133V128.269H562.744V37.7375Z" fill="white"/>
<path d="M454.25 13.75H477.638V31.5H454.25V13.75Z" fill="white"/>
<path d="M562.744 13.75H586.133V31.5H562.744V13.75Z" fill="white"/>
<path d="M595.751 37.7375H619.014V73.5625L643.958 37.7375H670.582L642.666 76.2813L671.613 128.275H644.47L626.247 95.2938L619.008 104.738V128.275H595.744V37.7375H595.751Z" fill="white"/>
<path d="M377.057 37.7375H414.535C425.652 37.7375 433.921 40.325 439.217 45.625C442.833 49.375 445.031 54.1625 445.031 60.7563V61.275C445.031 71.6188 439.086 77.7 431.723 81.1938C441.546 84.6875 448.135 90.7625 448.135 102.663V103.181C448.135 118.7 436.244 128.269 414.66 128.269H377.051V37.7375H377.057ZM422.155 65.5438C422.155 59.9813 418.145 57.1375 411.3 57.1375H399.671V74.0813H410.788C418.027 74.0813 422.161 71.2375 422.161 65.675V65.5438H422.155ZM425.003 99.95C425.003 94.65 420.999 91.1563 413.243 91.1563H399.671V108.875H413.367C420.737 108.875 424.996 105.644 424.996 100.081V99.95H425.003Z" fill="white"/>
<path d="M111.442 79.9562L114.446 83.5625C123.87 94.9 128.067 109.994 126.462 126.425C122.365 126.838 118.349 126.881 114.459 126.581C113.041 130.294 111.311 133.9 109.269 137.388C116.657 138.406 124.426 138.325 132.395 137.063L136.461 136.419L137.098 132.344C140.158 112.731 136.192 94.3125 125.919 79.9375L111.442 79.9562Z" fill="white"/>
<path d="M48.4639 80.0313L45.4661 76.425C36.0419 65.0875 31.8388 50 33.4501 33.5688C37.547 33.1562 41.5566 33.1063 45.4537 33.4125C46.8713 29.7063 48.5951 26.0875 50.6435 22.6125C43.2553 21.5938 35.4861 21.675 27.5107 22.9375L23.445 23.575L22.8142 27.65C19.7603 47.2625 23.7261 65.6875 33.9934 80.05L48.4639 80.0313Z" fill="white"/>
<path d="M79.9155 48.4813L83.5254 45.4813C94.8544 36.0438 109.931 31.8438 126.356 33.4563C126.762 37.5563 126.812 41.5688 126.512 45.4625C130.222 46.8813 133.832 48.6063 137.31 50.6563C138.328 43.2625 138.247 35.4875 136.986 27.5063L136.342 23.4375L132.277 22.8063C112.679 19.7438 94.2736 23.7125 79.9093 33.9875L79.9155 48.4813Z" fill="white"/>
<path d="M47.4147 47.5063L57.6634 57.7375L58.0943 53.0625C59.4433 38.3813 67.1313 24.7375 79.8843 14.2563C83.0695 16.8625 85.9423 19.6688 88.4779 22.6375C92.1065 21.0188 95.8787 19.6875 99.7883 18.675C95.2791 12.725 89.727 7.2875 83.2006 2.5375L79.8718 0.118752L76.5493 2.55C60.5175 14.25 50.3001 30.075 47.4147 47.5063Z" fill="white"/>
<path d="M57.7072 102.306L53.0356 101.881C38.3653 100.531 24.7255 92.8312 14.2582 80.075C16.8626 76.8875 19.6667 74.0125 22.6333 71.475C21.0157 67.85 19.6792 64.0688 18.6737 60.1625C12.7281 64.675 7.29468 70.225 2.54821 76.7563L0.131256 80.0938L2.5607 83.4188C14.2582 99.4563 30.0715 109.675 47.4898 112.569L57.7072 102.306Z" fill="white"/>
<path d="M157.352 76.575C145.654 60.5438 129.835 50.325 112.416 47.4313L102.193 57.6875L106.87 58.1188C121.541 59.4688 135.174 67.1625 145.648 79.925C143.044 83.1125 140.239 85.9875 137.273 88.525C138.89 92.1562 140.221 95.9313 141.232 99.8375C147.178 95.325 152.618 89.7687 157.364 83.2375L159.781 79.9062L157.352 76.575Z" fill="white"/>
<path d="M102.243 102.256L101.818 106.931C100.475 121.619 92.7747 135.263 80.028 145.738C76.8428 143.131 73.97 140.325 71.4344 137.356C67.812 138.975 64.0336 140.306 60.124 141.319C64.6332 147.263 70.179 152.713 76.7117 157.456L80.0404 159.881L83.363 157.45C99.3823 145.744 109.593 129.913 112.485 112.487L102.243 102.256Z" fill="white"/>
<path d="M79.9842 111.506L76.3744 114.513C65.0516 123.944 49.9691 128.15 33.55 126.538C33.1378 122.444 33.0879 118.425 33.3939 114.531C29.6904 113.106 26.0743 111.381 22.6019 109.331C21.5839 116.725 21.6589 124.506 22.9267 132.481L23.57 136.55L27.6357 137.187C47.2336 140.25 65.6449 136.281 80.003 126L79.9842 111.506Z" fill="white"/>
</svg>
