<svg width="94" height="50" viewBox="0 0 94 50" fill="none" xmlns="http://www.w3.org/2000/svg">
<path d="M34.5392 25L35.4798 26.1263C38.4109 29.682 39.7015 34.4081 39.1984 39.5539C37.9297 39.6864 36.6829 39.6864 35.4798 39.5981C35.0423 40.7686 34.4954 41.8949 33.8611 42.977C36.1579 43.3083 38.564 43.2862 41.0358 42.8887L42.3045 42.6899L42.5014 41.409C43.4639 35.2694 42.2389 29.5053 39.0453 25H34.5392V25Z" fill="#0057C2"/>
<path d="M15.0057 25L14.087 23.8737C11.1558 20.318 9.86525 15.5919 10.3684 10.4461C11.6371 10.3136 12.8839 10.3136 14.087 10.4019C14.5245 9.23145 15.0713 8.10512 15.7057 7.02297C13.4089 6.69169 11.0027 6.71378 8.53092 7.11131L7.26221 7.31007L7.06534 8.59099C6.10288 14.7306 7.32784 20.4947 10.5215 25H15.0057Z" fill="#0057C2"/>
<path d="M24.7615 15.1281L25.8771 14.2005C29.3988 11.2412 34.0799 9.93816 39.1766 10.4461C39.3078 11.727 39.3078 12.9859 39.2203 14.2005C40.3797 14.6422 41.4953 15.1943 42.5671 15.8348C42.8952 13.5159 42.8733 11.0866 42.4796 8.59098L42.2827 7.31006L41.014 7.1113C34.933 6.13957 29.2238 7.37632 24.7615 10.6007V15.1281V15.1281Z" fill="#0057C2"/>
<path d="M14.6777 14.8189L17.8495 18.0212L17.9807 16.5636C18.3963 11.97 20.8025 7.68551 24.7618 4.41696C25.7461 5.2341 26.6429 6.11749 27.4304 7.04506C28.5679 6.53711 29.7272 6.11749 30.9522 5.80831C29.5522 3.95318 27.8241 2.23057 25.8117 0.750886L24.7836 0L23.7555 0.750886C18.7682 4.41696 15.5965 9.36396 14.6777 14.8189Z" fill="#0057C2"/>
<path d="M17.8494 31.9788L16.4057 31.8463C11.8558 31.4267 7.61223 28.9974 4.37485 25C5.18419 24.0062 6.05916 23.1007 6.97788 22.3057C6.47477 21.1793 6.05916 19.9867 5.75292 18.75C3.91549 20.1634 2.2093 21.9081 0.743723 23.9399L0 24.9779L0.743723 26.0159C4.37485 31.0512 9.27468 34.2535 14.6776 35.159L17.8494 31.9788Z" fill="#0057C2"/>
<path d="M48.8012 23.962C45.1701 18.9267 40.2703 15.7244 34.8673 14.8189L31.6956 18.0212L33.1393 18.1537C37.6891 18.5733 41.9327 21.0027 45.1701 25C44.3607 25.9938 43.4858 26.8993 42.5671 27.6944C43.0702 28.8207 43.4858 30.0133 43.792 31.25C45.6294 29.8366 47.3356 28.0919 48.8012 26.0601L49.5449 25.0221L48.8012 23.962Z" fill="#0057C2"/>
<path d="M31.6954 31.9788L31.5642 33.4364C31.1486 38.03 28.7424 42.3145 24.7832 45.583C23.7988 44.7659 22.902 43.8825 22.1145 42.9549C20.9989 43.4629 19.8177 43.8825 18.5928 44.1917C19.9927 46.0468 21.7208 47.7694 23.7332 49.2491L24.7613 50L25.7894 49.2491C30.7767 45.583 33.9485 40.636 34.8453 35.1811L31.6954 31.9788Z" fill="#0057C2"/>
<path d="M24.7836 34.8719L23.668 35.8216C20.1463 38.781 15.4652 40.084 10.3685 39.576C10.2373 38.2951 10.2373 37.0363 10.3248 35.8216C9.16544 35.3799 8.04985 34.8278 6.97801 34.1873C6.6499 36.5062 6.67177 38.9355 7.06551 41.4311L7.26238 42.712L8.53108 42.9108C14.6121 43.8825 20.3213 42.6458 24.7836 39.4214V34.8719Z" fill="#0057C2"/>
<path d="M58.6685 25.3363H61.8088V10.9245H58.6685V25.3363Z" fill="#0057C2"/>
<path d="M65.3762 25.3363H72.1667C75.3886 25.3363 77.5094 24.0187 77.5094 21.3834V21.3422C77.5094 19.4275 76.4898 18.4392 74.8381 17.801C75.8577 17.2657 76.7141 16.2981 76.7141 14.6922V14.651C76.7141 13.6833 76.3878 12.8598 75.7353 12.201C74.8992 11.3569 73.6553 10.9245 72.0036 10.9245H65.3762V25.3363ZM73.5941 15.2275C73.5941 16.2981 72.7173 16.751 71.3306 16.751H68.435V13.7039H71.5345C72.86 13.7039 73.5941 14.2186 73.5941 15.1863V15.2275ZM74.3894 20.9922C74.3894 22.0628 73.5534 22.5569 72.1667 22.5569H68.435V19.3863H72.0647C73.6961 19.3863 74.3894 19.9834 74.3894 20.951V20.9922Z" fill="#0057C2"/>
<path d="M78.8691 25.3363H82.0707L83.3758 22.104H89.4118L90.7169 25.3363H94L87.8824 10.8216H84.9867L78.8691 25.3363ZM84.4973 19.304L86.3938 14.6304L88.2903 19.304H84.4973Z" fill="#0057C2"/>
<path d="M58.803 29.7522V39.491H60.1045V29.7522H58.803Z" fill="#FF8300"/>
<path d="M62.2217 31.0809C62.4097 31.2415 62.5977 31.3291 62.8002 31.3291C63.0316 31.3291 63.234 31.2415 63.3931 31.0809C63.5522 30.9203 63.6389 30.7159 63.6389 30.4823C63.6389 30.2632 63.5522 30.0588 63.3931 29.8982C63.234 29.7376 63.046 29.6646 62.8002 29.6646C62.5688 29.6646 62.3663 29.7522 62.2072 29.9128C62.0482 30.0734 61.9614 30.2779 61.9614 30.5115C61.9614 30.7597 62.0482 30.9495 62.2217 31.1101V31.0809ZM62.1639 32.468V39.5202H63.4654V32.468H62.1639Z" fill="#FF8300"/>
<path d="M70.2682 34.9793V39.491H71.5697V34.5413C71.5697 33.7967 71.3817 33.2272 71.0057 32.8476C70.6297 32.468 70.0657 32.2782 69.3282 32.2782C68.822 32.2782 68.3448 32.395 67.8964 32.6286C67.4481 32.8622 67.1011 33.1396 66.8407 33.4608V32.468H65.5392V39.5202H66.8407V34.4829C67.0287 34.2055 67.3035 33.9719 67.6651 33.7675C68.0121 33.5631 68.3737 33.4608 68.7641 33.4608C69.2414 33.4608 69.6029 33.5777 69.8632 33.8113C70.1235 34.0449 70.2537 34.4391 70.2537 34.9939L70.2682 34.9793Z" fill="#FF8300"/>
<path d="M75.9891 36.454L78.3174 39.491H79.9661L76.9291 35.6364L79.9372 32.4388H78.303L74.9334 36.016V29.7522H73.6319V39.491H74.9334V37.5345L75.9891 36.454Z" fill="#FF8300"/>
</svg>
