<svg width="190" height="44" viewBox="0 0 190 44" fill="none" xmlns="http://www.w3.org/2000/svg">
<path fill-rule="evenodd" clip-rule="evenodd" d="M55.9807 15.8156L57.2027 12.8905L58.4106 15.8156H55.9807ZM56.3833 10.7112L52.6626 19.3939H54.5225L55.3303 17.4281H59.0627L59.8709 19.3939H61.7779L58.068 10.7112H56.3833Z" fill="#FFFFFE"/>
<path fill-rule="evenodd" clip-rule="evenodd" d="M63.4231 12.3686H68.082L63.2708 18.0197V19.3938H70.4282V17.7938H65.6179L70.4282 12.1451V10.7706H63.4231V12.3686Z" fill="#FFFFFE"/>
<path fill-rule="evenodd" clip-rule="evenodd" d="M75.9252 17.9003C74.6328 17.9003 73.84 17.0135 73.6743 15.8284H78.2365C78.0105 17.0605 77.156 17.9003 75.9252 17.9003ZM75.8057 10.6283C74.1103 10.6283 72.939 11.2808 72.1446 12.2275L73.3067 13.4002C74.0287 12.6674 74.7631 12.2987 75.8057 12.2987C76.9916 12.2987 77.9517 12.9986 78.224 14.2882H71.7411C71.729 14.5021 71.7178 14.632 71.7178 14.8687V14.8929C71.7178 17.3452 73.0793 19.5349 75.9252 19.5349C78.4268 19.5349 80.2152 17.5333 80.2152 15.083V15.0468C80.2152 12.4397 78.2948 10.6283 75.8057 10.6283Z" fill="#FFFFFE"/>
<path fill-rule="evenodd" clip-rule="evenodd" d="M85.7389 14.9756H83.7482V12.4172H85.7019C86.6629 12.4172 87.255 12.8554 87.255 13.6856V13.7089C87.255 14.4658 86.687 14.9756 85.7389 14.9756ZM89.092 13.6131V13.5894C89.092 12.7954 88.8438 12.1217 88.3692 11.6461C87.8012 11.0793 86.9472 10.7709 85.8576 10.7709H81.937V19.3937H83.7482V16.586H85.3234L87.2337 19.3937H89.366L87.2091 16.2789C88.3213 15.8878 89.092 15.0118 89.092 13.6131Z" fill="#FFFFFE"/>
<path fill-rule="evenodd" clip-rule="evenodd" d="M96.6329 16.8121C96.6329 17.4746 96.0995 17.7938 95.2222 17.7938H92.9101V15.805H95.1506C96.1711 15.805 96.6329 16.1717 96.6329 16.7884V16.8121ZM92.9101 12.3681H94.8537C95.6832 12.3681 96.147 12.7123 96.147 13.2932V13.3178C96.147 13.9923 95.6011 14.2886 94.7367 14.2886H92.9101V12.3681ZM96.8094 14.8933C97.4286 14.5487 97.9586 14.004 97.9586 13.0219V12.9986C97.9586 12.4056 97.7709 11.9312 97.3782 11.5284C96.8811 11.0436 96.0995 10.7714 95.1156 10.7714H91.1455V19.3934H95.2222C97.1667 19.3934 98.4466 18.5998 98.4466 17.0252V17.0019C98.4466 15.8408 97.8058 15.2603 96.8094 14.8933Z" fill="#FFFFFE"/>
<path fill-rule="evenodd" clip-rule="evenodd" d="M102.992 15.8156L104.212 12.8905L105.421 15.8156H102.992ZM103.395 10.7112L99.6731 19.3939H101.534L102.34 17.4281H106.073L106.878 19.3939H108.787L105.076 10.7112H103.395Z" fill="#FFFFFE"/>
<path fill-rule="evenodd" clip-rule="evenodd" d="M111.898 14.2997L109.777 10.7713H107.643L110.972 15.9934V19.3937H112.797V15.9585L116.14 10.7713H114.067L111.898 14.2997Z" fill="#FFFFFE"/>
<path fill-rule="evenodd" clip-rule="evenodd" d="M120.871 17.8662C119.355 17.8662 118.301 16.5982 118.301 15.083V15.0589C118.301 13.5421 119.379 12.2987 120.871 12.2987C121.761 12.2987 122.448 12.6794 123.124 13.2932L124.285 11.9549C123.481 11.1614 122.509 10.6283 120.883 10.6283C118.242 10.6283 116.393 12.6303 116.393 15.083V15.1063C116.393 17.5807 118.277 19.5349 120.812 19.5349C122.473 19.5349 123.456 18.944 124.345 18.0077L123.183 16.8346C122.497 17.4629 121.88 17.8662 120.871 17.8662Z" fill="#FFFFFE"/>
<path fill-rule="evenodd" clip-rule="evenodd" d="M128.728 15.8156L129.951 12.8905L131.158 15.8156H128.728ZM129.13 10.7112L125.409 19.3939H127.27L128.076 17.4281H131.81L132.616 19.3939H134.524L130.815 10.7112H129.13Z" fill="#FFFFFE"/>
<path fill-rule="evenodd" clip-rule="evenodd" d="M141.827 10.7713V16.2069L137.668 10.7713H135.997V19.3937H137.785V13.7796L142.077 19.3937H143.629V10.7713H141.827Z" fill="#FFFFFE"/>
<path fill-rule="evenodd" clip-rule="evenodd" d="M58.6231 30.4865C58.6231 31.1606 58.0826 31.4844 57.1928 31.4844H54.8482V29.4665H57.1208C58.1543 29.4665 58.6231 29.8386 58.6231 30.4636V30.4865ZM54.8482 25.9814H56.821C57.6617 25.9814 58.1314 26.3297 58.1314 26.9189V26.9427C58.1314 27.6272 57.5776 27.9277 56.7007 27.9277H54.8482V25.9814ZM58.8046 28.5406C59.4296 28.1919 59.9701 27.6397 59.9701 26.6426V26.6189C59.9701 26.0176 59.7785 25.5365 59.3809 25.1283C58.8754 24.6352 58.0826 24.3593 57.0842 24.3593H53.0562V33.1065H57.1928C59.1648 33.1065 60.4631 32.3021 60.4631 30.7033V30.6796C60.4631 29.5023 59.8139 28.9135 58.8046 28.5406Z" fill="#FFFFFE"/>
<path fill-rule="evenodd" clip-rule="evenodd" d="M63.8619 29.5256H68.0461V27.8798H63.8619V26.0055H68.6107V24.3592H62.0332V33.1065H68.6694V31.4602H63.8619V29.5256Z" fill="#FFFFFE"/>
<path fill-rule="evenodd" clip-rule="evenodd" d="M74.2617 27.9401L72.1094 24.3592H69.9468L73.3244 29.6575V33.1065H75.1756V29.623L78.5661 24.3592H76.4626L74.2617 27.9401Z" fill="#FFFFFE"/>
<path fill-rule="evenodd" clip-rule="evenodd" d="M86.0577 29.8743L81.8369 24.3592H80.1418V33.1064H81.9572V27.4107L86.3096 33.1064H87.8839V24.3592H86.0577V29.8743Z" fill="#FFFFFE"/>
<path fill-rule="evenodd" clip-rule="evenodd" d="M93.9876 31.5933C92.6772 31.5933 91.8724 30.6919 91.7038 29.4893H96.3322C96.104 30.7398 95.2379 31.5933 93.9876 31.5933ZM93.8681 24.2151C92.148 24.2151 90.958 24.8755 90.1519 25.8372L91.3307 27.0274C92.0635 26.2821 92.8101 25.9092 93.8681 25.9092C95.0706 25.9092 96.0432 26.6187 96.3201 27.9275H89.7443C89.7318 28.1443 89.7197 28.2762 89.7197 28.5167V28.5405C89.7197 31.0273 91.1025 33.2503 93.9876 33.2503C96.5237 33.2503 98.3399 31.2204 98.3399 28.7336V28.6969C98.3399 26.0532 96.3913 24.2151 93.8681 24.2151Z" fill="#FFFFFE"/>
<path fill-rule="evenodd" clip-rule="evenodd" d="M102.016 24.3592H100.177V33.1065H106.429V31.4253H102.016V24.3592Z" fill="#FFFFFE"/>
<path fill-rule="evenodd" clip-rule="evenodd" d="M115.94 24.3592H113.837L111.913 27.2668L110.013 24.3592H107.848L110.794 28.6604L107.717 33.1065H109.821L111.865 30.0312L113.895 33.1065H116.06L112.994 28.6255L115.94 24.3592Z" fill="#FFFFFE"/>
<path fill-rule="evenodd" clip-rule="evenodd" d="M120.719 29.478L121.958 26.5101L123.184 29.478H120.719ZM121.128 24.2992L117.354 33.1063H119.241L120.059 31.1122H123.845L124.664 33.1063H126.599L122.836 24.2992H121.128Z" fill="#FFFFFE"/>
<path fill-rule="evenodd" clip-rule="evenodd" d="M129.975 24.3592H128.135V33.1065H134.387V31.4253H129.975V24.3592Z" fill="#FFFFFE"/>
<path fill-rule="evenodd" clip-rule="evenodd" d="M142.178 28.757C142.178 29.2255 142.082 29.6704 141.903 30.0553L140.448 28.7337L139.269 30.0553L140.713 31.2921C140.35 31.461 139.942 31.5567 139.486 31.5567C137.899 31.5567 136.767 30.2713 136.767 28.7337V28.7087C136.767 27.1711 137.875 25.9093 139.461 25.9093C141.049 25.9093 142.178 27.1956 142.178 28.7337V28.757ZM144.113 28.7337V28.7087C144.113 26.2223 142.178 24.2148 139.486 24.2148C136.792 24.2148 134.833 26.2576 134.833 28.7337V28.757C134.833 31.2442 136.767 33.2504 139.461 33.2504C140.448 33.2504 141.338 32.9625 142.07 32.4827L143.056 33.3711L144.234 32.0611L143.321 31.2804C143.826 30.5476 144.113 29.6704 144.113 28.7337Z" fill="#FFFFFE"/>
<path fill-rule="evenodd" clip-rule="evenodd" d="M155.362 30.4865C155.362 31.1606 154.822 31.4844 153.933 31.4844H151.587V29.4665H153.86C154.893 29.4665 155.362 29.8386 155.362 30.4636V30.4865ZM151.587 25.9814H153.56C154.402 25.9814 154.871 26.3297 154.871 26.9189V26.9427C154.871 27.6272 154.317 27.9277 153.44 27.9277H151.587V25.9814ZM155.543 28.5406C156.168 28.1919 156.709 27.6397 156.709 26.6426V26.6189C156.709 26.0176 156.517 25.5365 156.122 25.1283C155.615 24.6352 154.822 24.3593 153.823 24.3593H149.796V33.1065H153.933C155.905 33.1065 157.202 32.3021 157.202 30.7033V30.6796C157.202 29.5023 156.552 28.9135 155.543 28.5406Z" fill="#FFFFFE"/>
<path fill-rule="evenodd" clip-rule="evenodd" d="M161.515 29.478L162.754 26.5101L163.981 29.478H161.515ZM161.925 24.2992L158.149 33.1063H160.038L160.853 31.1122H164.642L165.459 33.1063H167.395L163.631 24.2992H161.925Z" fill="#FFFFFE"/>
<path fill-rule="evenodd" clip-rule="evenodd" d="M174.796 29.8743L170.578 24.3592H168.882V33.1064H170.698V27.4107L175.049 33.1064H176.625V24.3592H174.796V29.8743Z" fill="#FFFFFE"/>
<path fill-rule="evenodd" clip-rule="evenodd" d="M186.624 24.3592H184.352L180.697 28.3009V24.3592H178.858V33.1065H180.697V30.4636L181.779 29.3458L184.556 33.1065H186.782L183.03 28.0845L186.624 24.3592Z" fill="#FFFFFE"/>
<path fill-rule="evenodd" clip-rule="evenodd" d="M188.148 33.1065H190V24.3593H188.148V33.1065Z" fill="#FFFFFE"/>
<path fill-rule="evenodd" clip-rule="evenodd" d="M33.1476 30.4422C32.9819 29.3915 32.7117 28.3815 32.3373 27.4314C31.3943 27.7265 30.4254 27.9254 29.4398 28.0161L28.1515 28.136L28.0329 29.4235C27.6577 33.4675 25.5309 37.2224 22.0117 40.1045C21.1339 39.3854 20.3428 38.6118 19.645 37.7937C18.6449 38.2386 17.6039 38.6031 16.5255 38.8811C17.7667 40.5202 19.2948 42.0225 21.094 43.3317L22.0117 44L22.9294 43.3317C27.3513 40.1129 30.1722 35.7559 30.975 30.9574C31.7099 30.8342 32.4356 30.6586 33.1476 30.4422ZM43.3567 21.0816C40.136 16.6639 35.7762 13.8433 30.975 13.041C30.8521 12.3056 30.6756 11.5816 30.4595 10.8691C29.4073 11.0352 28.398 11.3052 27.447 11.6802C27.7422 12.6236 27.9408 13.5898 28.0329 14.5748L28.1515 15.862L29.4406 15.9822C33.4861 16.358 37.2435 18.4815 40.1269 21.9992C39.4086 22.8768 38.6338 23.6675 37.8148 24.3657C38.2603 25.3653 38.6254 26.4057 38.9032 27.483C40.5441 26.2421 42.0464 24.7145 43.3567 22.9159L44.025 21.9992L43.3567 21.0816ZM35.8607 20.0987C34.9976 19.474 34.0945 18.9518 33.1568 18.5444C32.6979 19.4179 32.1546 20.2431 31.5221 21.0042L30.6956 21.9983L31.5221 22.9933C34.1174 26.1185 35.2703 30.2762 34.8219 34.8017C33.6926 34.9132 32.5851 34.9253 31.5121 34.8404C31.1203 35.8624 30.6423 36.8557 30.0768 37.8141C32.1138 38.0962 34.2573 38.0771 36.4549 37.7321L37.5766 37.5557L37.7531 36.4338C38.6025 31.0335 37.515 25.9591 34.6874 21.9983C35.1208 21.3916 35.5085 20.7557 35.8607 20.0987ZM23.9124 35.8379C24.5391 34.9781 25.062 34.0743 25.4697 33.138C24.5944 32.6781 23.7696 32.1346 23.0072 31.5038L22.0117 30.6773L21.0153 31.5038C17.8891 34.0971 13.7304 35.2507 9.2023 34.8017C9.08947 33.6735 9.07822 32.5666 9.16316 31.495C8.14221 31.1018 7.14583 30.6245 6.18858 30.0594C5.90545 32.0955 5.9246 34.2378 6.27019 36.4342L6.4459 37.5557L7.56762 37.7321C12.9713 38.5806 18.0499 37.4933 22.0117 34.6681C22.6187 35.1005 23.2558 35.4879 23.9124 35.8379ZM13.5651 33.1292C14.616 32.9632 15.6245 32.6923 16.5759 32.319C16.2819 31.3764 16.0825 30.4081 15.9909 29.4243L15.871 28.136L14.5835 28.0169C10.5376 27.6412 6.779 25.5164 3.89644 21.9992C4.61552 21.1224 5.38956 20.3317 6.2094 19.6334C5.76388 18.6343 5.39747 17.5935 5.12016 16.5161C3.47923 17.7566 1.97861 19.2839 0.668282 21.0816L0 21.9992L0.668282 22.9159C3.88936 27.3353 8.24631 30.1551 13.0492 30.9574C13.1733 31.6923 13.3486 32.4172 13.5651 33.1292ZM20.1101 8.15965C19.4851 9.02064 18.963 9.92407 18.5553 10.8621C19.4301 11.319 20.2554 11.8629 21.0161 12.4954L22.0108 13.3198L23.0072 12.4954C26.1334 9.90035 30.2929 8.74848 34.8219 9.19708C34.933 10.3261 34.9451 11.4313 34.8606 12.5045C35.8836 12.8961 36.8775 13.3734 37.8364 13.939C38.1187 11.9032 38.0987 9.76178 37.7531 7.5629L37.5766 6.44224L36.4549 6.26788C31.0507 5.41854 25.9743 6.50466 22.0108 9.33149C21.4042 8.89829 20.7675 8.51003 20.1101 8.15965ZM8.16428 23.8993C9.02659 24.5247 9.93054 25.0474 10.8682 25.4548C11.3262 24.5809 11.8696 23.7561 12.5021 22.9942L13.3277 21.9983L12.5021 21.0038C9.90723 17.879 8.75262 13.7226 9.2023 9.19708C10.3315 9.08431 11.4382 9.07224 12.5117 9.15755C12.9039 8.13676 13.381 7.14177 13.9473 6.18465C11.91 5.90209 9.76691 5.92207 7.56762 6.26705L6.4459 6.44183L6.27019 7.56332C5.42162 12.9635 6.50877 18.0396 9.33596 21.9983C8.90293 22.6059 8.5157 23.243 8.16428 23.8993ZM10.8749 13.5574C11.0418 14.6077 11.3125 15.6156 11.6868 16.5669C12.6307 16.2727 13.5976 16.0738 14.5835 15.9822L15.871 15.8615L15.9909 14.5748C16.3673 10.5316 18.492 6.77599 22.0117 3.89423C22.8898 4.6129 23.6805 5.3865 24.3792 6.20463C25.3797 5.76061 26.4211 5.39399 27.4987 5.11726C26.2574 3.47767 24.7285 1.97749 22.9294 0.667902L22.0117 0L21.094 0.667902C16.6729 3.88673 13.8511 8.24204 13.0484 13.041C12.3122 13.1654 11.589 13.3406 10.8749 13.5574Z" fill="#FFFFFE"/>
</svg>
