<svg width="20" height="20" viewBox="0 0 20 20" fill="none" xmlns="http://www.w3.org/2000/svg">
<path d="M15.2052 13.2304C14.5518 12.5853 13.7361 12.5853 13.0869 13.2304C12.5916 13.7215 12.0964 14.2126 11.6094 14.712C11.4762 14.8493 11.3639 14.8785 11.2016 14.7869C10.8811 14.6121 10.5398 14.4706 10.2319 14.2792C8.79604 13.376 7.59327 12.2149 6.52785 10.9081C5.9993 10.2588 5.52902 9.56382 5.20023 8.7814C5.13364 8.62325 5.14613 8.51921 5.27515 8.39019C5.7704 7.91158 6.25317 7.42049 6.7401 6.9294C7.41848 6.24686 7.41848 5.44779 6.73594 4.76109C6.34889 4.36988 5.96184 3.987 5.5748 3.59579C5.17526 3.19625 4.77989 2.79256 4.37619 2.39718C3.72279 1.76043 2.90707 1.76043 2.25783 2.40135C1.75841 2.89244 1.27981 3.39602 0.772066 3.87879C0.301781 4.3241 0.0645578 4.8693 0.0146161 5.50606C-0.0644583 6.54235 0.189412 7.52037 0.547328 8.47343C1.27981 10.4461 2.39517 12.1982 3.74776 13.8047C5.5748 15.9772 7.75558 17.696 10.3068 18.9362C11.4554 19.4939 12.6457 19.9226 13.94 19.9933C14.8307 20.0433 15.6048 19.8185 16.2249 19.1235C16.6494 18.6491 17.128 18.2162 17.5775 17.7626C18.2433 17.0884 18.2475 16.2727 17.5858 15.6068C16.795 14.8119 16.0001 14.0211 15.2052 13.2304Z" fill="#FF8300"/>
<path d="M14.4103 9.91343L15.946 9.65123C15.7047 8.24038 15.0388 6.9627 14.0274 5.94722C12.9579 4.87763 11.6053 4.20342 10.1153 3.99533L9.89893 5.53936C11.0517 5.70167 12.1005 6.2219 12.9287 7.0501C13.7111 7.83252 14.223 8.82303 14.4103 9.91343Z" fill="#FF8300" fill-opacity="0.8"/>
<path d="M16.8116 3.23789C15.0387 1.46496 12.7955 0.34543 10.3192 0L10.1028 1.54403C12.242 1.84368 14.1814 2.81338 15.7129 4.34077C17.1654 5.79324 18.1184 7.6286 18.4639 9.64708L19.9996 9.38488C19.5959 7.04595 18.493 4.92342 16.8116 3.23789Z" fill="#FF8300" fill-opacity="0.8"/>
</svg>
