<svg width="22" height="28" viewBox="0 0 22 28" fill="none" xmlns="http://www.w3.org/2000/svg">
<path d="M18.4056 14.888C18.3827 11.3557 21.1987 9.62507 21.3361 9.55395C19.7334 7.13583 17.2608 6.80393 16.368 6.78023C14.2846 6.54315 12.2698 8.08411 11.1938 8.08411C10.1178 8.08411 8.46935 6.80393 6.70647 6.85135C4.43992 6.89876 2.31073 8.25006 1.14311 10.36C-1.26081 14.6747 0.524958 21.0045 2.8373 24.4657C3.98203 26.1726 5.3328 28.0692 7.09568 27.9981C8.81277 27.9269 9.45381 26.8601 11.5372 26.8601C13.5977 26.8601 14.193 27.9981 16.0016 27.9506C17.8561 27.9269 19.0237 26.2437 20.1227 24.5131C21.4505 22.5691 21.9771 20.6252 22 20.5303C22 20.5303 18.4514 19.1316 18.4056 14.888ZM15.0172 4.48064C15.933 3.27158 16.574 1.6595 16.3908 0C15.0401 0.0711212 13.3688 0.97199 12.4072 2.13364C11.5601 3.17675 10.7817 4.85995 10.9877 6.44833C12.4988 6.56686 14.0556 5.66599 15.0172 4.48064Z" fill="#677387"/>
</svg>
