<svg width="126" height="54" viewBox="0 0 126 54" fill="none" xmlns="http://www.w3.org/2000/svg">
<g filter="url(#filter0_d)">
<path fill-rule="evenodd" clip-rule="evenodd" d="M6.93521 25.6504H13.0897V18.9513L19.9765 7.18646H14.029L10.273 13.57L6.54359 7.18646H0.0483398L6.93521 18.8718V25.6504Z" fill="white"/>
<path fill-rule="evenodd" clip-rule="evenodd" d="M28.5566 13.306L30.3301 17.9488H26.7832L28.5566 13.306ZM23.8614 25.6503L25.0872 22.4327H32.026L33.2519 25.6503H39.6154L31.6343 7.1864H25.5829L17.6018 25.6503H23.8614Z" fill="white"/>
<path fill-rule="evenodd" clip-rule="evenodd" d="M56.7261 20.823H47.9617L56.309 11.0114V7.18646H40.2152V12.0139H48.3013L39.9541 21.8253V25.6504H56.7261V20.823Z" fill="white"/>
<path fill-rule="evenodd" clip-rule="evenodd" d="M5.69507 51.3673H11.8507V45.458H19.4666V40.7636H11.8507V37.5998H20.5365V32.9034H5.69507V51.3673Z" fill="white"/>
<path fill-rule="evenodd" clip-rule="evenodd" d="M32.4951 27.6036C32.0515 28.0414 31.8296 28.6039 31.8296 29.2907C31.8296 29.9754 32.0515 30.5357 32.4951 30.965C32.9388 31.3964 33.499 31.6112 34.1774 31.6112C34.8555 31.6112 35.4159 31.3964 35.8595 30.965C36.3032 30.5357 36.5249 29.9754 36.5249 29.2907C36.5249 28.6039 36.3032 28.0414 35.8595 27.6036C35.4159 27.1637 34.8555 26.9426 34.1774 26.9426C33.499 26.9426 32.9388 27.1637 32.4951 27.6036Z" fill="white"/>
<path fill-rule="evenodd" clip-rule="evenodd" d="M26.7047 27.6036C26.2611 28.0414 26.0393 28.6039 26.0393 29.2907C26.0393 29.9754 26.2611 30.5357 26.7047 30.965C27.1484 31.3964 27.7088 31.6112 28.387 31.6112C29.0652 31.6112 29.6254 31.3964 30.0691 30.965C30.5127 30.5357 30.7345 29.9754 30.7345 29.2907C30.7345 28.6039 30.5127 28.0414 30.0691 27.6036C29.6254 27.1637 29.0652 26.9426 28.387 26.9426C27.7088 26.9426 27.1484 27.1637 26.7047 27.6036Z" fill="white"/>
<path fill-rule="evenodd" clip-rule="evenodd" d="M34.0734 42.8737C34.0734 44.228 33.8335 45.2132 33.3559 45.8294C32.8772 46.4433 32.1863 46.7523 31.282 46.7523C30.3779 46.7523 29.687 46.4433 29.2083 45.8294C28.7298 45.2132 28.4909 44.228 28.4909 42.8737V32.9033H22.3352V43.0583C22.3352 45.8186 23.1186 47.965 24.6829 49.4955C26.2484 51.0238 28.4304 51.7902 31.2302 51.7902C34.0287 51.7902 36.2119 51.0238 37.7762 49.4955C39.3417 47.965 40.1239 45.8186 40.1239 43.0583V32.9033H34.0734V42.8737Z" fill="white"/>
<path fill-rule="evenodd" clip-rule="evenodd" d="M53.2185 41.4634C52.8014 41.8411 52.1752 42.0301 51.3399 42.0301H49.0974V37.705H51.3399C52.1752 37.705 52.8014 37.8938 53.2185 38.2717C53.6356 38.6493 53.8446 39.1818 53.8446 39.8664C53.8446 40.5533 53.6356 41.0857 53.2185 41.4634ZM59.1649 43.3223C59.756 42.3371 60.0522 41.1865 60.0522 39.8664C60.0522 38.4605 59.7126 37.2306 59.0346 36.1745C58.3562 35.1206 57.3915 34.3114 56.1392 33.749C54.8879 33.1866 53.418 32.9034 51.7317 32.9034H42.9419V51.3673H49.0974V46.7244H50.7669L53.8701 51.3673H60.4429L56.6092 45.6705C57.7217 45.0889 58.5738 44.3075 59.1649 43.3223Z" fill="white"/>
<path fill-rule="evenodd" clip-rule="evenodd" d="M74.1368 40.725C73.1796 40.3816 72.0057 40.079 70.6154 39.8149C69.5371 39.6046 68.7635 39.4048 68.2943 39.2203C67.8243 39.0357 67.5897 38.7588 67.5897 38.3897C67.5897 37.617 68.3805 37.2305 69.9628 37.2305C71.5633 37.2305 73.2582 37.6878 75.0496 38.6022L76.9016 34.0902C75.9794 33.5645 74.9148 33.163 73.706 32.8905C72.4972 32.6178 71.2671 32.4826 70.0158 32.4826C68.1892 32.4826 66.6377 32.7551 65.3599 33.3004C64.082 33.8455 63.1205 34.5926 62.4773 35.5412C61.8341 36.4922 61.5126 37.5461 61.5126 38.7073C61.5126 40.0424 61.8596 41.1027 62.5559 41.8841C63.2511 42.6676 64.0683 43.23 65.0075 43.5734C65.9468 43.9168 67.1206 44.2366 68.529 44.535C69.6242 44.7647 70.4107 44.9751 70.8894 45.1682C71.367 45.3636 71.6067 45.6533 71.6067 46.0397C71.6067 46.3745 71.4243 46.6235 71.0591 46.791C70.694 46.9583 70.0848 47.0421 69.2326 47.0421C68.2414 47.0421 67.2066 46.8875 66.1293 46.5807C65.051 46.2715 64.0768 45.8636 63.2075 45.3528L61.2251 49.8904C62.1471 50.47 63.3252 50.9315 64.7603 51.2749C66.1941 51.6183 67.6682 51.79 69.1806 51.79C71.0061 51.79 72.5587 51.5132 73.8365 50.9594C75.1143 50.4034 76.0748 49.6565 76.7191 48.7163C77.3622 47.7762 77.6839 46.7243 77.6839 45.5653C77.6839 44.228 77.3313 43.1741 76.6278 42.3993C75.923 41.6265 75.0921 41.0685 74.1368 40.725Z" fill="white"/>
<path fill-rule="evenodd" clip-rule="evenodd" d="M91.1423 46.4604C90.5331 46.9712 89.7159 47.2267 88.6907 47.2267C87.6644 47.2267 86.8472 46.9712 86.2379 46.4604C85.6298 45.9516 85.2477 45.2305 85.0907 44.2989H92.2895C92.1335 45.2305 91.7504 45.9516 91.1423 46.4604ZM93.5673 33.7082C91.985 32.8904 90.185 32.4825 88.1684 32.4825C86.551 32.4825 84.977 32.8067 83.4478 33.4571C81.9173 34.1097 80.7085 34.9275 79.8223 35.9105L83.4478 39.6818C83.9858 39.0314 84.7087 38.5099 85.6128 38.1128C86.516 37.7178 87.3513 37.5205 88.1164 37.5205C89.2117 37.5205 90.133 37.8229 90.8813 38.4305C91.6282 39.0358 92.0985 39.8494 92.2895 40.8689H78.7791V41.8713C78.7791 43.8417 79.1963 45.5783 80.0303 47.0808C80.8656 48.5854 82.0298 49.7445 83.5264 50.5623C85.0206 51.3801 86.7421 51.7902 88.6907 51.7902C90.5851 51.7902 92.2851 51.3801 93.7892 50.5623C95.2931 49.7445 96.4712 48.6069 97.3233 47.1473C98.1755 45.6877 98.6011 44.0176 98.6011 42.1353C98.6011 40.2721 98.1587 38.6065 97.2712 37.1383C96.3852 35.6702 95.1498 34.526 93.5673 33.7082Z" fill="white"/>
<path fill-rule="evenodd" clip-rule="evenodd" d="M99.2007 37.7307H104.548V51.3672H110.703V37.7307H116.05V32.9033H99.2007V37.7307Z" fill="white"/>
<path fill-rule="evenodd" clip-rule="evenodd" d="M122.858 30.8212C123.414 30.2589 123.692 29.5376 123.692 28.6576C123.692 27.7775 123.414 27.0584 122.858 26.4939C122.301 25.9316 121.589 25.6504 120.72 25.6504C119.849 25.6504 119.137 25.9316 118.581 26.4939C118.024 27.0584 117.746 27.7775 117.746 28.6576C117.746 29.5376 118.024 30.2589 118.581 30.8212C119.137 31.3837 119.849 31.6647 120.72 31.6647C121.589 31.6647 122.301 31.3837 122.858 30.8212Z" fill="white"/>
<path fill-rule="evenodd" clip-rule="evenodd" d="M117.642 51.3673H123.798V32.9034H117.642V51.3673Z" fill="white"/>
<path fill-rule="evenodd" clip-rule="evenodd" d="M59.1736 31.243H60.0672V0.0119019H59.1736V31.243Z" fill="black"/>
</g>
<defs>
<filter id="filter0_d" x="0" y="0" width="126" height="54" filterUnits="userSpaceOnUse" color-interpolation-filters="sRGB">
<feFlood flood-opacity="0" result="BackgroundImageFix"/>
<feColorMatrix in="SourceAlpha" type="matrix" values="0 0 0 0 0 0 0 0 0 0 0 0 0 0 0 0 0 0 127 0"/>
<feOffset dx="2" dy="2"/>
<feColorMatrix type="matrix" values="0 0 0 0 0 0 0 0 0 0 0 0 0 0 0 0 0 0 0.1 0"/>
<feBlend mode="normal" in2="BackgroundImageFix" result="effect1_dropShadow"/>
<feBlend mode="normal" in="SourceGraphic" in2="effect1_dropShadow" result="shape"/>
</filter>
</defs>
</svg>
