<svg width="32" height="32" viewBox="0 0 32 32" fill="none" xmlns="http://www.w3.org/2000/svg">
<path fill-rule="evenodd" clip-rule="evenodd" d="M16 32C24.8366 32 32 24.8366 32 16C32 7.16344 24.8366 0 16 0C7.16344 0 0 7.16344 0 16C0 24.8366 7.16344 32 16 32ZM20.2675 10.3004H18.7095C17.4878 10.3004 17.2517 10.9006 17.251 11.7774V13.8674H20.008L19.6304 16.901H17.2517V24.5333H14.2124V16.9003H11.7335V13.8667H14.2124V11.4766C14.2124 8.87964 15.7512 7.46666 17.9976 7.46666C19.0743 7.46666 19.9987 7.54986 20.2675 7.58684V10.3004Z" fill="#6D7E99"/>
</svg>
