<svg width="172" height="40" viewBox="0 0 172 40" fill="none" xmlns="http://www.w3.org/2000/svg">
<path fill-rule="evenodd" clip-rule="evenodd" d="M50.6766 14.3778L51.7829 11.7187L52.8763 14.3778H50.6766ZM51.0411 9.73747L47.6729 17.6309H49.3566L50.0878 15.8437H53.4666L54.1982 17.6309H55.9246L52.5661 9.73747H51.0411Z" fill="#02307A"/>
<path fill-rule="evenodd" clip-rule="evenodd" d="M57.4143 11.2442H61.6318L57.2764 16.3816V17.6308H63.7558V16.1762H59.4011L63.7558 11.041V9.79146H57.4143V11.2442Z" fill="#02307A"/>
<path fill-rule="evenodd" clip-rule="evenodd" d="M68.7322 16.273C67.5622 16.273 66.8445 15.4669 66.6945 14.3894H70.8245C70.6199 15.5096 69.8464 16.273 68.7322 16.273ZM68.624 9.66209C67.0892 9.66209 66.0289 10.2553 65.3097 11.1159L66.3617 12.182C67.0153 11.5158 67.6802 11.1806 68.624 11.1806C69.6975 11.1806 70.5667 11.8169 70.8132 12.9893H64.9444C64.9335 13.1838 64.9233 13.3018 64.9233 13.5171V13.539C64.9233 15.7684 66.1559 17.759 68.7322 17.759C70.9968 17.759 72.6157 15.9394 72.6157 13.7119V13.679C72.6157 11.3089 70.8773 9.66209 68.624 9.66209Z" fill="#02307A"/>
<path fill-rule="evenodd" clip-rule="evenodd" d="M77.6168 13.6141H75.8147V11.2883H77.5832C78.4532 11.2883 78.9892 11.6866 78.9892 12.4414V12.4626C78.9892 13.1507 78.475 13.6141 77.6168 13.6141ZM80.6522 12.3755V12.354C80.6522 11.6322 80.4275 11.0197 79.9978 10.5873C79.4837 10.072 78.7106 9.7917 77.7242 9.7917H74.175V17.6306H75.8147V15.0782H77.2406L78.97 17.6306H80.9002L78.9477 14.799C79.9545 14.4434 80.6522 13.647 80.6522 12.3755Z" fill="#02307A"/>
<path fill-rule="evenodd" clip-rule="evenodd" d="M87.4785 15.2838C87.4785 15.886 86.9957 16.1762 86.2015 16.1762H84.1084V14.3682H86.1367C87.0605 14.3682 87.4785 14.7015 87.4785 15.2622V15.2838ZM84.1084 11.2438H85.8679C86.6187 11.2438 87.0386 11.5567 87.0386 12.0848V12.1071C87.0386 12.7203 86.5445 12.9897 85.762 12.9897H84.1084V11.2438ZM87.6383 13.5394C88.1988 13.2261 88.6787 12.7309 88.6787 11.8381V11.8169C88.6787 11.2779 88.5087 10.8466 88.1532 10.4804C87.7032 10.0396 86.9957 9.79224 86.105 9.79224H82.511V17.6304H86.2015C87.9617 17.6304 89.1204 16.909 89.1204 15.4774V15.4563C89.1204 14.4008 88.5403 13.873 87.6383 13.5394Z" fill="#02307A"/>
<path fill-rule="evenodd" clip-rule="evenodd" d="M93.2347 14.3778L94.3391 11.7187L95.4337 14.3778H93.2347ZM93.6 9.73747L90.2302 17.6309H91.9147L92.6445 15.8437H96.0236L96.753 17.6309H98.4808L95.1216 9.73747H93.6Z" fill="#02307A"/>
<path fill-rule="evenodd" clip-rule="evenodd" d="M101.298 12.9998L99.3776 9.79214H97.4458L100.459 14.5395V17.6307H102.112V14.5078L105.138 9.79214H103.261L101.298 12.9998Z" fill="#02307A"/>
<path fill-rule="evenodd" clip-rule="evenodd" d="M109.42 16.242C108.047 16.242 107.093 15.0893 107.093 13.7119V13.6899C107.093 12.311 108.069 11.1806 109.42 11.1806C110.225 11.1806 110.847 11.5268 111.459 12.0848L112.51 10.8681C111.782 10.1467 110.902 9.66209 109.431 9.66209C107.039 9.66209 105.365 11.4821 105.365 13.7119V13.7331C105.365 15.9825 107.071 17.759 109.366 17.759C110.869 17.759 111.759 17.2218 112.564 16.3706L111.512 15.3042C110.891 15.8754 110.333 16.242 109.42 16.242Z" fill="#02307A"/>
<path fill-rule="evenodd" clip-rule="evenodd" d="M116.532 14.3778L117.639 11.7187L118.732 14.3778H116.532ZM116.896 9.73747L113.527 17.6309H115.213L115.942 15.8437H119.322L120.052 17.6309H121.779L118.422 9.73747H116.896Z" fill="#02307A"/>
<path fill-rule="evenodd" clip-rule="evenodd" d="M128.39 9.79214V14.7336L124.626 9.79214H123.112V17.6307H124.732V12.5269L128.617 17.6307H130.021V9.79214H128.39Z" fill="#02307A"/>
<path fill-rule="evenodd" clip-rule="evenodd" d="M53.0698 27.715C53.0698 28.3278 52.5806 28.6222 51.7751 28.6222H49.6526V26.7877H51.7099C52.6454 26.7877 53.0698 27.126 53.0698 27.6942V27.715ZM49.6526 23.6194H51.4385C52.1995 23.6194 52.6247 23.9361 52.6247 24.4717V24.4933C52.6247 25.1156 52.1233 25.3888 51.3295 25.3888H49.6526V23.6194ZM53.2342 25.946C53.7999 25.629 54.2892 25.127 54.2892 24.2206V24.199C54.2892 23.6523 54.1158 23.215 53.7558 22.8439C53.2982 22.3956 52.5806 22.1448 51.6767 22.1448H48.0303V30.0968H51.7751C53.5602 30.0968 54.7355 29.3655 54.7355 27.9121V27.8905C54.7355 26.8203 54.1478 26.285 53.2342 25.946Z" fill="#02307A"/>
<path fill-rule="evenodd" clip-rule="evenodd" d="M57.812 26.8414H61.5997V25.3452H57.812V23.6413H62.1108V22.1447H56.1565V30.0968H62.164V28.6002H57.812V26.8414Z" fill="#02307A"/>
<path fill-rule="evenodd" clip-rule="evenodd" d="M67.2257 25.4001L65.2773 22.1447H63.3196L66.3772 26.9614V30.0968H68.053V26.93L71.1224 22.1447H69.2181L67.2257 25.4001Z" fill="#02307A"/>
<path fill-rule="evenodd" clip-rule="evenodd" d="M77.9047 27.1584L74.0838 22.1447H72.5493V30.0967H74.1927V24.9188L78.1328 30.0967H79.5579V22.1447H77.9047V27.1584Z" fill="#02307A"/>
<path fill-rule="evenodd" clip-rule="evenodd" d="M85.084 28.7212C83.8978 28.7212 83.1692 27.9018 83.0165 26.8085H87.2065C86.9999 27.9453 86.2159 28.7212 85.084 28.7212ZM84.9758 22.0138C83.4187 22.0138 82.3414 22.6142 81.6117 23.4884L82.6788 24.5704C83.3422 23.8928 84.018 23.5539 84.9758 23.5539C86.0644 23.5539 86.9449 24.1989 87.1955 25.3887H81.2427C81.2314 25.5858 81.2205 25.7057 81.2205 25.9244V25.9459C81.2205 28.2067 82.4722 30.2276 85.084 30.2276C87.3799 30.2276 89.024 28.3822 89.024 26.1215V26.0882C89.024 23.6848 87.26 22.0138 84.9758 22.0138Z" fill="#02307A"/>
<path fill-rule="evenodd" clip-rule="evenodd" d="M92.3502 22.1447H90.6853V30.0968H96.3453V28.5684H92.3502V22.1447Z" fill="#02307A"/>
<path fill-rule="evenodd" clip-rule="evenodd" d="M104.956 22.1447H103.052L101.311 24.788L99.5903 22.1447H97.6307L100.298 26.0549L97.512 30.0968H99.4166L101.267 27.3011L103.105 30.0968H105.064L102.29 26.0232L104.956 22.1447Z" fill="#02307A"/>
<path fill-rule="evenodd" clip-rule="evenodd" d="M109.282 26.7982L110.404 24.1001L111.513 26.7982H109.282ZM109.653 22.0902L106.235 30.0967H107.944L108.684 28.2838H112.112L112.853 30.0967H114.605L111.198 22.0902H109.653Z" fill="#02307A"/>
<path fill-rule="evenodd" clip-rule="evenodd" d="M117.661 22.1447H115.995V30.0968H121.655V28.5684H117.661V22.1447Z" fill="#02307A"/>
<path fill-rule="evenodd" clip-rule="evenodd" d="M128.708 26.1426C128.708 26.5686 128.622 26.973 128.459 27.3229L127.142 26.1214L126.075 27.3229L127.382 28.4473C127.054 28.6009 126.684 28.6879 126.271 28.6879C124.835 28.6879 123.81 27.5193 123.81 26.1214V26.0987C123.81 24.7009 124.813 23.5539 126.249 23.5539C127.686 23.5539 128.708 24.7232 128.708 26.1214V26.1426ZM130.46 26.1214V26.0987C130.46 23.8383 128.708 22.0134 126.271 22.0134C123.832 22.0134 122.059 23.8705 122.059 26.1214V26.1426C122.059 28.4038 123.81 30.2276 126.249 30.2276C127.142 30.2276 127.948 29.9658 128.611 29.5296L129.503 30.3373L130.57 29.1464L129.743 28.4367C130.2 27.7705 130.46 26.973 130.46 26.1214Z" fill="#02307A"/>
<path fill-rule="evenodd" clip-rule="evenodd" d="M140.644 27.715C140.644 28.3278 140.154 28.6222 139.35 28.6222H137.226V26.7877H139.284C140.219 26.7877 140.644 27.126 140.644 27.6942V27.715ZM137.226 23.6194H139.012C139.774 23.6194 140.198 23.9361 140.198 24.4717V24.4933C140.198 25.1156 139.697 25.3888 138.903 25.3888H137.226V23.6194ZM140.807 25.946C141.373 25.629 141.863 25.127 141.863 24.2206V24.199C141.863 23.6523 141.689 23.215 141.331 22.8439C140.872 22.3956 140.154 22.1448 139.25 22.1448H135.605V30.0968H139.35C141.135 30.0968 142.309 29.3655 142.309 27.9121V27.8905C142.309 26.8203 141.721 26.285 140.807 25.946Z" fill="#02307A"/>
<path fill-rule="evenodd" clip-rule="evenodd" d="M146.213 26.7982L147.335 24.1001L148.446 26.7982H146.213ZM146.584 22.0902L143.166 30.0967H144.876L145.614 28.2838H149.044L149.784 30.0967H151.536L148.129 22.0902H146.584Z" fill="#02307A"/>
<path fill-rule="evenodd" clip-rule="evenodd" d="M158.237 27.1584L154.418 22.1447H152.882V30.0967H154.526V24.9188L158.465 30.0967H159.892V22.1447H158.237V27.1584Z" fill="#02307A"/>
<path fill-rule="evenodd" clip-rule="evenodd" d="M168.944 22.1447H166.887L163.578 25.7281V22.1447H161.913V30.0968H163.578V27.6941L164.557 26.678L167.072 30.0968H169.086L165.69 25.5314L168.944 22.1447Z" fill="#02307A"/>
<path fill-rule="evenodd" clip-rule="evenodd" d="M170.324 30.0968H172V22.1448H170.324V30.0968Z" fill="#02307A"/>
<path fill-rule="evenodd" clip-rule="evenodd" d="M30.0073 27.6747C29.8573 26.7195 29.6126 25.8013 29.2738 24.9377C28.42 25.2059 27.5429 25.3867 26.6507 25.4692L25.4845 25.5781L25.3771 26.7486C25.0375 30.425 23.1121 33.8385 19.9263 36.4587C19.1318 35.8049 18.4156 35.1017 17.7839 34.3579C16.8785 34.7623 15.9362 35.0937 14.9599 35.3464C16.0835 36.8366 17.4669 38.2023 19.0956 39.3924L19.9263 40L20.7571 39.3924C24.7601 36.4662 27.3138 32.5053 28.0405 28.1431C28.7057 28.0311 29.3627 27.8715 30.0073 27.6747ZM39.2492 19.1651C36.3337 15.149 32.3868 12.5848 28.0405 11.8554C27.9293 11.1869 27.7695 10.5287 27.5738 9.88102C26.6213 10.032 25.7077 10.2775 24.8468 10.6183C25.114 11.476 25.2938 12.3544 25.3771 13.2499L25.4845 14.42L26.6515 14.5293C30.3137 14.8709 33.7151 16.8014 36.3254 19.9992C35.6752 20.7971 34.9737 21.5159 34.2323 22.1507C34.6356 23.0594 34.9662 24.0051 35.2176 24.9846C36.703 23.8565 38.063 22.4677 39.2492 20.8327L39.8542 19.9992L39.2492 19.1651ZM32.4633 18.2715C31.682 17.7037 30.8644 17.2289 30.0156 16.8585C29.6002 17.6526 29.1083 18.4028 28.5358 19.0947L27.7876 19.9985L28.5358 20.903C30.8852 23.7441 31.9289 27.5238 31.5229 31.6379C30.5007 31.7393 29.4981 31.7502 28.5267 31.6731C28.172 32.6022 27.7393 33.5052 27.2274 34.3765C29.0714 34.6329 31.0118 34.6155 33.0012 34.3019L34.0167 34.1415L34.1765 33.1216C34.9454 28.2123 33.9609 23.5992 31.4012 19.9985C31.7935 19.4469 32.1445 18.8689 32.4633 18.2715ZM21.647 32.5799C22.2143 31.7983 22.6877 30.9766 23.0567 30.1254C22.2644 29.7074 21.5177 29.2133 20.8276 28.6398L19.9263 27.8885L19.0243 28.6398C16.1944 30.9974 12.4296 32.0461 8.3305 31.6379C8.22835 30.6123 8.21817 29.606 8.29507 28.6318C7.37084 28.2743 6.46885 27.8404 5.60229 27.3267C5.34598 29.1777 5.36332 31.1253 5.67617 33.122L5.83523 34.1415L6.85068 34.3019C11.7425 35.0733 16.3399 34.0848 19.9263 31.5164C20.4759 31.9095 21.0526 32.2617 21.647 32.5799ZM12.28 30.1175C13.2313 29.9665 14.1442 29.7202 15.0055 29.3809C14.7394 28.524 14.5589 27.6437 14.4759 26.7494L14.3674 25.5781L13.2019 25.47C9.53931 25.1283 6.13677 23.1967 3.5273 19.9992C4.17825 19.2021 4.87896 18.4834 5.62114 17.8486C5.21782 16.9402 4.88613 15.9941 4.63509 15.0147C3.14962 16.1424 1.79116 17.5308 0.60497 19.1651L0 19.9992L0.60497 20.8327C3.52089 24.8503 7.46507 27.4137 11.8129 28.1431C11.9253 28.8112 12.084 29.4702 12.28 30.1175ZM18.2049 7.41786C17.6391 8.20058 17.1665 9.02188 16.7974 9.87459C17.5894 10.29 18.3364 10.7844 19.0251 11.3594L19.9256 12.1089L20.8276 11.3594C23.6575 9.00032 27.4231 7.95317 31.5229 8.36098C31.6236 9.38733 31.6345 10.3921 31.558 11.3678C32.4841 11.7238 33.3838 12.1577 34.2519 12.6718C34.5074 10.8211 34.4893 8.87434 34.1765 6.87537L34.0167 5.85658L33.0012 5.69807C28.1091 4.92595 23.5136 5.91333 19.9256 8.48317C19.3764 8.08936 18.8001 7.73639 18.2049 7.41786ZM7.39082 21.7266C8.17143 22.2952 8.98975 22.7703 9.83859 23.1407C10.2532 22.3463 10.7451 21.5965 11.3177 20.9038L12.0651 19.9985L11.3177 19.0943C8.96864 16.2536 7.92342 12.4751 8.3305 8.36098C9.35273 8.25846 10.3546 8.24749 11.3263 8.32504C11.6814 7.39705 12.1134 6.49252 12.626 5.62241C10.7817 5.36554 8.84161 5.3837 6.85068 5.69732L5.83523 5.8562L5.67617 6.87574C4.90799 11.785 5.89215 16.3996 8.45149 19.9985C8.05949 20.5508 7.70894 21.13 7.39082 21.7266ZM9.84462 12.3249C9.99577 13.2797 10.2408 14.196 10.5796 15.0608C11.4341 14.7933 12.3094 14.6125 13.2019 14.5293L14.3674 14.4196L14.4759 13.2499C14.8167 9.57421 16.7402 6.15999 19.9263 3.5402C20.7213 4.19354 21.4371 4.89682 22.0695 5.64057C22.9753 5.23692 23.918 4.90363 24.8935 4.65205C23.7699 3.16152 22.3858 1.79772 20.7571 0.607184L19.9263 0L19.0956 0.607184C15.0934 3.5334 12.5389 7.49276 11.8122 11.8554C11.1458 11.9685 10.4911 12.1278 9.84462 12.3249Z" fill="#02307A"/>
</svg>
