<svg width="32" height="32" viewBox="0 0 32 32" fill="none" xmlns="http://www.w3.org/2000/svg">
<path fill-rule="evenodd" clip-rule="evenodd" d="M0 16C0 7.16479 7.16479 0 16 0C24.8352 0 32 7.16479 32 16C32 24.8352 24.8352 32 16 32C7.16479 32 0 24.8352 0 16ZM24.7051 22.0181C24.9321 21.4336 25.0876 20.7659 25.1321 19.7878C25.177 18.8081 25.1875 18.4951 25.1875 16C25.1875 13.5049 25.177 13.1919 25.1323 12.2122C25.0876 11.2341 24.9324 10.5664 24.7051 9.98193C24.4746 9.3689 24.1128 8.81372 23.6455 8.35474C23.1865 7.88721 22.6311 7.52539 22.0181 7.29468C21.4336 7.06787 20.7659 6.9126 19.7878 6.86816C18.8081 6.82324 18.4951 6.8125 16 6.8125C13.5049 6.8125 13.1919 6.82324 12.2122 6.86792C11.2341 6.9126 10.5664 7.06787 9.98193 7.29492C9.3689 7.52563 8.81348 7.88721 8.35474 8.35474C7.88721 8.81348 7.52539 9.3689 7.29468 9.98193C7.06763 10.5664 6.91235 11.2341 6.86792 12.2122C6.823 13.1919 6.8125 13.5049 6.8125 16C6.8125 18.4951 6.823 18.8081 6.86816 19.7881C6.9126 20.7659 7.06812 21.4338 7.29517 22.0181C7.52588 22.6311 7.88745 23.1865 8.35474 23.6453C8.81372 24.1128 9.3689 24.4744 9.98218 24.7051C10.5664 24.9321 11.2344 25.0874 12.2122 25.1321C13.1921 25.1768 13.5049 25.1875 16.0002 25.1875C18.4954 25.1875 18.8083 25.1768 19.7881 25.1321C20.7659 25.0874 21.4338 24.9321 22.0181 24.7051C23.2522 24.2278 24.2278 23.2522 24.7051 22.0181ZM23.1624 10.5815C23.0151 10.1826 22.7803 9.82148 22.4751 9.52509C22.1787 9.21992 21.8179 8.98505 21.4187 8.83784C21.095 8.7121 20.6086 8.56245 19.7129 8.52167C18.7439 8.47748 18.4534 8.46796 16.0002 8.46796C13.5469 8.46796 13.2564 8.47724 12.2876 8.52143C11.3918 8.56245 10.9053 8.7121 10.5818 8.83784C10.1826 8.98505 9.82154 9.21992 9.52539 9.52509C9.22022 9.82148 8.98535 10.1823 8.83789 10.5815C8.71216 10.9052 8.5625 11.3918 8.52173 12.2875C8.47754 13.2563 8.46802 13.5468 8.46802 16.0002C8.46802 18.4533 8.47754 18.7438 8.52173 19.7128C8.5625 20.6086 8.71216 21.0949 8.83789 21.4186C8.98535 21.8178 9.21997 22.1787 9.52515 22.475C9.82154 22.7802 10.1824 23.0151 10.5815 23.1623C10.9053 23.2883 11.3918 23.4379 12.2876 23.4787C13.2564 23.5229 13.5466 23.5322 16 23.5322C18.4536 23.5322 18.7441 23.5229 19.7127 23.4787C20.6084 23.4379 21.095 23.2883 21.4187 23.1623C22.22 22.8532 22.8533 22.2199 23.1624 21.4186C23.2881 21.0949 23.4377 20.6086 23.4788 19.7128C23.523 18.7438 23.5322 18.4533 23.5322 16.0002C23.5322 13.5468 23.523 13.2563 23.4788 12.2875C23.438 11.3918 23.2883 10.9052 23.1624 10.5815ZM16.0002 20.7177C13.3945 20.7177 11.2822 18.6057 11.2822 15.9999C11.2822 13.3942 13.3945 11.2822 16.0002 11.2822C18.6057 11.2822 20.718 13.3942 20.718 15.9999C20.718 18.6057 18.6057 20.7177 16.0002 20.7177ZM20.9045 12.1982C20.2957 12.1982 19.802 11.7045 19.802 11.0956C19.802 10.4868 20.2957 9.99311 20.9045 9.99311C21.5134 9.99311 22.0071 10.4868 22.0071 11.0956C22.0068 11.7045 21.5134 12.1982 20.9045 12.1982ZM19.0625 16C19.0625 17.6914 17.6914 19.0625 16 19.0625C14.3086 19.0625 12.9375 17.6914 12.9375 16C12.9375 14.3086 14.3086 12.9375 16 12.9375C17.6914 12.9375 19.0625 14.3086 19.0625 16Z" fill="#6D7E99"/>
</svg>
