<svg width="20" height="22" viewBox="0 0 20 22" fill="none" xmlns="http://www.w3.org/2000/svg">
<path d="M1.57111e-07 20.4952V1.50744C1.57111e-07 0.8448 0.388411 0.27192 0.95103 0L12.0443 10.9982L0.946585 22C0.662461 21.8619 0.423144 21.6477 0.255818 21.3817C0.088492 21.1157 -0.000136202 20.8086 1.57111e-07 20.4952ZM15.564 14.4866L3.43437 21.4298L13.0007 11.946L15.564 14.4866ZM19.3343 9.67032C19.5397 9.82531 19.7065 10.0248 19.8218 10.2535C19.9372 10.4822 19.9982 10.7341 20 10.9897C20.0018 11.2454 19.9444 11.4981 19.8322 11.7283C19.7201 11.9586 19.5562 12.1604 19.353 12.3182L16.7755 13.7931L13.957 10.9982L16.7746 8.20424L19.3343 9.67032ZM3.44148 0.572L15.5622 7.50992L13.0007 10.0487L3.44148 0.572Z" fill="#677387"/>
</svg>
