<svg width="525" height="970" viewBox="0 0 525 970" fill="none" xmlns="http://www.w3.org/2000/svg">
<g opacity="0.7">
<path d="M435.103 828.292L435.103 844.259" stroke="#303B4E" stroke-width="2"/>
<path d="M443.086 836.276L427.119 836.276" stroke="#303B4E" stroke-width="2"/>
<path d="M514.273 602.757L514.273 618.724" stroke="url(#paint0_radial)" stroke-width="2"/>
<path d="M522.257 610.741L506.29 610.741" stroke="url(#paint1_radial)" stroke-width="2"/>
<path d="M467.702 437.099L467.702 453.066" stroke="#303B4E" stroke-width="2"/>
<path d="M475.686 445.082L459.719 445.082" stroke="#303B4E" stroke-width="2"/>
<path d="M264.787 130.398L264.787 146.365" stroke="#303B4E" stroke-width="2"/>
<path d="M272.771 138.381L256.804 138.381" stroke="#303B4E" stroke-width="2"/>
<path d="M122.414 371.235L122.414 387.202" stroke="#303B4E" stroke-opacity="0.5" stroke-width="2"/>
<path d="M130.398 379.218L114.431 379.218" stroke="#303B4E" stroke-opacity="0.5" stroke-width="2"/>
<path d="M41.2484 520.261L41.2484 536.228" stroke="#303B4E" stroke-width="2"/>
<path d="M49.2319 528.244L33.2649 528.244" stroke="#303B4E" stroke-width="2"/>
<path d="M7.98364 379.218L7.98364 395.185" stroke="#303B4E" stroke-opacity="0.5" stroke-width="2"/>
<path d="M15.9672 387.202L8.61883e-05 387.202" stroke="#303B4E" stroke-opacity="0.5" stroke-width="2"/>
<path d="M61.2072 913.45L61.2072 929.417" stroke="#303B4E" stroke-opacity="0.5" stroke-width="2"/>
<path d="M69.1907 921.433L53.2237 921.433" stroke="#303B4E" stroke-opacity="0.5" stroke-width="2"/>
<path d="M427.119 3.05176e-05L427.119 15.9671" stroke="#303B4E" stroke-opacity="0.5" stroke-width="2"/>
<path d="M435.103 7.98358L419.136 7.98358" stroke="#303B4E" stroke-opacity="0.5" stroke-width="2"/>
<path d="M7.98364 759.102L7.98364 775.069" stroke="#303B4E" stroke-opacity="0.5" stroke-width="2"/>
<path d="M15.9671 767.085L2.51532e-05 767.085" stroke="#303B4E" stroke-opacity="0.5" stroke-width="2"/>
<path d="M176.303 504.294L176.303 520.261" stroke="#303B4E" stroke-width="2"/>
<path d="M184.287 512.277L168.32 512.277" stroke="#303B4E" stroke-width="2"/>
<path d="M85.8232 681.927L85.8232 697.894" stroke="url(#paint2_radial)" stroke-width="2"/>
<path d="M93.8067 689.911L77.8396 689.911" stroke="url(#paint3_radial)" stroke-width="2"/>
<path d="M57.2154 219.547L57.2154 235.514" stroke="#303B4E" stroke-width="2"/>
<path d="M65.199 227.531L49.2319 227.531" stroke="#303B4E" stroke-width="2"/>
<path d="M451.07 108.443L451.07 124.41" stroke="#303B4E" stroke-width="2"/>
<path d="M459.054 116.427L443.087 116.427" stroke="#303B4E" stroke-width="2"/>
<path d="M514.606 240.837L514.606 261.461" stroke="url(#paint4_radial)" stroke-width="2"/>
<path d="M524.918 251.149L504.294 251.149" stroke="url(#paint5_radial)" stroke-width="2"/>
<path d="M188.611 31.9342L188.611 56.5501" stroke="#303B4E" stroke-opacity="0.5" stroke-width="2"/>
<path d="M200.919 44.2421L176.303 44.2421" stroke="#303B4E" stroke-opacity="0.5" stroke-width="2"/>
<path d="M269.112 490.988L269.112 508.951" stroke="#303B4E" stroke-opacity="0.5" stroke-width="2"/>
<path d="M278.093 499.969L260.13 499.969" stroke="#303B4E" stroke-opacity="0.5" stroke-width="2"/>
<path d="M122.414 828.292L122.414 840.267" stroke="url(#paint6_radial)" stroke-width="2"/>
<path d="M128.402 834.28L116.427 834.28" stroke="url(#paint7_radial)" stroke-width="2"/>
<path d="M194.266 883.512L194.266 895.487" stroke="#303B4E" stroke-width="2"/>
<path d="M200.254 889.499L188.278 889.499" stroke="#303B4E" stroke-width="2"/>
<path d="M93.8066 88.4843L93.8066 100.46" stroke="url(#paint8_radial)" stroke-width="2"/>
<path d="M99.7943 94.4719L87.8189 94.4719" stroke="url(#paint9_radial)" stroke-width="2"/>
<path d="M152.353 182.956L152.353 194.931" stroke="url(#paint10_radial)" stroke-width="2"/>
<path d="M158.34 188.944L146.365 188.944" stroke="url(#paint11_radial)" stroke-width="2"/>
<path d="M300.713 3.05176e-05L300.713 11.9753" stroke="url(#paint12_radial)" stroke-width="2"/>
<path d="M306.701 5.9877L294.726 5.9877" stroke="url(#paint13_radial)" stroke-width="2"/>
<path d="M325.662 857.565L325.662 882.181" stroke="#303B4E" stroke-opacity="0.5" stroke-width="2"/>
<path d="M337.97 869.873L313.354 869.873" stroke="#303B4E" stroke-opacity="0.5" stroke-width="2"/>
<path d="M414.811 945.384L414.811 970" stroke="url(#paint14_radial)" stroke-width="2"/>
<path d="M427.119 957.692L402.503 957.692" stroke="url(#paint15_radial)" stroke-width="2"/>
</g>
<defs>
<radialGradient id="paint0_radial" cx="0" cy="0" r="1" gradientUnits="userSpaceOnUse" gradientTransform="translate(514.146 603.84) rotate(93.5594) scale(14.0547 11.4264)">
<stop stop-color="#065BFF"/>
<stop offset="1" stop-color="#0851DD"/>
</radialGradient>
<radialGradient id="paint1_radial" cx="0" cy="0" r="1" gradientUnits="userSpaceOnUse" gradientTransform="translate(521.174 610.613) rotate(-176.441) scale(14.0547 11.4264)">
<stop stop-color="#065BFF"/>
<stop offset="1" stop-color="#0851DD"/>
</radialGradient>
<radialGradient id="paint2_radial" cx="0" cy="0" r="1" gradientUnits="userSpaceOnUse" gradientTransform="translate(85.6957 683.01) rotate(93.5594) scale(14.0547 11.4264)">
<stop stop-color="#065BFF"/>
<stop offset="1" stop-color="#0851DD"/>
</radialGradient>
<radialGradient id="paint3_radial" cx="0" cy="0" r="1" gradientUnits="userSpaceOnUse" gradientTransform="translate(92.7242 689.783) rotate(-176.441) scale(14.0547 11.4264)">
<stop stop-color="#065BFF"/>
<stop offset="1" stop-color="#0851DD"/>
</radialGradient>
<radialGradient id="paint4_radial" cx="0" cy="0" r="1" gradientUnits="userSpaceOnUse" gradientTransform="translate(514.478 242.235) rotate(92.757) scale(18.1399 11.4352)">
<stop stop-color="#065BFF"/>
<stop offset="1" stop-color="#0851DD"/>
</radialGradient>
<radialGradient id="paint5_radial" cx="0" cy="0" r="1" gradientUnits="userSpaceOnUse" gradientTransform="translate(523.52 251.021) rotate(-177.243) scale(18.1399 11.4352)">
<stop stop-color="#065BFF"/>
<stop offset="1" stop-color="#0851DD"/>
</radialGradient>
<radialGradient id="paint6_radial" cx="0" cy="0" r="1" gradientUnits="userSpaceOnUse" gradientTransform="translate(122.287 829.104) rotate(94.7411) scale(10.5568 11.4093)">
<stop stop-color="#065BFF"/>
<stop offset="1" stop-color="#0851DD"/>
</radialGradient>
<radialGradient id="paint7_radial" cx="0" cy="0" r="1" gradientUnits="userSpaceOnUse" gradientTransform="translate(127.59 834.152) rotate(-175.259) scale(10.5568 11.4093)">
<stop stop-color="#065BFF"/>
<stop offset="1" stop-color="#0851DD"/>
</radialGradient>
<radialGradient id="paint8_radial" cx="0" cy="0" r="1" gradientUnits="userSpaceOnUse" gradientTransform="translate(93.6792 89.2961) rotate(94.7411) scale(10.5568 11.4093)">
<stop stop-color="#065BFF"/>
<stop offset="1" stop-color="#0851DD"/>
</radialGradient>
<radialGradient id="paint9_radial" cx="0" cy="0" r="1" gradientUnits="userSpaceOnUse" gradientTransform="translate(98.9824 94.3445) rotate(-175.259) scale(10.5568 11.4093)">
<stop stop-color="#065BFF"/>
<stop offset="1" stop-color="#0851DD"/>
</radialGradient>
<radialGradient id="paint10_radial" cx="0" cy="0" r="1" gradientUnits="userSpaceOnUse" gradientTransform="translate(152.225 183.768) rotate(94.7411) scale(10.5568 11.4093)">
<stop stop-color="#065BFF"/>
<stop offset="1" stop-color="#0851DD"/>
</radialGradient>
<radialGradient id="paint11_radial" cx="0" cy="0" r="1" gradientUnits="userSpaceOnUse" gradientTransform="translate(157.528 188.816) rotate(-175.259) scale(10.5568 11.4093)">
<stop stop-color="#065BFF"/>
<stop offset="1" stop-color="#0851DD"/>
</radialGradient>
<radialGradient id="paint12_radial" cx="0" cy="0" r="1" gradientUnits="userSpaceOnUse" gradientTransform="translate(300.586 0.811915) rotate(94.7411) scale(10.5568 11.4093)">
<stop stop-color="#065BFF"/>
<stop offset="1" stop-color="#0851DD"/>
</radialGradient>
<radialGradient id="paint13_radial" cx="0" cy="0" r="1" gradientUnits="userSpaceOnUse" gradientTransform="translate(305.889 5.86025) rotate(-175.259) scale(10.5568 11.4093)">
<stop stop-color="#065BFF"/>
<stop offset="1" stop-color="#0851DD"/>
</radialGradient>
<radialGradient id="paint14_radial" cx="0" cy="0" r="1" gradientUnits="userSpaceOnUse" gradientTransform="translate(414.684 947.053) rotate(92.3105) scale(21.6434 11.4392)">
<stop stop-color="#065BFF"/>
<stop offset="1" stop-color="#0851DD"/>
</radialGradient>
<radialGradient id="paint15_radial" cx="0" cy="0" r="1" gradientUnits="userSpaceOnUse" gradientTransform="translate(425.451 957.564) rotate(-177.69) scale(21.6434 11.4392)">
<stop stop-color="#065BFF"/>
<stop offset="1" stop-color="#0851DD"/>
</radialGradient>
</defs>
</svg>
