<svg width="40" height="40" viewBox="0 0 40 40" fill="none" xmlns="http://www.w3.org/2000/svg">
<path fill-rule="evenodd" clip-rule="evenodd" d="M33.2852 19.104L35.7462 9.35425C38.1281 9.13452 40 7.12585 40 4.6875C40 2.10266 37.8973 0 35.3125 0C32.7277 0 30.625 2.10266 30.625 4.6875C30.625 6.31256 31.4566 7.74689 32.7164 8.58826L30.2557 18.338C29.8889 18.3005 29.5169 18.2812 29.1406 18.2812C26.709 18.2812 24.4617 19.0845 22.6495 20.4398L19.5602 17.3505C20.9155 15.5383 21.7188 13.291 21.7188 10.8594C21.7188 4.87152 16.8472 0 10.8594 0C4.87152 0 0 4.87152 0 10.8594C0 15.3772 2.77344 19.2587 6.70685 20.8929L4.17969 30.6531C1.83319 30.907 0 32.8995 0 35.3125C0 37.8973 2.10266 40 4.6875 40C7.27234 40 9.375 37.8973 9.375 35.3125C9.375 33.6609 8.51562 32.2073 7.22168 31.3721L9.73602 21.6608C10.1053 21.6989 10.48 21.7188 10.8594 21.7188C13.291 21.7188 15.5383 20.9152 17.3505 19.5599L20.4398 22.6495C19.0845 24.4617 18.2812 26.709 18.2812 29.1406C18.2812 35.1285 23.1528 40 29.1406 40C35.1285 40 40 35.1285 40 29.1406C40 24.6198 37.2229 20.7361 33.2852 19.104ZM35.3125 3.125C36.174 3.125 36.875 3.82599 36.875 4.6875C36.875 5.54901 36.174 6.25 35.3125 6.25C34.451 6.25 33.75 5.54901 33.75 4.6875C33.75 3.82599 34.451 3.125 35.3125 3.125ZM4.6875 36.875C3.82599 36.875 3.125 36.174 3.125 35.3125C3.125 34.451 3.82599 33.75 4.6875 33.75C5.54901 33.75 6.25 34.451 6.25 35.3125C6.25 36.174 5.54901 36.875 4.6875 36.875ZM3.12601 10.9856C3.12534 10.9436 3.125 10.9015 3.125 10.8594C3.125 6.5878 6.5878 3.125 10.8594 3.125C15.131 3.125 18.5938 6.5878 18.5938 10.8594C18.5938 10.9261 18.5929 10.9927 18.5912 11.059C18.4853 15.2383 15.0642 18.5938 10.8594 18.5938C6.62995 18.5938 3.19342 15.199 3.12601 10.9856ZM21.4088 29.3402C21.5126 33.4393 24.8057 36.7459 28.8994 36.8713C28.9795 36.8738 29.0599 36.875 29.1406 36.875C29.2259 36.875 29.3108 36.8736 29.3954 36.8709C33.4654 36.7391 36.7407 33.4629 36.871 29.3926C36.8736 29.3089 36.875 29.2249 36.875 29.1406C36.875 24.869 33.4122 21.4062 29.1406 21.4062C24.869 21.4062 21.4062 24.869 21.4062 29.1406C21.4062 29.2074 21.4071 29.2739 21.4088 29.3402Z" fill="#3E8FD6"/>
</svg>
