<svg width="65" height="40" viewBox="0 0 65 40" fill="none" xmlns="http://www.w3.org/2000/svg">
<path d="M19.1818 32.25H21.5779L12.6091 8.25H10.3461L1.36055 32.25H3.77332L6.43569 24.8986H16.5194L19.1818 32.25ZM11.4276 11.0608H11.5275L15.8372 22.9361H7.11793L11.4276 11.0608Z" fill="url(#paint0_radial)"/>
<path d="M29.4153 32.25V10.3124H37.3525V8.25H19.2151V10.3124H27.1356V32.25H29.4153Z" fill="url(#paint1_radial)"/>
<path d="M63.3605 32.25V8.25H60.7315L51.8458 29.2562H51.7459L42.8436 8.25H40.2312V32.25H42.3611V12.5577H42.4609L50.7975 32.1336H52.7776L61.1308 12.5577H61.2306V32.25H63.3605Z" fill="url(#paint2_radial)"/>
<path fill-rule="evenodd" clip-rule="evenodd" d="M19.0065 32.5L16.3441 25.1486H6.61104L3.94867 32.5H1L10.1727 8H12.7825L21.9382 32.5H19.0065ZM6.43569 24.8986H16.5194L19.1818 32.25H21.5779L12.6091 8.25H10.3461L1.36055 32.25H3.77332L6.43569 24.8986ZM29.6653 32.5H26.8856V10.5624H18.9651V8H37.6025V10.5624H29.6653V32.5ZM29.4153 32.25H27.1356V10.3124H19.2151V8.25H37.3525V10.3124H29.4153V32.25ZM63.6105 32.5H60.9806V13.5466L52.9427 32.3836H50.6322L42.6111 13.5484V32.5H39.9812V8H43.0092L51.7957 28.7329L60.5658 8H63.6105V32.5ZM51.8458 29.2562H51.7459L42.8436 8.25H40.2312V32.25H42.3611V12.5577H42.4609L50.7975 32.1336H52.7776L61.1308 12.5577H61.2306V32.25H63.3605V8.25H60.7315L51.8458 29.2562ZM15.8372 22.9361H7.11793L11.4276 11.0608H11.5275L15.8372 22.9361ZM11.4776 11.6561L7.47461 22.6861H15.4805L11.4776 11.6561Z" fill="url(#paint3_radial)"/>
<path fill-rule="evenodd" clip-rule="evenodd" d="M19.0065 32.5L16.3441 25.1486H6.61107L3.94869 32.5H1.00002L10.1727 8H12.7826L21.9383 32.5H19.0065ZM6.96177 25.6486L4.29939 33H0.278931L9.82603 7.5H13.1295L22.6589 33H18.6558L15.9934 25.6486H6.96177ZM60.5658 8H63.6106V32.5H60.9807V13.5466L52.9428 32.3836H50.6322L42.6111 13.5484V32.5H39.9812V8H43.0092L51.7957 28.7329L60.5658 8ZM51.7953 27.4505L60.2344 7.5H64.1106V33H60.4807V15.9923L53.273 32.8836H50.3017L43.1111 15.9986V33H39.4812V7.5H43.3404L51.7953 27.4505ZM11.4776 11.6561L15.4805 22.6861H7.47463L11.4776 11.6561ZM11.4776 13.1217L8.188 22.1861H14.7672L11.4776 13.1217ZM30.1653 33H26.3857V11.0624H18.4651V7.5H38.1025V11.0624H30.1653V33ZM29.6653 32.5V10.5624H37.6025V8H18.9651V10.5624H26.8857V32.5H29.6653Z" fill="url(#paint4_radial)"/>
<defs>
<radialGradient id="paint0_radial" cx="0" cy="0" r="1" gradientUnits="userSpaceOnUse" gradientTransform="translate(9.28075 13.7783) rotate(15.3983) scale(50.487 166.153)">
<stop stop-color="#00A7D3"/>
<stop offset="1" stop-color="#079CC4"/>
</radialGradient>
<radialGradient id="paint1_radial" cx="0" cy="0" r="1" gradientUnits="userSpaceOnUse" gradientTransform="translate(9.28075 13.7783) rotate(15.3983) scale(50.487 166.153)">
<stop stop-color="#00A7D3"/>
<stop offset="1" stop-color="#079CC4"/>
</radialGradient>
<radialGradient id="paint2_radial" cx="0" cy="0" r="1" gradientUnits="userSpaceOnUse" gradientTransform="translate(9.28075 13.7783) rotate(15.3983) scale(50.487 166.153)">
<stop stop-color="#00A7D3"/>
<stop offset="1" stop-color="#079CC4"/>
</radialGradient>
<radialGradient id="paint3_radial" cx="0" cy="0" r="1" gradientUnits="userSpaceOnUse" gradientTransform="translate(9.28075 13.7783) rotate(15.3983) scale(50.487 166.153)">
<stop stop-color="#00A7D3"/>
<stop offset="1" stop-color="#079CC4"/>
</radialGradient>
<radialGradient id="paint4_radial" cx="0" cy="0" r="1" gradientUnits="userSpaceOnUse" gradientTransform="translate(8.72118 13.5142) rotate(15.7045) scale(51.5482 172.678)">
<stop stop-color="#00A7D3"/>
<stop offset="1" stop-color="#079CC4"/>
</radialGradient>
</defs>
</svg>
