<svg width="65" height="40" viewBox="0 0 65 40" fill="none" xmlns="http://www.w3.org/2000/svg">
<path d="M4.63657 4C3.78838 4 3.08969 4.69869 3.08969 5.54688V10.9851L1 15.7516V18.4375C1 19.4886 1.63918 20.3959 2.54688 20.7961V37H33.4844V20.7961C34.3921 20.3959 35.0312 19.4886 35.0312 18.4375V15.7516L32.9416 10.9851V5.54688C32.9416 4.69869 32.2429 4 31.3947 4H4.63657ZM4.63657 5.03125H31.3947C31.686 5.03125 31.9103 5.25553 31.9103 5.54688V11.2016L34 15.9671V18.4375C34 19.2978 33.3134 19.9844 32.4531 19.9844C31.5928 19.9844 30.9062 19.2978 30.9062 18.4375H29.875C29.875 19.2978 29.1884 19.9844 28.3281 19.9844C27.4678 19.9844 26.7812 19.2978 26.7812 18.4375H25.75C25.75 19.2978 25.0634 19.9844 24.2031 19.9844C23.3428 19.9844 22.6562 19.2978 22.6562 18.4375H21.625C21.625 19.2978 20.9384 19.9844 20.0781 19.9844C19.2178 19.9844 18.5312 19.2978 18.5312 18.4375H17.5C17.5 19.2978 16.8134 19.9844 15.9531 19.9844C15.0928 19.9844 14.4062 19.2978 14.4062 18.4375H13.375C13.375 19.2978 12.6884 19.9844 11.8281 19.9844C10.9678 19.9844 10.2812 19.2978 10.2812 18.4375H9.25C9.25 19.2978 8.56344 19.9844 7.70312 19.9844C6.84281 19.9844 6.15625 19.2978 6.15625 18.4375H5.125C5.125 19.2978 4.43844 19.9844 3.57812 19.9844C2.71781 19.9844 2.03125 19.2978 2.03125 18.4375V15.9671L4.12094 11.2016V5.54688C4.12094 5.25553 4.34522 5.03125 4.63657 5.03125ZM5.64062 19.9008C6.10916 20.5576 6.83966 21.0156 7.70312 21.0156C8.56658 21.0156 9.29709 20.5576 9.76562 19.9008C10.2342 20.5576 10.9647 21.0156 11.8281 21.0156C12.6916 21.0156 13.4221 20.5576 13.8906 19.9008C14.3592 20.5576 15.0897 21.0156 15.9531 21.0156C16.8166 21.0156 17.5471 20.5576 18.0156 19.9008C18.4842 20.5576 19.2147 21.0156 20.0781 21.0156C20.9416 21.0156 21.6721 20.5576 22.1406 19.9008C22.6092 20.5576 23.3397 21.0156 24.2031 21.0156C25.0666 21.0156 25.7971 20.5576 26.2656 19.9008C26.7342 20.5576 27.4647 21.0156 28.3281 21.0156C29.1916 21.0156 29.9221 20.5576 30.3906 19.9008C30.8592 20.5576 31.5897 21.0156 32.4531 21.0156V35.9688H28.8438V33.3906C28.8438 33.1328 28.8438 33.1328 28.8438 33.1328C28.8438 32.875 28.8438 33.0118 28.8438 32.875C28.8438 32.7382 28.8438 32.7717 28.8438 32.6172C28.8438 32.4626 28.8438 32.6172 28.8438 32.3594V23.0781H19.5625V32.3594C19.5625 32.6172 19.5625 32.4972 19.5625 32.6172C19.5625 32.7539 19.5625 32.7481 19.5625 32.875C19.5625 33.1328 19.5625 33.1328 19.5625 33.3906V35.9688H3.57812V21.0156C4.44159 21.0156 5.17209 20.5576 5.64062 19.9008ZM7.1875 23.0781V29.7812H15.4375V23.0781H7.1875ZM8.21875 24.1094H14.4062V28.75H8.21875V24.1094ZM20.5938 24.1094H27.8125V35.9688H20.5938V24.1094ZM26.0078 29.7812C25.8027 29.7812 25.606 29.8627 25.4609 30.0078C25.3159 30.1528 25.2344 30.3496 25.2344 30.5547C25.2344 30.7598 25.3159 30.9565 25.4609 31.1016C25.606 31.2466 25.8027 31.3281 26.0078 31.3281C26.2129 31.3281 26.4097 31.2466 26.5547 31.1016C26.6998 30.9565 26.7812 30.7598 26.7812 30.5547C26.7812 30.3496 26.6998 30.1528 26.5547 30.0078C26.4097 29.8627 26.2129 29.7812 26.0078 29.7812Z" fill="#0053F3"/>
<path fill-rule="evenodd" clip-rule="evenodd" d="M2.33969 5.54688C2.33969 4.28447 3.37417 3.25 4.63657 3.25H31.3947C32.6571 3.25 33.6916 4.28447 33.6916 5.54688V10.8279L35.7812 15.5944V18.4375C35.7812 19.6184 35.1594 20.6531 34.2344 21.2428V37.75H1.79688V21.2428C0.871864 20.6531 0.25 19.6184 0.25 18.4375V15.5944L2.33969 10.8279V5.54688ZM4.87094 5.78125V11.3588L2.78125 16.1243V18.4375C2.78125 18.8836 3.13203 19.2344 3.57812 19.2344C4.02422 19.2344 4.375 18.8836 4.375 18.4375V17.6875H6.90625V18.4375C6.90625 18.8836 7.25703 19.2344 7.70312 19.2344C8.14922 19.2344 8.5 18.8836 8.5 18.4375V17.6875H11.0312V18.4375C11.0312 18.8836 11.382 19.2344 11.8281 19.2344C12.2742 19.2344 12.625 18.8836 12.625 18.4375V17.6875H15.1562V18.4375C15.1562 18.8836 15.507 19.2344 15.9531 19.2344C16.3992 19.2344 16.75 18.8836 16.75 18.4375V17.6875H19.2812V18.4375C19.2812 18.8836 19.632 19.2344 20.0781 19.2344C20.5242 19.2344 20.875 18.8836 20.875 18.4375V17.6875H23.4062V18.4375C23.4062 18.8836 23.757 19.2344 24.2031 19.2344C24.6492 19.2344 25 18.8836 25 18.4375V17.6875H27.5312V18.4375C27.5312 18.8836 27.882 19.2344 28.3281 19.2344C28.7742 19.2344 29.125 18.8836 29.125 18.4375V17.6875H31.6562V18.4375C31.6562 18.8836 32.007 19.2344 32.4531 19.2344C32.8992 19.2344 33.25 18.8836 33.25 18.4375V16.1243L31.1603 11.3589V5.78125H4.87094ZM4.32812 21.6753V35.2188H18.8125V22.3281H29.5938V35.2188H31.7031V21.6753C31.2061 21.553 30.763 21.3133 30.3906 20.9997C29.8398 21.4637 29.1343 21.7656 28.3281 21.7656C27.522 21.7656 26.8165 21.4637 26.2656 20.9997C25.7148 21.4637 25.0093 21.7656 24.2031 21.7656C23.397 21.7656 22.6915 21.4637 22.1406 20.9997C21.5898 21.4637 20.8843 21.7656 20.0781 21.7656C19.272 21.7656 18.5665 21.4637 18.0156 20.9997C17.4648 21.4637 16.7593 21.7656 15.9531 21.7656C15.147 21.7656 14.4415 21.4637 13.8906 20.9997C13.3398 21.4637 12.6343 21.7656 11.8281 21.7656C11.022 21.7656 10.3165 21.4637 9.76563 20.9997C9.21476 21.4637 8.50926 21.7656 7.70312 21.7656C6.89699 21.7656 6.19149 21.4637 5.64063 20.9997C5.26823 21.3133 4.82517 21.553 4.32812 21.6753ZM6.4375 22.3281H16.1875V30.5312H6.4375V22.3281ZM8.96875 24.8594V28H13.6562V24.8594H8.96875ZM21.3438 24.8594V35.2188H27.0625V31.654C26.7791 31.9259 26.4013 32.0781 26.0078 32.0781C25.6038 32.0781 25.2163 31.9176 24.9306 31.6319C24.6449 31.3462 24.4844 30.9587 24.4844 30.5547C24.4844 30.1506 24.6449 29.7632 24.9306 29.4775C25.2163 29.1918 25.6038 29.0312 26.0078 29.0312C26.4013 29.0312 26.7791 29.1835 27.0625 29.4554V24.8594H21.3438ZM26.0078 30.5312C26.0016 30.5312 25.9956 30.5337 25.9912 30.5381C25.9868 30.5425 25.9844 30.5485 25.9844 30.5547C25.9844 30.5609 25.9868 30.5669 25.9912 30.5713C25.9956 30.5757 26.0016 30.5781 26.0078 30.5781C26.014 30.5781 26.02 30.5757 26.0244 30.5713C26.0288 30.5669 26.0312 30.5609 26.0312 30.5547C26.0312 30.5485 26.0288 30.5425 26.0244 30.5381C26.02 30.5337 26.014 30.5312 26.0078 30.5312Z" fill="#0053F3"/>
</svg>
