<svg width="40" height="40" viewBox="0 0 40 40" fill="none" xmlns="http://www.w3.org/2000/svg">
<path d="M8.90625 16.0938H3.90625C1.75234 16.0938 0 17.8461 0 20V36.0938C0 38.2477 1.75234 40 3.90625 40H8.90625C11.0602 40 12.8125 38.2477 12.8125 36.0938V20C12.8125 17.8461 11.0602 16.0938 8.90625 16.0938ZM9.6875 36.0938C9.6875 36.5245 9.33703 36.875 8.90625 36.875H3.90625C3.47547 36.875 3.125 36.5245 3.125 36.0938V20C3.125 19.5692 3.47547 19.2188 3.90625 19.2188H8.90625C9.33703 19.2188 9.6875 19.5692 9.6875 20V36.0938Z" fill="#3E8FD6"/>
<path d="M36.0938 16.0938H20.0781C17.9242 16.0938 16.1719 17.8461 16.1719 20V36.0938C16.1719 38.2477 17.9242 40 20.0781 40H36.0938C38.2477 40 40 38.2477 40 36.0938V20C40 17.8461 38.2477 16.0938 36.0938 16.0938ZM36.875 36.0938C36.875 36.5245 36.5245 36.875 36.0938 36.875H20.0781C19.6473 36.875 19.2969 36.5245 19.2969 36.0938V20C19.2969 19.5692 19.6473 19.2188 20.0781 19.2188H36.0938C36.5245 19.2188 36.875 19.5692 36.875 20V36.0938Z" fill="#3E8FD6"/>
<path d="M36.0938 0H3.90625C1.75234 0 0 1.75234 0 3.90625V8.90625C0 11.0602 1.75234 12.8125 3.90625 12.8125H36.0938C38.2477 12.8125 40 11.0602 40 8.90625V3.90625C40 1.75234 38.2477 0 36.0938 0ZM36.875 8.90625C36.875 9.33703 36.5245 9.6875 36.0938 9.6875H3.90625C3.47547 9.6875 3.125 9.33703 3.125 8.90625V3.90625C3.125 3.47547 3.47547 3.125 3.90625 3.125H36.0938C36.5245 3.125 36.875 3.47547 36.875 3.90625V8.90625Z" fill="#3E8FD6"/>
</svg>
