<svg width="40" height="40" viewBox="0 0 40 40" fill="none" xmlns="http://www.w3.org/2000/svg">
<g clip-path="url(#clip0)">
<path d="M39.9991 16.0669L37.7854 13.8531L22.6807 28.9578C22.7185 27.5153 22.4845 26.0666 21.9769 24.6973L19.4342 27.24C19.8767 29.7873 19.1165 32.5046 17.1533 34.4675C13.9493 37.6718 8.73567 37.6718 5.53163 34.4675C2.32729 31.2634 2.32729 26.0498 5.53163 22.8458C7.1335 21.2436 9.23799 20.4425 11.3425 20.4425C12.9498 20.4425 14.5569 20.9103 15.9406 21.8451L9.96156 27.8238L12.1753 30.0375L33.2681 8.9447L31.0544 6.73096L18.1836 19.6017C16.084 18.0133 13.5544 17.2516 11.0422 17.3175L26.146 2.21375L23.9322 0C23.9322 0 3.40944 20.5402 3.31758 20.632C-1.10716 25.0568 -1.10716 32.2565 3.31758 36.6815C5.53011 38.8937 8.43629 40 11.3425 40C14.2487 40 17.1549 38.8937 19.3671 36.6815C19.4589 36.5897 39.9991 16.0669 39.9991 16.0669Z" fill="#3E8FD6"/>
</g>
<defs>
<clipPath id="clip0">
<rect width="40" height="40" fill="white"/>
</clipPath>
</defs>
</svg>
