<svg width="44" height="64" viewBox="0 0 44 64" fill="none" xmlns="http://www.w3.org/2000/svg">
<path fill-rule="evenodd" clip-rule="evenodd" d="M26.7083 54.454H0.962099C0.430616 54.454 0 54.0174 0 53.4785V0.975453C0 0.436593 0.430616 0 0.962099 0H37.0064C37.2616 0 37.5062 0.102807 37.6866 0.285755L42.3944 5.05859C42.5748 5.24154 42.6762 5.48979 42.6762 5.74829V33.1935C42.6762 33.732 42.2456 34.1686 41.7141 34.1686C41.1829 34.1686 40.7523 33.732 40.7523 33.1935V6.15223L36.6079 1.95091H1.92393V52.5034H26.7083C27.2398 52.5034 27.6704 52.94 27.6704 53.4785C27.6704 54.0174 27.2398 54.454 26.7083 54.454Z" fill="white"/>
<path fill-rule="evenodd" clip-rule="evenodd" d="M10.9227 18.6564C10.6682 18.6564 10.4234 18.5541 10.2424 18.3706L7.88865 15.9842C7.51286 15.6032 7.51286 14.9855 7.88865 14.6045C8.26418 14.2238 8.87364 14.2238 9.24917 14.6045L10.8431 16.2208L14.8794 11.1056C15.2113 10.6849 15.8165 10.6166 16.2316 10.9531C16.6463 11.2896 16.7136 11.9035 16.3817 12.3239L11.674 18.2905C11.5028 18.5069 11.2489 18.6396 10.9759 18.6548C10.9581 18.6558 10.9405 18.6564 10.9227 18.6564Z" fill="white"/>
<path fill-rule="evenodd" clip-rule="evenodd" d="M33.6221 17.4632H21.8531C21.3216 17.4632 20.891 17.0266 20.891 16.4877C20.891 15.9491 21.3216 15.5125 21.8531 15.5125H33.6221C34.1536 15.5125 34.5842 15.9491 34.5842 16.4877C34.5842 17.0266 34.1536 17.4632 33.6221 17.4632Z" fill="white"/>
<path fill-rule="evenodd" clip-rule="evenodd" d="M27.7377 12.69H21.8531C21.3219 12.69 20.891 12.2535 20.891 11.7146C20.891 11.176 21.3219 10.7394 21.8531 10.7394H27.7377C28.2692 10.7394 28.6998 11.176 28.6998 11.7146C28.6998 12.2535 28.2692 12.69 27.7377 12.69Z" fill="white"/>
<path fill-rule="evenodd" clip-rule="evenodd" d="M25.3837 30.589H21.8531C21.3216 30.589 20.891 30.1524 20.891 29.6138C20.891 29.075 21.3216 28.6384 21.8531 28.6384H25.3837C25.9152 28.6384 26.3458 29.075 26.3458 29.6138C26.3458 30.1524 25.9152 30.589 25.3837 30.589Z" fill="white"/>
<path fill-rule="evenodd" clip-rule="evenodd" d="M10.9227 31.7819C10.6682 31.7819 10.4234 31.6797 10.2424 31.4962L7.88865 29.11C7.51286 28.729 7.51286 28.1111 7.88865 27.7301C8.26418 27.3494 8.87364 27.3494 9.24917 27.7301L10.8431 29.3464L14.8794 24.2312C15.2113 23.8105 15.8165 23.7419 16.2316 24.0787C16.6463 24.4152 16.7136 25.0293 16.3817 25.4497L11.674 31.416C11.5028 31.6325 11.2489 31.7652 10.9759 31.7806C10.9581 31.7814 10.9405 31.7819 10.9227 31.7819Z" fill="white"/>
<path fill-rule="evenodd" clip-rule="evenodd" d="M31.2686 25.8159H21.8533C21.3219 25.8159 20.8912 25.3793 20.8912 24.8404C20.8912 24.3019 21.3219 23.8653 21.8533 23.8653H31.2686C31.7998 23.8653 32.2307 24.3019 32.2307 24.8404C32.2307 25.3793 31.7998 25.8159 31.2686 25.8159Z" fill="white"/>
<path fill-rule="evenodd" clip-rule="evenodd" d="M10.9227 44.9081C10.6682 44.9081 10.4234 44.8058 10.2424 44.6223L7.88865 42.2359C7.51286 41.8552 7.51286 41.2372 7.88865 40.8562C8.26418 40.4755 8.87364 40.4755 9.24917 40.8562L10.8431 42.4723L14.8794 37.357C15.2113 36.9363 15.8165 36.8681 16.2316 37.2046C16.6463 37.541 16.7136 38.1552 16.3817 38.5756L11.674 44.5419C11.5028 44.7583 11.2489 44.8913 10.9759 44.9065C10.9581 44.9075 10.9405 44.9081 10.9227 44.9081Z" fill="white"/>
<path fill-rule="evenodd" clip-rule="evenodd" d="M34.7998 35.3618C30.7877 35.3618 27.5232 38.6714 27.5232 42.7394C27.5232 46.8071 30.7877 50.1167 34.7998 50.1167C38.8119 50.1167 42.0758 46.8071 42.0758 42.7394C42.0758 38.6714 38.8119 35.3618 34.7998 35.3618ZM34.7998 52.0676C29.7266 52.0676 25.5993 47.8827 25.5993 42.7394C25.5993 37.5955 29.7266 33.4112 34.7998 33.4112C39.873 33.4112 44 37.5955 44 42.7394C44 47.8827 39.873 52.0676 34.7998 52.0676Z" fill="white"/>
<path fill-rule="evenodd" clip-rule="evenodd" d="M30.0918 64C29.9678 64 29.8429 63.9757 29.724 63.9257C29.3644 63.7749 29.1299 63.4193 29.1299 63.0248V49.8987H31.0541V60.6696L34.1196 57.562C34.3 57.379 34.5446 57.2762 34.7998 57.2762C35.0548 57.2762 35.2996 57.379 35.4801 57.562L38.5452 60.6696V49.8987H40.4694V63.0248C40.4694 63.4193 40.2349 63.7749 39.8754 63.9257C39.5161 64.0766 39.102 63.9935 38.8271 63.7142L34.7998 59.631L30.7723 63.7142C30.5881 63.9009 30.3419 64 30.0918 64Z" fill="white"/>
</svg>
