<svg width="52" height="64" viewBox="0 0 52 64" fill="none" xmlns="http://www.w3.org/2000/svg">
<path fill-rule="evenodd" clip-rule="evenodd" d="M22.4079 31.9319C20.4205 31.9319 18.804 33.5681 18.804 35.5798V51.0758C18.804 53.0872 20.4205 54.7237 22.4079 54.7237H34.7121C35.131 54.7237 35.5255 54.8887 35.8222 55.1887L41.8735 61.3133V56.3141C41.8735 55.4371 42.5783 54.7237 43.4445 54.7237H46.3768C48.3642 54.7237 49.9807 53.0872 49.9807 51.0758V35.5798C49.9807 33.5681 48.3642 31.9319 46.3768 31.9319H22.4079ZM42.3199 64C41.9118 64 41.5114 63.838 41.2103 63.533L34.5268 56.7676H22.4079C19.3073 56.7676 16.7847 54.2143 16.7847 51.0758V35.5798C16.7847 32.4413 19.3073 29.8879 22.4079 29.8879H46.3768C49.4772 29.8879 52 32.4413 52 35.5798V51.0758C52 54.2143 49.4772 56.7676 46.3768 56.7676H43.8925V62.4087C43.8925 63.0542 43.5121 63.6309 42.9224 63.8779C42.7272 63.9598 42.5226 64 42.3199 64Z" fill="white"/>
<path fill-rule="evenodd" clip-rule="evenodd" d="M30.2694 40.6276C29.0686 40.6276 27.9762 40.025 27.4854 39.0922C27.2237 38.5937 27.41 37.9752 27.9027 37.71C28.3957 37.4445 29.007 37.6342 29.2682 38.1321C29.3861 38.3566 29.7681 38.5836 30.2694 38.5836C30.7715 38.5836 31.1531 38.3569 31.2703 38.1326C31.5321 37.6342 32.1443 37.4448 32.6359 37.7097C33.1286 37.9743 33.3152 38.5932 33.054 39.0916C32.5638 40.0248 31.4708 40.6276 30.2694 40.6276Z" fill="white"/>
<path fill-rule="evenodd" clip-rule="evenodd" d="M34.3921 50.7674C30.3962 50.7674 26.8103 48.8556 25.2557 45.897C24.994 45.3988 25.1808 44.78 25.673 44.5148C26.1665 44.2499 26.7762 44.4393 27.0385 44.9375C28.2468 47.2374 31.1334 48.7234 34.3921 48.7234C37.6508 48.7234 40.5374 47.2371 41.746 44.9372C42.008 44.4393 42.6177 44.2496 43.1118 44.5151C43.6036 44.7803 43.7905 45.3991 43.5288 45.8973C41.9739 48.8556 38.3875 50.7674 34.3921 50.7674Z" fill="white"/>
<path fill-rule="evenodd" clip-rule="evenodd" d="M38.515 40.6276C37.3139 40.6276 36.2212 40.025 35.7304 39.0922C35.4687 38.5937 35.655 37.9752 36.1474 37.71C36.6396 37.4445 37.2515 37.6342 37.5132 38.1321C37.6311 38.3566 38.0131 38.5836 38.515 38.5836C39.0163 38.5836 39.3983 38.3566 39.5162 38.1321C39.7776 37.6342 40.3904 37.4445 40.882 37.71C41.3744 37.9752 41.5607 38.5937 41.299 39.0922C40.8082 40.025 39.7158 40.6276 38.515 40.6276Z" fill="white"/>
<path fill-rule="evenodd" clip-rule="evenodd" d="M15.6823 2.04397C12.2511 2.04397 9.45907 5.23494 9.45907 9.15701C9.45907 13.2051 12.3673 16.7561 15.6823 16.7561C18.9978 16.7561 21.9057 13.2051 21.9057 9.15701C21.9057 5.23494 19.114 2.04397 15.6823 2.04397ZM15.6823 18.8004C11.2142 18.8004 7.43976 14.3841 7.43976 9.15701C7.43976 4.10786 11.1373 0 15.6823 0C20.2272 0 23.925 4.10786 23.925 9.15701C23.925 14.3841 20.1504 18.8004 15.6823 18.8004Z" fill="white"/>
<path fill-rule="evenodd" clip-rule="evenodd" d="M13.902 41.8399H2.66672C1.19612 41.8399 0 40.6289 0 39.1404V35.9219C0 27.1688 7.03502 20.0479 15.6823 20.0479C21.1017 20.0479 25.6197 22.1951 28.4026 26.0944C28.729 26.5516 28.6275 27.1906 28.1753 27.521C27.7239 27.8519 27.0917 27.7483 26.7659 27.2914C24.3723 23.9382 20.4363 22.0915 15.6823 22.0915C8.14823 22.0915 2.01931 28.2958 2.01931 35.9219V39.1404C2.01931 39.5019 2.30961 39.796 2.66672 39.796H13.902C14.4596 39.796 14.9118 40.2537 14.9118 40.8178C14.9118 41.3825 14.4596 41.8399 13.902 41.8399Z" fill="white"/>
<path fill-rule="evenodd" clip-rule="evenodd" d="M7.40542 41.84C6.84785 41.84 6.39563 41.3825 6.39563 40.8178V33.0383C6.39563 32.4739 6.84785 32.0164 7.40542 32.0164C7.963 32.0164 8.41494 32.4739 8.41494 33.0383V40.8178C8.41494 41.3825 7.963 41.84 7.40542 41.84Z" fill="white"/>
<path fill-rule="evenodd" clip-rule="evenodd" d="M34.6014 5.10586C31.7836 5.10586 29.4906 7.73525 29.4906 10.9672C29.4906 14.3089 31.8787 17.2403 34.6014 17.2403C37.3242 17.2403 39.7125 14.3089 39.7125 10.9672C39.7125 7.73525 37.4195 5.10586 34.6014 5.10586ZM34.6014 19.2842C30.7364 19.2842 27.4713 15.4755 27.4713 10.9672C27.4713 6.60845 30.6698 3.06189 34.6014 3.06189C38.533 3.06189 41.7318 6.60845 41.7318 10.9672C41.7318 15.4755 38.4665 19.2842 34.6014 19.2842Z" fill="white"/>
<path fill-rule="evenodd" clip-rule="evenodd" d="M44.9672 27.7149C44.6392 27.7149 44.3178 27.5535 44.1237 27.256C43.8953 26.9063 43.6435 26.5634 43.3757 26.237C41.1992 23.5882 38.0009 22.0688 34.6014 22.0688C32.8879 22.0688 31.2412 22.4438 29.7069 23.1827C29.2036 23.4252 28.6011 23.2088 28.3616 22.6989C28.122 22.1892 28.3358 21.5794 28.8393 21.3369C30.6465 20.4663 32.5854 20.0248 34.6014 20.0248C38.6031 20.0248 42.367 21.8129 44.9286 24.9303C45.2439 25.3139 45.5395 25.7175 45.8087 26.1295C46.1159 26.6002 45.9881 27.2341 45.5228 27.5454C45.3518 27.6599 45.1585 27.7149 44.9672 27.7149Z" fill="white"/>
</svg>
