<svg width="64" height="64" viewBox="0 0 64 64" fill="none" xmlns="http://www.w3.org/2000/svg">
<path fill-rule="evenodd" clip-rule="evenodd" d="M45.9892 28.2203H56.5163C56.5945 26.5756 57.0887 23.3703 60.2092 19.6366C61.708 17.6294 62.5002 15.2833 62.5002 12.8501C62.5002 6.59814 57.4557 1.51171 51.2548 1.51171H51.2507C45.0501 1.51171 40.0053 6.59814 40.0053 12.8501C40.0053 15.2831 40.7975 17.6294 42.2965 19.6366C45.4168 23.3703 45.911 26.5756 45.9892 28.2203ZM57.2514 29.732H45.2541C44.84 29.732 44.5043 29.3936 44.5043 28.9762C44.5043 27.7838 44.5043 24.6168 41.1371 20.5955C41.1285 20.5852 41.1199 20.5746 41.1118 20.5637C39.4066 18.2883 38.5055 15.6212 38.5055 12.8501C38.5055 5.76461 44.223 0 51.2507 0H51.2548C58.2825 0 64 5.76461 64 12.8501C64 15.6212 63.0989 18.2886 61.3939 20.5637C61.3856 20.5746 61.3773 20.5852 61.3684 20.5958C58.0012 24.6168 58.0012 27.7838 58.0012 28.9762C58.0012 29.3936 57.6655 29.732 57.2514 29.732Z" fill="white"/>
<path fill-rule="evenodd" clip-rule="evenodd" d="M53.2522 25.7007C52.8381 25.7007 52.5024 25.3623 52.5024 24.9448C52.5024 23.0321 52.8913 16.6391 54.5913 13.6062H47.9142C49.6142 16.6391 50.0031 23.0321 50.0031 24.9448C50.0031 25.3623 49.6671 25.7007 49.2533 25.7007C48.8392 25.7007 48.5032 25.3623 48.5032 24.9448C48.5032 20.363 47.3504 14.2483 45.9185 13.5266C45.6075 13.3695 45.4442 13.0177 45.5241 12.6768C45.6039 12.3353 45.9063 12.0945 46.2539 12.0945H56.2516C56.5992 12.0945 56.9016 12.3353 56.9815 12.6768C57.0613 13.0177 56.898 13.3695 56.587 13.5266C55.1551 14.2483 54.0023 20.363 54.0023 24.9448C54.0023 25.3623 53.6663 25.7007 53.2522 25.7007Z" fill="white"/>
<path fill-rule="evenodd" clip-rule="evenodd" d="M57.2514 37.7951H45.2541C44.8399 37.7951 44.5043 37.4564 44.5043 37.0393V28.9761C44.5043 28.5586 44.8399 28.2202 45.2541 28.2202C45.6682 28.2202 46.0038 28.5586 46.0038 28.9761V36.2831H56.5016V28.9761C56.5016 28.5586 56.8373 28.2202 57.2514 28.2202C57.6655 28.2202 58.0012 28.5586 58.0012 28.9761V37.0393C58.0012 37.4564 57.6655 37.7951 57.2514 37.7951Z" fill="white"/>
<path fill-rule="evenodd" clip-rule="evenodd" d="M57.2514 33.7639H45.2541C44.8399 33.7639 44.5043 33.4252 44.5043 33.008C44.5043 32.5906 44.8399 32.2522 45.2541 32.2522H57.2514C57.6655 32.2522 58.0012 32.5906 58.0012 33.008C58.0012 33.4252 57.6655 33.7639 57.2514 33.7639Z" fill="white"/>
<path fill-rule="evenodd" clip-rule="evenodd" d="M53.2522 41.8265H49.2533C47.7371 41.8265 46.5039 40.5833 46.5039 39.0549V37.0393C46.5039 36.6219 46.8396 36.2832 47.2537 36.2832C47.6678 36.2832 48.0035 36.6219 48.0035 37.0393V39.0549C48.0035 39.7495 48.5642 40.3148 49.2533 40.3148H53.2522C53.9413 40.3148 54.502 39.7495 54.502 39.0549V37.0393C54.502 36.6219 54.8377 36.2832 55.2518 36.2832C55.6659 36.2832 56.0016 36.6219 56.0016 37.0393V39.0549C56.0016 40.5833 54.7684 41.8265 53.2522 41.8265Z" fill="white"/>
<path fill-rule="evenodd" clip-rule="evenodd" d="M51.2526 64.0001C50.8385 64.0001 50.5026 63.6615 50.5026 63.2443V41.0708C50.5026 40.6536 50.8385 40.3149 51.2526 40.3149C51.6667 40.3149 52.0024 40.6536 52.0024 41.0708V63.2443C52.0024 63.6615 51.6667 64.0001 51.2526 64.0001Z" fill="white"/>
<path fill-rule="evenodd" clip-rule="evenodd" d="M52.2319 60.2411C53.2858 60.4881 56.3329 60.9617 58.4353 58.8423C60.5167 56.744 60.5555 53.3009 60.4776 51.9287C59.1166 51.8501 55.7009 51.889 53.6195 53.9875C51.5176 56.1061 51.9863 59.177 52.2319 60.2411ZM54.201 61.9892C52.6513 61.9892 51.4799 61.6075 51.3829 61.5748C51.1589 61.4996 50.9835 61.3225 50.9087 61.0967C50.8427 60.8972 49.3304 56.1732 52.559 52.9184C55.7255 49.7259 61.05 50.4508 61.275 50.4832C61.6049 50.5307 61.864 50.7922 61.9112 51.1247C61.9436 51.3516 62.6623 56.7189 59.4955 59.9111C57.8471 61.5734 55.8181 61.9892 54.201 61.9892Z" fill="white"/>
<path fill-rule="evenodd" clip-rule="evenodd" d="M42.0282 44.8737C41.9501 46.246 41.9892 49.6888 44.0705 51.7873C46.1721 53.9057 49.2181 53.4335 50.2739 53.1859C50.5189 52.1235 50.9885 49.0517 48.8863 46.9326C46.8052 44.8343 43.3906 44.7946 42.0282 44.8737ZM48.3048 54.9343C46.6877 54.9343 44.659 54.5185 43.01 52.8562C39.8432 49.664 40.5622 44.2967 40.5944 44.0695C40.6415 43.7373 40.9006 43.4757 41.2308 43.4282C41.4558 43.3958 46.78 42.671 49.9468 45.8635C53.1752 49.118 51.6629 53.8423 51.5969 54.0418C51.5223 54.2675 51.3469 54.4447 51.1229 54.5199C51.0259 54.5526 49.8542 54.9343 48.3048 54.9343Z" fill="white"/>
<path fill-rule="evenodd" clip-rule="evenodd" d="M6.08113 55.0065H14.1081C14.1996 53.8913 14.6638 52.1264 17.0155 49.3584C18.1702 47.8344 18.7808 46.0553 18.7808 44.2127C18.7808 39.4639 14.885 35.6005 10.0964 35.6005H10.0928C5.30418 35.6005 1.40837 39.4639 1.40837 44.2127C1.40837 46.0553 2.01873 47.8344 3.17375 49.3584C5.52593 52.127 5.98966 53.8919 6.08113 55.0065ZM14.7897 56.4266H5.39926C5.01037 56.4266 4.69521 56.1088 4.69521 55.7165C4.69521 54.8808 4.69521 53.3271 2.0919 50.2679C2.08359 50.2582 2.07527 50.2481 2.06751 50.2378C0.714856 48.4603 0 46.3769 0 44.2127C0 38.6809 4.52751 34.1804 10.0928 34.1804H10.0964C15.6617 34.1804 20.1892 38.6809 20.1892 44.2127C20.1892 46.3769 19.4744 48.4603 18.1217 50.2378C18.1139 50.2481 18.1056 50.2582 18.0973 50.2679C15.494 53.3271 15.494 54.8808 15.494 55.7157C15.494 55.904 15.42 56.0851 15.2878 56.2181C15.1556 56.3514 14.9765 56.4266 14.7897 56.4266Z" fill="white"/>
<path fill-rule="evenodd" clip-rule="evenodd" d="M11.9727 52.6401C11.5838 52.6401 11.2684 52.3221 11.2684 51.9301C11.2684 48.6686 11.5968 46.4203 12.2862 45.0668H7.9028C8.59215 46.4203 8.92089 48.6689 8.92089 51.9301C8.92089 52.3221 8.60546 52.6401 8.21657 52.6401C7.8274 52.6401 7.51224 52.3221 7.51224 51.9301C7.51224 46.3326 6.47447 45.2152 6.0282 44.9944C5.73411 44.8488 5.57833 44.5183 5.65234 44.1964C5.72635 43.8747 6.01074 43.6467 6.33837 43.6467H13.8506C14.1785 43.6467 14.4626 43.8747 14.5366 44.1964C14.6109 44.5183 14.4551 44.8488 14.1608 44.9944C13.7148 45.2149 12.677 46.3323 12.677 51.9301C12.677 52.3221 12.3616 52.6401 11.9727 52.6401Z" fill="white"/>
<path fill-rule="evenodd" clip-rule="evenodd" d="M14.7897 60.2132H5.39927C5.01038 60.2132 4.69522 59.8952 4.69522 59.5034V55.7166C4.69522 55.3246 5.01038 55.0066 5.39927 55.0066C5.78816 55.0066 6.10359 55.3246 6.10359 55.7166V58.7934H14.0854V55.7166C14.0854 55.3246 14.4008 55.0066 14.7897 55.0066C15.1786 55.0066 15.494 55.3246 15.494 55.7166V59.5034C15.494 59.8952 15.1786 60.2132 14.7897 60.2132Z" fill="white"/>
<path fill-rule="evenodd" clip-rule="evenodd" d="M11.3712 64H8.81806C7.58016 64 6.57315 62.9846 6.57315 61.7367V59.5035C6.57315 59.1114 6.88859 58.7935 7.27747 58.7935C7.66636 58.7935 7.98152 59.1114 7.98152 59.5035V61.7367C7.98152 62.2016 8.35683 62.58 8.81806 62.58H11.3712C11.8322 62.58 12.2075 62.2016 12.2075 61.7367V59.5035C12.2075 59.1114 12.5226 58.7935 12.9118 58.7935C13.3007 58.7935 13.6161 59.1114 13.6161 59.5035V61.7367C13.6161 62.9846 12.6088 64 11.3712 64Z" fill="white"/>
<path fill-rule="evenodd" clip-rule="evenodd" d="M32.4942 20.0093C32.107 21.808 31.8126 24.0814 32.1622 24.8487C32.4238 25.426 32.887 25.8603 33.4671 26.0732C34.032 26.2802 34.6424 26.2512 35.1846 25.9905C36.3304 25.4406 36.826 24.0272 36.2891 22.8399C35.9435 22.0762 34.0758 20.8565 32.4942 20.0093ZM34.2308 27.7226C33.8014 27.7226 33.3707 27.6464 32.9546 27.4938C31.9936 27.1414 31.2281 26.4258 30.7987 25.4786C30.0165 23.7609 31.0448 19.5404 31.2588 18.7116C31.3154 18.4934 31.4656 18.3121 31.6685 18.2168C31.8714 18.1218 32.1062 18.1232 32.308 18.2204C33.0636 18.5845 36.8732 20.4894 37.6534 22.2126C38.528 24.1462 37.7094 26.4532 35.8293 27.3555C35.3209 27.5994 34.7768 27.7226 34.2308 27.7226Z" fill="white"/>
<path fill-rule="evenodd" clip-rule="evenodd" d="M18.4975 20.0093C18.1103 21.808 17.8159 24.0814 18.1655 24.8487C18.4271 25.426 18.8903 25.8603 19.4704 26.0732C20.0353 26.2802 20.6454 26.2512 21.1879 25.9905C22.3338 25.4406 22.8294 24.0272 22.2925 22.8399C21.9468 22.0762 20.0791 20.8565 18.4975 20.0093ZM20.2341 27.7226C19.8047 27.7226 19.374 27.6464 18.9579 27.4938C17.9969 27.1414 17.2314 26.4258 16.802 25.4786C16.0198 23.7609 17.0481 19.5404 17.2618 18.7116C17.3187 18.4934 17.4689 18.3121 17.6718 18.2168C17.8747 18.1218 18.1095 18.1232 18.3113 18.2204C19.0669 18.5845 22.8765 20.4894 23.6568 22.2126C24.5313 24.1462 23.7127 26.4532 21.8326 27.3555C21.324 27.5994 20.7801 27.7226 20.2341 27.7226Z" fill="white"/>
<path fill-rule="evenodd" clip-rule="evenodd" d="M26.4957 34.1198C26.1085 35.9184 25.8141 38.1916 26.1636 38.9592C26.4253 39.5365 26.8885 39.9707 27.4686 40.1833C28.0338 40.3907 28.6436 40.3613 29.1863 40.1006C30.3322 39.551 30.8275 38.1377 30.2906 36.9504C29.945 36.1867 28.0773 34.967 26.4957 34.1198ZM28.2325 41.8328C27.8029 41.8328 27.3721 41.7568 26.9561 41.6042C25.9951 41.2519 25.2298 40.5363 24.8002 39.5887C24.018 37.8711 25.0463 33.6506 25.2603 32.8221C25.3168 32.6039 25.4671 32.4222 25.67 32.3272C25.8729 32.2322 26.1076 32.2333 26.3094 32.3309C27.0653 32.695 30.8746 34.5995 31.6552 36.3228C32.5294 38.2567 31.7109 40.5636 29.8308 41.4659C29.3224 41.7099 28.7786 41.8328 28.2325 41.8328Z" fill="white"/>
<path fill-rule="evenodd" clip-rule="evenodd" d="M24.4958 5.8993C24.1086 7.69798 23.8142 9.97113 24.1638 10.7387C24.4254 11.316 24.8889 11.75 25.469 11.9629C26.0342 12.17 26.644 12.1409 27.1864 11.8802C28.3323 11.3306 28.8279 9.9172 28.2907 8.72991C27.9451 7.96623 26.0774 6.74625 24.4958 5.8993ZM26.2326 13.6124C25.8033 13.6124 25.3726 13.5364 24.9565 13.3838C23.9955 13.0314 23.2299 12.3158 22.8003 11.3683C22.0181 9.65063 23.0464 5.43014 23.2604 4.60164C23.317 4.38312 23.4672 4.20177 23.6701 4.10677C23.873 4.01176 24.1078 4.01288 24.3096 4.1104C25.0654 4.4745 28.8748 6.37908 29.6553 8.10232C30.5298 10.036 29.7113 12.3429 27.8312 13.2455C27.3225 13.4894 26.7787 13.6124 26.2326 13.6124Z" fill="white"/>
<path fill-rule="evenodd" clip-rule="evenodd" d="M10.4989 5.8993C10.1116 7.69798 9.81728 9.97113 10.1668 10.7387C10.4285 11.316 10.8919 11.75 11.4721 11.9629C12.037 12.17 12.647 12.1409 13.1895 11.8802C14.3354 11.3306 14.831 9.9172 14.2938 8.72991C13.9481 7.96623 12.0805 6.74625 10.4989 5.8993ZM12.2357 13.6124C11.8063 13.6124 11.3756 13.5364 10.9593 13.3838C9.99855 13.0314 9.23297 12.3158 8.80334 11.3683C8.02113 9.65063 9.04948 5.43014 9.26346 4.60164C9.32001 4.38312 9.47024 4.20177 9.67314 4.10677C9.87631 4.01176 10.1111 4.01288 10.3126 4.1104C11.0685 4.4745 14.8778 6.37908 15.6584 8.10232C16.5329 10.036 15.7144 12.3429 13.8342 13.2455C13.3256 13.4894 12.7818 13.6124 12.2357 13.6124Z" fill="white"/>
<path fill-rule="evenodd" clip-rule="evenodd" d="M4.50034 20.0093C4.11311 21.808 3.81875 24.0814 4.16827 24.8487C4.42993 25.426 4.89311 25.8603 5.47325 26.0732C6.03843 26.2802 6.64823 26.2512 7.19096 25.9905C8.33684 25.4406 8.83216 24.0272 8.29526 22.8402C7.94961 22.0762 6.08195 20.8565 4.50034 20.0093ZM6.23717 27.7226C5.80781 27.7226 5.37707 27.6464 4.96074 27.4938C4.00002 27.1414 3.23444 26.4258 2.80481 25.4786C2.0226 23.7609 3.05095 19.5404 3.26466 18.7116C3.32148 18.4934 3.47171 18.3121 3.67461 18.2168C3.87751 18.1218 4.11228 18.1232 4.31407 18.2204C5.06967 18.5845 8.87928 20.4894 9.65956 22.2126C10.5343 24.1462 9.71582 26.4532 7.83541 27.3555C7.32706 27.5994 6.78295 27.7226 6.23717 27.7226Z" fill="white"/>
</svg>
