<svg width="120" height="120" viewBox="0 0 120 120" fill="none" xmlns="http://www.w3.org/2000/svg">
<path fill-rule="evenodd" clip-rule="evenodd" d="M86.2298 52.9131H105.968C106.115 49.8292 107.041 43.8193 112.892 36.8185C115.703 33.0552 117.188 28.6563 117.188 24.0939C117.188 12.3715 107.73 2.83445 96.1029 2.83445H96.0951C84.469 2.83445 75.0101 12.3715 75.0101 24.0939C75.0101 28.6557 76.4954 33.0552 79.3061 36.8185C85.1565 43.8193 86.0832 49.8292 86.2298 52.9131ZM107.346 55.7475H84.8515C84.075 55.7475 83.4456 55.1131 83.4456 54.3303C83.4456 52.0947 83.4456 46.1565 77.1321 38.6167C77.116 38.5973 77.0999 38.5774 77.0848 38.5569C73.8875 34.2906 72.1979 29.2897 72.1979 24.0939C72.1979 10.8086 82.9181 0 96.0951 0H96.1029C109.28 0 120 10.8086 120 24.0939C120 29.2897 118.31 34.2911 115.114 38.5569C115.098 38.5774 115.082 38.5973 115.066 38.6172C108.752 46.1565 108.752 52.0947 108.752 54.3303C108.752 55.1131 108.123 55.7475 107.346 55.7475Z" fill="white"/>
<path fill-rule="evenodd" clip-rule="evenodd" d="M99.8479 48.1889C99.0715 48.1889 98.4421 47.5544 98.4421 46.7717C98.4421 43.1854 99.1713 31.1984 102.359 25.5117H89.8392C93.0266 31.1984 93.7558 43.1854 93.7558 46.7717C93.7558 47.5544 93.1259 48.1889 92.3499 48.1889C91.5735 48.1889 90.9436 47.5544 90.9436 46.7717C90.9436 38.1808 88.7821 26.7157 86.0972 25.3624C85.5141 25.0679 85.208 24.4083 85.3576 23.7691C85.5073 23.1289 86.0743 22.6772 86.7261 22.6772H105.472C106.124 22.6772 106.691 23.1289 106.84 23.7691C106.99 24.4083 106.684 25.0679 106.101 25.3624C103.416 26.7157 101.254 38.1808 101.254 46.7717C101.254 47.5544 100.624 48.1889 99.8479 48.1889Z" fill="white"/>
<path fill-rule="evenodd" clip-rule="evenodd" d="M107.346 70.866H84.8513C84.0749 70.866 83.4455 70.231 83.4455 69.4488V54.3303C83.4455 53.5476 84.0749 52.9131 84.8513 52.9131C85.6278 52.9131 86.2572 53.5476 86.2572 54.3303V68.031H105.94V54.3303C105.94 53.5476 106.57 52.9131 107.346 52.9131C108.123 52.9131 108.752 53.5476 108.752 54.3303V69.4488C108.752 70.231 108.123 70.866 107.346 70.866Z" fill="white"/>
<path fill-rule="evenodd" clip-rule="evenodd" d="M107.346 63.3073H84.8513C84.0749 63.3073 83.4455 62.6723 83.4455 61.8901C83.4455 61.1074 84.0749 60.4729 84.8513 60.4729H107.346C108.123 60.4729 108.752 61.1074 108.752 61.8901C108.752 62.6723 108.123 63.3073 107.346 63.3073Z" fill="white"/>
<path fill-rule="evenodd" clip-rule="evenodd" d="M99.8479 78.4247H92.3499C89.5071 78.4247 87.1948 76.0937 87.1948 73.2278V69.4488C87.1948 68.666 87.8242 68.031 88.6007 68.031C89.3771 68.031 90.0065 68.666 90.0065 69.4488V73.2278C90.0065 74.5303 91.0579 75.5902 92.3499 75.5902H99.8479C101.14 75.5902 102.191 74.5303 102.191 73.2278V69.4488C102.191 68.666 102.821 68.031 103.597 68.031C104.374 68.031 105.003 68.666 105.003 69.4488V73.2278C105.003 76.0937 102.691 78.4247 99.8479 78.4247Z" fill="white"/>
<path fill-rule="evenodd" clip-rule="evenodd" d="M96.0987 120C95.3222 120 94.6923 119.365 94.6923 118.583V77.0076C94.6923 76.2253 95.3222 75.5903 96.0987 75.5903C96.8751 75.5903 97.5045 76.2253 97.5045 77.0076V118.583C97.5045 119.365 96.8751 120 96.0987 120Z" fill="white"/>
<path fill-rule="evenodd" clip-rule="evenodd" d="M97.9348 112.952C99.9108 113.415 105.624 114.303 109.566 110.329C113.469 106.395 113.541 99.9392 113.395 97.3662C110.844 97.219 104.439 97.2918 100.537 101.227C96.5955 105.199 97.4744 110.957 97.9348 112.952ZM101.627 116.23C98.7212 116.23 96.5248 115.514 96.3429 115.453C95.923 115.312 95.594 114.98 95.4537 114.556C95.33 114.182 92.4944 105.325 98.5481 99.222C104.485 93.2361 114.469 94.5951 114.891 94.6559C115.509 94.745 115.995 95.2354 116.083 95.8589C116.144 96.2843 117.492 106.348 111.554 112.333C108.463 115.45 104.659 116.23 101.627 116.23Z" fill="white"/>
<path fill-rule="evenodd" clip-rule="evenodd" d="M78.8029 84.1382C78.6564 86.7112 78.7296 93.1665 82.6322 97.1012C86.5727 101.073 92.2839 100.188 94.2635 99.7235C94.7229 97.7315 95.6034 91.9719 91.6618 87.9985C87.7598 84.0643 81.3573 83.9899 78.8029 84.1382ZM90.5714 103.002C87.5394 103.002 83.7356 102.222 80.6438 99.1052C74.706 93.1199 76.0541 83.0563 76.1144 82.6303C76.2028 82.0074 76.6887 81.517 77.3077 81.4279C77.7297 81.3671 87.7125 80.008 93.6503 85.9939C99.7034 92.0961 96.8678 100.954 96.7441 101.328C96.6043 101.752 96.2754 102.084 95.8554 102.225C95.6735 102.286 93.4767 103.002 90.5714 103.002Z" fill="white"/>
<path fill-rule="evenodd" clip-rule="evenodd" d="M11.4021 103.137H26.4527C26.6242 101.046 27.4947 97.7371 31.904 92.5471C34.0691 89.6896 35.2141 86.3538 35.2141 82.899C35.2141 73.9948 27.9094 66.751 18.9308 66.751H18.924C9.94534 66.751 2.64069 73.9948 2.64069 82.899C2.64069 86.3538 3.78511 89.6896 5.95078 92.5471C10.3611 97.7382 11.2306 101.047 11.4021 103.137ZM27.7306 105.8H10.1236C9.39444 105.8 8.80352 105.204 8.80352 104.469C8.80352 102.902 8.80352 99.9885 3.92232 94.2525C3.90673 94.2342 3.89114 94.2153 3.87658 94.1959C1.34036 90.8632 0 86.9568 0 82.899C0 72.5268 8.48909 64.0884 18.924 64.0884H18.9308C29.3657 64.0884 37.8548 72.5268 37.8548 82.899C37.8548 86.9568 36.5144 90.8632 33.9782 94.1959C33.9636 94.2153 33.9481 94.2342 33.9325 94.2525C29.0513 99.9885 29.0513 102.902 29.0513 104.467C29.0513 104.82 28.9125 105.16 28.6646 105.409C28.4167 105.659 28.0809 105.8 27.7306 105.8Z" fill="white"/>
<path fill-rule="evenodd" clip-rule="evenodd" d="M22.4487 98.7003C21.7196 98.7003 21.1281 98.104 21.1281 97.369C21.1281 91.2537 21.744 87.0382 23.0366 84.5003H14.8177C16.1103 87.0382 16.7266 91.2542 16.7266 97.369C16.7266 98.104 16.1352 98.7003 15.406 98.7003C14.6764 98.7003 14.0854 98.104 14.0854 97.369C14.0854 86.8736 12.1396 84.7785 11.3029 84.3646C10.7514 84.0916 10.4594 83.4718 10.5981 82.8682C10.7369 82.2652 11.2701 81.8376 11.8844 81.8376H25.9698C26.5847 81.8376 27.1174 82.2652 27.2561 82.8682C27.3954 83.4718 27.1034 84.0916 26.5514 84.3646C25.7152 84.7779 23.7694 86.8731 23.7694 97.369C23.7694 98.104 23.1779 98.7003 22.4487 98.7003Z" fill="white"/>
<path fill-rule="evenodd" clip-rule="evenodd" d="M27.7307 112.9H10.1236C9.39445 112.9 8.80353 112.304 8.80353 111.569V104.469C8.80353 103.734 9.39445 103.137 10.1236 103.137C10.8528 103.137 11.4442 103.734 11.4442 104.469V110.238H26.41V104.469C26.41 103.734 27.0015 103.137 27.7307 103.137C28.4598 103.137 29.0513 103.734 29.0513 104.469V111.569C29.0513 112.304 28.4598 112.9 27.7307 112.9Z" fill="white"/>
<path fill-rule="evenodd" clip-rule="evenodd" d="M21.321 120H16.5338C14.2128 120 12.3246 118.096 12.3246 115.756V111.569C12.3246 110.834 12.9161 110.238 13.6453 110.238C14.3744 110.238 14.9653 110.834 14.9653 111.569V115.756C14.9653 116.628 15.669 117.337 16.5338 117.337H21.321C22.1853 117.337 22.889 116.628 22.889 115.756V111.569C22.889 110.834 23.4799 110.238 24.2096 110.238C24.9387 110.238 25.5302 110.834 25.5302 111.569V115.756C25.5302 118.096 23.6415 120 21.321 120Z" fill="white"/>
<path fill-rule="evenodd" clip-rule="evenodd" d="M60.9267 37.5175C60.2006 40.89 59.6487 45.1527 60.3041 46.5914C60.7947 47.6738 61.6631 48.488 62.7509 48.8872C63.8101 49.2754 64.9545 49.221 65.9711 48.7321C68.1196 47.701 69.0489 45.051 68.0422 42.8248C67.3941 41.3929 63.8922 39.106 60.9267 37.5175ZM64.1827 51.98C63.3777 51.98 62.57 51.8369 61.7899 51.5509C59.9881 50.8902 58.5526 49.5484 57.7476 47.7723C56.2809 44.5517 58.2091 36.6383 58.6103 35.0843C58.7163 34.6751 58.998 34.3351 59.3785 34.1564C59.7589 33.9783 60.1991 33.9809 60.5774 34.1633C61.9942 34.8459 69.1372 38.4176 70.6002 41.6486C72.2399 45.2742 70.7052 49.5998 67.1799 51.2915C66.2268 51.7489 65.2066 51.98 64.1827 51.98Z" fill="white"/>
<path fill-rule="evenodd" clip-rule="evenodd" d="M34.6829 37.5175C33.9569 40.89 33.4049 45.1527 34.0603 46.5914C34.5509 47.6738 35.4194 48.488 36.5072 48.8872C37.5663 49.2754 38.7102 49.221 39.7273 48.7321C41.8759 47.701 42.8051 45.051 41.7984 42.8248C41.1503 41.3929 37.6485 39.106 34.6829 37.5175ZM37.939 51.98C37.1339 51.98 36.3263 51.8369 35.5462 51.5509C33.7443 50.8902 32.3089 49.5484 31.5038 47.7723C30.0372 44.5517 31.9653 36.6383 32.366 35.0843C32.4726 34.6751 32.7543 34.3351 33.1347 34.1564C33.5151 33.9783 33.9553 33.9809 34.3337 34.1633C35.7504 34.8459 42.8935 38.4176 44.3565 41.6486C45.9962 45.2742 44.4615 49.5998 40.9362 51.2915C39.9825 51.7489 38.9628 51.98 37.939 51.98Z" fill="white"/>
<path fill-rule="evenodd" clip-rule="evenodd" d="M49.6794 63.9742C48.9534 67.3467 48.4015 71.6088 49.0568 73.0481C49.5474 74.1305 50.4159 74.9447 51.5037 75.3434C52.5634 75.7322 53.7067 75.6772 54.7244 75.1883C56.8729 74.1578 57.8016 71.5077 56.7949 69.2816C56.1468 67.8497 52.645 65.5627 49.6794 63.9742ZM52.936 78.4361C52.1304 78.4361 51.3228 78.2936 50.5427 78.0076C48.7408 77.3469 47.3059 76.0051 46.5003 74.2285C45.0337 71.0079 46.9618 63.0945 47.3631 61.5411C47.4691 61.1319 47.7508 60.7913 48.1312 60.6132C48.5116 60.4351 48.9518 60.4371 49.3302 60.62C50.7475 61.3027 57.89 64.8738 59.3535 68.1048C60.9927 71.7309 59.458 76.0565 55.9327 77.7482C54.9795 78.2056 53.9598 78.4361 52.936 78.4361Z" fill="white"/>
<path fill-rule="evenodd" clip-rule="evenodd" d="M45.9296 11.0613C45.2036 14.4339 44.6516 18.696 45.307 20.1353C45.7976 21.2177 46.6666 22.0314 47.7544 22.4306C48.8141 22.8188 49.9575 22.7643 50.9745 22.2755C53.1231 21.2449 54.0523 18.5949 53.0451 16.3687C52.397 14.9368 48.8951 12.6494 45.9296 11.0613ZM49.1862 25.5233C48.3811 25.5233 47.5735 25.3808 46.7934 25.0948C44.9915 24.4341 43.5561 23.0923 42.7505 21.3157C41.2839 18.0951 43.212 10.1817 43.6132 8.62822C43.7193 8.21851 44.0009 7.87848 44.3814 7.70034C44.7618 7.52221 45.202 7.5243 45.5804 7.70716C46.9977 8.38983 54.1402 11.9609 55.6037 15.192C57.2434 18.8176 55.7087 23.1431 52.1834 24.8354C51.2297 25.2928 50.21 25.5233 49.1862 25.5233Z" fill="white"/>
<path fill-rule="evenodd" clip-rule="evenodd" d="M19.6854 11.0613C18.9594 14.4339 18.4074 18.696 19.0628 20.1353C19.5534 21.2177 20.4224 22.0314 21.5102 22.4306C22.5693 22.8188 23.7132 22.7643 24.7303 22.2755C26.8789 21.2449 27.8081 18.5949 26.8009 16.3687C26.1528 14.9368 22.6509 12.6494 19.6854 11.0613ZM22.942 25.5233C22.1369 25.5233 21.3293 25.3808 20.5487 25.0948C18.7473 24.4341 17.3119 23.0923 16.5063 21.3157C15.0397 18.0951 16.9678 10.1817 17.369 8.62822C17.4751 8.21851 17.7567 7.87848 18.1372 7.70034C18.5181 7.52221 18.9583 7.5243 19.3362 7.70716C20.7534 8.38983 27.8959 11.9609 29.3595 15.192C30.9992 18.8176 29.4645 23.1431 25.9392 24.8354C24.9855 25.2928 23.9658 25.5233 22.942 25.5233Z" fill="white"/>
<path fill-rule="evenodd" clip-rule="evenodd" d="M8.43818 37.5175C7.71213 40.89 7.16019 45.1527 7.81556 46.5914C8.30617 47.6738 9.17462 48.488 10.2624 48.8872C11.3221 49.2754 12.4655 49.221 13.4831 48.7321C15.6316 47.701 16.5604 45.051 15.5537 42.8254C14.9056 41.3929 11.4037 39.106 8.43818 37.5175ZM11.6947 51.98C10.8897 51.98 10.0821 51.8369 9.30143 51.5509C7.50009 50.8902 6.06463 49.5484 5.25906 47.7723C3.79241 44.5517 5.72057 36.6383 6.12127 35.0843C6.22782 34.6751 6.5095 34.3351 6.88994 34.1564C7.27037 33.9783 7.71057 33.9809 8.08893 34.1633C9.50568 34.8459 16.6487 38.4176 18.1117 41.6486C19.7519 45.2742 18.2172 49.5998 14.6914 51.2915C13.7383 51.7489 12.7181 51.98 11.6947 51.98Z" fill="white"/>
</svg>
