<svg width="198" height="48" viewBox="0 0 198 48" fill="none" xmlns="http://www.w3.org/2000/svg">
<path d="M53.182 11.3213H64.2247C67.5002 11.3213 69.9366 12.0975 71.497 13.6875C72.5625 14.8125 73.2102 16.2488 73.2102 18.2269V18.3825C73.2102 21.4856 71.4584 23.31 69.2888 24.3581C72.1834 25.4063 74.1247 27.2288 74.1247 30.7988V30.9544C74.1247 35.61 70.6211 38.4806 64.2615 38.4806H53.1802V11.3213H53.182ZM66.4716 19.6631C66.4716 17.9944 65.2902 17.1413 63.2734 17.1413H59.847V22.2244H63.1225C65.2552 22.2244 66.4734 21.3713 66.4734 19.7025V19.6631H66.4716ZM67.3107 29.985C67.3107 28.395 66.1311 27.3469 63.8457 27.3469H59.847V32.6625H63.8825C66.0539 32.6625 67.3088 31.6931 67.3088 30.0244V29.985H67.3107Z" fill="#0757B6"/>
<path d="M75.4351 27.7331V11.3213H82.3651V27.7725C82.3651 31.0706 83.8887 32.6231 86.2864 32.6231C88.686 32.6231 90.2078 31.1494 90.2078 27.8888V11.3213H97.0991V27.5775C97.0991 35.5313 92.7582 38.985 86.2091 38.985C79.6619 38.985 75.4351 35.4544 75.4351 27.7331Z" fill="#0757B6"/>
<path d="M133.841 11.3213H140.733V38.4806H133.841V11.3213Z" fill="#0757B6"/>
<path d="M143.106 33.2438L154.188 17.3738H143.451V11.3213H163.175V16.5206L152.057 32.3906H163.175V38.4825H143.106V33.2438Z" fill="#0757B6"/>
<path d="M165.808 11.3213H172.699V38.4806H165.808V11.3213Z" fill="#0757B6"/>
<path d="M133.841 4.125H140.733V9.45H133.841V4.125Z" fill="#0757B6"/>
<path d="M165.808 4.125H172.699V9.45H165.808V4.125Z" fill="#0757B6"/>
<path d="M175.534 11.3213H182.388V22.0688L189.738 11.3213H197.582L189.357 22.8844L197.886 38.4825H189.889L184.519 28.5881L182.386 31.4213V38.4825H175.532V11.3213H175.534Z" fill="#0757B6"/>
<path d="M111.097 11.3213H122.14C125.415 11.3213 127.852 12.0975 129.412 13.6875C130.477 14.8125 131.125 16.2488 131.125 18.2269V18.3825C131.125 21.4856 129.373 23.31 127.204 24.3581C130.098 25.4063 132.04 27.2288 132.04 30.7988V30.9544C132.04 35.61 128.536 38.4806 122.177 38.4806H111.095V11.3213H111.097ZM124.385 19.6631C124.385 17.9944 123.203 17.1413 121.187 17.1413H117.76V22.2244H121.036C123.168 22.2244 124.387 21.3713 124.387 19.7025V19.6631H124.385ZM125.224 29.985C125.224 28.395 124.044 27.3469 121.759 27.3469H117.76V32.6625H121.796C123.967 32.6625 125.222 31.6931 125.222 30.0244V29.985H125.224Z" fill="#0757B6"/>
<path d="M32.8357 23.9869L33.7208 25.0688C36.4976 28.47 37.7342 32.9982 37.2612 37.9276C36.0541 38.0513 34.8709 38.0644 33.7245 37.9744C33.3068 39.0882 32.797 40.1701 32.1953 41.2163C34.3722 41.5219 36.6614 41.4976 39.0094 41.1188L40.2073 40.9257L40.395 39.7032C41.2967 33.8194 40.1282 28.2938 37.1011 23.9813L32.8357 23.9869Z" fill="#0757B6"/>
<path d="M14.2793 24.0094L13.3961 22.9275C10.6193 19.5262 9.38086 15 9.85562 10.0706C11.0628 9.94687 12.2441 9.93187 13.3924 10.0237C13.8101 8.91187 14.318 7.82625 14.9215 6.78375C12.7447 6.47812 10.4555 6.5025 8.10564 6.88125L6.9077 7.0725L6.72185 8.295C5.82201 14.1787 6.99051 19.7062 10.0157 24.015L14.2793 24.0094Z" fill="#0757B6"/>
<path d="M23.5465 14.5444L24.6101 13.6444C27.9482 10.8131 32.3903 9.55312 37.2299 10.0369C37.3495 11.2669 37.3642 12.4706 37.2759 13.6387C38.3689 14.0644 39.4325 14.5819 40.4575 15.1969C40.7574 12.9787 40.7335 10.6462 40.3618 8.25187L40.1723 7.03124L38.9743 6.84187C33.1999 5.92312 27.777 7.11374 23.5447 10.1962L23.5465 14.5444Z" fill="#0757B6"/>
<path d="M13.9705 14.2514L16.9901 17.3207L17.1171 15.9183C17.5146 11.5139 19.7798 7.42075 23.5374 4.27638C24.4759 5.05825 25.3223 5.90013 26.0694 6.79075C27.1386 6.30513 28.25 5.90575 29.402 5.602C28.0734 3.817 26.4375 2.18575 24.5145 0.760751L23.5337 0.0351257L22.5548 0.764501C17.8311 4.2745 14.8206 9.022 13.9705 14.2514Z" fill="#0757B6"/>
<path d="M17.0031 30.6919L15.6267 30.5644C11.3042 30.1594 7.28532 27.8494 4.20123 24.0225C4.96858 23.0663 5.7948 22.2038 6.66887 21.4425C6.19228 20.355 5.79848 19.2207 5.50222 18.0488C3.7504 19.4025 2.14947 21.0675 0.750956 23.0269L0.0388184 24.0282L0.754636 25.0257C4.20123 29.8369 8.86049 32.9025 13.9927 33.7707L17.0031 30.6919Z" fill="#0757B6"/>
<path d="M46.3625 22.9726C42.9159 18.1632 38.2549 15.0976 33.1227 14.2294L30.1104 17.3063L31.4886 17.4357C35.8111 17.8407 39.8282 20.1488 42.9141 23.9776C42.1468 24.9338 41.3205 25.7963 40.4465 26.5576C40.9231 27.6469 41.315 28.7794 41.6131 29.9513C43.3649 28.5976 44.9677 26.9307 46.3662 24.9713L47.0784 23.9719L46.3625 22.9726Z" fill="#0757B6"/>
<path d="M30.1253 30.6769L30.0002 32.0794C29.6045 36.4857 27.3356 40.5788 23.5799 43.7213C22.6414 42.9394 21.7949 42.0975 21.0478 41.2069C19.9806 41.6925 18.8673 42.0919 17.7153 42.3957C19.0439 44.1788 20.678 45.8138 22.6028 47.2369L23.5836 47.9644L24.5625 47.235C29.2825 43.7232 32.2911 38.9738 33.1431 33.7463L30.1253 30.6769Z" fill="#0757B6"/>
<path d="M23.5668 33.4519L22.5032 34.3538C19.167 37.1832 14.7231 38.445 9.88531 37.9613C9.76386 36.7332 9.74914 35.5275 9.83931 34.3594C8.7481 33.9319 7.68265 33.4144 6.65953 32.7994C6.35959 35.0175 6.38167 37.3519 6.75522 39.7444L6.94475 40.965L8.14269 41.1563C13.9171 42.075 19.3418 40.8844 23.5723 37.8L23.5668 33.4519Z" fill="#0757B6"/>
</svg>
