<svg width="64" height="64" viewBox="0 0 64 64" fill="none" xmlns="http://www.w3.org/2000/svg">
<path fill-rule="evenodd" clip-rule="evenodd" d="M20.8566 30.7852C18.6845 30.7852 16.9237 32.5687 16.9237 34.7689C16.9237 36.9692 18.6845 38.7527 20.8566 38.7527C23.0291 38.7527 24.7898 36.9691 24.7898 34.7689C24.7898 32.5687 23.0291 30.7852 20.8566 30.7852ZM15.2252 34.7689C15.2252 31.6185 17.7464 29.0647 20.8566 29.0647C23.9671 29.0647 26.4883 31.6185 26.4883 34.7689C26.4883 37.9194 23.9671 40.4731 20.8566 40.4731C17.7464 40.4731 15.2252 37.9193 15.2252 34.7689Z" fill="white"/>
<path fill-rule="evenodd" clip-rule="evenodd" d="M7.19214 36.3193C5.02031 36.3193 3.25954 38.1028 3.25954 40.3031C3.25954 42.5034 5.02038 44.2871 7.19214 44.2871C9.36453 44.2871 11.1253 42.5034 11.1253 40.3031C11.1253 38.1029 9.3646 36.3193 7.19214 36.3193ZM1.56104 40.3031C1.56104 37.1527 4.08219 34.5989 7.19214 34.5989C10.3026 34.5989 12.8238 37.1526 12.8238 40.3031C12.8238 43.4535 10.3027 46.0076 7.19214 46.0076C4.08212 46.0076 1.56104 43.4534 1.56104 40.3031Z" fill="white"/>
<path fill-rule="evenodd" clip-rule="evenodd" d="M37.2296 34.5133L36.4967 34.9479C37.2296 34.5133 37.2298 34.5136 37.2299 34.5139L37.2304 34.5146L37.2313 34.5164L37.2341 34.5211L37.2424 34.5358C37.2491 34.5478 37.2583 34.5642 37.2696 34.5849C37.2922 34.6264 37.3234 34.685 37.3612 34.7591C37.4367 34.9071 37.5388 35.1181 37.6504 35.3792C37.8725 35.8986 38.1385 36.6302 38.304 37.4676C38.6313 39.1245 38.5884 41.3657 36.7988 43.084L30.9444 48.9532C30.8466 49.0512 30.7268 49.1237 30.5952 49.1644L21.6348 51.9387C21.1862 52.0776 20.7115 51.8218 20.5744 51.3675C20.4373 50.9131 20.6897 50.4322 21.1383 50.2934L29.8984 47.5811L35.6108 41.8544C35.6155 41.8497 35.6203 41.845 35.6251 41.8404C36.8116 40.7051 36.9123 39.1913 36.6385 37.8052C36.5316 37.264 36.3711 36.7681 36.2148 36.3647L28.9396 43.018C28.8192 43.1281 28.6701 43.201 28.5101 43.228L20.3209 44.6104C19.0415 44.8543 18.0741 45.2588 17.3787 45.8305C16.6981 46.39 16.2251 47.1526 15.9979 48.2267L15.1675 48.0464L15.9979 48.2267L12.8049 63.3198C12.7067 63.7843 12.2552 64.0802 11.7966 63.9807C11.338 63.8811 11.0459 63.4238 11.1441 62.9593L14.337 47.8662C14.6384 46.4418 15.3016 45.3223 16.3083 44.4947C17.2987 43.6804 18.567 43.193 20.0161 42.9178C20.0218 42.9167 20.0274 42.9157 20.0331 42.9148L27.9858 41.5723L35.9276 34.3094C36.1172 34.1359 36.3739 34.0582 36.6265 34.0978C36.879 34.1373 37.1005 34.2899 37.2296 34.5133Z" fill="white"/>
<path fill-rule="evenodd" clip-rule="evenodd" d="M27.1709 48.4556C27.6309 48.5488 27.9291 49.002 27.8371 49.4678L25.1045 63.3082C25.0126 63.774 24.5652 64.0762 24.1052 63.983C23.6453 63.8898 23.347 63.4366 23.439 62.9708L26.1716 49.1304C26.2636 48.6646 26.711 48.3624 27.1709 48.4556Z" fill="white"/>
<path fill-rule="evenodd" clip-rule="evenodd" d="M46.0183 38.9211C46.0183 35.7707 48.5395 33.2166 51.65 33.2166C54.7602 33.2166 57.2814 35.7707 57.2814 38.9211C57.2814 42.0715 54.7602 44.6253 51.65 44.6253C48.5395 44.6253 46.0183 42.0715 46.0183 38.9211ZM51.65 34.937C49.4776 34.937 47.7168 36.7208 47.7168 38.9211C47.7168 41.1213 49.4775 42.9048 51.65 42.9048C53.8221 42.9048 55.5829 41.1213 55.5829 38.9211C55.5829 36.7208 53.8221 34.937 51.65 34.937Z" fill="white"/>
<path fill-rule="evenodd" clip-rule="evenodd" d="M36.6557 47.3596C36.8171 47.1667 37.0541 47.0554 37.3037 47.0554H53.6999C55.9818 47.0554 57.6574 47.5663 58.8466 48.5231C60.0325 49.4771 60.6206 50.7826 60.9127 52.1414L63.9666 62.9019C64.0962 63.3585 63.8358 63.835 63.3851 63.9663C62.9343 64.0975 62.4638 63.8338 62.3342 63.3772L59.2724 52.589C59.267 52.5701 59.2623 52.5509 59.2582 52.5317C59.0193 51.403 58.5763 50.5026 57.7903 49.8703C56.9991 49.2338 55.7448 48.7759 53.6999 48.7759H38.4077C38.5531 49.2114 38.7645 49.7335 39.0621 50.2501C39.7732 51.4849 40.9058 52.5913 42.7692 52.5913H53.6999C54.169 52.5913 54.5492 52.9765 54.5492 53.4516C54.5492 53.9267 54.169 54.3118 53.6999 54.3118H42.7692C40.0782 54.3118 38.4779 52.6502 37.595 51.1171C37.1541 50.3515 36.8745 49.5938 36.7051 49.032C36.6198 48.7496 36.5612 48.5125 36.5234 48.3433C36.5045 48.2586 36.4908 48.1906 36.4814 48.142C36.4768 48.1177 36.4732 48.0983 36.4707 48.084L36.4676 48.0666L36.4666 48.0608L36.4663 48.0587L36.4662 48.0578C36.4661 48.0574 36.466 48.0571 37.3037 47.9157L36.466 48.0571C36.425 47.8077 36.4944 47.5526 36.6557 47.3596Z" fill="white"/>
<path fill-rule="evenodd" clip-rule="evenodd" d="M49.3096 52.643C49.7505 52.4808 50.2376 52.7113 50.3977 53.1579L53.8709 62.8459C54.031 63.2924 53.8034 63.7859 53.3625 63.9481C52.9217 64.1102 52.4345 63.8797 52.2744 63.4331L48.8012 53.7452C48.6411 53.2986 48.8687 52.8051 49.3096 52.643Z" fill="white"/>
<path fill-rule="evenodd" clip-rule="evenodd" d="M15.5408 47.7466C15.6328 48.2125 15.3345 48.6657 14.8746 48.7589L8.04295 50.1427L8.03293 50.1447C6.74948 50.3884 5.77951 50.7935 5.08265 51.3664C4.4021 51.926 3.9291 52.6886 3.70189 53.7625L1.67982 63.3198C1.58154 63.7843 1.13008 64.0802 0.671464 63.9806C0.212849 63.8811 -0.079255 63.4238 0.0190314 62.9592L2.0411 53.402C2.0411 53.402 2.0411 53.402 2.0411 53.402C2.34241 51.9778 3.00556 50.8584 4.01219 50.0307C5.00136 49.2173 6.26777 48.73 7.71481 48.4546L14.5416 47.0718C15.0015 46.9786 15.4489 47.2808 15.5408 47.7466Z" fill="white"/>
<path fill-rule="evenodd" clip-rule="evenodd" d="M22.5161 5.67847C22.7006 6.11524 22.5007 6.62086 22.0695 6.8078L4.50836 14.4212L9.58443 18.3956C9.81823 18.5786 9.94128 18.8716 9.90933 19.1692L9.22362 25.5566L26.7781 17.9464C27.2093 17.7595 27.7084 17.962 27.893 18.3988C28.0775 18.8356 27.8776 19.3412 27.4464 19.5281L8.55647 27.7173C8.27905 27.8375 7.95946 27.7997 7.71695 27.6178C7.47443 27.4359 7.34542 27.1373 7.37804 26.8334L8.16936 19.4622L2.32604 14.887C2.08782 14.7005 1.96491 14.4001 2.00299 14.0976C2.04107 13.7951 2.23445 13.5356 2.51126 13.4156L21.4012 5.22611C21.8324 5.03917 22.3315 5.2417 22.5161 5.67847Z" fill="white"/>
<path fill-rule="evenodd" clip-rule="evenodd" d="M19.2054 0.069909C19.6365 -0.117413 20.1358 0.0846726 20.3207 0.52128L35.464 36.2736C35.6489 36.7102 35.4494 37.216 35.0184 37.4033C34.5874 37.5906 34.088 37.3885 33.9031 36.9519L18.7598 1.19963C18.5749 0.763026 18.7744 0.257231 19.2054 0.069909Z" fill="white"/>
<path fill-rule="evenodd" clip-rule="evenodd" d="M36.4697 40.9926C36.9032 40.8113 37.3998 41.0202 37.5789 41.4593L40.0742 47.5793C40.2533 48.0184 40.047 48.5214 39.6135 48.7028C39.18 48.8842 38.6834 48.6752 38.5044 48.2361L36.009 42.1161C35.8299 41.677 36.0362 41.174 36.4697 40.9926Z" fill="white"/>
<path fill-rule="evenodd" clip-rule="evenodd" d="M41.2318 52.6642C41.6653 52.4829 42.1619 52.6918 42.341 53.131L46.288 62.8112C46.467 63.2503 46.2608 63.7533 45.8273 63.9347C45.3937 64.116 44.8972 63.9071 44.7181 63.468L40.7711 53.7877C40.592 53.3486 40.7983 52.8456 41.2318 52.6642Z" fill="white"/>
</svg>
