<svg width="120" height="120" viewBox="0 0 120 120" fill="none" xmlns="http://www.w3.org/2000/svg">
<g opacity="0.2">
<path fill-rule="evenodd" clip-rule="evenodd" d="M39.1062 57.7222C35.0334 57.7222 31.7321 61.0663 31.7321 65.1918C31.7321 69.3172 35.0334 72.6613 39.1062 72.6613C43.1796 72.6613 46.4809 69.3171 46.4809 65.1918C46.4809 61.0664 43.1796 57.7222 39.1062 57.7222ZM28.5474 65.1918C28.5474 59.2847 33.2746 54.4963 39.1062 54.4963C44.9383 54.4963 49.6656 59.2846 49.6656 65.1918C49.6656 71.0989 44.9383 75.8872 39.1062 75.8872C33.2746 75.8872 28.5474 71.0988 28.5474 65.1918Z" fill="white"/>
<path fill-rule="evenodd" clip-rule="evenodd" d="M13.4853 68.0989C9.41314 68.0989 6.1117 71.443 6.1117 75.5685C6.1117 79.6941 9.41327 83.0385 13.4853 83.0385C17.5586 83.0385 20.86 79.694 20.86 75.5685C20.86 71.4431 17.5587 68.0989 13.4853 68.0989ZM2.927 75.5685C2.927 69.6615 7.65417 64.873 13.4853 64.873C19.3174 64.873 24.0447 69.6613 24.0447 75.5685C24.0447 81.4755 19.3175 86.2644 13.4853 86.2644C7.65404 86.2644 2.927 81.4753 2.927 75.5685Z" fill="white"/>
<path fill-rule="evenodd" clip-rule="evenodd" d="M69.8057 64.7124L68.4315 65.5273C69.8057 64.7124 69.806 64.713 69.8063 64.7135L69.8071 64.7149L69.809 64.7181L69.8141 64.7271L69.8296 64.7545C69.8423 64.777 69.8594 64.8079 69.8806 64.8467C69.923 64.9244 69.9816 65.0343 70.0525 65.1732C70.194 65.4508 70.3854 65.8465 70.5948 66.336C71.0112 67.3098 71.51 68.6815 71.8202 70.2517C72.4339 73.3584 72.3534 77.5606 68.998 80.7825L58.0209 91.7872C57.8376 91.971 57.6129 92.1069 57.3662 92.1833L40.5654 97.385C39.7244 97.6454 38.8342 97.1659 38.5771 96.314C38.3201 95.4621 38.7934 94.5604 39.6345 94.3L56.0598 89.2146L66.7705 78.4769C66.7793 78.4681 66.7882 78.4594 66.7972 78.4508C69.022 76.3221 69.2108 73.4836 68.6974 70.8847C68.4969 69.87 68.196 68.9402 67.9029 68.1838L54.2619 80.6587C54.0361 80.8652 53.7567 81.0018 53.4566 81.0525L38.1018 83.6444C35.703 84.1018 33.8892 84.8602 32.5853 85.9322C31.3092 86.9813 30.4222 88.4112 29.9962 90.4249L28.4392 90.087L29.9962 90.425L24.0095 118.725C23.8252 119.596 22.9787 120.15 22.1188 119.964C21.2589 119.777 20.7112 118.92 20.8955 118.049L26.8822 89.7491C27.4471 87.0783 28.6907 84.9793 30.5783 83.4275C32.4353 81.9007 34.8134 80.9869 37.5305 80.4708C37.541 80.4688 37.5516 80.4669 37.5622 80.4652L52.4736 77.948L67.3644 64.3301C67.72 64.0048 68.2013 63.8591 68.6748 63.9333C69.1483 64.0074 69.5636 64.2936 69.8057 64.7124Z" fill="white"/>
<path fill-rule="evenodd" clip-rule="evenodd" d="M50.9456 90.8544C51.8079 91.0291 52.3672 91.8788 52.1947 92.7523L47.0711 118.703C46.8986 119.576 46.0597 120.143 45.1974 119.968C44.335 119.794 43.7758 118.944 43.9482 118.07L49.0719 92.1197C49.2443 91.2462 50.0832 90.6797 50.9456 90.8544Z" fill="white"/>
<path fill-rule="evenodd" clip-rule="evenodd" d="M86.2844 72.9767C86.2844 67.0697 91.0115 62.2808 96.8437 62.2808C102.675 62.2808 107.403 67.0698 107.403 72.9767C107.403 78.8838 102.675 83.6721 96.8437 83.6721C91.0116 83.6721 86.2844 78.8838 86.2844 72.9767ZM96.8437 65.5066C92.7705 65.5066 89.4691 68.8512 89.4691 72.9767C89.4691 77.1021 92.7704 80.4463 96.8437 80.4463C100.917 80.4463 104.218 77.1022 104.218 72.9767C104.218 68.8512 100.916 65.5066 96.8437 65.5066Z" fill="white"/>
<path fill-rule="evenodd" clip-rule="evenodd" d="M68.7296 88.7994C69.0321 88.4376 69.4765 88.229 69.9446 88.229H100.688C104.966 88.229 108.108 89.1869 110.338 90.9809C112.561 92.7697 113.664 95.2174 114.211 97.7652L119.938 117.941C120.18 118.797 119.692 119.691 118.847 119.937C118.002 120.183 117.12 119.688 116.877 118.832L111.136 98.6045C111.126 98.569 111.117 98.5331 111.109 98.497C110.661 96.3807 109.831 94.6926 108.357 93.5069C106.873 92.3134 104.522 91.4549 100.688 91.4549H72.0146C72.2871 92.2715 72.6836 93.2504 73.2415 94.2191C74.5749 96.5343 76.6984 98.6088 80.1924 98.6088H100.688C101.567 98.6088 102.28 99.331 102.28 100.222C102.28 101.113 101.567 101.835 100.688 101.835H80.1924C75.1466 101.835 72.1463 98.7193 70.4907 95.8446C69.664 94.4092 69.1398 92.9884 68.8221 91.9352C68.6623 91.4055 68.5524 90.9611 68.4816 90.6438C68.4461 90.485 68.4203 90.3575 68.4028 90.2664C68.3941 90.2209 68.3874 90.1844 68.3826 90.1577L68.3769 90.1249L68.3751 90.1141L68.3744 90.1101L68.3741 90.1085C68.374 90.1078 68.3739 90.1071 69.9446 89.8419L68.3739 90.1071C68.297 89.6395 68.427 89.1612 68.7296 88.7994Z" fill="white"/>
<path fill-rule="evenodd" clip-rule="evenodd" d="M92.4557 98.7057C93.2823 98.4016 94.1958 98.8339 94.4959 99.6712L101.008 117.836C101.308 118.673 100.882 119.599 100.055 119.903C99.2283 120.207 98.3148 119.775 98.0147 118.937L91.5025 100.772C91.2023 99.935 91.6291 99.0098 92.4557 98.7057Z" fill="white"/>
<path fill-rule="evenodd" clip-rule="evenodd" d="M29.1391 89.525C29.3115 90.3985 28.7523 91.2482 27.8899 91.4229L15.0805 94.0176L15.0617 94.0213C12.6553 94.4783 10.8366 95.2378 9.52998 96.3121C8.25394 97.3613 7.36706 98.7912 6.94105 100.805L3.14967 118.725C2.96538 119.596 2.1189 120.15 1.25899 119.964C0.399092 119.777 -0.148603 118.92 0.035684 118.049L3.82706 100.129C3.82706 100.129 3.82706 100.129 3.82706 100.129C4.39202 97.4584 5.63543 95.3595 7.52286 93.8075C9.37755 92.2825 11.7521 91.3689 14.4653 90.8525L27.2654 88.2597C28.1278 88.085 28.9666 88.6515 29.1391 89.525Z" fill="white"/>
<path fill-rule="evenodd" clip-rule="evenodd" d="M42.2176 10.6472C42.5637 11.4661 42.1888 12.4141 41.3803 12.7646L8.45319 27.0397L17.9708 34.4917C18.4092 34.835 18.6399 35.3843 18.58 35.9423L17.2943 47.9187L50.2089 33.6495C51.0174 33.2991 51.9533 33.6788 52.2993 34.4978C52.6454 35.3167 52.2704 36.2647 51.4619 36.6152L16.0434 51.9699C15.5232 52.1954 14.924 52.1244 14.4693 51.7833C14.0146 51.4423 13.7727 50.8825 13.8338 50.3127L15.3176 36.4916L4.36134 27.9132C3.91467 27.5634 3.68421 27.0003 3.75561 26.433C3.82701 25.8658 4.18961 25.3792 4.70862 25.1542L40.1272 9.79898C40.9357 9.44847 41.8716 9.82821 42.2176 10.6472Z" fill="white"/>
<path fill-rule="evenodd" clip-rule="evenodd" d="M36.0102 0.131079C36.8184 -0.220149 37.7546 0.158761 38.1014 0.9774L66.4951 68.0129C66.8418 68.8316 66.4677 69.7799 65.6595 70.1311C64.8514 70.4824 63.9151 70.1035 63.5684 69.2848L35.1747 2.24931C34.8279 1.43067 35.202 0.482308 36.0102 0.131079Z" fill="white"/>
<path fill-rule="evenodd" clip-rule="evenodd" d="M68.3808 76.8609C69.1937 76.5208 70.1247 76.9126 70.4605 77.7359L75.1393 89.2109C75.475 90.0343 75.0882 90.9774 74.2754 91.3175C73.4626 91.6575 72.5315 91.2657 72.1958 90.4424L67.5169 78.9674C67.1812 78.144 67.568 77.2009 68.3808 76.8609Z" fill="white"/>
<path fill-rule="evenodd" clip-rule="evenodd" d="M77.3098 98.7454C78.1226 98.4053 79.0537 98.7971 79.3894 99.6204L86.7901 117.771C87.1258 118.594 86.7391 119.537 85.9262 119.877C85.1134 120.217 84.1823 119.826 83.8466 119.002L76.4459 100.852C76.1102 100.029 76.497 99.0854 77.3098 98.7454Z" fill="white"/>
</g>
</svg>
