<svg width="98" height="120" viewBox="0 0 98 120" fill="none" xmlns="http://www.w3.org/2000/svg">
<g opacity="0.2">
<path fill-rule="evenodd" clip-rule="evenodd" d="M42.2303 59.8724C38.4848 59.8724 35.4384 62.9402 35.4384 66.7121V95.7672C35.4384 99.5386 38.4848 102.607 42.2303 102.607H65.4189C66.2084 102.607 66.952 102.916 67.5111 103.479L78.9154 114.962V105.589C78.9154 103.945 80.2437 102.607 81.8761 102.607H87.4025C91.148 102.607 94.1944 99.5386 94.1944 95.7672V66.7121C94.1944 62.9402 91.148 59.8724 87.4025 59.8724H42.2303ZM79.7567 120C78.9875 120 78.233 119.696 77.6655 119.124L65.0698 106.439H42.2303C36.3868 106.439 31.6328 101.652 31.6328 95.7672V66.7121C31.6328 60.8274 36.3868 56.0399 42.2303 56.0399H87.4025C93.2455 56.0399 98 60.8274 98 66.7121V95.7672C98 101.652 93.2455 106.439 87.4025 106.439H82.7205V117.016C82.7205 118.227 82.0036 119.308 80.8922 119.771C80.5243 119.925 80.1387 120 79.7567 120Z" fill="white"/>
<path fill-rule="evenodd" clip-rule="evenodd" d="M57.0462 76.1768C54.7831 76.1768 52.7243 75.047 51.7994 73.2978C51.3061 72.3633 51.6573 71.2035 52.5858 70.7062C53.5149 70.2084 54.6671 70.5641 55.1593 71.4976C55.3814 71.9186 56.1014 72.3443 57.0462 72.3443C57.9925 72.3443 58.7115 71.9191 58.9325 71.4987C59.4258 70.5641 60.5796 70.2089 61.506 70.7057C62.4346 71.2019 62.7862 72.3622 62.294 73.2968C61.3702 75.0464 59.3103 76.1768 57.0462 76.1768Z" fill="white"/>
<path fill-rule="evenodd" clip-rule="evenodd" d="M64.8159 95.1889C57.2851 95.1889 50.5271 91.6043 47.5973 86.0569C47.104 85.1229 47.4562 83.9626 48.3837 83.4653C49.3138 82.9686 50.4629 83.3238 50.9572 84.2578C53.2344 88.5701 58.6745 91.3565 64.8159 91.3565C70.9572 91.3565 76.3973 88.5696 78.6751 84.2573C79.1689 83.3238 80.3179 82.968 81.2491 83.4658C82.1761 83.9631 82.5283 85.1234 82.035 86.0575C79.1046 91.6043 72.3456 95.1889 64.8159 95.1889Z" fill="white"/>
<path fill-rule="evenodd" clip-rule="evenodd" d="M72.5859 76.1768C70.3223 76.1768 68.263 75.047 67.3381 73.2978C66.8448 72.3633 67.196 71.2035 68.124 70.7062C69.0515 70.2084 70.2047 70.5641 70.698 71.4976C70.9201 71.9186 71.6401 72.3443 72.5859 72.3443C73.5307 72.3443 74.2507 71.9186 74.4728 71.4976C74.9655 70.5641 76.1203 70.2084 77.0468 70.7062C77.9748 71.2035 78.326 72.3633 77.8327 73.2978C76.9078 75.047 74.849 76.1768 72.5859 76.1768Z" fill="white"/>
<path fill-rule="evenodd" clip-rule="evenodd" d="M29.5551 3.83244C23.0887 3.83244 17.8268 9.81552 17.8268 17.1694C17.8268 24.7595 23.3077 31.4178 29.5551 31.4178C35.8036 31.4178 41.284 24.7595 41.284 17.1694C41.284 9.81552 36.0225 3.83244 29.5551 3.83244ZM29.5551 35.2507C21.1345 35.2507 14.0212 26.9702 14.0212 17.1694C14.0212 7.70223 20.9897 0 29.5551 0C38.1205 0 45.0896 7.70223 45.0896 17.1694C45.0896 26.9702 37.9758 35.2507 29.5551 35.2507Z" fill="white"/>
<path fill-rule="evenodd" clip-rule="evenodd" d="M26.1999 78.45H5.02575C2.25422 78.45 0 76.1793 0 73.3883V67.3536C0 50.9415 13.2583 37.5898 29.5551 37.5898C39.7686 37.5898 48.2834 41.6159 53.528 48.9271C54.1431 49.7843 53.9518 50.9825 53.0996 51.6019C52.2489 52.2223 51.0575 52.0281 50.4435 51.1714C45.9325 44.8842 38.5145 41.4217 29.5551 41.4217C15.3563 41.4217 3.80563 53.0548 3.80563 67.3536V73.3883C3.80563 74.0661 4.35272 74.6175 5.02575 74.6175H26.1999C27.2508 74.6175 28.103 75.4758 28.103 76.5335C28.103 77.5922 27.2508 78.45 26.1999 78.45Z" fill="white"/>
<path fill-rule="evenodd" clip-rule="evenodd" d="M13.9564 78.45C12.9055 78.45 12.0533 77.5922 12.0533 76.5335V61.9468C12.0533 60.8886 12.9055 60.0308 13.9564 60.0308C15.0072 60.0308 15.8589 60.8886 15.8589 61.9468V76.5335C15.8589 77.5922 15.0072 78.45 13.9564 78.45Z" fill="white"/>
<path fill-rule="evenodd" clip-rule="evenodd" d="M65.2104 9.57346C59.8999 9.57346 55.5785 14.5036 55.5785 20.5635C55.5785 26.8292 60.0791 32.3255 65.2104 32.3255C70.3417 32.3255 74.8428 26.8292 74.8428 20.5635C74.8428 14.5036 70.5215 9.57346 65.2104 9.57346ZM65.2104 36.1579C57.9263 36.1579 51.7729 29.0166 51.7729 20.5635C51.7729 12.3908 57.8009 5.74103 65.2104 5.74103C72.62 5.74103 78.6485 12.3908 78.6485 20.5635C78.6485 29.0166 72.4946 36.1579 65.2104 36.1579Z" fill="white"/>
<path fill-rule="evenodd" clip-rule="evenodd" d="M84.7459 51.9654C84.1277 51.9654 83.5221 51.6629 83.1563 51.1051C82.7258 50.4494 82.2513 49.8064 81.7465 49.1944C77.6446 44.2279 71.6172 41.379 65.2104 41.379C61.9811 41.379 58.8778 42.082 55.986 43.4676C55.0376 43.9222 53.9022 43.5165 53.4507 42.5604C52.9992 41.6048 53.4021 40.4613 54.351 40.0066C57.7569 38.3743 61.411 37.5466 65.2104 37.5466C72.7521 37.5466 79.8456 40.8991 84.6733 46.7443C85.2674 47.4636 85.8244 48.2203 86.3318 48.9928C86.9108 49.8753 86.6699 51.064 85.7931 51.6476C85.4707 51.8623 85.1064 51.9654 84.7459 51.9654Z" fill="white"/>
</g>
</svg>
