<svg width="64" height="64" viewBox="0 0 64 64" fill="none" xmlns="http://www.w3.org/2000/svg">
<path fill-rule="evenodd" clip-rule="evenodd" d="M32 48.9381C22.6586 48.9381 15.059 41.3384 15.059 31.9968C15.059 22.6557 22.6586 15.0558 32 15.0558C36.805 15.0558 41.4027 17.1086 44.6134 20.6876C44.9377 21.0488 44.9075 21.6044 44.546 21.9281C44.1856 22.2523 43.6298 22.2221 43.3059 21.8609C40.4276 18.6527 36.3067 16.8128 32 16.8128C23.6274 16.8128 16.8157 23.6245 16.8157 31.9968C16.8157 40.3696 23.6274 47.1813 32 47.1813C40.3725 47.1813 47.1842 40.3696 47.1842 31.9968C47.1842 31.6665 47.1732 31.3333 47.1524 31.0058C47.1212 30.5218 47.4884 30.1038 47.9727 30.0728C48.4521 30.041 48.8744 30.4088 48.9059 30.8928C48.9292 31.2576 48.941 31.6293 48.941 31.9968C48.941 41.3384 41.3413 48.9381 32 48.9381Z" fill="white"/>
<path fill-rule="evenodd" clip-rule="evenodd" d="M32 63.9968C29.9365 63.9968 27.8528 63.7935 25.8071 63.3923C25.3952 63.3114 25.0978 62.9502 25.0978 62.53V59.1198C22.5888 58.5193 19.8631 57.6711 17.6536 56.1039L15.2898 58.4681C14.9932 58.7646 14.5273 58.8101 14.1789 58.576C10.7013 56.2402 7.7545 53.2934 5.41998 49.8182C5.18566 49.4696 5.23088 49.0039 5.52797 48.7071L7.94498 46.2909C6.5697 43.9819 5.54167 41.501 4.88226 38.899H1.46682C1.04694 38.899 0.685446 38.6016 0.604596 38.1897C0.203359 36.1443 0 34.0609 0 31.9968C0 29.9331 0.203359 27.8494 0.604596 25.8043C0.685446 25.3923 1.04694 25.0952 1.46682 25.0952H4.88226C5.54194 22.4924 6.57025 20.0121 7.94553 17.7036L5.52797 15.2869C5.23088 14.9898 5.18566 14.5241 5.41998 14.1758C7.75587 10.6998 10.7027 7.753 14.1787 5.41711C14.527 5.18278 14.9927 5.22773 15.29 5.52509L17.7068 7.94265C20.015 6.5671 22.4956 5.53879 25.0978 4.87911V1.46366C25.0978 1.04379 25.3952 0.682294 25.8071 0.601444C29.8979 -0.200481 34.1018 -0.200481 38.1926 0.601444C38.6048 0.682294 38.9019 1.04379 38.9019 1.46366V4.87911C41.5039 5.53879 43.9848 6.56683 46.2938 7.94238L48.71 5.52509C49.0071 5.228 49.473 5.18278 49.8208 5.41711C51.5414 6.57258 53.1578 7.90264 54.6257 9.37082C54.9459 9.69094 55.261 10.0201 55.5633 10.349C55.8917 10.7064 55.8681 11.2619 55.5107 11.5902C55.1536 11.9183 54.5981 11.895 54.2697 11.5376C53.9839 11.2265 53.6857 10.9155 53.3831 10.6129C52.1657 9.39522 50.8403 8.27784 49.4352 7.28461L47.0464 9.67422C46.7567 9.96446 46.3039 10.0146 45.957 9.79618C43.4492 8.21617 40.7148 7.0829 37.8292 6.42815C37.4293 6.33743 37.1448 5.98169 37.1448 5.57141V2.19515C33.7349 1.60919 30.2651 1.60919 26.8549 2.19515V5.57141C26.8549 5.98169 26.5707 6.33743 26.1706 6.42815C23.2843 7.08317 20.55 8.21672 18.0428 9.797C17.6961 10.0157 17.2425 9.965 16.9525 9.67422L14.5646 7.28434C11.7318 9.28586 9.28874 11.7286 7.28749 14.5617L9.67737 16.9496C9.96816 17.2396 10.0191 17.6926 9.80015 18.0399C8.2196 20.5465 7.08632 23.2812 6.4313 26.168C6.34058 26.5681 5.98484 26.852 5.57456 26.852H2.19831C1.90505 28.5567 1.75678 30.2842 1.75678 31.9968C1.75678 33.7095 1.90505 35.437 2.19831 37.1422H5.57456C5.98484 37.1422 6.34058 37.4262 6.4313 37.8263C7.08605 40.712 8.21905 43.4466 9.79906 45.9541C10.0178 46.3013 9.96706 46.7533 9.67709 47.0435L7.28722 49.4323C9.28764 52.2645 11.731 54.7076 14.5646 56.7085L16.9536 54.3198C17.2721 54.0013 17.7797 53.9755 18.1297 54.2603C20.3471 56.068 23.4389 56.9456 26.1706 57.5658C26.571 57.6565 26.8549 58.012 26.8549 58.4223V61.7985C30.2651 62.3845 33.7349 62.3845 37.1448 61.7985V58.4223C37.1448 58.012 37.4293 57.6565 37.8292 57.5655C40.7124 56.9113 43.4473 55.7783 45.9572 54.1978C46.3039 53.9791 46.757 54.0298 47.0464 54.3198L49.4363 56.7096C52.269 54.7087 54.7115 52.2659 56.7125 49.4331L54.3229 47.0435C54.0329 46.7535 53.9822 46.3016 54.2007 45.9543C55.7812 43.4444 56.9142 40.7095 57.5687 37.8263C57.6594 37.4262 58.0152 37.1422 58.4254 37.1422H61.8014C62.0947 35.437 62.2429 33.7095 62.2429 31.9968C62.2429 30.2842 62.0947 28.5567 61.8014 26.852H58.4254C58.0152 26.852 57.6594 26.5681 57.5687 26.168C57.2683 24.8442 56.8605 23.5331 56.3565 22.2712C56.1764 21.8204 56.3957 21.3095 56.8463 21.1295C57.2963 20.9494 57.8077 21.1687 57.9878 21.6195C58.4391 22.7487 58.8182 23.9148 59.1175 25.0952H62.5332C62.9528 25.0952 63.3143 25.3923 63.3951 25.8043C63.7966 27.8494 64 29.9331 64 31.9968C64 34.0609 63.7966 36.1443 63.3951 38.1897C63.3143 38.6016 62.9528 38.899 62.5332 38.899H59.1177C58.4583 41.4991 57.4306 43.98 56.0547 46.2909L58.472 48.7082C58.7691 49.005 58.8141 49.4707 58.58 49.8193C56.2444 53.295 53.2979 56.2415 49.8221 58.5771C49.4735 58.8112 49.0082 58.766 48.7113 58.4689L46.2938 56.0516C43.9828 57.4274 41.502 58.4554 38.9019 59.1149V62.53C38.9019 62.9502 38.6048 63.3114 38.1926 63.3923C36.1469 63.7935 34.0635 63.9968 32 63.9968Z" fill="white"/>
<path fill-rule="evenodd" clip-rule="evenodd" d="M32 42.9147C31.767 42.9147 31.5437 42.822 31.3787 42.6573L21.3398 32.6182C20.9967 32.2751 20.9967 31.7187 21.3398 31.3758C21.6827 31.0327 22.2388 31.0327 22.5819 31.3758L31.9789 40.7728L60.4722 10.3147C60.8032 9.96064 61.3593 9.94145 61.7134 10.2731C62.0681 10.6044 62.0864 11.1605 61.7548 11.5149L32.6413 42.6362C32.4788 42.81 32.2527 42.9103 32.0148 42.9147C32.0096 42.9147 32.0049 42.9147 32 42.9147Z" fill="white"/>
</svg>
