<svg width="120" height="120" viewBox="0 0 120 120" fill="none" xmlns="http://www.w3.org/2000/svg">
<g opacity="0.2">
<path fill-rule="evenodd" clip-rule="evenodd" d="M60 91.7636C42.4849 91.7636 28.2356 77.5136 28.2356 59.9972C28.2356 42.4818 42.4849 28.2312 60 28.2312C69.0093 28.2312 77.6302 32.0803 83.6502 38.7914C84.2582 39.4687 84.2016 40.5104 83.5238 41.1173C82.8481 41.7253 81.8059 41.6688 81.1985 40.9914C75.8018 34.9757 68.0751 31.5258 60 31.5258C44.3015 31.5258 31.5296 44.2984 31.5296 59.9972C31.5296 75.6969 44.3015 88.4695 60 88.4695C75.6985 88.4695 88.4704 75.6969 88.4704 59.9972C88.4704 59.3779 88.4499 58.753 88.4108 58.1389C88.3522 57.2313 89.0408 56.4476 89.9489 56.3896C90.8476 56.3299 91.6395 57.0196 91.6986 57.9272C91.7423 58.6112 91.7644 59.308 91.7644 59.9972C91.7644 77.5136 77.5151 91.7636 60 91.7636Z" fill="white"/>
<path fill-rule="evenodd" clip-rule="evenodd" d="M60 120C56.131 120 52.224 119.619 48.3884 118.866C47.616 118.715 47.0585 118.037 47.0585 117.25V110.855C42.3539 109.729 37.2434 108.139 33.1005 105.2L28.6683 109.633C28.1123 110.189 27.2387 110.274 26.5855 109.835C20.0649 105.455 14.5397 99.93 10.1625 93.4137C9.7231 92.76 9.80789 91.8869 10.3649 91.3303L14.8968 86.7997C12.3182 82.4701 10.3906 77.8182 9.15424 72.9392H2.75028C1.96302 72.9392 1.28521 72.3816 1.13362 71.6092C0.381298 67.774 0 63.8673 0 59.997C0 56.1273 0.381298 52.2201 1.13362 48.3854C1.28521 47.613 1.96302 47.0559 2.75028 47.0559H9.15424C10.3911 42.1754 12.3192 37.5245 14.8979 33.1959L10.3649 28.6643C9.80789 28.1072 9.7231 27.2341 10.1625 26.5809C14.5423 20.0631 20.0675 14.5376 26.585 10.1576C27.2382 9.71819 28.1112 9.80247 28.6688 10.3601L33.2002 14.8932C37.5281 12.3139 42.1792 10.3857 47.0585 9.14878V2.74451C47.0585 1.9572 47.616 1.27936 48.3884 1.12776C56.0585 -0.375921 63.9409 -0.375921 71.6111 1.12776C72.384 1.27936 72.941 1.9572 72.941 2.74451V9.14878C77.8198 10.3857 82.4714 12.3134 86.8008 14.8927L91.3312 10.3601C91.8882 9.80298 92.7618 9.71819 93.4139 10.1576C96.6401 12.3242 99.6709 14.8182 102.423 17.5712C103.023 18.1714 103.614 18.7886 104.181 19.4053C104.797 20.0754 104.753 21.1171 104.083 21.7328C103.413 22.3479 102.371 22.3042 101.756 21.6341C101.22 21.0508 100.661 20.4675 100.093 19.9002C97.8107 17.6169 95.3256 15.5217 92.6909 13.6593L88.212 18.1401C87.6688 18.6843 86.8199 18.7783 86.1693 18.3687C81.4673 15.4061 76.3403 13.2811 70.9297 12.0534C70.1799 11.8833 69.6465 11.2162 69.6465 10.4469V4.11612C63.2529 3.01739 56.7471 3.01739 50.3529 4.11612V10.4469C50.3529 11.2162 49.8201 11.8833 49.0698 12.0534C43.6581 13.2816 38.5312 15.4071 33.8302 18.3703C33.1801 18.7804 32.3297 18.6853 31.786 18.1401L27.3086 13.6588C21.9971 17.4118 17.4164 21.9923 13.664 27.3045L18.1451 31.7822C18.6903 32.3259 18.7859 33.1754 18.3753 33.8265C15.4117 38.5266 13.2869 43.6544 12.0587 49.0673C11.8886 49.8176 11.2216 50.35 10.4523 50.35H4.12182C3.57197 53.5465 3.29396 56.7857 3.29396 59.997C3.29396 63.2084 3.57197 66.4476 4.12182 69.6451H10.4523C11.2216 69.6451 11.8886 70.1775 12.0587 70.9278C13.2863 76.3387 15.4107 81.4664 18.3732 86.1681C18.7833 86.8193 18.6882 87.6667 18.1446 88.2109L13.6635 92.6901C17.4143 98.0008 21.9956 102.582 27.3086 106.334L31.788 101.855C32.3852 101.257 33.3369 101.209 33.9931 101.743C38.1509 105.133 43.948 106.778 49.0698 107.941C49.8206 108.111 50.3529 108.778 50.3529 109.547V115.878C56.7471 116.977 63.2529 116.977 69.6465 115.878V109.547C69.6465 108.778 70.1799 108.111 70.9297 107.941C76.3357 106.714 81.4637 104.59 86.1698 101.626C86.8199 101.216 87.6693 101.311 88.212 101.855L92.693 106.336C98.0044 102.584 102.584 98.0033 106.336 92.6916L101.855 88.2109C101.312 87.6672 101.217 86.8198 101.626 86.1687C104.59 81.4623 106.714 76.3341 107.941 70.9278C108.111 70.1775 108.778 69.6451 109.548 69.6451H115.878C116.428 66.4476 116.706 63.2084 116.706 59.997C116.706 56.7857 116.428 53.5465 115.878 50.35H109.548C108.778 50.35 108.111 49.8176 107.941 49.0673C107.378 46.5852 106.613 44.1267 105.668 41.7606C105.331 40.9153 105.742 39.9573 106.587 39.6197C107.431 39.2821 108.389 39.6932 108.727 40.5386C109.573 42.6559 110.284 44.8425 110.845 47.0559H117.25C118.036 47.0559 118.714 47.613 118.866 48.3854C119.619 52.2201 120 56.1273 120 59.997C120 63.8673 119.619 67.774 118.866 71.6092C118.714 72.3816 118.036 72.9392 117.25 72.9392H110.846C109.609 77.8146 107.682 82.4665 105.103 86.7997L109.635 91.3324C110.192 91.8889 110.276 92.762 109.838 93.4157C105.458 99.9331 99.9335 105.458 93.4165 109.838C92.7629 110.276 91.8903 110.192 91.3338 109.635L86.8008 105.102C82.4678 107.682 77.8162 109.609 72.941 110.846V117.25C72.941 118.037 72.384 118.715 71.6111 118.866C67.7755 119.619 63.869 120 60 120Z" fill="white"/>
<path fill-rule="evenodd" clip-rule="evenodd" d="M60 80.4689C59.5632 80.4689 59.1444 80.2952 58.835 79.9864L40.0121 61.1621C39.3688 60.5186 39.3688 59.4754 40.0121 58.8325C40.655 58.1891 41.6977 58.1891 42.341 58.8325L59.9604 76.4528L113.385 19.341C114.006 18.6771 115.049 18.6411 115.713 19.2629C116.378 19.8842 116.412 20.9269 115.79 21.5914L61.2025 79.9468C60.8977 80.2726 60.4738 80.4607 60.0277 80.4689C60.018 80.4689 60.0092 80.4689 60 80.4689Z" fill="white"/>
</g>
</svg>
