<svg width="64" height="64" viewBox="0 0 64 64" fill="none" xmlns="http://www.w3.org/2000/svg">
<path fill-rule="evenodd" clip-rule="evenodd" d="M29.984 64H14.866C14.6316 64 14.4102 63.8909 14.267 63.7052L1.19107 46.7293C0.422423 45.8552 0 44.7342 0 43.5693V15.8727C0 13.7942 1.69525 12.0989 3.77956 12.0945C5.86553 12.0953 7.56079 13.792 7.55995 15.8763L7.5619 25.9527C7.5619 26.3701 7.22374 26.7085 6.80632 26.7085C6.38863 26.7085 6.05047 26.3701 6.05047 25.953L6.04824 15.8763C6.04852 14.6248 5.03153 13.6068 3.78123 13.6062C2.53037 13.609 1.51143 14.6257 1.51143 15.8727V43.5693C1.51143 44.3727 1.80538 45.1455 2.33904 45.7457C2.351 45.759 2.3624 45.7726 2.37297 45.7865L15.2378 62.488H29.2281V60.2204C29.2281 51.0923 27.1516 47.5547 19.5672 43.7629C19.4465 43.7025 19.3444 43.6113 19.2713 43.4978L11.9088 32.1486C11.8896 32.1191 11.8726 32.0885 11.8576 32.0568C11.6018 31.5079 11.1476 31.0916 10.5781 30.8844C10.0083 30.6772 9.39286 30.7039 8.84391 30.9597C8.29551 31.2156 7.87892 31.6703 7.67202 32.2395C7.46457 32.8091 7.49126 33.4248 7.74739 33.9732L15.5521 50.832C15.7273 51.2107 15.5624 51.6601 15.1836 51.8356C14.8043 52.0111 14.3554 51.8459 14.18 51.4671L6.37611 34.6103C5.95063 33.6976 5.90586 32.6714 6.25097 31.7225C6.59636 30.7734 7.29048 30.0162 8.20541 29.5899C9.12005 29.163 10.1462 29.1182 11.0951 29.4639C12.0267 29.8026 12.7734 30.4775 13.2038 31.3674L20.4281 42.5031C28.4219 46.5427 30.7401 50.55 30.7401 60.2204V63.2438C30.7401 63.6615 30.4017 64 29.984 64Z" fill="white"/>
<path fill-rule="evenodd" clip-rule="evenodd" d="M49.1335 64H34.0155C33.5981 64 33.2596 63.6615 33.2596 63.2438V60.2204C33.2596 50.55 35.5778 46.5427 43.5716 42.5031L50.7956 31.3674C51.6925 29.5148 53.9225 28.7164 55.7941 29.5899C56.709 30.0162 57.4028 30.7734 57.7485 31.7225C58.0939 32.6714 58.0494 33.6976 57.6225 34.6122L49.8195 51.4671C49.644 51.8459 49.1955 52.0114 48.8159 51.8356C48.4371 51.6601 48.2719 51.2107 48.4474 50.832L56.2515 33.9754C56.5085 33.4248 56.5352 32.8091 56.3277 32.2395C56.1205 31.6703 55.7042 31.2156 55.1553 30.9597C54.0218 30.4314 52.67 30.9236 52.1416 32.0568C52.1271 32.0885 52.1099 32.1191 52.0907 32.1486L44.7282 43.4978C44.6551 43.6113 44.5527 43.7025 44.4323 43.7629C36.8479 47.5547 34.7714 51.0923 34.7714 60.2204V62.488H48.7616L61.6265 45.7865C61.6373 45.7726 61.6485 45.7587 61.6604 45.7454C62.1941 45.1455 62.4878 44.3727 62.4878 43.5693V15.8727C62.4878 14.6257 61.4688 13.609 60.2163 13.6062C58.9677 13.6068 57.9509 14.6248 57.9515 15.8757L57.9493 25.953C57.9493 26.3701 57.6106 26.7085 57.1931 26.7085H57.1929C56.7757 26.7083 56.4376 26.3701 56.4376 25.9527L56.4395 15.876C56.4387 13.792 58.1334 12.0953 60.2177 12.0945C62.3039 12.0989 63.9997 13.7942 63.9997 15.8727V43.5693C63.9997 44.7342 63.577 45.8552 62.8087 46.7293L49.7325 63.7052C49.5893 63.8909 49.3682 64 49.1335 64Z" fill="white"/>
<path fill-rule="evenodd" clip-rule="evenodd" d="M41.8808 18.8411C42.0565 18.8958 42.3583 18.9312 42.5385 18.9523C43.0407 19.011 43.5146 19.0669 43.8052 19.4531C44.6231 20.541 45.8308 21.1651 47.1184 21.1651C48.406 21.1651 49.6137 20.541 50.4313 19.4531C50.7222 19.0669 51.1961 19.011 51.6983 18.9523C51.8785 18.9312 52.1802 18.8958 52.3557 18.8411C52.0985 17.9884 51.4019 15.4411 51.4019 12.8504V12.5147C51.4019 10.3378 49.4802 8.56692 47.1184 8.56692C44.7565 8.56692 42.8349 10.3378 42.8349 12.5147V12.8504C42.8349 15.4411 42.1383 17.9884 41.8808 18.8411ZM47.1184 22.6771C45.4067 22.6771 43.8074 21.8856 42.7034 20.4996C42.608 20.4824 42.4662 20.466 42.3627 20.454C41.7498 20.382 40.3151 20.214 40.3151 18.8975C40.3151 18.8166 40.3282 18.7357 40.3538 18.6589C40.3638 18.6294 41.3229 15.7092 41.3229 12.8504V12.5147C41.3229 9.50437 43.9228 7.05493 47.1184 7.05493C50.314 7.05493 52.9136 9.50437 52.9136 12.5147V12.8504C52.9136 15.7181 53.873 18.6294 53.8827 18.6586C53.9086 18.7354 53.9216 18.8163 53.9216 18.8975C53.9216 20.214 52.4867 20.382 51.8741 20.454C51.7706 20.466 51.6288 20.4824 51.5331 20.4996C50.4294 21.8856 48.8298 22.6771 47.1184 22.6771Z" fill="white"/>
<path fill-rule="evenodd" clip-rule="evenodd" d="M17.9398 8.56692C15.5779 8.56692 13.6563 10.3378 13.6563 12.5147V16.494C13.6563 19.0699 15.5779 21.1654 17.9398 21.1654C20.3016 21.1654 22.2232 19.0699 22.2232 16.494V12.5147C22.2232 10.3378 20.3016 8.56692 17.9398 8.56692ZM17.9398 22.6771C14.7442 22.6771 12.1446 19.9037 12.1446 16.494V12.5147C12.1446 9.50437 14.7442 7.05493 17.9398 7.05493C21.1353 7.05493 23.7352 9.50437 23.7352 12.5147V16.494C23.7352 19.9037 21.1353 22.6771 17.9398 22.6771Z" fill="white"/>
<path fill-rule="evenodd" clip-rule="evenodd" d="M32.0002 15.6218C29.638 15.6218 27.7167 17.393 27.7167 19.5696V23.5491C27.7167 26.1248 29.638 28.2205 32.0002 28.2205C34.362 28.2205 36.2833 26.1248 36.2833 23.5491V19.5696C36.2833 17.393 34.362 15.6218 32.0002 15.6218ZM32.0002 29.732C28.8046 29.732 26.2047 26.9586 26.2047 23.5491V19.5696C26.2047 16.5593 28.8046 14.1101 32.0002 14.1101C35.1957 14.1101 37.7953 16.5593 37.7953 19.5696V23.5491C37.7953 26.9586 35.1957 29.732 32.0002 29.732Z" fill="white"/>
<path fill-rule="evenodd" clip-rule="evenodd" d="M10.8345 25.7007C10.5873 25.7007 10.3453 25.5795 10.2005 25.3573C9.97242 25.0074 10.0714 24.5391 10.4213 24.3114L15.0629 21.2877C15.1855 21.2079 15.329 21.165 15.4753 21.165H20.3533C20.5221 21.165 20.6865 21.2218 20.8194 21.3261L23.3943 23.3417C23.723 23.5989 23.7808 24.0739 23.5233 24.4029C23.2658 24.7316 22.7906 24.7894 22.4624 24.5322L20.0928 22.677H15.6997L11.2464 25.5781C11.1187 25.661 10.9761 25.7007 10.8345 25.7007Z" fill="white"/>
<path fill-rule="evenodd" clip-rule="evenodd" d="M26.9611 11.5906C26.5434 11.5906 26.205 11.2519 26.205 10.8345C26.205 10.4171 26.5434 10.0786 26.9611 10.0786C28.767 10.0786 30.2365 8.679 30.2365 6.95872V4.1141C30.2365 2.67915 28.767 1.51171 26.9611 1.51171C25.1549 1.51171 23.6855 2.67915 23.6855 4.1141C23.6855 4.53152 23.347 4.86996 22.9296 4.86996C22.5119 4.86996 22.1735 4.53152 22.1735 4.1141C22.1735 1.84542 24.3212 0 26.9611 0C29.6008 0 31.7485 1.84542 31.7485 4.1141V6.95872C31.7485 9.51244 29.6008 11.5906 26.9611 11.5906Z" fill="white"/>
<path fill-rule="evenodd" clip-rule="evenodd" d="M41.0715 38.8029C40.6538 38.8029 40.3154 38.4644 40.3154 38.047V37.0392C40.3154 35.3406 39.3242 32.4752 37.7096 31.6681L33.8378 29.7321H30.163L26.2914 31.6681C24.6771 32.4752 23.6854 35.3406 23.6854 37.0392V38.047C23.6854 38.4644 23.3473 38.8029 22.9298 38.8029C22.5121 38.8029 22.1737 38.4644 22.1737 38.047V37.0392C22.1737 34.9418 23.3698 31.4387 25.6151 30.3158L29.6466 28.2999C29.7517 28.2476 29.8674 28.2203 29.9848 28.2203H34.0163C34.1336 28.2203 34.2493 28.2476 34.3544 28.2999L38.386 30.3158C40.6316 31.4387 41.8274 34.9418 41.8274 37.0392V38.047C41.8274 38.4644 41.4889 38.8029 41.0715 38.8029Z" fill="white"/>
<path fill-rule="evenodd" clip-rule="evenodd" d="M41.0715 25.7007C40.8426 25.7007 40.616 25.597 40.4675 25.3998C40.2164 25.0667 40.2828 24.5928 40.6157 24.3411C40.782 24.2121 42.8813 22.4345 44.1647 21.345C44.301 21.229 44.4745 21.165 44.6539 21.165H49.5319C49.7085 21.165 49.8795 21.2271 50.0153 21.34L53.6494 24.3634C53.97 24.6306 54.0137 25.1073 53.7464 25.4285C53.48 25.7488 53.0028 25.7928 52.6822 25.5258L49.2583 22.677H44.9314C43.9595 23.5019 41.7056 25.4129 41.5265 25.5481C41.3902 25.651 41.23 25.7007 41.0715 25.7007Z" fill="white"/>
<path fill-rule="evenodd" clip-rule="evenodd" d="M22.9287 6.55104C22.511 6.55104 22.1726 6.21261 22.1726 5.79519V3.77957C22.1726 3.36188 22.511 3.02344 22.9287 3.02344C23.3462 3.02344 23.6846 3.36188 23.6846 3.77957V5.79519C23.6846 6.21261 23.3462 6.55104 22.9287 6.55104Z" fill="white"/>
<path fill-rule="evenodd" clip-rule="evenodd" d="M38.0792 11.4761C38.0208 11.4761 37.9616 11.4694 37.9026 11.4552C35.763 10.9432 34.2688 9.09447 34.2688 6.95872V4.1141C34.2688 1.84542 36.4165 0 39.0562 0C41.6958 0 43.8435 1.84542 43.8435 4.1141C43.8435 4.53152 43.5054 4.86996 43.0877 4.86996C42.6703 4.86996 42.3318 4.53152 42.3318 4.1141C42.3318 2.67915 40.8624 1.51171 39.0562 1.51171C37.2502 1.51171 35.7805 2.67915 35.7805 4.1141V6.95872C35.7805 8.39173 36.7978 9.63647 38.2544 9.98492C38.6604 10.082 38.9107 10.4899 38.814 10.896C38.7305 11.2427 38.421 11.4761 38.0792 11.4761Z" fill="white"/>
</svg>
