<svg width="120" height="120" viewBox="0 0 120 120" fill="none" xmlns="http://www.w3.org/2000/svg">
<g opacity="0.2">
<path fill-rule="evenodd" clip-rule="evenodd" d="M56.2199 120H27.8738C27.4342 120 27.0191 119.796 26.7506 119.447L2.23326 87.6175C0.792043 85.9786 0 83.8768 0 81.6925V29.7613C0 25.8642 3.1786 22.6856 7.08667 22.6772C10.9979 22.6788 14.1765 25.86 14.1749 29.7681L14.1786 48.6614C14.1786 49.444 13.5445 50.0786 12.7619 50.0786C11.9787 50.0786 11.3446 49.444 11.3446 48.6619L11.3405 29.7681C11.341 27.4217 9.43412 25.5127 7.0898 25.5117C4.74444 25.5169 2.83394 27.4232 2.83394 29.7613V81.6925C2.83394 83.1989 3.38508 84.648 4.3857 85.7732C4.40812 85.7982 4.4295 85.8238 4.44931 85.8499L28.5709 117.165H54.8027V112.913C54.8027 95.7981 50.9092 89.1651 36.6884 82.0554C36.4621 81.9423 36.2708 81.7713 36.1336 81.5585L22.3289 60.2787C22.293 60.2234 22.2612 60.1661 22.233 60.1066C21.7533 59.0773 20.9018 58.2968 19.8339 57.9083C18.7655 57.5198 17.6116 57.5699 16.5823 58.0496C15.5541 58.5293 14.773 59.3818 14.385 60.4492C13.9961 61.5171 14.0461 62.6715 14.5264 63.6998L29.1601 95.31C29.4886 96.0202 29.1794 96.8628 28.4692 97.1919C27.758 97.5209 26.9164 97.2112 26.5874 96.501L11.9552 64.8943C11.1574 63.183 11.0735 61.259 11.7206 59.4799C12.3682 57.7002 13.6697 56.2804 15.3851 55.4811C17.1001 54.6807 19.0242 54.5967 20.8033 55.2449C22.55 55.88 23.95 57.1455 24.7572 58.814L38.3028 79.6934C53.2911 87.2676 57.6377 94.7813 57.6377 112.913V118.582C57.6377 119.365 57.0031 120 56.2199 120Z" fill="white"/>
<path fill-rule="evenodd" clip-rule="evenodd" d="M92.1252 120H63.779C62.9963 120 62.3618 119.365 62.3618 118.582V112.913C62.3618 94.7813 66.7083 87.2676 81.6967 79.6934L95.2417 58.814C96.9233 55.3403 101.105 53.8433 104.614 55.4811C106.329 56.2804 107.63 57.7002 108.278 59.4799C108.926 61.259 108.843 63.183 108.042 64.898L93.4115 96.501C93.0825 97.2112 92.2414 97.5214 91.5297 97.1919C90.8195 96.8628 90.5098 96.0202 90.8388 95.31L105.472 63.7039C105.953 62.6715 106.003 61.5171 105.614 60.4492C105.226 59.3818 104.445 58.5293 103.416 58.0496C101.291 57.0589 98.7561 57.9818 97.7654 60.1066C97.7383 60.1661 97.706 60.2234 97.67 60.2787L83.8653 81.5585C83.7281 81.7713 83.5363 81.9423 83.3105 82.0554C69.0897 89.1651 65.1962 95.7981 65.1962 112.913V117.165H91.428L115.55 85.8499C115.57 85.8238 115.591 85.7977 115.613 85.7727C116.614 84.648 117.164 83.1989 117.164 81.6925V29.7613C117.164 27.4232 115.254 25.5169 112.905 25.5117C110.564 25.5127 108.658 27.4217 108.659 29.767L108.655 48.6619C108.655 49.444 108.02 50.0786 107.237 50.0786H107.237C106.454 50.0781 105.82 49.444 105.82 48.6614L105.824 29.7676C105.822 25.86 109 22.6788 112.908 22.6772C116.82 22.6856 119.999 25.8642 119.999 29.7613V81.6925C119.999 83.8768 119.207 85.9786 117.766 87.6175L93.2483 119.447C92.9798 119.796 92.5652 120 92.1252 120Z" fill="white"/>
<path fill-rule="evenodd" clip-rule="evenodd" d="M78.5264 35.327C78.856 35.4297 79.4217 35.496 79.7596 35.5356C80.7013 35.6456 81.5898 35.7504 82.1347 36.4747C83.6682 38.5145 85.9327 39.6846 88.3469 39.6846C90.7611 39.6846 93.0257 38.5145 94.5587 36.4747C95.1041 35.7504 95.9926 35.6456 96.9343 35.5356C97.2722 35.496 97.8379 35.4297 98.1669 35.327C97.6846 33.7283 96.3784 28.9521 96.3784 24.0945V23.4651C96.3784 19.3834 92.7754 16.063 88.3469 16.063C83.9185 16.063 80.3154 19.3834 80.3154 23.4651V24.0945C80.3154 28.9521 79.0093 33.7283 78.5264 35.327ZM88.3469 42.5195C85.1376 42.5195 82.1389 41.0356 80.0688 38.4368C79.89 38.4045 79.624 38.3737 79.4301 38.3513C78.2808 38.2162 75.5908 37.9013 75.5908 35.4329C75.5908 35.2811 75.6153 35.1294 75.6633 34.9855C75.6821 34.9302 77.4805 29.4547 77.4805 24.0945V23.4651C77.4805 17.8207 82.3553 13.228 88.3469 13.228C94.3386 13.228 99.2129 17.8207 99.2129 23.4651V24.0945C99.2129 29.4714 101.012 34.9302 101.03 34.985C101.079 35.1289 101.103 35.2806 101.103 35.4329C101.103 37.9013 98.4125 38.2162 97.2638 38.3513C97.0698 38.3737 96.8039 38.4045 96.6245 38.4368C94.555 41.0356 91.5558 42.5195 88.3469 42.5195Z" fill="white"/>
<path fill-rule="evenodd" clip-rule="evenodd" d="M33.6371 16.063C29.2086 16.063 25.6056 19.3834 25.6056 23.4651V30.9262C25.6056 35.7562 29.2086 39.6851 33.6371 39.6851C38.0655 39.6851 41.6686 35.7562 41.6686 30.9262V23.4651C41.6686 19.3834 38.0655 16.063 33.6371 16.063ZM33.6371 42.5195C27.6454 42.5195 22.7711 37.3194 22.7711 30.9262V23.4651C22.7711 17.8207 27.6454 13.228 33.6371 13.228C39.6288 13.228 44.5035 17.8207 44.5035 23.4651V30.9262C44.5035 37.3194 39.6288 42.5195 33.6371 42.5195Z" fill="white"/>
<path fill-rule="evenodd" clip-rule="evenodd" d="M60.0003 29.291C55.5713 29.291 51.9688 32.612 51.9688 36.6931V44.1547C51.9688 48.9841 55.5713 52.9136 60.0003 52.9136C64.4287 52.9136 68.0312 48.9841 68.0312 44.1547V36.6931C68.0312 32.612 64.4287 29.291 60.0003 29.291ZM60.0003 55.7475C54.0086 55.7475 49.1338 50.5474 49.1338 44.1547V36.6931C49.1338 31.0487 54.0086 26.4565 60.0003 26.4565C65.9919 26.4565 70.8662 31.0487 70.8662 36.6931V44.1547C70.8662 50.5474 65.9919 55.7475 60.0003 55.7475Z" fill="white"/>
<path fill-rule="evenodd" clip-rule="evenodd" d="M20.3147 48.189C19.8511 48.189 19.3975 47.9617 19.1258 47.545C18.6982 46.8891 18.8839 46.011 19.5398 45.584L28.2429 39.9145C28.4729 39.7649 28.7419 39.6846 29.0162 39.6846H38.1625C38.479 39.6846 38.7871 39.7909 39.0364 39.9865L43.8642 43.7658C44.4806 44.2481 44.589 45.1387 44.1062 45.7555C43.6233 46.3718 42.7322 46.4803 42.117 45.998L37.6739 42.5196H29.437L21.0869 47.959C20.8476 48.1144 20.5801 48.189 20.3147 48.189Z" fill="white"/>
<path fill-rule="evenodd" clip-rule="evenodd" d="M50.552 21.7324C49.7688 21.7324 49.1343 21.0973 49.1343 20.3147C49.1343 19.532 49.7688 18.8974 50.552 18.8974C53.9382 18.8974 56.6934 16.2731 56.6934 13.0476V7.71395C56.6934 5.0234 53.9382 2.83446 50.552 2.83446C47.1654 2.83446 44.4102 5.0234 44.4102 7.71395C44.4102 8.4966 43.7756 9.13118 42.9929 9.13118C42.2098 9.13118 41.5752 8.4966 41.5752 7.71395C41.5752 3.46017 45.6022 0 50.552 0C55.5014 0 59.5283 3.46017 59.5283 7.71395V13.0476C59.5283 17.8358 55.5014 21.7324 50.552 21.7324Z" fill="white"/>
<path fill-rule="evenodd" clip-rule="evenodd" d="M77.0091 72.7552C76.2259 72.7552 75.5914 72.1207 75.5914 71.338V69.4484C75.5914 66.2635 73.733 60.8908 70.7056 59.3776L63.4458 55.7474H56.5557L49.2965 59.3776C46.2696 60.8908 44.4102 66.2635 44.4102 69.4484V71.338C44.4102 72.1207 43.7762 72.7552 42.9935 72.7552C42.2103 72.7552 41.5757 72.1207 41.5757 71.338V69.4484C41.5757 65.5158 43.8184 58.9474 48.0284 56.8419L55.5875 53.0621C55.7845 52.9641 56.0015 52.913 56.2215 52.913H63.7806C64.0006 52.913 64.2175 52.9641 64.4146 53.0621L71.9737 56.8419C76.1842 58.9474 78.4263 65.5158 78.4263 69.4484V71.338C78.4263 72.1207 77.7918 72.7552 77.0091 72.7552Z" fill="white"/>
<path fill-rule="evenodd" clip-rule="evenodd" d="M77.0091 48.189C76.58 48.189 76.155 47.9945 75.8766 47.6248C75.4057 47.0001 75.5304 46.1116 76.1545 45.6398C76.4663 45.3978 80.4025 42.0649 82.8089 40.0219C83.0644 39.8045 83.3898 39.6846 83.7261 39.6846H92.8724C93.2035 39.6846 93.5242 39.8008 93.7786 40.0125L100.593 45.6815C101.194 46.1826 101.276 47.0763 100.775 47.6785C100.275 48.2792 99.3803 48.3616 98.7791 47.861L92.3593 42.5196H84.2465C82.4241 44.0661 78.198 47.6493 77.8622 47.9027C77.6067 48.0957 77.3063 48.189 77.0091 48.189Z" fill="white"/>
<path fill-rule="evenodd" clip-rule="evenodd" d="M42.9914 12.2832C42.2082 12.2832 41.5737 11.6486 41.5737 10.866V7.0867C41.5737 6.30352 42.2082 5.66895 42.9914 5.66895C43.7741 5.66895 44.4086 6.30352 44.4086 7.0867V10.866C44.4086 11.6486 43.7741 12.2832 42.9914 12.2832Z" fill="white"/>
<path fill-rule="evenodd" clip-rule="evenodd" d="M71.3986 21.5176C71.2891 21.5176 71.178 21.5051 71.0675 21.4785C67.0556 20.5186 64.254 17.0521 64.254 13.0476V7.71395C64.254 3.46017 68.281 0 73.2303 0C78.1797 0 82.2067 3.46017 82.2067 7.71395C82.2067 8.4966 81.5726 9.13118 80.7894 9.13118C80.0068 9.13118 79.3722 8.4966 79.3722 7.71395C79.3722 5.0234 76.617 2.83446 73.2303 2.83446C69.8442 2.83446 67.0885 5.0234 67.0885 7.71395V13.0476C67.0885 15.7345 68.9959 18.0684 71.7271 18.7217C72.4884 18.9037 72.9576 19.6686 72.7762 20.4299C72.6198 21.0801 72.0394 21.5176 71.3986 21.5176Z" fill="white"/>
</g>
</svg>
