<svg width="29" height="29" viewBox="0 0 29 29" fill="none" xmlns="http://www.w3.org/2000/svg">
<path d="M25.6528 0.702759H3.19766C1.81916 0.702759 0.702637 1.81928 0.702637 3.19778V25.653C0.702637 27.0315 1.81916 28.148 3.19766 28.148H25.6528C27.0313 28.148 28.1479 27.0315 28.1479 25.653V3.19778C28.1479 1.81928 27.0313 0.702759 25.6528 0.702759ZM16.9203 20.6629H6.94019C6.25156 20.6629 5.69268 20.104 5.69268 19.4154C5.69268 18.7268 6.25156 18.1679 6.94019 18.1679H16.9203C17.6089 18.1679 18.1678 18.7268 18.1678 19.4154C18.1678 20.104 17.6089 20.6629 16.9203 20.6629ZM21.9103 15.6729H6.94019C6.25156 15.6729 5.69268 15.114 5.69268 14.4254C5.69268 13.7367 6.25156 13.1779 6.94019 13.1779H21.9103C22.5989 13.1779 23.1578 13.7367 23.1578 14.4254C23.1578 15.114 22.5989 15.6729 21.9103 15.6729ZM21.9103 10.6828H6.94019C6.25156 10.6828 5.69268 10.124 5.69268 9.43533C5.69268 8.7467 6.25156 8.18782 6.94019 8.18782H21.9103C22.5989 8.18782 23.1578 8.7467 23.1578 9.43533C23.1578 10.124 22.5989 10.6828 21.9103 10.6828Z" fill="#1885D3"/>
</svg>
