<svg width="48" height="46" viewBox="0 0 48 46" fill="none" xmlns="http://www.w3.org/2000/svg">
<path d="M23.9653 -6.83242e-06C23.7536 0.00753755 23.5498 0.0820814 23.3832 0.212884L3.42231 15.8359L0.383244 18.2129C0.279842 18.2939 0.193416 18.3945 0.128904 18.509C0.0643917 18.6234 0.0230562 18.7495 0.00725829 18.8799C-0.00853959 19.0103 0.00150956 19.1425 0.036832 19.2691C0.0721544 19.3956 0.132058 19.514 0.213122 19.6173C0.294185 19.7207 0.39482 19.8071 0.50928 19.8716C0.623739 19.9361 0.74978 19.9774 0.880205 19.9932C1.01063 20.0089 1.14288 19.9988 1.26941 19.9635C1.39594 19.9281 1.51426 19.8682 1.61762 19.7871L3.00043 18.7051V45C3.00046 45.2652 3.10582 45.5195 3.29335 45.7071C3.48088 45.8946 3.73522 46 4.00043 46H44.0004C44.2656 46 44.52 45.8946 44.7075 45.7071C44.895 45.5195 45.0004 45.2652 45.0004 45V18.7051L46.3832 19.7871C46.4866 19.8682 46.6049 19.9281 46.7315 19.9635C46.858 19.9988 46.9902 20.0089 47.1206 19.9931C47.2511 19.9774 47.3771 19.9361 47.4916 19.8716C47.606 19.8071 47.7066 19.7207 47.7877 19.6173C47.8688 19.5139 47.9287 19.3956 47.964 19.2691C47.9993 19.1425 48.0094 19.0103 47.9936 18.8799C47.9778 18.7494 47.9365 18.6234 47.8719 18.509C47.8074 18.3945 47.721 18.2939 47.6176 18.2129L44.6332 15.8789L24.6176 0.212884C24.4321 0.0672072 24.201 -0.00819789 23.9653 -6.83242e-06ZM24.0004 2.26952L43.0004 17.1387V44H5.00043V17.1387L24.0004 2.26952ZM31.2993 16.0254C30.9844 16.0019 30.6659 16.0095 30.35 16.0488C29.0867 16.2061 27.8298 16.8288 26.8071 17.8516C25.7843 18.8743 25.1635 20.1311 25.0063 21.3945C24.8905 22.3245 25.0425 23.2789 25.4985 24.0879L24.1704 25.416L15.3735 16.334C15.2802 16.2376 15.1685 16.1609 15.0451 16.1086C14.9216 16.0563 14.7888 16.0293 14.6547 16.0293C14.4577 16.0294 14.2652 16.0876 14.1012 16.1967C13.9372 16.3058 13.809 16.4609 13.7329 16.6426C13.1962 17.9217 12.9985 19.2914 13.0786 20.6445C13.2353 23.3168 14.4489 25.9329 16.3657 27.8496L19.0512 30.5351L13.2934 36.293C13.1974 36.3851 13.1208 36.4955 13.068 36.6176C13.0152 36.7397 12.9873 36.8712 12.986 37.0042C12.9846 37.1372 13.0098 37.2692 13.0601 37.3924C13.1104 37.5156 13.1848 37.6275 13.2789 37.7216C13.3729 37.8156 13.4848 37.89 13.608 37.9403C13.7312 37.9906 13.8632 38.0158 13.9962 38.0144C14.1293 38.0131 14.2607 37.9852 14.3828 37.9324C14.5049 37.8796 14.6153 37.803 14.7075 37.707L20.4653 31.9492L23.309 34.7949C23.4966 34.9824 23.7509 35.0877 24.0161 35.0877C24.2812 35.0877 24.5355 34.9824 24.7231 34.7949L27.643 31.875L33.2817 37.6953C33.3726 37.7915 33.4816 37.8687 33.6026 37.9224C33.7235 37.9762 33.8539 38.0054 33.9862 38.0083C34.1185 38.0113 34.25 37.988 34.3733 37.9398C34.4965 37.8915 34.6089 37.8193 34.704 37.7273C34.7991 37.6353 34.875 37.5253 34.9273 37.4038C34.9796 37.2822 35.0073 37.1515 35.0087 37.0192C35.0101 36.8868 34.9852 36.7555 34.9355 36.6329C34.8858 36.5103 34.8123 36.3987 34.7192 36.3047L28.4106 29.793C28.3986 29.7796 28.3862 29.7666 28.3735 29.7539L25.5629 26.8516L26.9125 25.5019C27.7215 25.9579 28.6759 26.1099 29.6059 25.9941C30.8693 25.8368 32.1281 25.2161 33.1508 24.1934C34.1736 23.1706 34.7944 21.9138 34.9516 20.6504C35.1088 19.387 34.774 18.0763 33.8481 17.1504C33.1537 16.456 32.2438 16.0958 31.2993 16.0254ZM31.1508 18.0156C31.6743 18.0492 32.1077 18.2381 32.434 18.5644C32.8691 18.9995 33.0636 19.6283 32.9672 20.4023C32.8709 21.1764 32.462 22.0541 31.7368 22.7793C31.0115 23.5045 30.1338 23.9134 29.3598 24.0098C28.5858 24.1061 27.955 23.9155 27.52 23.4805C27.0849 23.0454 26.8943 22.4166 26.9907 21.6426C27.087 20.8685 27.4959 19.9909 28.2211 19.2656C28.9463 18.5404 29.8241 18.1315 30.5981 18.0351C30.7916 18.0111 30.9763 18.0044 31.1508 18.0156ZM15.2993 19.1328L23.3012 27.3926C23.3745 27.5086 23.4709 27.6084 23.5844 27.6855L26.2504 30.4375L24.0161 32.6738L21.2934 29.9492C21.2279 29.8576 21.1473 29.7777 21.0551 29.7129L17.7797 26.4355C16.2145 24.8703 15.1999 22.663 15.0746 20.5273C15.046 20.0429 15.2362 19.6026 15.2993 19.1328Z" fill="white"/>
</svg>
