<svg width="755" height="755" viewBox="0 0 755 755" fill="none" xmlns="http://www.w3.org/2000/svg">
<path fill-rule="evenodd" clip-rule="evenodd" d="M568.455 522.361C565.612 504.318 560.986 487.018 554.559 470.701C538.388 475.777 521.789 479.175 504.881 480.748L482.792 482.789L480.756 504.885C474.305 574.273 437.827 638.719 377.482 688.169C362.441 675.821 348.877 662.563 336.894 648.509C319.745 656.141 301.89 662.41 283.409 667.184C304.686 695.303 330.905 721.061 361.744 743.537L377.482 755L393.232 743.537C469.059 688.297 517.438 613.552 531.211 531.204C543.815 529.087 556.249 526.074 568.455 522.361ZM410.094 614.961C420.826 600.211 429.803 584.689 436.798 568.611C421.785 560.739 407.637 551.404 394.56 540.586L377.489 526.414L360.41 540.586C306.797 585.104 235.462 604.867 157.829 597.176C155.887 577.806 155.694 558.833 157.138 540.421C139.634 533.695 122.556 525.501 106.133 515.805C101.291 550.745 101.613 587.491 107.531 625.19L110.549 644.42L129.791 647.45C222.455 662.019 309.54 643.368 377.489 594.883C387.898 602.305 398.823 608.949 410.094 614.961ZM614.974 344.885C600.201 334.153 584.696 325.205 568.613 318.21C560.752 333.205 551.424 347.366 540.569 360.419L526.415 377.492L540.569 394.557C585.094 448.171 604.874 519.507 597.177 597.176C577.807 599.077 558.829 599.292 540.423 597.826C533.691 615.382 525.491 632.419 515.795 648.865C550.733 653.714 587.487 653.374 625.186 647.45L644.427 644.433L647.439 625.185C662.02 532.52 643.375 445.446 594.873 377.492C602.312 367.068 608.956 356.156 614.974 344.885ZM743.537 361.747C688.303 285.931 613.548 237.547 531.211 223.785C529.1 211.151 526.077 198.741 522.368 186.512C504.326 189.365 487.02 193.992 470.696 200.425C475.762 216.608 479.171 233.207 480.756 250.104L482.792 272.193L504.887 274.247C574.274 280.698 638.713 317.122 688.157 377.486C675.828 392.545 662.546 406.109 648.51 418.092C656.13 435.252 662.412 453.119 667.178 471.583C695.298 450.3 721.061 424.081 743.537 393.224L755 377.486L743.537 361.747ZM344.877 140.027C334.15 154.795 325.208 170.299 318.202 186.377C333.215 194.238 347.369 203.554 360.41 214.409L377.482 228.562L394.56 214.409C448.179 169.89 519.514 150.122 597.177 157.83C599.072 177.183 599.283 196.156 597.826 214.572C615.373 221.288 632.433 229.475 648.867 239.184C653.721 204.244 653.381 167.504 647.439 129.792L644.427 110.55L625.186 107.544C532.51 92.9809 445.437 111.62 377.482 160.117C367.078 152.672 356.159 146.034 344.877 140.027ZM186.516 232.639C189.364 250.664 194.014 267.947 200.423 284.27C216.612 279.241 233.199 275.814 250.101 274.24L272.186 272.182L274.25 250.104C280.695 180.715 317.131 116.276 377.482 66.8202C392.543 79.1606 406.099 92.4251 418.088 106.468C435.249 98.847 453.11 92.5539 471.586 87.8048C450.303 59.6672 424.078 33.9452 393.232 11.4691L377.482 0L361.744 11.4691C285.941 66.7031 237.551 141.419 223.783 223.79C211.162 225.902 198.733 228.913 186.516 232.639ZM232.643 568.465C250.663 565.617 267.956 560.985 284.274 554.563C279.227 538.392 275.811 521.787 274.25 504.891L272.186 482.795L250.09 480.748C180.72 474.315 116.269 437.843 66.8255 377.486C79.1599 362.449 92.4362 348.88 106.478 336.896C98.8579 319.742 92.5648 301.887 87.8157 283.405C59.6784 304.689 33.9332 330.907 11.469 361.741L0 377.486L11.469 393.224C66.6968 469.051 141.43 517.431 223.783 531.204C225.906 543.82 228.923 556.248 232.643 568.465ZM140.02 410.091C154.793 420.829 170.297 429.795 186.376 436.79C194.242 421.782 203.558 407.634 214.396 394.557L228.572 377.486L214.396 360.419C169.9 306.805 150.108 235.464 157.823 157.824C177.187 155.894 196.16 155.684 214.571 157.146C221.285 139.635 229.479 122.545 239.194 106.128C204.243 101.286 167.502 101.613 129.791 107.544L110.549 110.544L107.531 129.792C92.9859 222.451 111.619 309.543 160.127 377.486C152.682 387.902 146.032 398.809 140.02 410.091Z" fill="#FAFAFA"/>
</svg>
