<svg width="29" height="28" viewBox="0 0 29 28" fill="none" xmlns="http://www.w3.org/2000/svg">
<path fill-rule="evenodd" clip-rule="evenodd" d="M26.9994 10.4358C26.1142 5.115 21.4862 1.15657 15.9684 1.00074C15.7061 0.990699 15.4504 1.08294 15.2578 1.25713C15.0651 1.43133 14.9513 1.67318 14.9414 1.92939V1.92939V2.01607L15.5627 11.0921C15.6034 11.7031 16.1413 12.1675 16.7672 12.1322L26.0865 11.5255C26.3491 11.5065 26.5931 11.3861 26.7645 11.1908C26.9359 10.9956 27.0204 10.7417 26.9994 10.4854V10.4358Z" stroke="white" stroke-width="2" stroke-linecap="round" stroke-linejoin="round"/>
<path d="M9.51238 6.40016C10.1052 6.26625 10.7118 6.56246 10.9578 7.10593C11.0223 7.23376 11.061 7.37247 11.0719 7.51454C11.1987 9.27279 11.465 13.1236 11.6171 15.2038C11.6431 15.5785 11.8209 15.9277 12.1113 16.174C12.4016 16.4203 12.7804 16.5435 13.164 16.5163L20.9872 16.0458C21.3364 16.0253 21.6788 16.1466 21.9333 16.3811C22.1878 16.6155 22.3318 16.9423 22.3312 17.284C22.0141 21.8973 18.62 25.754 13.9973 26.7537C9.37456 27.7534 4.63042 25.6566 2.34856 21.6053C1.66738 20.4393 1.236 19.1502 1.08063 17.8164C1.0142 17.407 0.988724 16.9924 1.00455 16.5782C1.01801 11.6515 4.56111 7.40654 9.4997 6.40016" stroke="white" stroke-width="2" stroke-linecap="round" stroke-linejoin="round"/>
</svg>
