<svg width="24" height="30" viewBox="0 0 24 30" fill="none" xmlns="http://www.w3.org/2000/svg">
<path fill-rule="evenodd" clip-rule="evenodd" d="M21.9548 4.51862C22.5813 4.74534 23 5.35585 23 6.04194V16.0784C23 18.8835 22.0136 21.5612 20.2715 23.6358C19.3955 24.6805 18.2871 25.494 17.11 26.1519L12.0086 29L6.89859 26.1504C5.72002 25.4925 4.61027 24.6805 3.73279 23.6343C1.98931 21.5597 1 18.8806 1 16.0725V6.04194C1 5.35585 1.41867 4.74534 2.04523 4.51862L11.4824 1.09113C11.8179 0.969622 12.1835 0.969622 12.5176 1.09113L21.9548 4.51862Z" stroke="white" stroke-width="2" stroke-linecap="round" stroke-linejoin="round"/>
<path d="M8.27344 14.5853L10.9862 17.3904L16.5751 11.6143" stroke="white" stroke-width="2" stroke-linecap="round" stroke-linejoin="round"/>
</svg>
