<svg width="1769" height="1545" viewBox="0 0 1769 1545" fill="none" xmlns="http://www.w3.org/2000/svg">
<path d="M636.607 29.4461C570.238 69.298 424.152 183.975 370.752 323.867C317.352 463.759 352.325 558.685 394.607 611.144C424.821 648.63 499.542 736.478 679 796.962M948 851.388C1329.67 888.088 1612.61 775.091 1706.37 714.005" stroke="white" stroke-opacity="0.7" stroke-width="5"/>
<path d="M948 851.388C839.066 840.913 750.678 821.12 679 796.962" stroke="white" stroke-opacity="0.5" stroke-width="3"/>
<path d="M1174.35 745.538C1197.69 690.208 1236.74 551.533 1206.18 439.468C1175.63 327.404 1110.29 283.94 1059.8 270.424M603.223 373.119C347.342 524.753 188.037 866.317 157.252 947.48" stroke="white" stroke-opacity="0.5" stroke-width="2"/>
<path d="M1059.8 270.424C1009.31 256.908 859.103 221.486 603.223 373.119" stroke="white" stroke-opacity="0.7" stroke-width="6"/>
<path d="M168.018 920.901C144.677 976.231 105.631 1114.91 136.184 1226.97C166.737 1339.03 232.076 1382.5 282.564 1396.01M739.144 1293.32C995.024 1141.69 1107.5 1036.5 1212 1016" stroke="white" stroke-width="2"/>
<path d="M282.564 1396.01C333.052 1409.53 483.264 1444.95 739.144 1293.32" stroke="white" stroke-width="6"/>
</svg>
