<?xml version="1.0" encoding="UTF-8"?>
<svg width="30px" height="20px" viewBox="0 0 30 20" version="1.1" xmlns="http://www.w3.org/2000/svg" xmlns:xlink="http://www.w3.org/1999/xlink">
    <title>digər</title>
    <g id="Page-1" stroke="none" stroke-width="1" fill="none" fill-rule="evenodd">
        <g id="digər" fill="#525252">
            <path d="M0,2 C0,0.895431 0.895431,0 2,0 L28,0 C29.1046,0 30,0.895431 30,2 L30,5 L0,5 L0,2 Z M0,7 L30,7 L30,18 C30,19.1046 29.1046,20 28,20 L2,20 C0.89543,20 0,19.1046 0,18 L0,7 Z M3.5,10 C3.22386,10 3,10.2239 3,10.5 L3,11.5 C3,11.7761 3.22386,12 3.5,12 L8.5,12 C8.77614,12 9,11.7761 9,11.5 L9,10.5 C9,10.2239 8.77614,10 8.5,10 L3.5,10 Z" id="Shape"></path>
        </g>
    </g>
</svg>