<svg width="154" height="36" viewBox="0 0 154 36" fill="none" xmlns="http://www.w3.org/2000/svg">
<path fill-rule="evenodd" clip-rule="evenodd" d="M45.3736 12.9397L46.3642 10.5469L47.3426 12.9397H45.3736ZM45.7002 8.76184L42.6838 15.8659H44.192L44.8463 14.2589H47.8712L48.5267 15.8659H50.0724L47.0657 8.76184H45.7002Z" fill="#0047BB"/>
<path fill-rule="evenodd" clip-rule="evenodd" d="M51.4057 10.1189H55.1828L51.2823 14.7422V15.8673H57.0841V14.558H53.1848L57.0841 9.93583V8.81201H51.4057V10.1189Z" fill="#0047BB"/>
<path fill-rule="evenodd" clip-rule="evenodd" d="M61.5386 14.6448C60.4913 14.6448 59.8478 13.9188 59.7148 12.95H63.4121C63.2283 13.9591 62.5364 14.6448 61.5386 14.6448ZM61.442 8.69519C60.068 8.69519 59.1186 9.22964 58.474 10.0033L59.4161 10.9623C60.0015 10.3632 60.5966 10.0618 61.442 10.0618C62.4035 10.0618 63.1812 10.6341 63.4025 11.6896H58.1474C58.1377 11.8641 58.1281 11.9702 58.1281 12.1642V12.1838C58.1281 14.191 59.2323 15.9823 61.5387 15.9823C63.5658 15.9823 65.0159 14.3448 65.0159 12.34V12.3107C65.0159 10.1777 63.4593 8.69519 61.442 8.69519Z" fill="#0047BB"/>
<path fill-rule="evenodd" clip-rule="evenodd" d="M69.4935 12.2522H67.88V10.1583H69.4632C70.2421 10.1583 70.7223 10.5171 70.7223 11.1967V11.2162C70.7223 11.8349 70.2627 12.2522 69.4935 12.2522ZM72.2111 11.1368V11.1185C72.2111 10.4681 72.0103 9.91655 71.6257 9.52852C71.1649 9.06362 70.4731 8.81104 69.5902 8.81104H66.4117V15.8663H67.88V13.5699H69.1572L70.7053 15.8663H72.4336L70.6848 13.3185C71.5858 12.9988 72.2111 12.2801 72.2111 11.1368Z" fill="#0047BB"/>
<path fill-rule="evenodd" clip-rule="evenodd" d="M78.323 13.755C78.323 14.2956 77.89 14.5579 77.1801 14.5579H75.3054V12.9314H77.1208C77.9493 12.9314 78.323 13.2291 78.323 13.7343V13.755ZM75.3054 10.1188H76.8801C77.5538 10.1188 77.9287 10.4006 77.9287 10.8765V10.8948C77.9287 11.4464 77.4873 11.6904 76.7858 11.6904H75.3054V10.1188ZM78.4657 12.1842C78.9677 11.9011 79.397 11.4569 79.397 10.654V10.6333C79.397 10.1489 79.2446 9.76085 78.9265 9.43139C78.5238 9.03482 77.89 8.81152 77.093 8.81152H73.8746V15.8656H77.1801C78.756 15.8656 79.7925 15.2176 79.7925 13.9291V13.9096C79.7925 12.9602 79.2736 12.4856 78.4657 12.1842Z" fill="#0047BB"/>
<path fill-rule="evenodd" clip-rule="evenodd" d="M83.4766 12.9397L84.4659 10.5469L85.4456 12.9397H83.4766ZM83.8043 8.76184L80.7867 15.8659H82.2949L82.948 14.2589H85.9729L86.626 15.8659H88.1741L85.1662 8.76184H83.8043Z" fill="#0047BB"/>
<path fill-rule="evenodd" clip-rule="evenodd" d="M90.6958 11.699L88.9772 8.81201H87.2465L89.9448 13.084V15.8673H91.4251V13.0547L94.1343 8.81201H92.4544L90.6958 11.699Z" fill="#0047BB"/>
<path fill-rule="evenodd" clip-rule="evenodd" d="M97.9681 14.6177C96.7381 14.6177 95.8854 13.5793 95.8854 12.3408V12.3201C95.8854 11.0803 96.7586 10.0627 97.9681 10.0627C98.6889 10.0627 99.2465 10.3726 99.7931 10.8766L100.735 9.77959C100.083 9.13166 99.2949 8.69482 97.9778 8.69482C95.8358 8.69482 94.3385 10.3323 94.3385 12.3408V12.3579C94.3385 14.3847 95.8648 15.9819 97.9197 15.9819C99.2658 15.9819 100.063 15.4999 100.784 14.7336L99.8415 13.7733C99.2864 14.287 98.7857 14.6177 97.9681 14.6177Z" fill="#0047BB"/>
<path fill-rule="evenodd" clip-rule="evenodd" d="M104.336 12.9397L105.326 10.5469L106.305 12.9397H104.336ZM104.662 8.76184L101.646 15.8659H103.154L103.807 14.2589H106.833L107.486 15.8659H109.033L106.028 8.76184H104.662Z" fill="#0047BB"/>
<path fill-rule="evenodd" clip-rule="evenodd" d="M114.953 8.81177V13.2607L111.583 8.81177H110.227V15.867H111.678V11.2742L115.156 15.867H116.413V8.81177H114.953Z" fill="#0047BB"/>
<path fill-rule="evenodd" clip-rule="evenodd" d="M47.5155 24.9427C47.5155 25.4942 47.0776 25.759 46.3568 25.759H44.4555V24.108H46.2975C47.1357 24.108 47.5155 24.4131 47.5155 24.9244V24.9427ZM44.4555 21.2563H46.0557C46.7366 21.2563 47.1176 21.5419 47.1176 22.0239V22.0434C47.1176 22.6035 46.6676 22.8487 45.9577 22.8487H44.4555V21.2563ZM47.6631 23.3504C48.1698 23.0649 48.6077 22.6134 48.6077 21.7983V21.7788C48.6077 21.2858 48.4517 20.8929 48.1299 20.5586C47.7199 20.1559 47.0777 19.929 46.2686 19.929H43.0031V27.0855H46.3569C47.9546 27.0855 49.0068 26.4278 49.0068 25.121V25.1002C49.0068 24.1375 48.4807 23.6555 47.6631 23.3504Z" fill="#0047BB"/>
<path fill-rule="evenodd" clip-rule="evenodd" d="M51.761 24.1563H55.1523V22.8091H51.761V21.2753H55.6095V19.9294H50.2794V27.086H55.6579V25.7389H51.761V24.1563Z" fill="#0047BB"/>
<path fill-rule="evenodd" clip-rule="evenodd" d="M60.1904 22.8597L58.4463 19.9299H56.6926L59.4308 24.2641V27.0865H60.9318V24.2361L63.6797 19.9299H61.9743L60.1904 22.8597Z" fill="#0047BB"/>
<path fill-rule="evenodd" clip-rule="evenodd" d="M69.7513 24.4421L66.3298 19.9298H64.9558V27.0863H66.4277V22.4264L69.9557 27.0863H71.2317V19.9298H69.7513V24.4421Z" fill="#0047BB"/>
<path fill-rule="evenodd" clip-rule="evenodd" d="M76.179 25.8482C75.1171 25.8482 74.4652 25.1112 74.3286 24.1265H78.0791C77.894 25.1502 77.1925 25.8482 76.179 25.8482ZM76.0823 19.8118C74.6878 19.8118 73.7238 20.3523 73.0707 21.1381L74.0262 22.1106C74.62 21.5018 75.2248 21.1967 76.0823 21.1967C77.0571 21.1967 77.8444 21.7775 78.0694 22.8489H72.7393C72.7296 23.0258 72.72 23.1344 72.72 23.3309V23.3504C72.72 25.3845 73.8411 27.2038 76.179 27.2038C78.2351 27.2038 79.707 25.5431 79.707 23.509V23.4785C79.707 21.3151 78.1274 19.8118 76.0823 19.8118Z" fill="#0047BB"/>
<path fill-rule="evenodd" clip-rule="evenodd" d="M82.6852 19.9296H81.194V27.0861H86.2616V25.7109H82.6852V19.9296Z" fill="#0047BB"/>
<path fill-rule="evenodd" clip-rule="evenodd" d="M93.9718 19.9296H92.2665L90.7075 22.309L89.1679 19.9296H87.413L89.8004 23.4487L87.3065 27.0861H89.0119L90.6688 24.57L92.3149 27.0861H94.0686L91.5844 23.4194L93.9718 19.9296Z" fill="#0047BB"/>
<path fill-rule="evenodd" clip-rule="evenodd" d="M97.8448 24.1183L98.8486 21.6901L99.8428 24.1183H97.8448ZM98.1761 19.8793L95.1174 27.0871H96.6474L97.309 25.4556H100.379L101.043 27.0871H102.61L99.5598 19.8793H98.1761Z" fill="#0047BB"/>
<path fill-rule="evenodd" clip-rule="evenodd" d="M105.346 19.9296H103.855V27.0861H108.923V25.7109H105.346V19.9296Z" fill="#0047BB"/>
<path fill-rule="evenodd" clip-rule="evenodd" d="M115.238 23.5271C115.238 23.9103 115.16 24.2751 115.014 24.5887L113.835 23.5076L112.881 24.5887L114.05 25.6015C113.756 25.7394 113.425 25.8187 113.055 25.8187C111.769 25.8187 110.852 24.7681 110.852 23.5076V23.4893C110.852 22.2313 111.751 21.199 113.035 21.199C114.322 21.199 115.238 22.2496 115.238 23.5076V23.5271ZM116.805 23.5075V23.4892C116.805 21.4539 115.238 19.8103 113.055 19.8103C110.872 19.8103 109.284 21.482 109.284 23.5075V23.5271C109.284 25.5624 110.852 27.2048 113.035 27.2048C113.835 27.2048 114.557 26.9681 115.149 26.5752L115.949 27.3036L116.904 26.2323L116.164 25.5917C116.573 24.9913 116.805 24.2751 116.805 23.5075Z" fill="#0047BB"/>
<path fill-rule="evenodd" clip-rule="evenodd" d="M125.924 24.9427C125.924 25.4942 125.486 25.759 124.765 25.759H122.864V24.108H124.706C125.544 24.108 125.924 24.4131 125.924 24.9244V24.9427ZM122.864 21.2563H124.464C125.146 21.2563 125.526 21.5419 125.526 22.0239V22.0434C125.526 22.6035 125.076 22.8487 124.366 22.8487H122.864V21.2563ZM126.07 23.3504C126.577 23.0649 127.016 22.6134 127.016 21.7983V21.7788C127.016 21.2858 126.86 20.8929 126.539 20.5586C126.128 20.1559 125.486 19.929 124.677 19.929H121.412V27.0855H124.765C126.364 27.0855 127.415 26.4278 127.415 25.121V25.1002C127.415 24.1375 126.887 23.6555 126.07 23.3504Z" fill="#0047BB"/>
<path fill-rule="evenodd" clip-rule="evenodd" d="M130.911 24.1183L131.915 21.6901L132.91 24.1183H130.911ZM131.242 19.8793L128.182 27.0871H129.714L130.374 25.4556H133.445L134.108 27.0871H135.676L132.626 19.8793H131.242Z" fill="#0047BB"/>
<path fill-rule="evenodd" clip-rule="evenodd" d="M141.676 24.4421L138.256 19.9298H136.881V27.0863H138.353V22.4264L141.88 27.0863H143.157V19.9298H141.676V24.4421Z" fill="#0047BB"/>
<path fill-rule="evenodd" clip-rule="evenodd" d="M151.262 19.9296H149.421L146.458 23.1546V19.9296H144.967V27.0861H146.458V24.9239L147.335 24.0099L149.585 27.0861H151.39L148.348 22.9777L151.262 19.9296Z" fill="#0047BB"/>
<path fill-rule="evenodd" clip-rule="evenodd" d="M152.499 27.0861H154V19.9296H152.499V27.0861Z" fill="#0047BB"/>
<path fill-rule="evenodd" clip-rule="evenodd" d="M26.8669 24.9059C26.7327 24.0481 26.5138 23.2195 26.2102 22.4423C25.4458 22.6851 24.6609 22.8474 23.8614 22.9206L22.8177 23.0194L22.7209 24.0725C22.4173 27.3805 20.6926 30.4542 17.8407 32.8116C17.1296 32.2235 16.4886 31.5914 15.9225 30.9227C15.1122 31.2863 14.268 31.5841 13.3948 31.811C14.4011 33.1533 15.6395 34.382 17.0969 35.4534L17.8407 36L18.5846 35.4534C22.1694 32.8177 24.4553 29.2535 25.1059 25.3281C25.7022 25.228 26.29 25.084 26.8669 24.9059ZM29.0657 16.4422C28.3666 15.9322 27.6349 15.5051 26.8742 15.1708C26.5029 15.8858 26.0614 16.5606 25.5486 17.1853L24.8798 17.998L25.5486 18.8119C27.653 21.3694 28.5867 24.7714 28.2239 28.4735C27.3084 28.5638 26.4109 28.5748 25.5413 28.504C25.2232 29.3423 24.8362 30.155 24.3778 30.9371C26.0287 31.169 27.7667 31.1531 29.5471 30.8712L30.4566 30.7272L30.5993 29.8096C31.2887 25.39 30.407 21.2377 28.1151 17.998C28.467 17.5014 28.7803 16.9816 29.0657 16.4422ZM35.142 17.2489C32.5308 13.6335 28.9979 11.3248 25.1059 10.6684C25.0067 10.068 24.864 9.47499 24.6886 8.89294C23.8348 9.02717 23.0172 9.24925 22.2467 9.55552C22.4862 10.3279 22.6459 11.1174 22.7209 11.9227L22.8176 12.9782L23.8626 13.0758C27.1414 13.3833 30.1868 15.1197 32.5235 17.9994C31.9417 18.7169 31.314 19.3636 30.65 19.9358C31.0105 20.7534 31.3068 21.6051 31.5317 22.4861C32.8621 21.4709 34.0789 20.2202 35.142 18.7474L35.6826 17.9994L35.142 17.2489ZM19.3815 29.3204C19.8895 28.6175 20.3128 27.8793 20.6442 27.1118C19.9342 26.736 19.2666 26.2918 18.6486 25.7756L17.8407 25.0984L17.034 25.7756C14.4989 27.8964 11.1282 28.8408 7.4587 28.4735C7.36799 27.5498 7.35831 26.6457 7.42725 25.7671C6.59998 25.445 5.79207 25.0545 5.0156 24.592C4.78701 26.2588 4.80273 28.0123 5.08212 29.8097L5.22483 30.7273L6.13434 30.8712C10.5138 31.5643 14.6296 30.676 17.8407 28.3625C18.3329 28.7164 18.8494 29.0348 19.3815 29.3204ZM10.9952 27.1048C11.8466 26.9681 12.6642 26.7485 13.4358 26.4422C13.1976 25.6723 13.0355 24.8791 12.9617 24.0738L12.8638 23.0195L11.82 22.9219C8.54118 22.6144 5.49456 20.8756 3.15789 17.9996C3.74085 17.2821 4.36855 16.6342 5.03255 16.0631C4.67213 15.2443 4.3746 14.3939 4.14964 13.5116C2.82045 14.5269 1.60374 15.7776 0.541836 17.2491L0 17.9996L0.541836 18.7476C3.15305 22.3643 6.68466 24.6729 10.5767 25.3282C10.6771 25.9297 10.8186 26.5215 10.9952 27.1048ZM16.2998 6.67566C15.793 7.37972 15.3697 8.11795 15.0396 8.88546C15.7483 9.26006 16.4171 9.70422 17.0339 10.2228L17.8407 10.8976L18.6486 10.2228C21.1812 8.09964 24.5531 7.15642 28.2238 7.52492C28.3145 8.44862 28.3242 9.3528 28.2553 10.2301C29.085 10.5498 29.8905 10.9415 30.6669 11.404C30.8955 9.73717 30.8798 7.98616 30.5992 6.18635L30.4565 5.26998L29.547 5.12599C25.1675 4.43291 21.053 5.32 17.8407 7.63474C17.3484 7.27966 16.8332 6.96241 16.2998 6.67566ZM6.61691 19.5528C7.31597 20.0641 8.0489 20.4936 8.80965 20.8255C9.18095 20.1105 9.62119 19.4369 10.1328 18.8134L10.8028 17.9983L10.1328 17.1856C8.03076 14.6269 7.09464 11.2261 7.45869 7.52523C8.37424 7.43249 9.27045 7.42273 10.1413 7.49228C10.4593 6.65644 10.8452 5.84256 11.3048 5.05918C9.65385 4.82856 7.91586 4.84442 6.13433 5.12629L5.22482 5.26906L5.08211 6.18665C4.39513 10.605 5.27562 14.7599 7.56754 17.9983C7.2168 18.4949 6.90234 19.0159 6.61691 19.5528ZM8.81446 11.0917C8.94991 11.952 9.16883 12.7768 9.4724 13.5529C10.238 13.3125 11.0217 13.1502 11.82 13.0758L12.8637 12.9769L12.9617 11.9227C13.2665 8.61591 14.9887 5.54342 17.8406 3.18475C18.553 3.77411 19.194 4.40496 19.76 5.07486C20.5704 4.71123 21.4146 4.41228 22.2878 4.18654C21.2827 2.84431 20.043 1.61678 18.5844 0.545434L17.8406 0L17.0968 0.545434C13.5144 3.17865 11.2261 6.74288 10.5766 10.6683C9.97916 10.7696 9.39378 10.9136 8.81446 11.0917Z" fill="#0047BB"/>
</svg>
