<svg width="18" height="18" viewBox="0 0 18 18" fill="none" xmlns="http://www.w3.org/2000/svg">
<path d="M8.96484 14.0977C8.57648 14.0977 8.26172 13.7829 8.26172 13.3945C8.26172 13.0062 8.57648 12.6914 8.96484 12.6914C9.35321 12.6914 9.66797 13.0062 9.66797 13.3945C9.66797 13.7829 9.35321 14.0977 8.96484 14.0977ZM9.66797 10.9336V9.98946C11.0275 9.66055 11.9695 8.42706 11.9158 7.03221C11.8574 5.51335 10.6113 4.27835 9.07883 4.22095C8.26007 4.18991 7.48691 4.48325 6.90244 5.04616C6.32799 5.59946 6.01172 6.34186 6.01172 7.13672C6.01172 7.52509 6.32648 7.83984 6.71484 7.83984C7.10321 7.83984 7.41797 7.52509 7.41797 7.13672C7.41797 6.72748 7.58125 6.34474 7.87788 6.0591C8.18468 5.7637 8.59213 5.61003 9.02609 5.6261C9.82823 5.65631 10.4803 6.29764 10.5106 7.08632C10.5388 7.8213 10.0315 8.47073 9.30405 8.63031C8.69032 8.76503 8.26172 9.29539 8.26172 9.92024V10.9336C8.26172 11.322 8.57648 11.6367 8.96484 11.6367C9.35321 11.6367 9.66797 11.322 9.66797 10.9336ZM13.6568 16.7029C13.989 16.5017 14.0952 16.0694 13.894 15.7374C13.6927 15.4052 13.2604 15.299 12.9283 15.5002C11.7473 16.2155 10.3888 16.5938 9 16.5938C4.81284 16.5938 1.40625 13.1872 1.40625 9C1.40625 4.81284 4.81284 1.40625 9 1.40625C13.1872 1.40625 16.5938 4.81284 16.5938 9C16.5938 10.4973 16.1485 11.9546 15.3062 13.2148C15.0903 13.5375 15.1771 13.9742 15.4998 14.1901C15.8226 14.406 16.2594 14.3192 16.4751 13.9963C17.4728 12.5042 18 10.7765 18 9C18 6.59605 17.0638 4.33589 15.364 2.63603C13.6641 0.936172 11.4039 0 9 0C6.59605 0 4.33589 0.936172 2.63603 2.63603C0.936172 4.33589 0 6.59605 0 9C0 11.4039 0.936172 13.6641 2.63603 15.364C4.33589 17.0638 6.59605 18 9 18C10.6458 18 12.2561 17.5515 13.6568 16.7029Z" fill="#4D5A6F"/>
</svg>
