<svg width="280" height="310" viewBox="0 0 280 310" fill="none" xmlns="http://www.w3.org/2000/svg">
<path fill-rule="evenodd" clip-rule="evenodd" d="M259.758 238.695C258.459 230.45 256.345 222.545 253.408 215.088C246.018 217.408 238.433 218.961 230.707 219.679L220.613 220.612L219.683 230.709C216.735 262.416 200.067 291.865 172.492 314.461C165.619 308.819 159.421 302.76 153.945 296.338C146.109 299.826 137.95 302.691 129.505 304.872C139.227 317.721 151.208 329.492 165.3 339.762L172.492 345L179.689 339.762C214.338 314.52 236.445 280.365 242.739 242.736C248.498 241.768 254.18 240.392 259.758 238.695ZM187.394 281.009C192.298 274.269 196.4 267.176 199.597 259.829C192.736 256.232 186.271 251.966 180.296 247.023L172.495 240.547L164.691 247.023C140.192 267.365 107.595 276.396 72.1203 272.882C71.2329 264.03 71.1448 255.361 71.8047 246.947C63.8062 243.874 56.0024 240.13 48.498 235.699C46.2852 251.665 46.4322 268.456 49.1368 285.683L50.5158 294.47L59.3084 295.855C101.652 302.512 141.446 293.989 172.495 271.834C177.251 275.226 182.244 278.262 187.394 281.009ZM281.015 157.597C274.264 152.693 267.179 148.604 259.83 145.407C256.238 152.259 251.975 158.73 247.015 164.695L240.547 172.496L247.015 180.294C267.361 204.793 276.399 237.391 272.882 272.882C264.031 273.75 255.359 273.849 246.948 273.179C243.872 281.201 240.125 288.986 235.694 296.501C251.66 298.717 268.454 298.562 285.681 295.855L294.473 294.476L295.85 285.68C302.513 243.337 293.992 203.548 271.829 172.496C275.229 167.733 278.265 162.747 281.015 157.597ZM339.762 165.302C314.522 130.657 280.363 108.548 242.739 102.259C241.774 96.4863 240.393 90.8155 238.698 85.2271C230.454 86.5311 222.545 88.6452 215.086 91.5847C217.401 98.9799 218.959 106.565 219.683 114.286L220.613 124.38L230.71 125.318C262.417 128.266 291.862 144.91 314.456 172.494C308.822 179.375 302.753 185.573 296.339 191.049C299.821 198.89 302.691 207.054 304.869 215.491C317.719 205.766 329.492 193.785 339.762 179.685L345 172.494L339.762 165.302ZM157.593 63.986C152.691 70.7339 148.605 77.8186 145.403 85.1658C152.264 88.7576 158.731 93.0146 164.691 97.9749L172.492 104.442L180.296 97.9749C204.797 77.632 237.394 68.5988 272.882 72.121C273.748 80.9645 273.844 89.6342 273.179 98.0496C281.197 101.118 288.992 104.86 296.502 109.296C298.72 93.3302 298.565 76.5414 295.85 59.3089L294.473 50.5162L285.681 49.1426C243.332 42.488 203.544 51.0053 172.492 73.1662C167.738 69.7641 162.748 66.7307 157.593 63.986ZM85.2291 106.305C86.5305 114.542 88.6554 122.439 91.5841 129.898C98.9818 127.6 106.561 126.034 114.284 125.315L124.376 124.374L125.319 114.286C128.265 82.5783 144.914 53.1326 172.492 30.5337C179.374 36.1727 185.568 42.234 191.047 48.6507C198.889 45.1685 207.05 42.2928 215.493 40.1227C205.768 27.2652 193.784 15.5114 179.689 5.24083L172.492 0L165.3 5.24083C130.662 30.4802 108.55 64.6217 102.259 102.262C96.4914 103.227 90.8117 104.603 85.2291 106.305ZM106.307 259.762C114.541 258.461 122.444 256.344 129.9 253.41C127.594 246.02 126.033 238.433 125.319 230.712L124.376 220.615L114.279 219.679C82.5809 216.74 53.1296 200.074 30.5361 172.494C36.1724 165.622 42.2391 159.422 48.6557 153.946C45.1735 146.107 42.2978 137.948 40.1277 129.503C27.2703 139.229 15.5059 151.209 5.24079 165.299L0 172.494L5.24079 179.685C30.4774 214.334 64.6268 236.442 102.259 242.736C103.228 248.5 104.607 254.179 106.307 259.762ZM63.9828 187.393C70.7333 192.299 77.8179 196.396 85.1652 199.593C88.7596 192.735 93.0165 186.27 97.9691 180.294L104.447 172.494L97.9691 164.695C77.6365 140.196 68.5924 107.596 72.1178 72.1184C80.9664 71.2361 89.6361 71.1403 98.049 71.8086C101.117 63.8067 104.861 55.9976 109.3 48.4958C93.3295 46.2829 76.5408 46.4326 59.3084 49.1426L50.5158 50.5136L49.1368 59.3089C42.4903 101.65 51.0049 141.447 73.1707 172.494C69.7686 177.253 66.73 182.237 63.9828 187.393Z" fill="white"/>
</svg>
