<svg width="33" height="45" viewBox="0 0 33 45" fill="none" xmlns="http://www.w3.org/2000/svg">
<path fill-rule="evenodd" clip-rule="evenodd" d="M22.0117 1.30999L32.845 12.1433C33.1583 12.4567 33.3333 12.88 33.3333 13.3217V40.8217C33.3333 42.6633 31.8417 44.155 30 44.155H3.33333C1.49167 44.155 0 42.6633 0 40.8217V4.15499C0 2.31332 1.49167 0.821655 3.33333 0.821655H20.8333C21.275 0.821655 21.6983 0.996655 22.0117 1.30999ZM20 12.4883C20 13.4083 20.7467 14.155 21.6667 14.155H30.16L20 3.99499V12.4883ZM15.2557 24.5533C15.2557 23.5533 15.6957 23.1733 16.3957 23.1733C17.0957 23.1733 17.5357 23.5533 17.5357 24.5533V32.1133C17.5357 33.1133 17.0957 33.4933 16.3957 33.4933C15.6957 33.4933 15.2557 33.1133 15.2557 32.1133V24.5533ZM13.0557 31.9733C13.0557 34.2133 14.2357 35.4933 16.3957 35.4933C18.5557 35.4933 19.7357 34.2133 19.7357 31.9733V24.6933C19.7357 22.4533 18.5557 21.1733 16.3957 21.1733C14.2357 21.1733 13.0557 22.4533 13.0557 24.6933V31.9733ZM5.07162 35.3333H8.55162C10.7516 35.3333 11.8316 34.1133 11.8316 31.8733V24.7933C11.8316 22.5533 10.7516 21.3333 8.55162 21.3333H5.07162V35.3333ZM8.51162 23.3333C9.21162 23.3333 9.63162 23.6933 9.63162 24.6933V31.9733C9.63162 32.9733 9.21162 33.3333 8.51162 33.3333H7.27162V23.3333H8.51162ZM25.4654 32.1133V30.1133H27.5454V31.9733C27.5454 34.2133 26.4254 35.4933 24.2654 35.4933C22.1054 35.4933 20.9854 34.2133 20.9854 31.9733V24.6933C20.9854 22.4533 22.1054 21.1733 24.2654 21.1733C26.4254 21.1733 27.5454 22.4533 27.5454 24.6933V26.0533H25.4654V24.5533C25.4654 23.5533 25.0254 23.1733 24.3254 23.1733C23.6254 23.1733 23.1854 23.5533 23.1854 24.5533V32.1133C23.1854 33.1133 23.6254 33.4733 24.3254 33.4733C25.0254 33.4733 25.4654 33.1133 25.4654 32.1133Z" fill="#285293"/>
</svg>
