<svg width="48" height="48" viewBox="0 0 48 48" fill="none" xmlns="http://www.w3.org/2000/svg">
<path d="M24 0C23.7348 0 23.4804 0.105357 23.2929 0.292893C23.1054 0.48043 23 0.734784 23 1C23 1.26522 23.1054 1.51957 23.2929 1.70711C23.4804 1.89464 23.7348 2 24 2C24.2652 2 24.5196 1.89464 24.7071 1.70711C24.8946 1.51957 25 1.26522 25 1C25 0.734784 24.8946 0.48043 24.7071 0.292893C24.5196 0.105357 24.2652 0 24 0ZM18.0469 0.783203C17.7817 0.783203 17.5273 0.88856 17.3398 1.0761C17.1522 1.26363 17.0469 1.51799 17.0469 1.7832C17.0469 2.04842 17.1522 2.30277 17.3398 2.49031C17.5273 2.67785 17.7817 2.7832 18.0469 2.7832C18.3121 2.7832 18.5664 2.67785 18.754 2.49031C18.9415 2.30277 19.0469 2.04842 19.0469 1.7832C19.0469 1.51799 18.9415 1.26363 18.754 1.0761C18.5664 0.88856 18.3121 0.783203 18.0469 0.783203ZM29.9531 0.783203C29.6879 0.783203 29.4336 0.88856 29.246 1.0761C29.0585 1.26363 28.9531 1.51799 28.9531 1.7832C28.9531 2.04842 29.0585 2.30277 29.246 2.49031C29.4336 2.67785 29.6879 2.7832 29.9531 2.7832C30.2183 2.7832 30.4727 2.67785 30.6602 2.49031C30.8478 2.30277 30.9531 2.04842 30.9531 1.7832C30.9531 1.51799 30.8478 1.26363 30.6602 1.0761C30.4727 0.88856 30.2183 0.783203 29.9531 0.783203ZM12.5 3.08008C12.2348 3.08008 11.9804 3.18544 11.7929 3.37297C11.6054 3.56051 11.5 3.81486 11.5 4.08008C11.5 4.34529 11.6054 4.59965 11.7929 4.78718C11.9804 4.97472 12.2348 5.08008 12.5 5.08008C12.7652 5.08008 13.0196 4.97472 13.2071 4.78718C13.3946 4.59965 13.5 4.34529 13.5 4.08008C13.5 3.81486 13.3946 3.56051 13.2071 3.37297C13.0196 3.18544 12.7652 3.08008 12.5 3.08008ZM35.5 3.08008C35.2348 3.08008 34.9804 3.18544 34.7929 3.37297C34.6054 3.56051 34.5 3.81486 34.5 4.08008C34.5 4.34529 34.6054 4.59965 34.7929 4.78718C34.9804 4.97472 35.2348 5.08008 35.5 5.08008C35.7652 5.08008 36.0196 4.97472 36.2071 4.78718C36.3946 4.59965 36.5 4.34529 36.5 4.08008C36.5 3.81486 36.3946 3.56051 36.2071 3.37297C36.0196 3.18544 35.7652 3.08008 35.5 3.08008ZM24 4C12.9662 4 4 12.9662 4 24C4 35.0339 12.9662 44 24 44C35.0339 44 44 35.0339 44 24C44 12.9662 35.0339 4 24 4ZM24 6C27.5202 6 30.7908 7.02213 33.5625 8.76367C33.3352 9.31965 32.9948 10.1377 32.5273 11.1641C32.1744 11.9389 31.7912 12.7291 31.4512 13.3379C31.2812 13.6423 31.1202 13.9024 30.9941 14.0781C30.8681 14.2538 30.7412 14.3426 30.8457 14.2773L28.7812 15.543C28.7146 15.5838 28.653 15.6323 28.5977 15.6875C28.092 16.1932 27.8984 16.9626 28.0645 17.627C28.1071 17.7991 28.1947 17.9569 28.3184 18.084L28.8887 18.668C28.5935 18.7674 28.2943 18.858 27.9824 19.0312C27.7758 19.146 27.5612 19.2898 27.3633 19.5254C27.1654 19.761 27 20.125 27 20.5C27 21.1536 27.1967 21.717 27.4297 22.3379C27.5462 22.6483 27.6721 22.94 27.834 23.2109C27.9149 23.3464 28.0005 23.4778 28.1445 23.623C28.2886 23.7683 28.5221 24 29 24C30.619 24 31.7087 23.3036 32.3281 22.5645C32.9475 21.8253 33.2327 21.2278 33.8184 20.8223C34.4906 20.3571 34.9128 20.3004 35.2656 20.209C35.3373 20.3154 35.3335 20.2694 35.4258 20.4473C35.6988 20.9734 35.9803 21.785 35.9941 22.9199C35.9844 22.9092 35.9504 23.0565 35.8164 23.2246C35.6335 23.454 35.3256 23.7478 34.9395 24.0176C34.1671 24.5571 33.0907 25 32 25C30.0027 25 28.6565 25.5892 27.8867 26.4707C27.1169 27.3523 27 28.3787 27 29C27 30.9253 28.2005 32.2503 29.3242 32.9707C29.8861 33.3309 30.4424 33.5703 30.8906 33.7285C31.0725 33.7927 31.1569 33.7974 31.2891 33.8359C31.4475 34.1303 31.6646 34.5909 32.2598 36C32.5614 36.7154 33.2553 38.2118 33.6914 39.1582C30.8931 40.9493 27.5743 42 24 42C22.9617 42 21.9508 41.8928 20.9609 41.7246C21.1673 40.5549 21.5573 39.2003 21.9512 38.041C22.3682 36.8135 22.6988 36.0135 22.8691 35.5352C23.4575 35.1441 25 33.9897 25 31.375C25 30.8478 24.8484 30.4448 24.4941 29.9609C24.1398 29.4771 23.4633 29 22.625 29C22.1622 29 22.1337 28.9872 21.959 28.8809C21.7842 28.7745 21.4305 28.4529 20.7949 27.8809C20.7943 27.8809 20.7936 27.8809 20.793 27.8809C19.9702 27.141 18.9752 27 18.25 27H16.75H14.125C13.3958 27 13.3065 26.783 13.1602 26.4902C13.0138 26.1975 13 25.875 13 25.875V24H13.625C13.7615 24 13.7136 23.9939 13.7109 23.9922C13.7375 24.0813 13.7543 24.2066 13.9512 24.459C14.1925 24.7684 14.7167 25 15.125 25C15.7872 25 16.4569 24.617 16.7324 24.1406C17.008 23.6643 17 23.2453 17 23C17 22.497 17.0582 21.9549 17.2637 21.6309C17.4692 21.3068 17.7822 21 19 21C19.5804 21 20.2964 20.8905 20.9336 20.4062C21.5708 19.922 22 19.0433 22 18V14.5C22 14.3317 22.0121 13.7415 21.6426 13.1309C21.2731 12.5202 20.4306 12 19.375 12C18.6743 12 18.2054 11.8981 18.0742 11.8301C17.9431 11.7621 18 11.9042 18 11.625C18 11.6516 18.0448 11.2703 18.1562 10.8379C18.2677 10.4055 18.4338 9.86349 18.6367 9.29297C18.992 8.29405 19.4755 7.21967 19.9355 6.47656C21.2433 6.17508 22.5997 6 24 6ZM7.73633 6.73633C7.47111 6.73633 7.21676 6.84169 7.02922 7.02922C6.84169 7.21676 6.73633 7.47111 6.73633 7.73633C6.73633 8.00154 6.84169 8.2559 7.02922 8.44343C7.21676 8.63097 7.47111 8.73633 7.73633 8.73633C8.00154 8.73633 8.2559 8.63097 8.44343 8.44343C8.63097 8.2559 8.73633 8.00154 8.73633 7.73633C8.73633 7.47111 8.63097 7.21676 8.44343 7.02922C8.2559 6.84169 8.00154 6.73633 7.73633 6.73633ZM40.2637 6.73633C39.9985 6.73633 39.7441 6.84169 39.5566 7.02922C39.369 7.21676 39.2637 7.47111 39.2637 7.73633C39.2637 8.00154 39.369 8.2559 39.5566 8.44343C39.7441 8.63097 39.9985 8.73633 40.2637 8.73633C40.5289 8.73633 40.7832 8.63097 40.9708 8.44343C41.1583 8.2559 41.2637 8.00154 41.2637 7.73633C41.2637 7.47111 41.1583 7.21676 40.9708 7.02922C40.7832 6.84169 40.5289 6.73633 40.2637 6.73633ZM17.2676 7.31055C17.0812 7.74868 16.905 8.19072 16.752 8.62109C16.5304 9.2442 16.3485 9.83637 16.2188 10.3398C16.089 10.8433 16 11.1999 16 11.625C16 12.4258 16.4804 13.256 17.1543 13.6055C17.8281 13.9549 18.5457 14 19.375 14C19.9174 14 19.8881 14.0941 19.9316 14.166C19.9751 14.2379 20 14.3983 20 14.5V18C20 18.5817 19.8667 18.703 19.7227 18.8125C19.5786 18.922 19.2946 19 19 19C17.3378 19 16.1507 19.6527 15.5762 20.5586C15.1254 21.2695 15.0524 21.9617 15.0312 22.5273C14.9605 22.4554 14.9606 22.3852 14.8691 22.3242C14.5135 22.0871 14.086 22 13.625 22H12.75C12.1168 22 11.4232 22.4214 11.1895 22.9141C10.9557 23.4067 11 23.7905 11 24V25.8066C10.1682 25.195 9.56567 24.7538 9.03516 23.8164C8.88089 23.5437 8.68222 23.2686 8.41016 23.0254C8.40951 23.0247 8.40886 23.0241 8.4082 23.0234L8.10938 22.7578C8.10872 22.7578 8.10807 22.7578 8.10742 22.7578C7.56059 22.2722 6.85514 22.0019 6.12305 22C6.86265 15.3086 11.2512 9.73539 17.2676 7.31055ZM35.2363 9.94531C39.3568 13.2418 42 18.3036 42 24C42 29.6467 39.4064 34.6743 35.3477 37.9727C34.892 36.9791 34.3295 35.7615 34.1016 35.2207C33.421 33.6093 33.1609 32.973 32.8477 32.4707C32.7693 32.345 32.664 32.2382 32.5394 32.1582C32.4147 32.0781 32.2739 32.0268 32.127 32.0078C32.232 32.0212 31.8903 31.9603 31.5547 31.8418C31.2191 31.7233 30.7973 31.5391 30.4043 31.2871C29.6183 30.7832 29 30.1317 29 29C29 28.6313 29.0706 28.1581 29.3945 27.7871C29.7185 27.4162 30.3723 27 32 27C33.6093 27 35.0333 26.3936 36.0859 25.6582C36.6123 25.2905 37.0481 24.8901 37.3809 24.4727C37.7136 24.0552 38 23.6509 38 23C38 21.4802 37.6069 20.3131 37.1992 19.5273C36.7915 18.7416 36.3125 18.2734 36.3125 18.2734C36.1992 18.1665 36.0625 18.0875 35.9133 18.0428C35.7641 17.998 35.6066 17.9887 35.4531 18.0156C35.4531 18.0156 34.0228 18.2496 32.6816 19.1777C31.6423 19.8972 31.1968 20.7997 30.7949 21.2793C30.4672 21.6704 30.1383 21.8612 29.4375 21.9336C29.3907 21.833 29.3489 21.7629 29.3008 21.6348C29.1612 21.2629 29.1014 20.9259 29.0625 20.7402C29.2322 20.6593 29.4881 20.5586 29.8164 20.4492C29.9007 20.4209 29.9808 20.3815 30.0547 20.332C30.6475 19.9368 30.7407 19.4786 30.8457 19.1426C30.9507 18.8065 30.9902 18.5156 30.9902 18.5156C31.0117 18.3639 30.9981 18.2092 30.9503 18.0636C30.9026 17.918 30.822 17.7853 30.7148 17.6758L30.1211 17.0664L31.8984 15.9766C31.9004 15.9753 31.9023 15.974 31.9043 15.9727C32.2588 15.7511 32.4239 15.5162 32.6191 15.2441C32.8144 14.9721 33.004 14.6605 33.1973 14.3145C33.5838 13.6224 33.9818 12.7955 34.3477 11.9922C34.694 11.2318 34.9991 10.5132 35.2363 9.94531ZM4.08008 11.5C3.81486 11.5 3.56051 11.6054 3.37297 11.7929C3.18544 11.9804 3.08008 12.2348 3.08008 12.5C3.08008 12.7652 3.18544 13.0196 3.37297 13.2071C3.56051 13.3946 3.81486 13.5 4.08008 13.5C4.34529 13.5 4.59965 13.3946 4.78718 13.2071C4.97472 13.0196 5.08008 12.7652 5.08008 12.5C5.08008 12.2348 4.97472 11.9804 4.78718 11.7929C4.59965 11.6054 4.34529 11.5 4.08008 11.5ZM43.9199 11.5C43.6547 11.5 43.4004 11.6054 43.2128 11.7929C43.0253 11.9804 42.9199 12.2348 42.9199 12.5C42.9199 12.7652 43.0253 13.0196 43.2128 13.2071C43.4004 13.3946 43.6547 13.5 43.9199 13.5C44.1851 13.5 44.4395 13.3946 44.627 13.2071C44.8146 13.0196 44.9199 12.7652 44.9199 12.5C44.9199 12.2348 44.8146 11.9804 44.627 11.7929C44.4395 11.6054 44.1851 11.5 43.9199 11.5ZM1.7832 17.0469C1.51799 17.0469 1.26363 17.1522 1.0761 17.3398C0.88856 17.5273 0.783203 17.7817 0.783203 18.0469C0.783203 18.3121 0.88856 18.5664 1.0761 18.754C1.26363 18.9415 1.51799 19.0469 1.7832 19.0469C2.04842 19.0469 2.30277 18.9415 2.49031 18.754C2.67785 18.5664 2.7832 18.3121 2.7832 18.0469C2.7832 17.7817 2.67785 17.5273 2.49031 17.3398C2.30277 17.1522 2.04842 17.0469 1.7832 17.0469ZM46.2168 17.0469C45.9516 17.0469 45.6972 17.1522 45.5097 17.3398C45.3222 17.5273 45.2168 17.7817 45.2168 18.0469C45.2168 18.3121 45.3222 18.5664 45.5097 18.754C45.6972 18.9415 45.9516 19.0469 46.2168 19.0469C46.482 19.0469 46.7364 18.9415 46.9239 18.754C47.1114 18.5664 47.2168 18.3121 47.2168 18.0469C47.2168 17.7817 47.1114 17.5273 46.9239 17.3398C46.7364 17.1522 46.482 17.0469 46.2168 17.0469ZM1 23C0.734784 23 0.48043 23.1054 0.292893 23.2929C0.105357 23.4804 0 23.7348 0 24C0 24.2652 0.105357 24.5196 0.292893 24.7071C0.48043 24.8946 0.734784 25 1 25C1.26522 25 1.51957 24.8946 1.70711 24.7071C1.89464 24.5196 2 24.2652 2 24C2 23.7348 1.89464 23.4804 1.70711 23.2929C1.51957 23.1054 1.26522 23 1 23ZM47 23C46.7348 23 46.4804 23.1054 46.2929 23.2929C46.1054 23.4804 46 23.7348 46 24C46 24.2652 46.1054 24.5196 46.2929 24.7071C46.4804 24.8946 46.7348 25 47 25C47.2652 25 47.5196 24.8946 47.7071 24.7071C47.8946 24.5196 48 24.2652 48 24C48 23.7348 47.8946 23.4804 47.7071 23.2929C47.5196 23.1054 47.2652 23 47 23ZM6 24H6.11523C6.36034 24 6.59608 24.0893 6.7793 24.252L7.07812 24.5176C7.14573 24.5785 7.22572 24.6784 7.29492 24.8008C8.12789 26.2726 9.20846 26.9574 10.1719 27.6797C10.7043 28.079 11.4103 28.4318 12.0273 28.9316C12.6444 29.4315 13.002 29.9398 13.002 30.375C13.002 32.1229 13.549 33.7967 14.0566 35.2422C14.5643 36.6877 15.002 37.9704 15.002 38.5V39.584C9.61931 36.4779 6 30.6713 6 24ZM1.7832 28.9531C1.51799 28.9531 1.26363 29.0585 1.0761 29.246C0.88856 29.4336 0.783203 29.6879 0.783203 29.9531C0.783203 30.2183 0.88856 30.4727 1.0761 30.6602C1.26363 30.8478 1.51799 30.9531 1.7832 30.9531C2.04842 30.9531 2.30277 30.8478 2.49031 30.6602C2.67785 30.4727 2.7832 30.2183 2.7832 29.9531C2.7832 29.6879 2.67785 29.4336 2.49031 29.246C2.30277 29.0585 2.04842 28.9531 1.7832 28.9531ZM46.2168 28.9531C45.9516 28.9531 45.6972 29.0585 45.5097 29.246C45.3222 29.4336 45.2168 29.6879 45.2168 29.9531C45.2168 30.2183 45.3222 30.4727 45.5097 30.6602C45.6972 30.8478 45.9516 30.9531 46.2168 30.9531C46.482 30.9531 46.7364 30.8478 46.9239 30.6602C47.1114 30.4727 47.2168 30.2183 47.2168 29.9531C47.2168 29.6879 47.1114 29.4336 46.9239 29.246C46.7364 29.0585 46.482 28.9531 46.2168 28.9531ZM14.6719 29H16.75H18.25C18.784 29 19.0886 29.0403 19.4551 29.3691C20.0695 29.9221 20.4252 30.288 20.918 30.5879C21.4107 30.8878 22.0078 31 22.625 31C22.7867 31 22.7977 31.029 22.8809 31.1426C22.9641 31.2562 23 31.5422 23 31.375C23 33.4921 21.5527 34.1055 21.5527 34.1055C21.4352 34.1641 21.3304 34.2454 21.2442 34.3446C21.1581 34.4438 21.0924 34.559 21.0508 34.6836C21.017 34.7849 20.5326 36.0012 20.0586 37.3965C19.6569 38.5788 19.2436 39.9626 19.0039 41.2852C18.3168 41.0873 17.6526 40.837 17.002 40.5625V38.5C17.002 37.2296 16.4377 35.9801 15.9453 34.5781C15.453 33.1761 15.002 31.6871 15.002 30.375C15.002 29.8622 14.8737 29.4057 14.6719 29ZM4.08008 34.5C3.81486 34.5 3.56051 34.6054 3.37297 34.7929C3.18544 34.9804 3.08008 35.2348 3.08008 35.5C3.08008 35.7652 3.18544 36.0196 3.37297 36.2071C3.56051 36.3946 3.81486 36.5 4.08008 36.5C4.34529 36.5 4.59965 36.3946 4.78718 36.2071C4.97472 36.0196 5.08008 35.7652 5.08008 35.5C5.08008 35.2348 4.97472 34.9804 4.78718 34.7929C4.59965 34.6054 4.34529 34.5 4.08008 34.5ZM43.9199 34.5C43.6547 34.5 43.4004 34.6054 43.2128 34.7929C43.0253 34.9804 42.9199 35.2348 42.9199 35.5C42.9199 35.7652 43.0253 36.0196 43.2128 36.2071C43.4004 36.3946 43.6547 36.5 43.9199 36.5C44.1851 36.5 44.4395 36.3946 44.627 36.2071C44.8146 36.0196 44.9199 35.7652 44.9199 35.5C44.9199 35.2348 44.8146 34.9804 44.627 34.7929C44.4395 34.6054 44.1851 34.5 43.9199 34.5ZM7.73633 39.2637C7.47111 39.2637 7.21676 39.369 7.02922 39.5566C6.84169 39.7441 6.73633 39.9985 6.73633 40.2637C6.73633 40.5289 6.84169 40.7832 7.02922 40.9708C7.21676 41.1583 7.47111 41.2637 7.73633 41.2637C8.00154 41.2637 8.2559 41.1583 8.44343 40.9708C8.63097 40.7832 8.73633 40.5289 8.73633 40.2637C8.73633 39.9985 8.63097 39.7441 8.44343 39.5566C8.2559 39.369 8.00154 39.2637 7.73633 39.2637ZM40.2637 39.2637C39.9985 39.2637 39.7441 39.369 39.5566 39.5566C39.369 39.7441 39.2637 39.9985 39.2637 40.2637C39.2637 40.5289 39.369 40.7832 39.5566 40.9708C39.7441 41.1583 39.9985 41.2637 40.2637 41.2637C40.5289 41.2637 40.7832 41.1583 40.9708 40.9708C41.1583 40.7832 41.2637 40.5289 41.2637 40.2637C41.2637 39.9985 41.1583 39.7441 40.9708 39.5566C40.7832 39.369 40.5289 39.2637 40.2637 39.2637ZM12.5 42.9199C12.2348 42.9199 11.9804 43.0253 11.7929 43.2128C11.6054 43.4004 11.5 43.6547 11.5 43.9199C11.5 44.1851 11.6054 44.4395 11.7929 44.627C11.9804 44.8146 12.2348 44.9199 12.5 44.9199C12.7652 44.9199 13.0196 44.8146 13.2071 44.627C13.3946 44.4395 13.5 44.1851 13.5 43.9199C13.5 43.6547 13.3946 43.4004 13.2071 43.2128C13.0196 43.0253 12.7652 42.9199 12.5 42.9199ZM35.5 42.9199C35.2348 42.9199 34.9804 43.0253 34.7929 43.2128C34.6054 43.4004 34.5 43.6547 34.5 43.9199C34.5 44.1851 34.6054 44.4395 34.7929 44.627C34.9804 44.8146 35.2348 44.9199 35.5 44.9199C35.7652 44.9199 36.0196 44.8146 36.2071 44.627C36.3946 44.4395 36.5 44.1851 36.5 43.9199C36.5 43.6547 36.3946 43.4004 36.2071 43.2128C36.0196 43.0253 35.7652 42.9199 35.5 42.9199ZM18.0469 45.2168C17.7817 45.2168 17.5273 45.3222 17.3398 45.5097C17.1522 45.6972 17.0469 45.9516 17.0469 46.2168C17.0469 46.482 17.1522 46.7364 17.3398 46.9239C17.5273 47.1114 17.7817 47.2168 18.0469 47.2168C18.3121 47.2168 18.5664 47.1114 18.754 46.9239C18.9415 46.7364 19.0469 46.482 19.0469 46.2168C19.0469 45.9516 18.9415 45.6972 18.754 45.5097C18.5664 45.3222 18.3121 45.2168 18.0469 45.2168ZM29.9531 45.2168C29.6879 45.2168 29.4336 45.3222 29.246 45.5097C29.0585 45.6972 28.9531 45.9516 28.9531 46.2168C28.9531 46.482 29.0585 46.7364 29.246 46.9239C29.4336 47.1114 29.6879 47.2168 29.9531 47.2168C30.2183 47.2168 30.4727 47.1114 30.6602 46.9239C30.8478 46.7364 30.9531 46.482 30.9531 46.2168C30.9531 45.9516 30.8478 45.6972 30.6602 45.5097C30.4727 45.3222 30.2183 45.2168 29.9531 45.2168ZM24 46C23.7348 46 23.4804 46.1054 23.2929 46.2929C23.1054 46.4804 23 46.7348 23 47C23 47.2652 23.1054 47.5196 23.2929 47.7071C23.4804 47.8946 23.7348 48 24 48C24.2652 48 24.5196 47.8946 24.7071 47.7071C24.8946 47.5196 25 47.2652 25 47C25 46.7348 24.8946 46.4804 24.7071 46.2929C24.5196 46.1054 24.2652 46 24 46Z" fill="white"/>
</svg>
