<svg width="33" height="50" viewBox="0 0 33 50" fill="none" xmlns="http://www.w3.org/2000/svg">
<g clip-path="url(#clip0)">
<path fill-rule="evenodd" clip-rule="evenodd" d="M22.0117 4.30999L32.845 15.1433C33.1583 15.4567 33.3333 15.88 33.3333 16.3217V43.8217C33.3333 45.6633 31.8417 47.155 30 47.155H3.33333C1.49167 47.155 0 45.6633 0 43.8217V7.15499C0 5.31332 1.49167 3.82166 3.33333 3.82166H20.8333C21.275 3.82166 21.6983 3.99666 22.0117 4.30999ZM20 15.4883C20 16.4083 20.7467 17.155 21.6667 17.155H30.16L20 6.99499V15.4883ZM23.3046 32.0655C22.1493 31.0085 20.8909 29.8572 20.8909 27.6933C20.8909 25.4533 21.9909 24.1733 24.1309 24.1733C26.2709 24.1733 27.3709 25.4533 27.3709 27.6933V28.1333H25.2909V27.5533C25.2909 26.5533 24.8909 26.1733 24.1909 26.1733C23.4909 26.1733 23.0909 26.5533 23.0909 27.5533C23.0909 28.8753 23.9969 29.7043 24.9772 30.6011C26.1325 31.6581 27.3909 32.8094 27.3909 34.9733C27.3909 37.2133 26.2709 38.4933 24.1109 38.4933C21.9509 38.4933 20.8309 37.2133 20.8309 34.9733V34.1133H22.9109V35.1133C22.9109 36.1133 23.3509 36.4733 24.0509 36.4733C24.7509 36.4733 25.1909 36.1133 25.1909 35.1133C25.1909 33.7913 24.2848 32.9624 23.3046 32.0655ZM11.0998 24.3333L9.39979 29.4933L7.73979 24.3333H5.45979L7.75979 31.1333L5.29979 38.3333H7.35979L9.17979 32.7933L10.9798 38.3333H13.2998L10.8398 31.1333L13.1398 24.3333H11.0998ZM14.3935 38.3333H20.2135V36.3333H16.5935V24.3333H14.3935V38.3333Z" fill="#207042"/>
</g>
<defs>
<clipPath id="clip0">
<rect width="33" height="50" fill="white"/>
</clipPath>
</defs>
</svg>
