<svg width="21" height="21" viewBox="0 0 21 21" fill="none" xmlns="http://www.w3.org/2000/svg">
<path d="M20.9689 0.000976562H0V20.9669H20.9689V0.000976562Z" fill="#FFCB0A"/>
<path d="M15.1709 4.72976L15.5545 4.58042L15.1065 3.47356L12.7639 4.30224L13.0596 5.02843H13.0391C13.0391 5.02843 13.0596 5.04893 13.0596 5.07236L13.1446 5.30661C13.6775 6.65066 15.7653 12.7618 10.6087 13.1688H10.3305C4.83137 12.7443 7.58096 5.75463 7.85914 5.09285L8.24273 4.19682L5.92067 3.32129L5.44923 4.42815L5.85332 4.57749C3.03931 9.45588 3.38191 11.8014 3.38191 11.8014C3.89435 17.2361 9.68927 17.6197 10.2866 17.6402H10.3071C10.3276 17.6636 10.3276 17.6636 10.3276 17.6636V17.6402H10.6058V17.6636C10.6058 17.6636 17.0186 17.5348 17.5749 11.8014C17.5808 11.8043 17.9 9.50273 15.1709 4.72976Z" fill="black"/>
<path d="M6.39232 8.03296C6.39232 8.28772 6.15806 8.50148 5.87988 8.50148C5.6017 8.50148 5.39087 8.28772 5.39087 8.03296C5.39087 7.77528 5.60463 7.56152 5.87988 7.56152C6.15806 7.56445 6.39232 7.77821 6.39232 8.03296Z" fill="#FFCB0A"/>
<path d="M5.47557 11.3802C5.47557 11.6378 5.26181 11.8487 4.98363 11.8487C4.70545 11.8487 4.47119 11.6378 4.47119 11.3802C4.47119 11.102 4.70545 10.8911 4.98363 10.8911C5.26474 10.8882 5.47557 11.102 5.47557 11.3802Z" fill="#FFCB0A"/>
<path d="M6.67051 14.6389C6.67051 14.8937 6.43626 15.1074 6.15808 15.1074C5.8799 15.1074 5.66907 14.8937 5.66907 14.6389C5.66907 14.3842 5.8799 14.1704 6.15808 14.1704C6.43626 14.1704 6.67051 14.3842 6.67051 14.6389Z" fill="#FFCB0A"/>
<path d="M14.6819 8.03296C14.6819 8.28772 14.9161 8.50148 15.1943 8.50148C15.4901 8.50148 15.7273 8.28772 15.7273 8.03296C15.7273 7.77528 15.493 7.56152 15.1943 7.56152C14.9161 7.56445 14.6819 7.77821 14.6819 8.03296Z" fill="#FFCB0A"/>
<path d="M15.4287 11.3802C15.4287 11.6378 15.663 11.8487 15.9616 11.8487C16.2398 11.8487 16.4712 11.6378 16.4712 11.3802C16.4712 11.102 16.2369 10.8911 15.9616 10.8911C15.66 10.8882 15.4287 11.102 15.4287 11.3802Z" fill="#FFCB0A"/>
<path d="M14.3833 14.6389C14.3833 14.8937 14.6176 15.1074 14.9162 15.1074C15.1944 15.1074 15.4287 14.8937 15.4287 14.6389C15.4287 14.3842 15.1944 14.1704 14.9162 14.1704C14.6176 14.1704 14.3833 14.3842 14.3833 14.6389Z" fill="#FFCB0A"/>
</svg>
