<svg width="42" height="50" viewBox="0 0 42 50" fill="none" xmlns="http://www.w3.org/2000/svg">
<path d="M21.0002 0C16.3088 0 10.0236 1.30078 5.65645 5.28125C1.36739 9.1875 -0.769333 15.7539 2.5002 25.4062C2.29317 25.582 2.09004 25.7695 1.90645 26C1.35957 26.6953 1.0002 27.668 1.0002 28.8125C1.0002 30.0977 1.50801 31.3828 2.3127 32.4688C2.97676 33.3633 3.93379 34.0234 5.03145 34.3438C6.53145 37.8945 8.41817 41.668 10.9377 44.6562C13.5393 47.7383 16.8869 50 21.0002 50C25.1135 50 28.4611 47.7383 31.0627 44.6562C33.5822 41.668 35.4689 37.8945 36.9689 34.3438C38.0666 34.0234 39.0236 33.3633 39.6877 32.4688C40.4924 31.3828 41.0002 30.0977 41.0002 28.8125C41.0002 27.1445 40.2502 25.9648 39.3752 25.2188C41.7502 17.4414 41.426 11.6211 39.1564 7.8125C36.9768 4.15234 32.9689 2.65234 28.5939 3.28125C26.4846 0.863281 23.2502 0 21.0002 0ZM21.0002 2C22.8127 2 25.8869 2.87891 27.4064 4.90625L27.7814 5.40625L28.3752 5.28125C32.3752 4.53906 35.5861 5.70703 37.4377 8.8125C38.9143 11.293 39.465 15.1914 38.4689 20.4688C37.9104 20.5156 36.758 20.5664 35.9689 20.625C35.4143 17.9258 33.715 16.5586 32.1877 15.4375C30.5393 14.2266 29.0314 13.1719 28.1564 10.125L27.4689 7.78125L26.3127 9.9375C25.3947 11.6406 23.926 12.6875 22.0627 13.4688C20.1994 14.25 17.9807 14.7109 15.7814 15.1562C13.5822 15.6016 11.3986 16.0234 9.5627 16.875C7.92207 17.6367 6.52364 18.8359 5.90645 20.625C5.0666 20.5625 3.78145 20.4844 3.21895 20.4375C1.98848 13.832 3.89082 9.58203 7.0002 6.75C10.8088 3.27734 16.6916 2 21.0002 2ZM26.9064 12.2812C28.0236 14.7031 29.633 16.0273 31.0002 17.0312C32.4729 18.1133 33.5354 18.832 33.9689 20.7812C29.1877 21.1211 23.3869 21.5 21.0002 21.5C18.6057 21.5 12.7854 21.1211 8.0002 20.7812C8.45332 19.8477 9.2541 19.2227 10.4064 18.6875C11.9104 17.9922 13.9885 17.5703 16.1877 17.125C18.3869 16.6797 20.7189 16.2031 22.8439 15.3125C24.4182 14.6523 25.7697 13.6055 26.9064 12.2812ZM3.6877 22.4688C7.80489 22.8047 17.5588 23.5 21.0002 23.5C24.3908 23.5 33.8361 22.8398 38.0627 22.5C37.8908 23.1992 37.6955 23.9141 37.4689 24.6562C36.4455 25.0312 35.715 25.8828 35.0314 26.8438C34.258 27.9297 33.5275 29.2266 32.7502 30.4688C31.9729 31.7109 31.1408 32.8984 30.2502 33.7188C29.3596 34.5391 28.4846 35 27.4064 35C25.4104 35 24.4729 34.5703 23.7189 34.125C23.34 33.9023 23.0197 33.668 22.5939 33.4375C22.1682 33.207 21.6213 33 21.0002 33C20.3791 33 19.8322 33.207 19.4064 33.4375C18.9807 33.668 18.6604 33.9023 18.2814 34.125C17.5275 34.5703 16.59 35 14.5939 35C13.5158 35 12.633 34.5391 11.7502 33.7188C10.8674 32.8984 10.051 31.7422 9.28145 30.5C8.51192 29.2578 7.78145 27.9336 7.0002 26.8438C6.44551 26.0664 5.85176 25.3477 5.09395 24.9062C4.91035 24.6367 4.60567 24.4727 4.28145 24.4688C4.05489 23.7812 3.85957 23.1133 3.6877 22.4688ZM11.0002 26.0938C11.0002 29.0938 12.9924 31 14.5939 31C16.1955 31 18.0002 29.6992 18.0002 28.5C18.0002 28.5 15.8986 26.793 11.0002 26.0938ZM31.0002 26.0938C26.1018 26.793 24.0002 28.5 24.0002 28.5C24.0002 29.6992 25.8049 31 27.4064 31C29.008 31 31.0002 29.0938 31.0002 26.0938ZM37.9377 26.625C38.5549 27 39.0002 27.5195 39.0002 28.8125C39.0002 29.5273 38.6643 30.5156 38.0939 31.2812C37.5236 32.0469 36.7619 32.5312 36.0939 32.5938L35.5002 32.6562L35.2814 33.2188C33.801 36.7734 31.9064 40.5273 29.5314 43.3438C27.1564 46.1602 24.3869 48 21.0002 48C17.6135 48 14.8439 46.1602 12.4689 43.3438C10.0939 40.5273 8.19942 36.7734 6.71895 33.2188L6.5002 32.6562L5.90645 32.5938C5.23848 32.5312 4.47676 32.0469 3.90645 31.2812C3.33614 30.5156 3.0002 29.5273 3.0002 28.8125C3.0002 28.0547 3.1916 27.6055 3.46895 27.25C3.64082 27.0312 3.86739 26.8516 4.1252 26.6875C4.48067 26.9336 4.90645 27.375 5.3752 28.0312C6.05098 28.9766 6.75801 30.2344 7.5627 31.5312C8.36739 32.8281 9.28535 34.1484 10.4064 35.1875C11.5275 36.2266 12.9221 37 14.5939 37C16.8986 37 18.3361 36.4297 19.2814 35.875C19.7541 35.5977 20.1135 35.332 20.3752 35.1875C20.6369 35.043 20.7697 35 21.0002 35C21.2307 35 21.3635 35.043 21.6252 35.1875C21.8869 35.332 22.2463 35.5977 22.7189 35.875C23.6643 36.4297 25.1018 37 27.4064 37C29.0783 37 30.4963 36.2266 31.6252 35.1875C32.7541 34.1484 33.6564 32.8281 34.4689 31.5312C35.2814 30.2344 35.9807 28.9492 36.6564 28C37.1408 27.3203 37.5861 26.8555 37.9377 26.625Z" fill="white"/>
</svg>
