<svg width="46" height="32" viewBox="0 0 46 32" fill="none" xmlns="http://www.w3.org/2000/svg">
<path d="M5 0C2.25 0 0 2.25 0 5V27C0 29.75 2.25 32 5 32H41C43.75 32 46 29.75 46 27V5C46 2.25 43.75 0 41 0H5ZM5 2H41C42.668 2 44 3.33203 44 5V27C44 28.668 42.668 30 41 30H5C3.33203 30 2 28.668 2 27V5C2 3.33203 3.33203 2 5 2ZM26.8438 7C26.5156 7.05078 26.2344 7.26172 26.0938 7.5625L18.0938 23.5625C17.8516 24.0625 18.0625 24.6641 18.5625 24.9062C19.0625 25.1484 19.6641 24.9375 19.9062 24.4375L27.9062 8.4375C28.0781 8.10156 28.043 7.69531 27.8203 7.39062C27.5938 7.08594 27.2148 6.9375 26.8438 7ZM18 8C16.3555 8 15 9.35547 15 11V12C15 13.6445 16.3555 15 18 15C19.6445 15 21 13.6445 21 12V11C21 9.35547 19.6445 8 18 8ZM18 10C18.5664 10 19 10.4336 19 11V12C19 12.5664 18.5664 13 18 13C17.4336 13 17 12.5664 17 12V11C17 10.4336 17.4336 10 18 10ZM28 17C26.3555 17 25 18.3555 25 20V21C25 22.6445 26.3555 24 28 24C29.6445 24 31 22.6445 31 21V20C31 18.3555 29.6445 17 28 17ZM28 19C28.5664 19 29 19.4336 29 20V21C29 21.5664 28.5664 22 28 22C27.4336 22 27 21.5664 27 21V20C27 19.4336 27.4336 19 28 19Z" fill="white"/>
</svg>
