<svg width="12" height="12" viewBox="0 0 12 12" fill="none" xmlns="http://www.w3.org/2000/svg">
<path d="M5.02934 0.193548C2.36433 0.193548 0.193548 2.36433 0.193548 5.02934C0.193548 7.69434 2.36433 9.86513 5.02934 9.86513C6.18824 9.86513 7.25254 9.4536 8.08665 8.77046L10.974 11.6578C11.0185 11.7042 11.0719 11.7412 11.1309 11.7668C11.19 11.7923 11.2536 11.8058 11.3179 11.8064C11.3822 11.8071 11.4461 11.7949 11.5056 11.7706C11.5652 11.7463 11.6193 11.7103 11.6648 11.6648C11.7103 11.6193 11.7463 11.5652 11.7706 11.5056C11.7949 11.4461 11.8071 11.3822 11.8064 11.3179C11.8058 11.2536 11.7923 11.19 11.7668 11.1309C11.7412 11.0719 11.7042 11.0185 11.6578 10.974L8.77046 8.08665C9.45359 7.25254 9.86513 6.18824 9.86513 5.02934C9.86513 2.36433 7.69434 0.193548 5.02934 0.193548ZM5.02934 1.16071C7.17165 1.16071 8.89797 2.88702 8.89797 5.02934C8.89797 7.17165 7.17165 8.89797 5.02934 8.89797C2.88702 8.89797 1.16071 7.17165 1.16071 5.02934C1.16071 2.88702 2.88702 1.16071 5.02934 1.16071Z" fill="#2E55A6"/>
<path fill-rule="evenodd" clip-rule="evenodd" d="M0 5.02934C0 2.25744 2.25744 0 5.02934 0C7.80124 0 10.0587 2.25744 10.0587 5.02934C10.0587 6.17199 9.67393 7.22628 9.02909 8.07156L11.7933 10.8358C11.8576 10.8979 11.909 10.9721 11.9444 11.0542C11.9802 11.1369 11.999 11.2258 12 11.3159C12.0009 11.406 11.9838 11.4954 11.9498 11.5788C11.9157 11.6622 11.8654 11.738 11.8017 11.8017C11.738 11.8654 11.6622 11.9157 11.5788 11.9498C11.4954 11.9838 11.406 12.0009 11.3159 12C11.2258 11.999 11.1369 11.9802 11.0542 11.9444C10.9721 11.909 10.8979 11.8576 10.8358 11.7933L8.07156 9.02909C7.22628 9.67393 6.17199 10.0587 5.02934 10.0587C2.25744 10.0587 0 7.80124 0 5.02934ZM8.08665 8.77046C7.25254 9.4536 6.18824 9.86513 5.02934 9.86513C2.36433 9.86513 0.193548 7.69434 0.193548 5.02934C0.193548 2.36433 2.36433 0.193548 5.02934 0.193548C7.69434 0.193548 9.86513 2.36433 9.86513 5.02934C9.86513 6.18824 9.45359 7.25254 8.77046 8.08665L11.6578 10.974C11.7042 11.0185 11.7412 11.0719 11.7668 11.1309C11.7923 11.19 11.8058 11.2536 11.8064 11.3179C11.8071 11.3822 11.7949 11.4461 11.7706 11.5056C11.7463 11.5652 11.7103 11.6193 11.6648 11.6648C11.6193 11.7103 11.5652 11.7463 11.5056 11.7706C11.4461 11.7949 11.3822 11.8071 11.3179 11.8064C11.2536 11.8058 11.19 11.7923 11.1309 11.7668C11.0719 11.7412 11.0185 11.7042 10.974 11.6578L8.08665 8.77046ZM8.70442 5.02934C8.70442 2.99392 7.06476 1.35425 5.02934 1.35425C2.99392 1.35425 1.35425 2.99392 1.35425 5.02934C1.35425 7.06476 2.99392 8.70442 5.02934 8.70442C7.06476 8.70442 8.70442 7.06476 8.70442 5.02934ZM8.89797 5.02934C8.89797 2.88702 7.17165 1.16071 5.02934 1.16071C2.88702 1.16071 1.16071 2.88702 1.16071 5.02934C1.16071 7.17165 2.88702 8.89797 5.02934 8.89797C7.17165 8.89797 8.89797 7.17165 8.89797 5.02934Z" fill="#2E55A6"/>
</svg>
