<svg width="18" height="18" viewBox="0 0 18 18" fill="none" xmlns="http://www.w3.org/2000/svg">
<g clip-path="url(#clip0)">
<path d="M11.2968 8.43513C11.2968 9.70364 10.2685 10.732 8.99995 10.732C7.73145 10.732 6.70312 9.70364 6.70312 8.43513C6.70312 7.16663 7.73145 6.13831 8.99995 6.13831C10.2685 6.13831 11.2968 7.16663 11.2968 8.43513Z" fill="white"/>
<path d="M17.3492 0.650528C16.9294 0.230988 16.3714 0 15.7782 0H2.22185C1.62859 0 1.07062 0.230988 0.650528 0.650803C0.230988 1.07076 0 1.62859 0 2.22185V4.48132C0 5.07458 0.230988 5.63242 0.650803 6.05264C1.07076 6.47218 1.62859 6.70303 2.22185 6.70303H2.33446V2.82417C2.33446 2.53304 2.57053 2.29683 2.8618 2.29683H15.1383C15.4295 2.29683 15.6657 2.53304 15.6657 2.82417V6.70303H15.7782C16.3714 6.70303 16.9292 6.47205 17.3495 6.05223C17.769 5.63242 18 5.07445 18 4.48132V2.22185C18 1.62859 17.769 1.07076 17.3492 0.650528Z" fill="white"/>
<path d="M3.38867 16.343C3.38867 16.7859 3.56116 17.202 3.87386 17.5143C4.18669 17.8275 4.6028 18 5.04568 18H12.9536C13.3965 18 13.8126 17.8275 14.1249 17.5148C14.438 17.202 14.6105 16.7859 14.6105 16.343V3.3515H3.38867V16.343ZM8.99966 5.08363C10.8477 5.08363 12.3512 6.58711 12.3512 8.43515C12.3512 10.2832 10.8477 11.7867 8.99966 11.7867C7.15163 11.7867 5.64815 10.2832 5.64815 8.43515C5.64815 6.58711 7.15163 5.08363 8.99966 5.08363ZM6.17549 14.1211H11.8238C12.1151 14.1211 12.3512 14.3572 12.3512 14.6485C12.3512 14.9396 12.1151 15.1758 11.8238 15.1758H6.17549C5.88422 15.1758 5.64815 14.9396 5.64815 14.6485C5.64815 14.3572 5.88422 14.1211 6.17549 14.1211Z" fill="white"/>
</g>
<defs>
<clipPath id="clip0">
<rect width="18" height="18" fill="white"/>
</clipPath>
</defs>
</svg>
