<svg width="2000" height="2000" viewBox="0 0 2000 2000" fill="none" xmlns="http://www.w3.org/2000/svg">
<path fill-rule="evenodd" clip-rule="evenodd" d="M1505.85 1383.74C1498.33 1335.98 1486.05 1290.07 1469.05 1246.88C1426.2 1260.29 1382.19 1269.34 1337.41 1273.46L1278.89 1278.91L1273.5 1337.43C1256.45 1521.25 1159.84 1691.93 999.962 1822.93C960.089 1790.25 924.149 1755.08 892.447 1717.9C847.012 1738.12 799.724 1754.69 750.733 1767.32C807.12 1841.83 876.539 1910.11 958.273 1969.62L999.962 2000L1041.65 1969.62C1242.53 1823.31 1370.68 1625.27 1407.15 1407.15C1440.54 1401.55 1473.51 1393.57 1505.85 1383.74ZM1969.64 958.254C1823.33 757.448 1625.27 629.239 1407.15 592.771C1401.57 559.347 1393.55 526.434 1383.74 494.051C1335.94 501.598 1290.09 513.874 1246.88 530.917C1260.29 573.798 1269.32 617.72 1273.5 662.493L1278.89 720.998L1337.45 726.465C1521.23 743.545 1691.93 840.07 1822.91 999.962C1790.29 1039.85 1755.08 1075.79 1717.88 1107.53C1738.12 1152.97 1754.71 1200.26 1767.32 1249.23C1841.87 1192.82 1910.11 1123.39 1969.64 1041.63L2000 999.962L1969.64 958.254ZM1629.11 913.576C1589.9 885.184 1548.87 861.445 1506.27 842.927C1485.43 882.63 1460.74 920.139 1432.01 954.735L1394.46 999.924L1432.01 1045.15C1549.91 1187.21 1602.28 1376.19 1581.91 1581.89C1530.61 1586.96 1480.3 1587.51 1431.55 1583.65C1413.76 1630.11 1392.04 1675.26 1366.35 1718.82C1458.89 1731.65 1556.26 1730.78 1656.1 1715.1L1707.06 1707.08L1715.08 1656.08C1753.66 1410.62 1704.26 1179.96 1575.8 999.924C1595.49 972.346 1613.1 943.443 1629.11 913.576ZM1086.31 1628.99C1114.78 1589.91 1138.54 1548.83 1157.05 1506.27C1117.29 1485.37 1079.82 1460.67 1045.19 1431.99L999.962 1394.42L954.698 1431.99C812.681 1549.87 623.754 1602.3 418.049 1581.89C412.923 1530.61 412.412 1480.3 416.271 1431.59C369.89 1413.72 324.626 1392.02 281.139 1366.33C268.277 1458.89 269.147 1556.26 284.847 1656.1L292.829 1707.08L343.787 1715.1C589.271 1753.66 819.982 1704.24 999.962 1575.82C1027.54 1595.48 1056.48 1613.09 1086.31 1628.99ZM616.245 1505.87C663.987 1498.33 709.8 1486.01 753.022 1469.05C739.668 1426.2 730.607 1382.19 726.446 1337.47L720.998 1278.91L662.512 1273.5C478.711 1256.42 307.961 1159.84 177.01 999.962C209.677 960.107 244.841 924.168 282.085 892.428C261.846 847.012 245.2 799.705 232.603 750.733C158.057 807.12 89.8859 876.539 30.3592 958.254L0 999.962L30.3592 1041.63C176.689 1242.51 374.619 1370.68 592.808 1407.15C598.445 1440.56 606.409 1473.51 616.245 1505.87ZM913.576 370.893C885.184 410.029 861.464 451.094 842.945 493.73C882.687 514.499 920.177 539.221 954.735 567.972L999.924 605.444L1045.19 567.972C1187.21 450.016 1376.17 397.658 1581.91 418.049C1586.96 469.367 1587.51 519.606 1583.67 568.389C1630.15 586.188 1675.3 607.884 1718.86 633.59C1731.69 541.056 1730.78 443.717 1715.08 343.768L1707.06 292.829L1656.1 284.904C1410.6 246.297 1179.98 295.666 999.924 424.159C972.365 404.468 943.443 386.82 913.576 370.893ZM370.893 1086.33C410.067 1114.76 451.132 1138.52 493.73 1157.04C514.536 1117.31 539.221 1079.82 567.954 1045.19L605.463 999.924L567.954 954.717C450.073 812.681 397.62 623.754 418.049 418.049C469.348 412.923 519.625 412.374 568.389 416.252C586.207 369.853 607.884 324.626 633.609 281.121C541.056 268.277 443.698 269.185 343.787 284.866L292.829 292.81L284.847 343.787C246.297 589.252 295.685 819.982 424.121 999.924C404.449 1027.54 386.858 1056.5 370.893 1086.33ZM494.032 616.245C501.617 663.987 513.912 709.8 530.917 753.041C573.798 739.668 617.72 730.626 662.512 726.465L720.998 720.979L726.446 662.493C743.545 478.711 840.07 307.999 999.962 177.01C1039.85 209.677 1075.78 244.841 1107.52 282.029C1152.97 261.846 1200.28 245.181 1249.23 232.603C1192.84 158.076 1123.39 89.8859 1041.65 30.3592L999.962 0L958.273 30.3592C757.429 176.67 629.239 374.638 592.771 592.771C559.328 598.426 526.472 606.39 494.032 616.245Z" fill="#022A6B"/>
</svg>
