<svg width="92" height="92" viewBox="0 0 92 92" fill="none" xmlns="http://www.w3.org/2000/svg">
<g filter="url(#filter0_d)">
<circle cx="46" cy="42" r="16" fill="#FF843F" stroke="white" stroke-width="4"/>
<path fill-rule="evenodd" clip-rule="evenodd" d="M45.3503 33.1973C45.4861 33.071 45.6646 33.0006 45.8501 33C46.0356 33.0006 46.2141 33.071 46.3499 33.1973L46.3528 33.1988L54.1485 37.4495C54.2657 37.48 54.3735 37.5389 54.4625 37.6209L54.4654 37.6224V37.6238C54.5394 37.6927 54.5984 37.7761 54.6388 37.8688C54.6792 37.9615 54.7001 38.0615 54.7002 38.1626C54.7002 38.3582 54.6225 38.5457 54.4842 38.6841C54.3459 38.8224 54.1583 38.9001 53.9627 38.9001V49.2252C53.9627 50.0401 53.3026 50.7002 52.4877 50.7002H39.2125C38.3976 50.7002 37.7375 50.0401 37.7375 49.2252V38.9001C37.5419 38.9001 37.3543 38.8224 37.216 38.6841C37.0777 38.5457 37 38.3582 37 38.1626C37.0001 38.0615 37.021 37.9615 37.0614 37.8688C37.1018 37.7761 37.1608 37.6927 37.2348 37.6238V37.6224L37.2391 37.6195C37.3279 37.5382 37.4352 37.4798 37.5517 37.4495L45.3474 33.1988L45.3503 33.1973ZM45.0741 40.2413C43.8537 40.4634 43.1894 41.4879 43.1894 43.4796V47.8784H41.5214V43.4008C41.5214 40.6783 42.8501 39.0019 45.0741 38.7225V37.2968H46.6337V38.7225C48.8505 39.0019 50.1791 40.6783 50.1791 43.4008V47.8784H48.5184V43.4796C48.5184 41.4879 47.8468 40.4634 46.6337 40.2413V46.4599H45.0741V40.2413Z" fill="white"/>
</g>
<defs>
<filter id="filter0_d" x="0" y="0" width="92" height="92" filterUnits="userSpaceOnUse" color-interpolation-filters="sRGB">
<feFlood flood-opacity="0" result="BackgroundImageFix"/>
<feColorMatrix in="SourceAlpha" type="matrix" values="0 0 0 0 0 0 0 0 0 0 0 0 0 0 0 0 0 0 127 0"/>
<feOffset dy="4"/>
<feGaussianBlur stdDeviation="14"/>
<feColorMatrix type="matrix" values="0 0 0 0 0 0 0 0 0 0 0 0 0 0 0 0 0 0 0.15 0"/>
<feBlend mode="normal" in2="BackgroundImageFix" result="effect1_dropShadow"/>
<feBlend mode="normal" in="SourceGraphic" in2="effect1_dropShadow" result="shape"/>
</filter>
</defs>
</svg>
