<svg width="23" height="23" viewBox="0 0 23 23" fill="none" xmlns="http://www.w3.org/2000/svg">
<path fill-rule="evenodd" clip-rule="evenodd" d="M11.3503 3.19734C11.4861 3.07104 11.6646 3.00058 11.8501 3C12.0356 3.00058 12.2141 3.07104 12.3499 3.19734L12.3528 3.19878L20.1485 7.44954C20.2657 7.48004 20.3735 7.53891 20.4625 7.62095L20.4654 7.62239V7.62383C20.5394 7.69274 20.5984 7.77612 20.6388 7.8688C20.6792 7.96147 20.7001 8.06146 20.7002 8.16256C20.7002 8.35816 20.6225 8.54574 20.4842 8.68405C20.3459 8.82236 20.1583 8.90007 19.9627 8.90007V19.2252C19.9627 20.0401 19.3026 20.7002 18.4877 20.7002H5.21252C4.39758 20.7002 3.73751 20.0401 3.73751 19.2252V8.90007C3.54191 8.90007 3.35432 8.82236 3.21601 8.68405C3.0777 8.54574 3 8.35816 3 8.16256C3.00012 8.06146 3.02103 7.96147 3.06142 7.8688C3.10181 7.77612 3.16082 7.69274 3.23479 7.62383V7.62239L3.23911 7.61951C3.32787 7.53819 3.43519 7.47984 3.55169 7.44954L11.3474 3.19878L11.3503 3.19734ZM11.0741 10.2413C9.85374 10.4634 9.18943 11.4879 9.18943 13.4796V17.8784H7.52143V13.4008C7.52143 10.6783 8.85006 9.00189 11.0741 8.72249V7.29679H12.6337V8.72249C14.8505 9.00189 16.1791 10.6783 16.1791 13.4008V17.8784H14.5184V13.4796C14.5184 11.4879 13.8468 10.4634 12.6337 10.2413V16.4599H11.0741V10.2413Z" fill="white"/>
</svg>
