<svg width="50" height="50" viewBox="0 0 50 50" fill="none" xmlns="http://www.w3.org/2000/svg">
<path fill-rule="evenodd" clip-rule="evenodd" d="M5.48868 5.33755C11.1165 -0.434054 28.7511 -1.52496 38.8966 2.06493C38.9008 2.08237 38.905 2.09981 38.9092 2.11727C41.2695 2.94269 43.2215 4.01821 44.5177 5.34383C51.3878 12.3701 52.1685 39.0702 44.5177 45.3158C36.8668 51.5614 12.9773 51.5614 5.48254 45.3158C0.646249 41.3678 -0.820972 29.2467 0.489311 19.0881C1.18011 13.6229 2.68721 8.72298 4.94224 5.95172C5.11792 5.73542 5.29803 5.53253 5.48254 5.34383C5.48458 5.34174 5.48663 5.33964 5.48868 5.33755Z" fill="#1885D3"/>
<path d="M33.9001 9.71582V15.6491H22.0334V20.6456C22.9702 20.3333 23.9071 20.3333 25.1562 20.3333C28.1228 20.3333 30.6211 21.2702 32.6509 22.9878C34.6808 24.7054 35.7737 27.0474 35.7737 30.1702C35.7737 33.1368 34.6806 35.6351 32.4947 37.5087C30.3087 39.3823 27.6543 40.4754 24.3754 40.4754C20.3157 40.4754 16.8806 38.914 14.0701 35.9473L17.6613 30.9509C17.9735 31.2631 18.2859 31.5754 18.7543 31.8877C19.2228 32.1999 20.0035 32.8245 21.0964 33.4491C22.1894 34.0736 23.4384 34.3859 24.5315 34.3859C25.6245 34.3859 26.7174 34.0736 27.6542 33.2928C28.591 32.6683 29.0595 31.5753 29.0595 30.1701C29.0595 28.7648 28.591 27.828 27.6542 27.0473C26.7174 26.2666 25.4683 25.9543 23.9069 25.9543C22.3455 25.9543 20.6279 26.5789 18.5981 27.6718L15.7876 24.7051V9.71582H33.9001Z" fill="white"/>
</svg>
