<svg width="66" height="66" viewBox="0 0 66 66" fill="none" xmlns="http://www.w3.org/2000/svg">
<g filter="url(#filter0_d)">
<circle cx="33" cy="33" r="18" fill="white"/>
<circle cx="33" cy="33" r="20.5" stroke="white" stroke-opacity="0.3" stroke-width="5"/>
<path d="M33 24C29.13 24 26 27.13 26 31C26 36.25 33 44 33 44C33 44 40 36.25 40 31C40 27.13 36.87 24 33 24ZM33 33.5C31.62 33.5 30.5 32.38 30.5 31C30.5 29.62 31.62 28.5 33 28.5C34.38 28.5 35.5 29.62 35.5 31C35.5 32.38 34.38 33.5 33 33.5Z" fill="#1885D3"/>
</g>
<defs>
<filter id="filter0_d" x="0" y="0" width="66" height="66" filterUnits="userSpaceOnUse" color-interpolation-filters="sRGB">
<feFlood flood-opacity="0" result="BackgroundImageFix"/>
<feColorMatrix in="SourceAlpha" type="matrix" values="0 0 0 0 0 0 0 0 0 0 0 0 0 0 0 0 0 0 127 0"/>
<feOffset/>
<feGaussianBlur stdDeviation="5"/>
<feColorMatrix type="matrix" values="0 0 0 0 0 0 0 0 0 0 0 0 0 0 0 0 0 0 0.05 0"/>
<feBlend mode="normal" in2="BackgroundImageFix" result="effect1_dropShadow"/>
<feBlend mode="normal" in="SourceGraphic" in2="effect1_dropShadow" result="shape"/>
</filter>
</defs>
</svg>
