<svg width="50" height="50" viewBox="0 0 50 50" fill="none" xmlns="http://www.w3.org/2000/svg">
<path fill-rule="evenodd" clip-rule="evenodd" d="M5.48868 5.33755C11.1165 -0.434054 28.7511 -1.52496 38.8966 2.06493C38.9008 2.08237 38.905 2.09981 38.9092 2.11727C41.2695 2.94269 43.2215 4.01821 44.5177 5.34383C51.3878 12.3701 52.1685 39.0702 44.5177 45.3158C36.8668 51.5614 12.9773 51.5614 5.48254 45.3158C0.646249 41.3678 -0.820972 29.2467 0.489311 19.0881C1.18011 13.6229 2.68721 8.72298 4.94224 5.95172C5.11792 5.73542 5.29803 5.53253 5.48254 5.34383C5.48458 5.34174 5.48663 5.33964 5.48868 5.33755Z" fill="#1885D3"/>
<path d="M23.4386 34.8544C25.3123 34.8544 26.7175 34.2298 27.8105 32.9807C28.9035 31.7315 29.5279 30.0141 29.6842 27.8281C27.8105 29.0772 25.7806 29.7018 23.7509 29.7018C20.9404 29.7018 18.5983 28.765 16.7246 26.8913C14.8509 25.0176 13.9141 22.5194 13.9141 19.5528C13.9141 16.43 15.0071 14.0878 16.8807 12.2142C18.7543 10.3406 21.4087 9.40369 24.5316 9.40369C26.7175 9.40369 28.5913 9.87214 30.1526 10.6528C31.714 11.4335 32.9632 12.6827 33.9 14.0879C35.6175 16.8985 36.3983 20.4897 36.3983 24.8616C36.3983 27.6721 36.086 30.0142 35.3052 32.2001C34.6807 34.23 33.7438 35.9474 32.4947 37.1966C30.1526 39.5387 27.3421 40.7878 23.907 40.7878C22.5018 40.7878 21.0965 40.6317 19.8473 40.1632C18.5982 39.6948 17.5053 39.3825 16.8807 38.9141C16.2561 38.4456 15.4754 37.9773 14.5386 37.3527L17.9737 32.6685C18.1298 32.8246 18.4422 33.1369 18.7544 33.293C19.0667 33.6053 19.6912 33.9176 20.6281 34.3861C21.7211 34.5421 22.5018 34.8544 23.4386 34.8544ZM24.3755 23.9245C25.7807 23.9245 26.8738 23.6123 27.6545 22.8315C28.5913 22.0508 29.0597 20.9578 29.0597 19.7088C29.0597 18.4596 28.5913 17.3667 27.8106 16.4298C26.8738 15.493 25.9368 15.0245 24.5316 15.0245C23.2824 15.0245 22.1895 15.493 21.4088 16.2737C20.6281 17.0544 20.1597 18.1474 20.1597 19.3964C20.1597 20.6455 20.4719 21.7385 21.2527 22.6754C21.8772 23.4561 22.9702 23.9245 24.3755 23.9245Z" fill="white"/>
</svg>
