<svg width="144" height="144" viewBox="0 0 144 144" fill="none" xmlns="http://www.w3.org/2000/svg">
<path d="M87.4453 95.9062L95.9283 87.4229L127.756 119.25C130.099 121.592 130.099 125.39 127.756 127.733C125.414 130.075 121.616 130.075 119.273 127.733L87.4453 95.9062Z" fill="#1885D3"/>
<path d="M59.9062 11.9414C47.1759 11.9414 34.9669 16.9985 25.9651 26.0003C16.9634 35.002 11.9063 47.211 11.9062 59.9414C11.9063 72.6718 16.9634 84.8808 25.9651 93.8825C34.9669 102.884 47.1759 107.941 59.9062 107.941C72.6366 107.941 84.8456 102.884 93.8474 93.8825C102.849 84.8808 107.906 72.6718 107.906 59.9414C107.906 47.211 102.849 35.002 93.8474 26.0003C84.8456 16.9985 72.6366 11.9414 59.9062 11.9414Z" fill="#1885D3"/>
<path d="M97.2715 105.961L105.754 97.4776L127.603 119.326C129.946 121.668 129.946 125.466 127.604 127.809C125.261 130.152 121.463 130.152 119.12 127.809L97.2715 105.961Z" fill="#2E55A6"/>
<path d="M59.9062 20.9414C54.7847 20.9414 49.7133 21.9502 44.9816 23.9101C40.2499 25.87 35.9506 28.7428 32.3291 32.3642C28.7076 35.9857 25.8349 40.2851 23.8749 45.0168C21.915 49.7484 20.9063 54.8199 20.9062 59.9414C20.9062 65.063 21.915 70.1344 23.8749 74.8661C25.8349 79.5978 28.7076 83.8971 32.3291 87.5186C35.9506 91.1401 40.2499 94.0128 44.9816 95.9727C49.7133 97.9326 54.7847 98.9414 59.9062 98.9414C65.0278 98.9414 70.0992 97.9326 74.8309 95.9727C79.5626 94.0128 83.8619 91.1401 87.4834 87.5186C91.1049 83.8971 93.9776 79.5978 95.9375 74.8661C97.8975 70.1344 98.9062 65.063 98.9062 59.9414C98.9062 54.8199 97.8975 49.7484 95.9375 45.0168C93.9776 40.2851 91.1049 35.9857 87.4834 32.3642C83.8619 28.7428 79.5626 25.87 74.8309 23.9101C70.0992 21.9502 65.0278 20.9414 59.9062 20.9414Z" fill="white"/>
</svg>
