<svg width="14" height="18" viewBox="0 0 14 18" fill="none" xmlns="http://www.w3.org/2000/svg">
<path d="M12.7602 0H1.24016C0.645312 0 0.160156 0.485156 0.160156 1.08V18H13.8402V1.08C13.8402 0.485156 13.355 0 12.7602 0ZM8.08016 8.28V6.12H11.3202V8.28H8.08016ZM11.3202 9.72V11.88H8.08016V9.72H11.3202ZM8.08016 4.68V2.52H11.3202V4.68H8.08016ZM2.68016 8.28V6.12H5.92016V8.28H2.68016ZM5.92016 9.72V11.88H2.68016V9.72H5.92016ZM2.68016 4.68V2.52H5.92016V4.68H2.68016ZM2.68016 13.32H5.92016V15.48H2.68016V13.32ZM8.08016 13.32H11.3202V17.28H8.08016V13.32Z" fill="white"/>
</svg>
