<svg width="50" height="50" viewBox="0 0 50 50" fill="none" xmlns="http://www.w3.org/2000/svg">
<g clip-path="url(#clip0)">
<path fill-rule="evenodd" clip-rule="evenodd" d="M2.00313 39.638C-1.58777 29.3918 -0.131363 11.0863 5.47097 5.34391C11.092 -0.433252 28.7359 -1.52628 38.885 2.06493C38.8893 2.08234 38.8935 2.09977 38.8976 2.1172C41.2581 2.94263 43.2101 4.01817 44.5063 5.34383C51.3765 12.3701 52.1572 39.0702 44.5063 45.3158C36.8554 51.5614 12.966 51.5614 5.47119 45.3158C4.01202 44.0998 2.86061 42.1085 2.00313 39.638Z" fill="#1885D3"/>
<path d="M26.55 15.1808C24.6763 15.1808 23.2711 15.8054 22.1781 17.0546C21.0851 18.3037 20.4606 20.0212 20.3044 22.2072C22.1781 20.958 24.208 20.3334 26.2377 20.3334C29.0482 20.3334 31.3903 21.2702 33.264 23.144C35.1377 25.0177 36.0745 27.5159 36.0745 30.4825C36.0745 33.6053 34.9815 35.9474 33.1079 37.821C31.2342 39.6948 28.5799 40.6316 25.457 40.6316C23.2711 40.6316 21.3973 40.1631 19.836 39.3824C18.2746 38.6017 17.0254 37.3526 16.2447 35.9473C14.5272 33.1368 13.5903 29.5456 13.5903 25.1737C13.5903 22.3632 13.9026 20.0211 14.6834 17.8351C15.3079 15.8053 16.2447 14.0878 17.4939 12.8387C19.836 10.6527 22.6465 9.40356 26.0816 9.40356C27.4868 9.40356 28.8921 9.55968 30.1413 10.0281C31.3904 10.4966 32.4833 10.8088 33.1079 11.2773C33.7325 11.7457 34.5132 12.2141 35.45 12.9948L32.3272 17.679C32.1711 17.5229 31.8587 17.2106 31.5465 17.0544C31.2343 16.7422 30.6097 16.4299 29.5167 15.9614C28.4238 15.4931 27.4868 15.1808 26.55 15.1808ZM25.7693 26.1106C24.3641 26.1106 23.2711 26.5791 22.3343 27.3597C21.3974 28.1404 20.929 29.2335 20.929 30.4825C20.929 31.7316 21.3974 32.8246 22.1781 33.7615C23.1149 34.6983 24.0519 35.1667 25.4571 35.1667C26.7063 35.1667 27.7992 34.6983 28.7361 33.9176C29.6729 33.1369 29.9852 32.0439 29.9852 30.7948C29.9852 29.5457 29.673 28.4528 28.8922 27.5159C28.1114 26.5791 27.0185 26.1106 25.7693 26.1106Z" fill="white"/>
</g>
<defs>
<clipPath id="clip0">
<rect width="50" height="50" fill="white"/>
</clipPath>
</defs>
</svg>
