<svg width="50" height="50" viewBox="0 0 50 50" fill="none" xmlns="http://www.w3.org/2000/svg">
<g clip-path="url(#clip0)">
<path fill-rule="evenodd" clip-rule="evenodd" d="M2.00313 39.638C-1.58777 29.3918 -0.131363 11.0863 5.47097 5.34391C11.092 -0.433252 28.7359 -1.52628 38.885 2.06493C38.8893 2.08234 38.8935 2.09977 38.8976 2.1172C41.2581 2.94263 43.2101 4.01817 44.5063 5.34383C51.3765 12.3701 52.1572 39.0702 44.5063 45.3158C36.8554 51.5614 12.966 51.5614 5.47119 45.3158C4.01202 44.0998 2.86061 42.1085 2.00313 39.638Z" fill="#1885D3"/>
<path d="M27.3308 22.0508C28.1115 20.9578 28.4238 19.8649 28.4238 18.9281C28.4238 17.9913 28.1116 17.0544 27.487 16.4298C26.8624 15.8052 25.9256 15.3367 24.9887 15.3367C23.115 15.3367 21.2414 16.742 19.5238 19.3964L14.0588 16.2737C15.4641 14.0877 17.0255 12.3701 18.7431 11.2772C20.4607 10.1843 22.6466 9.55969 25.1448 9.55969C27.643 9.55969 29.9852 10.3404 32.015 12.058C34.0448 13.7755 34.9817 15.9615 34.9817 18.7721C34.9817 20.3334 34.5132 21.8948 33.7325 23.3001C32.9518 24.7053 31.5466 26.5791 29.3606 28.765L23.8957 34.3861H35.9185V40.4756H14.5273V35.4791L23.4273 26.4229C25.3009 24.5491 26.5501 23.1439 27.3308 22.0508Z" fill="white"/>
</g>
<defs>
<clipPath id="clip0">
<rect width="50" height="50" fill="white"/>
</clipPath>
</defs>
</svg>
