<svg width="170" height="102" viewBox="0 0 170 102" fill="none" xmlns="http://www.w3.org/2000/svg">
<rect width="170" height="102" rx="10" fill="#9FC9D7"/>
<rect y="20" width="170" height="26" fill="black"/>
<rect x="10" y="62" width="102" height="20" fill="white"/>
<rect x="125" y="61" width="36" height="22" rx="5" stroke="#EB5757" stroke-width="2"/>
<path d="M134.713 76H136.465V67.5449H134.707L132.521 69.0625V70.6562L134.678 69.168H134.713V76ZM138.744 70.0879V70.1172H140.384V70.0879C140.384 69.3086 140.988 68.7344 141.808 68.7344C142.593 68.7344 143.15 69.2383 143.15 69.8711C143.15 70.457 142.886 70.8848 142.031 71.7402L138.843 74.8105V76H144.99V74.5938H141.175V74.5586L143.238 72.5723C144.169 71.6465 144.873 70.8555 144.873 69.8008C144.873 68.3887 143.648 67.3574 141.867 67.3574C140.021 67.3574 138.744 68.4883 138.744 70.0879ZM148.622 72.3086H149.665C150.62 72.3086 151.2 72.7773 151.2 73.5508C151.2 74.2656 150.579 74.7637 149.694 74.7637C148.763 74.7637 148.177 74.2949 148.124 73.5801H146.431C146.513 75.1387 147.761 76.1875 149.671 76.1875C151.622 76.1875 152.999 75.1797 152.999 73.6621C152.999 72.4902 152.185 71.7285 150.925 71.623V71.5879C151.962 71.4004 152.671 70.6504 152.671 69.6133C152.671 68.2598 151.47 67.3574 149.712 67.3574C147.878 67.3574 146.659 68.377 146.595 69.9414H148.224C148.271 69.2031 148.815 68.7168 149.636 68.7168C150.515 68.7168 151.001 69.168 151.001 69.8535C151.001 70.5508 150.456 71.0312 149.648 71.0312H148.622V72.3086Z" fill="black"/>
</svg>
