<svg width="190" height="44" viewBox="0 0 190 44" fill="none" xmlns="http://www.w3.org/2000/svg">
<path fill-rule="evenodd" clip-rule="evenodd" d="M55.9803 15.8155L57.2024 12.8905L58.4103 15.8155H55.9803ZM56.383 10.7112L52.6622 19.3939H54.5222L55.3299 17.4281H59.0623L59.8705 19.3939H61.7775L58.0676 10.7112H56.383Z" fill="#02307A"/>
<path fill-rule="evenodd" clip-rule="evenodd" d="M63.4231 12.3686H68.0819L63.2707 18.0198V19.3939H70.4282V17.7938H65.6178L70.4282 12.1451V10.7706H63.4231V12.3686Z" fill="#02307A"/>
<path fill-rule="evenodd" clip-rule="evenodd" d="M75.925 17.9003C74.6326 17.9003 73.8398 17.0135 73.6741 15.8284H78.2363C78.0102 17.0606 77.1558 17.9003 75.925 17.9003ZM75.8055 10.6283C74.11 10.6283 72.9388 11.2808 72.1443 12.2275L73.3064 13.4002C74.0284 12.6674 74.7629 12.2987 75.8055 12.2987C76.9913 12.2987 77.9515 12.9986 78.2238 14.2882H71.7408C71.7288 14.5021 71.7175 14.632 71.7175 14.8687V14.8929C71.7175 17.3452 73.0791 19.5349 75.925 19.5349C78.4266 19.5349 80.2149 17.5333 80.2149 15.0831V15.0469C80.2149 12.4397 78.2946 10.6283 75.8055 10.6283Z" fill="#02307A"/>
<path fill-rule="evenodd" clip-rule="evenodd" d="M85.7394 14.9755H83.7487V12.4171H85.7023C86.6633 12.4171 87.2554 12.8553 87.2554 13.6855V13.7088C87.2554 14.4658 86.6874 14.9755 85.7394 14.9755ZM89.0924 13.6131V13.5894C89.0924 12.7954 88.8443 12.1217 88.3696 11.646C87.8017 11.0792 86.9477 10.7709 85.858 10.7709H81.9374V19.3937H83.7487V16.586H85.3238L87.2341 19.3937H89.3664L87.2096 16.2789C88.3217 15.8877 89.0924 15.0117 89.0924 13.6131Z" fill="#02307A"/>
<path fill-rule="evenodd" clip-rule="evenodd" d="M96.6334 16.8122C96.6334 17.4746 96.1001 17.7938 95.2228 17.7938H92.9107V15.8051H95.1512C96.1717 15.8051 96.6334 16.1717 96.6334 16.7884V16.8122ZM92.9107 12.3682H94.8543C95.6837 12.3682 96.1475 12.7124 96.1475 13.2933V13.3178C96.1475 13.9924 95.6017 14.2887 94.7373 14.2887H92.9107V12.3682ZM96.81 14.8933C97.4291 14.5488 97.9592 14.0041 97.9592 13.022V12.9987C97.9592 12.4057 97.7714 11.9313 97.3788 11.5284C96.8816 11.0436 96.1001 10.7715 95.1162 10.7715H91.1461V19.3935H95.2228C97.1672 19.3935 98.4472 18.5999 98.4472 17.0252V17.0019C98.4472 15.8409 97.8064 15.2604 96.81 14.8933Z" fill="#02307A"/>
<path fill-rule="evenodd" clip-rule="evenodd" d="M102.992 15.8155L104.212 12.8905L105.421 15.8155H102.992ZM103.395 10.7112L99.6729 19.3939H101.534L102.34 17.4281H106.073L106.878 19.3939H108.787L105.076 10.7112H103.395Z" fill="#02307A"/>
<path fill-rule="evenodd" clip-rule="evenodd" d="M111.898 14.2998L109.777 10.7714H107.644L110.972 15.9935V19.3938H112.798V15.9585L116.141 10.7714H114.067L111.898 14.2998Z" fill="#02307A"/>
<path fill-rule="evenodd" clip-rule="evenodd" d="M120.871 17.8662C119.354 17.8662 118.301 16.5982 118.301 15.0831V15.0589C118.301 13.5421 119.379 12.2987 120.871 12.2987C121.761 12.2987 122.448 12.6794 123.123 13.2932L124.285 11.9549C123.481 11.1614 122.508 10.6283 120.883 10.6283C118.241 10.6283 116.392 12.6303 116.392 15.0831V15.1064C116.392 17.5807 118.276 19.5349 120.811 19.5349C122.472 19.5349 123.455 18.944 124.344 18.0077L123.182 16.8346C122.496 17.463 121.88 17.8662 120.871 17.8662Z" fill="#02307A"/>
<path fill-rule="evenodd" clip-rule="evenodd" d="M128.727 15.8155L129.95 12.8905L131.157 15.8155H128.727ZM129.13 10.7112L125.408 19.3939H127.27L128.076 17.4281H131.809L132.615 19.3939H134.523L130.815 10.7112H129.13Z" fill="#02307A"/>
<path fill-rule="evenodd" clip-rule="evenodd" d="M141.826 10.7714V16.207L137.668 10.7714H135.996V19.3938H137.785V13.7796L142.076 19.3938H143.628V10.7714H141.826Z" fill="#02307A"/>
<path fill-rule="evenodd" clip-rule="evenodd" d="M58.6236 30.4865C58.6236 31.1606 58.0831 31.4844 57.1933 31.4844H54.8487V29.4665H57.1213C58.1547 29.4665 58.6236 29.8386 58.6236 30.4636V30.4865ZM54.8487 25.9814H56.8215C57.6622 25.9814 58.1318 26.3297 58.1318 26.9189V26.9426C58.1318 27.6272 57.5781 27.9276 56.7012 27.9276H54.8487V25.9814ZM58.8051 28.5406C59.4301 28.1919 59.9705 27.6397 59.9705 26.6426V26.6189C59.9705 26.0176 59.779 25.5365 59.3814 25.1283C58.8759 24.6352 58.0831 24.3593 57.0847 24.3593H53.0566V33.1065H57.1933C59.1653 33.1065 60.4635 32.3021 60.4635 30.7033V30.6796C60.4635 29.5023 59.8144 28.9135 58.8051 28.5406Z" fill="#02307A"/>
<path fill-rule="evenodd" clip-rule="evenodd" d="M63.8617 29.5256H68.0459V27.8798H63.8617V26.0055H68.6105V24.3593H62.033V33.1065H68.6692V31.4602H63.8617V29.5256Z" fill="#02307A"/>
<path fill-rule="evenodd" clip-rule="evenodd" d="M74.2614 27.9401L72.1092 24.3593H69.9465L73.3242 29.6575V33.1065H75.1754V29.623L78.5659 24.3593H76.4624L74.2614 27.9401Z" fill="#02307A"/>
<path fill-rule="evenodd" clip-rule="evenodd" d="M86.0575 29.8742L81.8367 24.3591H80.1417V33.1064H81.9571V27.4107L86.3094 33.1064H87.8837V24.3591H86.0575V29.8742Z" fill="#02307A"/>
<path fill-rule="evenodd" clip-rule="evenodd" d="M93.988 31.5933C92.6777 31.5933 91.8728 30.692 91.7042 29.4893H96.3326C96.1045 30.7398 95.2384 31.5933 93.988 31.5933ZM93.8685 24.2152C92.1485 24.2152 90.9585 24.8756 90.1524 25.8373L91.3311 27.0275C92.064 26.2822 92.8105 25.9093 93.8685 25.9093C95.071 25.9093 96.0437 26.6188 96.3206 27.9276H89.7448C89.7323 28.1444 89.7202 28.2763 89.7202 28.5168V28.5406C89.7202 31.0274 91.103 33.2504 93.988 33.2504C96.5242 33.2504 98.3404 31.2205 98.3404 28.7336V28.697C98.3404 26.0533 96.3918 24.2152 93.8685 24.2152Z" fill="#02307A"/>
<path fill-rule="evenodd" clip-rule="evenodd" d="M102.015 24.3593H100.176V33.1065H106.428V31.4253H102.015V24.3593Z" fill="#02307A"/>
<path fill-rule="evenodd" clip-rule="evenodd" d="M115.94 24.3593H113.836L111.913 27.2668L110.012 24.3593H107.848L110.794 28.6605L107.717 33.1065H109.821L111.865 30.0312L113.895 33.1065H116.06L112.994 28.6255L115.94 24.3593Z" fill="#02307A"/>
<path fill-rule="evenodd" clip-rule="evenodd" d="M120.719 29.478L121.958 26.5101L123.184 29.478H120.719ZM121.128 24.2992L117.353 33.1064H119.241L120.058 31.1122H123.845L124.664 33.1064H126.598L122.835 24.2992H121.128Z" fill="#02307A"/>
<path fill-rule="evenodd" clip-rule="evenodd" d="M129.974 24.3593H128.134V33.1065H134.386V31.4253H129.974V24.3593Z" fill="#02307A"/>
<path fill-rule="evenodd" clip-rule="evenodd" d="M142.178 28.7569C142.178 29.2254 142.082 29.6703 141.902 30.0552L140.447 28.7336L139.269 30.0552L140.712 31.292C140.35 31.4609 139.942 31.5567 139.485 31.5567C137.899 31.5567 136.767 30.2712 136.767 28.7336V28.7086C136.767 27.171 137.875 25.9092 139.461 25.9092C141.048 25.9092 142.178 27.1955 142.178 28.7336V28.7569ZM144.112 28.7336V28.7086C144.112 26.2222 142.178 24.2147 139.485 24.2147C136.791 24.2147 134.832 26.2575 134.832 28.7336V28.7569C134.832 31.2441 136.767 33.2503 139.461 33.2503C140.447 33.2503 141.337 32.9624 142.07 32.4826L143.056 33.371L144.234 32.061L143.321 31.2803C143.826 30.5475 144.112 29.6703 144.112 28.7336Z" fill="#02307A"/>
<path fill-rule="evenodd" clip-rule="evenodd" d="M155.362 30.4865C155.362 31.1606 154.822 31.4844 153.933 31.4844H151.587V29.4665H153.86C154.893 29.4665 155.362 29.8386 155.362 30.4636V30.4865ZM151.587 25.9814H153.56C154.401 25.9814 154.87 26.3297 154.87 26.9189V26.9426C154.87 27.6272 154.317 27.9276 153.44 27.9276H151.587V25.9814ZM155.543 28.5406C156.167 28.1919 156.709 27.6397 156.709 26.6426V26.6189C156.709 26.0176 156.517 25.5365 156.122 25.1283C155.614 24.6352 154.822 24.3593 153.823 24.3593H149.796V33.1065H153.933C155.905 33.1065 157.202 32.3021 157.202 30.7033V30.6796C157.202 29.5023 156.552 28.9135 155.543 28.5406Z" fill="#02307A"/>
<path fill-rule="evenodd" clip-rule="evenodd" d="M161.515 29.478L162.754 26.5101L163.981 29.478H161.515ZM161.925 24.2992L158.149 33.1064H160.037L160.853 31.1122H164.642L165.459 33.1064H167.394L163.631 24.2992H161.925Z" fill="#02307A"/>
<path fill-rule="evenodd" clip-rule="evenodd" d="M174.796 29.8742L170.578 24.3591H168.882V33.1064H170.698V27.4107L175.049 33.1064H176.625V24.3591H174.796V29.8742Z" fill="#02307A"/>
<path fill-rule="evenodd" clip-rule="evenodd" d="M186.624 24.3593H184.352L180.696 28.3009V24.3593H178.857V33.1065H180.696V30.4636L181.778 29.3458L184.556 33.1065H186.781L183.029 28.0845L186.624 24.3593Z" fill="#02307A"/>
<path fill-rule="evenodd" clip-rule="evenodd" d="M188.148 33.1065H190V24.3593H188.148V33.1065Z" fill="#02307A"/>
<path fill-rule="evenodd" clip-rule="evenodd" d="M33.1476 30.4422C32.9819 29.3915 32.7116 28.3815 32.3373 27.4314C31.3942 27.7265 30.4253 27.9254 29.4398 28.0161L28.1515 28.136L28.0328 29.4235C27.6577 33.4675 25.5308 37.2224 22.0116 40.1045C21.1339 39.3854 20.3428 38.6118 19.645 37.7937C18.6448 38.2386 17.6039 38.6031 16.5255 38.8811C17.7667 40.5202 19.2948 42.0225 21.094 43.3317L22.0116 44L22.9293 43.3317C27.3512 40.1129 30.1722 35.7559 30.9749 30.9574C31.7098 30.8342 32.4356 30.6586 33.1476 30.4422ZM43.3567 21.0816C40.136 16.6639 35.7762 13.8433 30.9749 13.041C30.8521 12.3056 30.6756 11.5816 30.4595 10.8691C29.4073 11.0352 28.398 11.3052 27.447 11.6802C27.7422 12.6236 27.9408 13.5898 28.0328 14.5748L28.1515 15.862L29.4406 15.9822C33.4861 16.358 37.2435 18.4815 40.1269 21.9992C39.4086 22.8768 38.6337 23.6675 37.8147 24.3657C38.2602 25.3653 38.6254 26.4057 38.9031 27.483C40.5441 26.2421 42.0463 24.7145 43.3567 22.9159L44.025 21.9992L43.3567 21.0816ZM35.8607 20.0987C34.9975 19.474 34.0944 18.9518 33.1567 18.5444C32.6979 19.4179 32.1545 20.2431 31.5221 21.0042L30.6956 21.9983L31.5221 22.9933C34.1173 26.1185 35.2703 30.2762 34.8218 34.8017C33.6926 34.9132 32.5851 34.9253 31.5121 34.8404C31.1203 35.8624 30.6423 36.8557 30.0768 37.8141C32.1137 38.0962 34.2572 38.0771 36.4548 37.7321L37.5766 37.5557L37.7531 36.4338C38.6025 31.0335 37.5149 25.9591 34.6873 21.9983C35.1208 21.3916 35.5084 20.7557 35.8607 20.0987ZM23.9124 35.8379C24.539 34.9781 25.062 34.0743 25.4696 33.138C24.5944 32.6781 23.7696 32.1346 23.0072 31.5038L22.0116 30.6773L21.0153 31.5038C17.8891 34.0971 13.7304 35.2507 9.2023 34.8017C9.08946 33.6735 9.07822 32.5666 9.16316 31.495C8.14221 31.1018 7.14582 30.6245 6.18858 30.0594C5.90544 32.0955 5.92459 34.2378 6.27018 36.4342L6.4459 37.5557L7.56761 37.7321C12.9713 38.5806 18.0498 37.4933 22.0116 34.6681C22.6187 35.1005 23.2558 35.4879 23.9124 35.8379ZM13.5651 33.1292C14.616 32.9632 15.6245 32.6923 16.5759 32.319C16.2819 31.3764 16.0825 30.4081 15.9909 29.4243L15.871 28.136L14.5835 28.0169C10.5376 27.6412 6.77899 25.5164 3.89643 21.9992C4.61551 21.1224 5.38955 20.3317 6.20939 19.6334C5.76387 18.6343 5.39746 17.5935 5.12016 16.5161C3.47923 17.7566 1.97861 19.2839 0.668281 21.0816L0 21.9992L0.668281 22.9159C3.88936 27.3353 8.2463 30.1551 13.0492 30.9574C13.1733 31.6923 13.3486 32.4172 13.5651 33.1292ZM20.1101 8.15965C19.4851 9.02064 18.9629 9.92407 18.5553 10.8621C19.4301 11.319 20.2554 11.8629 21.0161 12.4954L22.0108 13.3198L23.0072 12.4954C26.1333 9.90035 30.2929 8.74848 34.8218 9.19708C34.933 10.3261 34.9451 11.4313 34.8605 12.5045C35.8836 12.8961 36.8775 13.3734 37.8364 13.939C38.1187 11.9032 38.0987 9.76178 37.7531 7.5629L37.5766 6.44224L36.4548 6.26788C31.0507 5.41854 25.9743 6.50466 22.0108 9.33149C21.4042 8.89829 20.7675 8.51003 20.1101 8.15965ZM8.16427 23.8993C9.02658 24.5247 9.93053 25.0474 10.8682 25.4548C11.3262 24.5809 11.8696 23.7561 12.5021 22.9942L13.3277 21.9983L12.5021 21.0038C9.90722 17.879 8.75261 13.7226 9.2023 9.19708C10.3315 9.08431 11.4382 9.07224 12.5116 9.15755C12.9039 8.13676 13.381 7.14177 13.9473 6.18465C11.91 5.90209 9.7669 5.92207 7.56761 6.26705L6.4459 6.44183L6.27018 7.56332C5.42161 12.9635 6.50877 18.0396 9.33595 21.9983C8.90292 22.6059 8.51569 23.243 8.16427 23.8993ZM10.8749 13.5574C11.0418 14.6077 11.3125 15.6156 11.6868 16.5669C12.6307 16.2727 13.5975 16.0738 14.5835 15.9822L15.871 15.8615L15.9909 14.5748C16.3673 10.5316 18.492 6.77599 22.0116 3.89423C22.8898 4.6129 23.6805 5.3865 24.3791 6.20463C25.3797 5.76061 26.421 5.39399 27.4986 5.11726C26.2574 3.47767 24.7285 1.97749 22.9293 0.667902L22.0116 0L21.094 0.667902C16.6729 3.88673 13.8511 8.24204 13.0483 13.041C12.3122 13.1654 11.589 13.3406 10.8749 13.5574Z" fill="#02307A"/>
</svg>
