<?xml version="1.0" encoding="UTF-8"?>
<svg width="131px" height="170px" viewBox="0 0 131 170" version="1.1" xmlns="http://www.w3.org/2000/svg" xmlns:xlink="http://www.w3.org/1999/xlink">
    <title>3</title>
    <defs>
        <rect id="path-1" x="0" y="0" width="131" height="170" rx="2"></rect>
    </defs>
    <g id="Page-1" stroke="none" stroke-width="1" fill="none" fill-rule="evenodd">
        <g id="3">
            <mask id="mask-2" fill="white">
                <use xlink:href="#path-1"></use>
            </mask>
            <g id="Rectangle"></g>
            <g id="Group" mask="url(#mask-2)" fill-rule="nonzero">
                <g transform="translate(7.000000, 51.000000)" id="Path">
                    <path d="M75.205,42.0016 L69.2882,45.5795 L54.2263,18.2558 C51.5633,13.4247 47.1391,9.9223 41.9272,8.5191 C36.7152,7.1159 31.1425,7.9269 26.4348,10.7737 C21.7271,13.6204 18.2701,18.2697 16.8244,23.6988 C15.3786,29.1279 16.0625,34.892 18.7256,39.7231 L33.7874,67.047 L27.8706,70.625 L12.8088,43.301 C9.258,36.8595 8.3462,29.174 10.2738,21.9353 C12.2015,14.6965 16.8108,8.4974 23.0877,4.7018 C29.3646,0.9061 36.795,-0.1752 43.7442,1.6957 C50.6935,3.5666 56.5923,8.2364 60.1431,14.6779 L75.205,42.0016 Z" fill-opacity="0.6" fill="#EB5757"></path>
                    <polygon fill="#EB5757" points="72.1081 214.95 0.95776 71.562 89.8151 17.8359 172.813 154.06"></polygon>
                    <path d="M63.6428,77.562 L66.0065,68.686 C66.8669,65.456 68.9239,62.69 71.7251,60.996 C74.5267,59.302 77.8432,58.819 80.9449,59.654 C84.0466,60.489 86.6794,62.573 88.2643,65.448 C89.849,68.323 90.256,71.753 89.3958,74.983 L80.5437,108.221 L48.6341,99.63 C45.5327,98.795 42.9,96.711 41.3153,93.836 C39.7304,90.961 39.3234,87.531 40.1838,84.301 C41.0442,81.07 43.1015,78.303 45.9031,76.609 C48.7046,74.915 52.0209,74.432 55.1226,75.267 L63.6428,77.562 Z" fill="#FFFFFF"></path>
                </g>
            </g>
        </g>
    </g>
</svg>