<svg width="140" height="140" viewBox="0 0 140 140" fill="none" xmlns="http://www.w3.org/2000/svg">
<path d="M128.007 70C128.007 74.8609 120.066 78.6135 118.867 83.0967C117.628 87.7353 122.592 94.9486 120.242 99.0099C117.858 103.13 109.108 102.421 105.764 105.764C102.421 109.108 103.13 117.858 99.01 120.242C94.9486 122.592 87.7357 117.627 83.0968 118.867C78.6136 120.065 74.8609 128.006 70.0001 128.006C65.1392 128.006 61.3866 120.065 56.9033 118.867C52.2647 117.627 45.0515 122.592 40.9902 120.242C36.8703 117.858 37.5793 109.108 34.2357 105.764C30.8922 102.42 22.1417 103.129 19.7581 99.0096C17.4085 94.9483 22.3727 87.7353 21.133 83.0965C19.9348 78.6132 11.9937 74.8606 11.9937 69.9997C11.9937 65.1388 19.9348 61.3862 21.133 56.903C22.3727 52.2644 17.4085 45.0511 19.7584 40.9898C22.142 36.8699 30.8924 37.579 34.236 34.2354C37.5796 30.8918 36.8706 22.1413 40.9904 19.7578C45.0518 17.4081 52.2647 22.3724 56.9036 21.1326C61.3868 19.9344 65.1395 11.9933 70.0003 11.9933C74.8612 11.9933 78.6138 19.9344 83.0971 21.1326C87.7357 22.3724 94.9489 17.4081 99.0103 19.758C103.13 22.1416 102.421 30.8921 105.765 34.2357C109.108 37.5792 117.859 36.8702 120.242 40.9901C122.592 45.0514 117.628 52.2644 118.867 56.9032C120.066 61.3865 128.007 65.1391 128.007 70Z" fill="#F9DA94"/>
<path d="M70.0004 108.282C91.1428 108.282 108.282 91.1426 108.282 70.0001C108.282 48.8576 91.1428 31.7183 70.0004 31.7183C48.8579 31.7183 31.7185 48.8576 31.7185 70.0001C31.7185 91.1426 48.8579 108.282 70.0004 108.282Z" fill="#F4A528"/>
<path d="M86.3408 58.5329L58.533 86.341C57.1872 87.6868 55.0052 87.6868 53.6593 86.341C52.3134 84.9951 52.3134 82.8131 53.6593 81.4672L81.4671 53.6592C82.8129 52.3133 84.995 52.3133 86.3408 53.6592C87.6867 55.0053 87.6867 57.1873 86.3408 58.5329Z" fill="white"/>
<path d="M57.4697 62.6875C60.3514 62.6875 62.6874 60.3515 62.6874 57.4698C62.6874 54.5881 60.3514 52.2521 57.4697 52.2521C54.588 52.2521 52.252 54.5881 52.252 57.4698C52.252 60.3515 54.588 62.6875 57.4697 62.6875Z" fill="white"/>
<path d="M82.5305 87.7482C85.4122 87.7482 87.7482 85.4122 87.7482 82.5305C87.7482 79.6488 85.4122 77.3127 82.5305 77.3127C79.6488 77.3127 77.3127 79.6488 77.3127 82.5305C77.3127 85.4122 79.6488 87.7482 82.5305 87.7482Z" fill="white"/>
<path d="M115.037 26.3046C114.512 26.3046 113.987 26.1045 113.587 25.7039C112.786 24.903 112.786 23.6044 113.587 22.8038L117.843 18.5483C118.644 17.7474 119.942 17.7474 120.743 18.5483C121.543 19.3492 121.544 20.6478 120.743 21.4484L116.487 25.7039C116.087 26.1045 115.562 26.3046 115.037 26.3046Z" fill="#F8D078"/>
<path d="M86.1316 9.91569C85.9558 9.91569 85.7773 9.893 85.5995 9.84542C84.5055 9.5523 83.8564 8.42765 84.1495 7.33362L85.707 1.52062C85.9998 0.426592 87.1242 -0.222275 88.2188 0.0703034C89.3128 0.363428 89.9619 1.48808 89.6688 2.5821L88.1113 8.39511C87.8658 9.3114 87.037 9.91569 86.1316 9.91569Z" fill="#F8D078"/>
<path d="M52.9 10.1752C51.9944 10.1752 51.1659 9.57092 50.9206 8.65463L49.3631 2.84162C49.07 1.7476 49.7191 0.623223 50.8132 0.329825C51.9074 0.0372468 53.0318 0.686114 53.325 1.78014L54.8825 7.59314C55.1756 8.68717 54.5264 9.81154 53.4324 10.1049C53.2541 10.1522 53.0756 10.1752 52.9 10.1752Z" fill="#F8D078"/>
<path d="M24.2545 27.014C23.7297 27.014 23.2047 26.8138 22.8044 26.4135L18.5489 22.158C17.7477 21.3571 17.7477 20.0586 18.5486 19.2577C19.3498 18.4568 20.6484 18.4568 21.4487 19.2577L25.7045 23.5129C26.5057 24.3138 26.5057 25.6123 25.7048 26.4132C25.3042 26.8136 24.7792 27.014 24.2545 27.014Z" fill="#F8D078"/>
<path d="M7.86582 55.9212C7.69 55.9212 7.51144 55.8985 7.33371 55.851L1.52043 54.2935C0.426403 54.0003 -0.222737 52.8757 0.0703876 51.7817C0.363239 50.6876 1.48789 50.0382 2.58218 50.3314L8.39547 51.8889C9.48949 52.182 10.1386 53.3066 9.8455 54.4006C9.59996 55.3169 8.77144 55.9212 7.86582 55.9212Z" fill="#F8D078"/>
<path d="M2.30957 90.7079C1.40394 90.7079 0.575427 90.1036 0.330153 89.1873C0.0370282 88.0933 0.686169 86.9686 1.78019 86.6755L7.59347 85.1177C8.68777 84.8254 9.81215 85.4737 10.1053 86.5678C10.3984 87.6618 9.74925 88.7864 8.65523 89.0796L2.84195 90.6373C2.66394 90.6852 2.48539 90.7079 2.30957 90.7079Z" fill="#F8D078"/>
<path d="M20.7077 122.053C20.1827 122.053 19.658 121.852 19.2574 121.452C18.4565 120.651 18.4565 119.352 19.2577 118.552L23.5132 114.296C24.3141 113.495 25.6126 113.495 26.4132 114.296C27.2141 115.097 27.2141 116.396 26.413 117.196L22.1575 121.452C21.7574 121.852 21.2324 122.053 20.7077 122.053Z" fill="#F8D078"/>
<path d="M52.3138 140C52.1379 140 51.9594 139.977 51.7817 139.93C50.6876 139.637 50.0385 138.512 50.3316 137.418L51.8891 131.605C52.182 130.511 53.3063 129.862 54.4009 130.155C55.4949 130.448 56.1441 131.572 55.851 132.666L54.2935 138.479C54.0479 139.396 53.2194 140 52.3138 140Z" fill="#F8D078"/>
<path d="M88.6552 139.741C87.7495 139.741 86.921 139.136 86.6757 138.22L85.1182 132.407C84.8251 131.313 85.4743 130.189 86.5683 129.895C87.6623 129.603 88.7867 130.251 89.0801 131.346L90.6376 137.159C90.9307 138.253 90.2816 139.377 89.1875 139.67C89.0095 139.718 88.831 139.741 88.6552 139.741Z" fill="#F8D078"/>
<path d="M120.002 121.343C119.477 121.343 118.952 121.143 118.552 120.742L114.296 116.487C113.495 115.686 113.495 114.388 114.296 113.587C115.097 112.786 116.396 112.786 117.196 113.587L121.452 117.842C122.253 118.643 122.253 119.942 121.452 120.743C121.052 121.143 120.527 121.343 120.002 121.343Z" fill="#F8D078"/>
<path d="M137.951 89.7389C137.775 89.7389 137.596 89.7162 137.418 89.6686L131.605 88.1111C130.511 87.818 129.862 86.6933 130.155 85.5993C130.448 84.5053 131.572 83.8562 132.667 84.149L138.48 85.7065C139.574 85.9996 140.223 87.1243 139.93 88.2183C139.684 89.1346 138.856 89.7389 137.951 89.7389Z" fill="#F8D078"/>
<path d="M131.875 54.9526C130.969 54.9526 130.141 54.3483 129.896 53.432C129.602 52.3379 130.252 51.2133 131.346 50.9202L137.159 49.3624C138.253 49.0695 139.378 49.7187 139.671 50.8124C139.964 51.9065 139.315 53.0311 138.221 53.3242L132.407 54.882C132.229 54.9299 132.051 54.9526 131.875 54.9526Z" fill="#F8D078"/>
</svg>
