<svg width="154" height="140" viewBox="0 0 154 140" fill="none" xmlns="http://www.w3.org/2000/svg">
<path fill-rule="evenodd" clip-rule="evenodd" d="M99.4489 0.359297L107.134 7.19742C107.673 7.67648 108.485 7.67648 109.024 7.19742L112.365 4.22487V4.07014L116.783 0.138925C117.053 -0.101427 117.48 0.0902528 117.48 0.451737V85.8783C117.48 90.961 113.474 95.108 108.447 95.3339C108.361 95.3403 108.274 95.3436 108.189 95.3436L108.174 95.3423C108.121 95.3431 108.068 95.3436 108.015 95.3436H102.9C103.669 95.3436 104.417 95.2518 105.132 95.0787L89.2585 93.7029L79.7931 95.3436L60.2065 36.5083V0.451992C60.2065 0.0905078 60.6334 -0.101172 60.9035 0.13918L68.8354 7.19715C69.3741 7.67621 70.1859 7.67621 70.7246 7.19715L78.4101 0.359297C78.9488 -0.119766 79.7606 -0.119766 80.2993 0.359297L87.9848 7.19715C88.5235 7.67621 89.3353 7.67621 89.874 7.19715L97.5597 0.359297C98.0984 -0.119766 98.9103 -0.119766 99.4489 0.359297Z" fill="#C6D0DA"/>
<path d="M98.7238 85.8778V45.9729C98.7238 40.7453 94.4861 36.5078 89.2588 36.5078C84.0312 36.5078 79.7935 40.7455 79.7935 45.9729V95.3431H98.7238H108.189C102.961 95.3431 98.7238 91.1054 98.7238 85.8778Z" fill="#808B95"/>
<path fill-rule="evenodd" clip-rule="evenodd" d="M79.7932 36.5083H84.1428H89.2585C84.0309 36.5083 79.7932 40.7458 79.7932 45.9733V95.3436V139.547C79.7932 139.909 79.3661 140.101 79.0962 139.86L74.678 135.929L74.6777 135.929L71.1644 132.803C70.6257 132.324 69.8139 132.324 69.2752 132.803L61.5897 139.64C61.051 140.119 60.2389 140.119 59.7005 139.64L52.015 132.803C51.4763 132.324 50.6642 132.324 50.1258 132.803L42.44 139.64C41.9013 140.119 41.0895 140.119 40.5508 139.64L32.8653 132.803C32.3267 132.324 31.5146 132.324 30.9762 132.803L23.0432 139.861C22.7733 140.101 22.3462 139.909 22.3462 139.548V45.9733C22.3462 40.746 26.5837 36.5083 31.8112 36.5083H79.7932Z" fill="#E7ECF1"/>
<rect x="49.5" y="110.5" width="21" height="4" fill="#808B95" stroke="#808B95" stroke-linecap="round" stroke-linejoin="round"/>
<rect x="31.5" y="96.5" width="39" height="4" fill="#808B95" stroke="#808B95" stroke-linecap="round" stroke-linejoin="round"/>
<rect x="31.5" y="82.5" width="39" height="4" fill="#808B95" stroke="#808B95" stroke-linecap="round" stroke-linejoin="round"/>
<rect x="31.5" y="68.5" width="39" height="4" fill="#808B95" stroke="#808B95" stroke-linecap="round" stroke-linejoin="round"/>
<rect x="31.5" y="54.5" width="39" height="4" fill="#808B95" stroke="#808B95" stroke-linecap="round" stroke-linejoin="round"/>
<circle cx="122" cy="81" r="30" fill="#EB5757" stroke="white" stroke-width="4"/>
<path d="M132 71L112 91" stroke="white" stroke-width="4" stroke-linecap="square"/>
<path d="M112 71L132 91" stroke="white" stroke-width="4" stroke-linecap="square"/>
</svg>
