<?xml version="1.0" encoding="UTF-8"?>
<svg width="186px" height="170px" viewBox="0 0 186 170" version="1.1" xmlns="http://www.w3.org/2000/svg" xmlns:xlink="http://www.w3.org/1999/xlink">
    <title>2</title>
    <defs>
        <rect id="path-1" x="0" y="0" width="186" height="170" rx="2"></rect>
    </defs>
    <g id="Page-1" stroke="none" stroke-width="1" fill="none" fill-rule="evenodd">
        <g id="2">
            <mask id="mask-2" fill="white">
                <use xlink:href="#path-1"></use>
            </mask>
            <g id="Rectangle"></g>
            <g id="Group" mask="url(#mask-2)" fill-rule="nonzero">
                <g transform="translate(5.000000, 42.000000)" id="Path">
                    <path d="M68.2193,190.426 C88.8244,178.034 95.884,150.589 83.9879,129.125 C72.0915,107.662 45.7439,100.308 25.1388,112.7 C4.53378,125.092 -2.52603,152.537 9.3703,174.001 C21.2666,195.464 47.6142,202.818 68.2193,190.426 Z" fill="#FED856"></path>
                    <path d="M222.372,97.718 C242.977,85.326 250.037,57.8804 238.14,36.4168 C226.244,14.9532 199.897,7.5992 179.291,19.9912 C158.686,32.3832 151.627,59.829 163.523,81.292 C175.419,102.756 201.767,110.11 222.372,97.718 Z" fill="#FED856"></path>
                    <path d="M120.358,84.495 C140.963,72.103 148.023,44.6578 136.126,23.1942 C124.23,1.7306 97.882,-5.6234 77.2774,6.7687 C56.6723,19.1607 49.6125,46.6061 61.5088,68.07 C73.4052,89.533 99.753,96.887 120.358,84.495 Z" fill="#FED856"></path>
                    <path d="M93.5934,27.7432 L89.7955,20.8909 L83.4859,24.6855 L87.2838,31.5379 C77.4889,39.5763 74.6031,54.1948 81.057,65.839 L86.557,75.762 L92.8666,71.968 L87.3666,62.044 C82.9399,54.0576 84.6641,44.1105 91.0035,38.2489 L103.319,60.469 L109.629,56.6745 L97.313,34.4543 C105.356,31.6662 114.488,35.0844 118.915,43.0712 L124.415,52.9944 L130.724,49.1998 L125.224,39.2765 C118.77,27.6323 105.174,22.9263 93.5934,27.7432 Z" fill="#BA8614"></path>
                    <polygon fill="#EEB83B" points="127.256 97.939 118.965 102.925 147.685 154.743 155.976 149.756"></polygon>
                    <path d="M172.558,139.784 L164.267,144.77 L154.693,127.498 C152.154,122.917 151.466,117.473 152.781,112.363 C154.095,107.254 157.304,102.898 161.702,100.253 L166.488,108.889 C164.29,110.211 162.685,112.39 162.028,114.944 C161.371,117.499 161.715,120.221 162.984,122.511 L172.558,139.784 Z" fill="#EEB83B"></path>
                    <path d="M43.2471,85.573 C42.2817,84.103 41.3658,82.587 40.4995,81.024 C35.9548,72.887 33.0508,63.871 31.9651,54.5252 C30.8794,45.1797 31.6348,35.7017 34.185,26.6707 L43.3783,29.4556 C41.1928,37.1955 40.5455,45.3184 41.4761,53.3277 C42.4066,61.337 44.8954,69.065 48.7903,76.038 C49.5338,77.379 50.3186,78.679 51.1445,79.936 L43.2471,85.573 Z" fill="#EEB83B"></path>
                    <polygon fill="#EEB83B" points="8.4469 83.028 0.15613 88.014 4.94283 96.651 13.2336 91.664"></polygon>
                </g>
            </g>
        </g>
    </g>
</svg>