<svg width="150" height="106" viewBox="0 0 150 106" fill="none" xmlns="http://www.w3.org/2000/svg">
<path fill-rule="evenodd" clip-rule="evenodd" d="M7.62448 90H99.4521C101.468 89.9954 103.4 89.1971 104.826 87.7799C106.251 86.3626 107.054 84.4417 107.059 82.4374V13.1342C107.054 11.1299 106.251 9.20896 104.826 7.7917C103.4 6.37444 101.468 5.57619 99.4521 5.57158H95.7804V2.07847C95.7804 1.80406 95.7257 1.53236 95.6196 1.27905C95.5134 1.02574 95.3578 0.795837 95.1618 0.60261C94.9659 0.409383 94.7333 0.256656 94.4776 0.153239C94.222 0.0498229 93.9482 -0.00223262 93.6722 7.33941e-05H65.9149C65.3604 7.33941e-05 64.8287 0.219044 64.4366 0.60882C64.0446 0.998595 63.8243 1.52724 63.8243 2.07847V5.57158H7.60692C5.59086 5.57619 3.65871 6.37444 2.23314 7.7917C0.80757 9.20896 0.00463996 11.1299 0 13.1342V82.4374C0.0046523 84.4447 0.810001 86.3683 2.23936 87.786C3.66873 89.2038 5.60538 90 7.62448 90Z" fill="#F9B532"/>
<path fill-rule="evenodd" clip-rule="evenodd" d="M16.7248 89.9859H101.508C103.846 89.7927 106.093 88.9925 108.023 87.6654C109.953 86.3382 111.498 84.5306 112.505 82.4233L139.279 22.7786C141.141 18.6218 139.279 15.2335 135.062 15.2335H130.6L132.357 11.4784C133.042 9.95887 132.357 8.71881 130.811 8.71881H99.8035C98.9472 8.78339 98.1235 9.07291 97.4166 9.55776C96.7098 10.0426 96.1452 10.7054 95.7805 11.4784L94.0237 15.2335H50.1039C47.7692 15.4245 45.526 16.2221 43.599 17.5463C41.672 18.8705 40.1288 20.6748 39.1239 22.7786L12.5612 82.4233C10.699 86.5801 12.5963 89.9859 16.7248 89.9859Z" fill="#FCC749"/>
<circle cx="118" cy="74" r="30" fill="#F2994A" stroke="white" stroke-width="4"/>
<path d="M115.456 58L115.821 79.1797H120.179L120.544 58H115.456ZM117.989 90C119.7 90 121 88.7709 121 87.1687C121 85.5665 119.7 84.3374 117.989 84.3374C116.323 84.3374 115 85.5665 115 87.1687C115 88.7709 116.323 90 117.989 90Z" fill="white"/>
</svg>
