<svg width="300" height="78" viewBox="0 0 300 78" fill="none" xmlns="http://www.w3.org/2000/svg">
<path fill-rule="evenodd" clip-rule="evenodd" d="M88.3902 24.95L90.3198 20.3356L92.227 24.95H88.3902ZM89.0259 16.8976L83.1511 30.5952H86.0879L87.3633 27.4939H93.2565L94.5326 30.5952H97.5436L91.6859 16.8976H89.0259Z" fill="#FFFFFE"/>
<path fill-rule="evenodd" clip-rule="evenodd" d="M100.142 19.5122H107.498L99.9011 28.4273V30.595H111.202V28.0708H103.607L111.202 19.1597V16.9913H100.142V19.5122Z" fill="#FFFFFE"/>
<path fill-rule="evenodd" clip-rule="evenodd" d="M119.882 28.2389C117.841 28.2389 116.589 26.8399 116.328 24.9703H123.531C123.174 26.9141 121.825 28.2389 119.882 28.2389ZM119.693 16.7668C117.016 16.7668 115.167 17.7962 113.912 19.2897L115.747 21.1397C116.887 19.9836 118.047 19.402 119.693 19.402C121.565 19.402 123.081 20.5062 123.511 22.5406H113.275C113.256 22.8781 113.238 23.0829 113.238 23.4564V23.4945C113.238 27.3632 115.388 30.8176 119.882 30.8176C123.831 30.8176 126.655 27.6599 126.655 23.7945V23.7374C126.655 19.6245 123.623 16.7668 119.693 16.7668Z" fill="#FFFFFE"/>
<path fill-rule="evenodd" clip-rule="evenodd" d="M135.378 23.6249H132.234V19.5888H135.319C136.836 19.5888 137.771 20.2801 137.771 21.5898V21.6266C137.771 22.8207 136.874 23.6249 135.378 23.6249ZM140.672 21.4756V21.4382C140.672 20.1856 140.28 19.1227 139.531 18.3724C138.634 17.4782 137.285 16.9918 135.565 16.9918H129.375V30.5948H132.234V26.1655H134.721L137.738 30.5948H141.104L137.699 25.681C139.455 25.0639 140.672 23.682 140.672 21.4756Z" fill="#FFFFFE"/>
<path fill-rule="evenodd" clip-rule="evenodd" d="M152.578 26.5221C152.578 27.5672 151.736 28.0707 150.351 28.0707H146.7V24.9334H150.238C151.849 24.9334 152.578 25.5118 152.578 26.4847V26.5221ZM146.7 19.5115H149.769C151.079 19.5115 151.811 20.0544 151.811 20.9708V21.0096C151.811 22.0737 150.949 22.5412 149.584 22.5412H146.7V19.5115ZM152.857 23.495C153.835 22.9515 154.672 22.0921 154.672 20.5428V20.5061C154.672 19.5706 154.375 18.8222 153.755 18.1867C152.97 17.4219 151.736 16.9925 150.183 16.9925H143.914V30.5943H150.351C153.421 30.5943 155.442 29.3423 155.442 26.8582V26.8214C155.442 24.9898 154.43 24.074 152.857 23.495Z" fill="#FFFFFE"/>
<path fill-rule="evenodd" clip-rule="evenodd" d="M162.618 24.95L164.544 20.3356L166.454 24.95H162.618ZM163.255 16.8976L157.378 30.5952H160.316L161.589 27.4939H167.482L168.755 30.5952H171.768L165.909 16.8976H163.255Z" fill="#FFFFFE"/>
<path fill-rule="evenodd" clip-rule="evenodd" d="M176.682 22.5588L173.333 16.9925H169.963L175.22 25.2307V30.5948H178.102V25.1755L183.38 16.9925H180.106L176.682 22.5588Z" fill="#FFFFFE"/>
<path fill-rule="evenodd" clip-rule="evenodd" d="M190.849 28.1851C188.454 28.1851 186.791 26.1848 186.791 23.7945V23.7564C186.791 21.3635 188.493 19.402 190.849 19.402C192.254 19.402 193.338 20.0026 194.405 20.971L196.239 18.8597C194.969 17.6078 193.434 16.7668 190.868 16.7668C186.696 16.7668 183.777 19.9252 183.777 23.7945V23.8313C183.777 27.7347 186.751 30.8176 190.755 30.8176C193.377 30.8176 194.929 29.8854 196.333 28.4083L194.498 26.5576C193.415 27.5489 192.442 28.1851 190.849 28.1851Z" fill="#FFFFFE"/>
<path fill-rule="evenodd" clip-rule="evenodd" d="M203.253 24.95L205.184 20.3356L207.09 24.95H203.253ZM203.889 16.8976L198.012 30.5952H200.952L202.225 27.4939H208.119L209.392 30.5952H212.404L206.549 16.8976H203.889Z" fill="#FFFFFE"/>
<path fill-rule="evenodd" clip-rule="evenodd" d="M223.936 16.9925V25.5675L217.37 16.9925H214.731V30.5948H217.555V21.7382L224.331 30.5948H226.782V16.9925H223.936Z" fill="#FFFFFE"/>
<path fill-rule="evenodd" clip-rule="evenodd" d="M92.5633 48.0944C92.5633 49.1579 91.71 49.6686 90.305 49.6686H86.603V46.4853H90.1913C91.8231 46.4853 92.5633 47.0722 92.5633 48.0583V48.0944ZM86.603 40.9873H89.718C91.0453 40.9873 91.7869 41.5367 91.7869 42.4663V42.5037C91.7869 43.5837 90.9125 44.0576 89.528 44.0576H86.603V40.9873ZM92.85 45.0246C93.8368 44.4745 94.6901 43.6034 94.6901 42.0304V41.993C94.6901 41.0444 94.3877 40.2855 93.7598 39.6415C92.9617 38.8635 91.71 38.4283 90.1335 38.4283H83.7734V52.2276H90.305C93.4186 52.2276 95.4685 50.9586 95.4685 48.4364V48.399C95.4685 46.5418 94.4436 45.6128 92.85 45.0246Z" fill="#FFFFFE"/>
<path fill-rule="evenodd" clip-rule="evenodd" d="M100.834 46.5785H107.44V43.9821H100.834V41.0253H108.332V38.4282H97.9463V52.2275H108.424V49.6305H100.834V46.5785Z" fill="#FFFFFE"/>
<path fill-rule="evenodd" clip-rule="evenodd" d="M117.255 44.0773L113.857 38.4282H110.442L115.775 46.7866V52.2275H118.698V46.7321L124.051 38.4282H120.73L117.255 44.0773Z" fill="#FFFFFE"/>
<path fill-rule="evenodd" clip-rule="evenodd" d="M135.88 47.1285L129.216 38.4281H126.539V52.2274H129.406V43.2421L136.278 52.2274H138.764V38.4281H135.88V47.1285Z" fill="#FFFFFE"/>
<path fill-rule="evenodd" clip-rule="evenodd" d="M148.402 49.8404C146.333 49.8404 145.062 48.4185 144.796 46.5212H152.104C151.744 48.494 150.376 49.8404 148.402 49.8404ZM148.213 38.2009C145.497 38.2009 143.619 39.2428 142.346 40.7599L144.207 42.6374C145.364 41.4617 146.543 40.8735 148.213 40.8735C150.112 40.8735 151.648 41.9928 152.085 44.0574H141.702C141.682 44.3995 141.663 44.6076 141.663 44.987V45.0244C141.663 48.9476 143.847 52.4545 148.402 52.4545C152.406 52.4545 155.274 49.2522 155.274 45.329V45.2713C155.274 41.1006 152.197 38.2009 148.213 38.2009Z" fill="#FFFFFE"/>
<path fill-rule="evenodd" clip-rule="evenodd" d="M161.076 38.4282H158.172V52.2275H168.044V49.5753H161.076V38.4282Z" fill="#FFFFFE"/>
<path fill-rule="evenodd" clip-rule="evenodd" d="M183.063 38.4282H179.742L176.705 43.0151L173.704 38.4282H170.286L174.938 45.2136L170.079 52.2275H173.401L176.629 47.3761L179.835 52.2275H183.252L178.412 45.1585L183.063 38.4282Z" fill="#FFFFFE"/>
<path fill-rule="evenodd" clip-rule="evenodd" d="M190.608 46.5035L192.565 41.8214L194.5 46.5035H190.608ZM191.255 38.3335L185.294 52.2274H188.275L189.566 49.0815H195.544L196.838 52.2274H199.892L193.95 38.3335H191.255Z" fill="#FFFFFE"/>
<path fill-rule="evenodd" clip-rule="evenodd" d="M205.222 38.4282H202.317V52.2275H212.189V49.5753H205.222V38.4282Z" fill="#FFFFFE"/>
<path fill-rule="evenodd" clip-rule="evenodd" d="M224.491 45.3659C224.491 46.1051 224.34 46.8069 224.056 47.4141L221.759 45.3291L219.898 47.4141L222.177 49.3652C221.605 49.6317 220.961 49.7827 220.24 49.7827C217.735 49.7827 215.948 47.7548 215.948 45.3291V45.2897C215.948 42.864 217.697 40.8735 220.202 40.8735C222.708 40.8735 224.491 42.9027 224.491 45.3291V45.3659ZM227.546 45.3291V45.2897C227.546 41.3672 224.491 38.2003 220.24 38.2003C215.986 38.2003 212.893 41.423 212.893 45.3291V45.3659C212.893 49.2897 215.948 52.4546 220.202 52.4546C221.759 52.4546 223.165 52.0003 224.321 51.2434L225.878 52.645L227.738 50.5784L226.296 49.3468C227.093 48.1907 227.546 46.8069 227.546 45.3291Z" fill="#FFFFFE"/>
<path fill-rule="evenodd" clip-rule="evenodd" d="M245.308 48.0944C245.308 49.1579 244.455 49.6686 243.051 49.6686H239.348V46.4853H242.936C244.568 46.4853 245.308 47.0722 245.308 48.0583V48.0944ZM239.348 40.9873H242.463C243.791 40.9873 244.532 41.5367 244.532 42.4663V42.5037C244.532 43.5837 243.657 44.0576 242.273 44.0576H239.348V40.9873ZM245.594 45.0246C246.579 44.4745 247.435 43.6034 247.435 42.0304V41.993C247.435 41.0444 247.132 40.2855 246.507 39.6415C245.706 38.8635 244.455 38.4283 242.878 38.4283H236.519V52.2276H243.051C246.165 52.2276 248.213 50.9586 248.213 48.4364V48.399C248.213 46.5418 247.187 45.6128 245.594 45.0246Z" fill="#FFFFFE"/>
<path fill-rule="evenodd" clip-rule="evenodd" d="M255.024 46.5035L256.98 41.8214L258.917 46.5035H255.024ZM255.671 38.3335L249.708 52.2274H252.69L253.978 49.0815H259.96L261.251 52.2274H264.307L258.365 38.3335H255.671Z" fill="#FFFFFE"/>
<path fill-rule="evenodd" clip-rule="evenodd" d="M275.994 47.1285L269.333 38.4281H266.655V52.2274H269.522V43.2421L276.393 52.2274H278.881V38.4281H275.994V47.1285Z" fill="#FFFFFE"/>
<path fill-rule="evenodd" clip-rule="evenodd" d="M294.669 38.4282H291.082L285.309 44.6464V38.4282H282.406V52.2275H285.309V48.0582L287.018 46.2949L291.404 52.2275H294.917L288.994 44.3051L294.669 38.4282Z" fill="#FFFFFE"/>
<path fill-rule="evenodd" clip-rule="evenodd" d="M297.076 52.2276H300V38.4283H297.076V52.2276Z" fill="#FFFFFE"/>
<path fill-rule="evenodd" clip-rule="evenodd" d="M52.3382 48.0245C52.0766 46.3669 51.6499 44.7736 51.0589 43.2748C49.5698 43.7403 48.0399 44.0541 46.4838 44.1972L44.4497 44.3863L44.2623 46.4174C43.67 52.7971 40.3118 58.7206 34.7552 63.2674C33.3693 62.133 32.1202 60.9126 31.0183 59.622C29.4392 60.3237 27.7956 60.8988 26.0929 61.3374C28.0527 63.9233 30.4654 66.2932 33.3062 68.3585L34.7552 69.4128L36.2042 68.3585C43.1861 63.2806 47.6402 56.4072 48.9077 48.8372C50.0681 48.6429 51.214 48.3659 52.3382 48.0245ZM68.4578 33.2575C63.3726 26.2883 56.4886 21.8386 48.9077 20.5729C48.7138 19.4129 48.4351 18.2706 48.0938 17.1467C46.4325 17.4087 44.8389 17.8347 43.3373 18.4262C43.8034 19.9145 44.117 21.4388 44.2623 22.9927L44.4497 25.0232L46.4851 25.213C52.8727 25.8058 58.8054 29.1558 63.3581 34.7051C62.224 36.0896 61.0006 37.3369 59.7074 38.4385C60.4108 40.0154 60.9874 41.6566 61.4259 43.3562C64.0169 41.3986 66.3889 38.9886 68.4578 36.1513L69.513 34.7051L68.4578 33.2575ZM56.6221 31.7069C55.2592 30.7215 53.8332 29.8976 52.3527 29.2549C51.6282 30.6329 50.7703 31.9347 49.7716 33.1354L48.4666 34.7038L49.7716 36.2734C53.8694 41.2036 55.6898 47.7626 54.9818 54.9018C53.1988 55.0778 51.45 55.0968 49.7558 54.9629C49.1372 56.5752 48.3825 58.1423 47.4897 59.6541C50.7058 60.0992 54.0903 60.069 57.5602 59.5248L59.3313 59.2465L59.6101 57.4766C60.9513 48.9574 59.234 40.9522 54.7694 34.7038C55.4538 33.7466 56.0659 32.7435 56.6221 31.7069ZM37.7564 56.5365C38.7458 55.1802 39.5715 53.7543 40.2152 52.2772C38.8332 51.5518 37.5309 50.6944 36.3271 49.6992L34.7552 48.3954L33.1819 49.6992C28.2459 53.7904 21.6795 55.6102 14.5299 54.9018C14.3518 53.1221 14.334 51.3759 14.4681 49.6854C12.8561 49.065 11.2829 48.312 9.77142 47.4205C9.32437 50.6327 9.35461 54.0123 9.90028 57.4772L10.1777 59.2465L11.9488 59.5248C20.481 60.8634 28.4997 59.148 34.7552 54.6911C35.7137 55.3732 36.7196 55.9844 37.7564 56.5365ZM21.4185 52.2634C23.0779 52.0015 24.6702 51.5741 26.1724 50.9852C25.7083 49.4983 25.3933 47.9707 25.2487 46.4187L25.0594 44.3863L23.0266 44.1985C16.6383 43.6057 10.7037 40.2537 6.15226 34.7051C7.28764 33.3219 8.50981 32.0745 9.8043 30.973C9.10084 29.3967 8.5223 27.7549 8.08445 26.0552C5.49351 28.0122 3.12412 30.4215 1.05518 33.2575L0 34.7051L1.05518 36.1513C6.14108 43.1232 13.0205 47.5715 20.6039 48.8372C20.7999 49.9966 21.0766 51.1402 21.4185 52.2634ZM31.7527 12.8724C30.7659 14.2306 29.9415 15.6559 29.2978 17.1356C30.6791 17.8564 31.9821 18.7144 33.1833 19.7123L34.7539 21.0128L36.3271 19.7123C41.2631 15.6184 47.8309 13.8013 54.9818 14.509C55.1573 16.29 55.1764 18.0336 55.0429 19.7267C56.6582 20.3445 58.2275 21.0975 59.7416 21.9896C60.1873 18.7781 60.1558 15.3998 59.6101 11.931L59.3313 10.163L57.5602 9.88798C49.0274 8.54809 41.012 10.2615 34.7539 14.721C33.796 14.0376 32.7908 13.4251 31.7527 12.8724ZM12.8909 37.7026C14.2525 38.6893 15.6798 39.5138 17.1603 40.1565C17.8835 38.7779 18.7414 37.4768 19.7401 36.2747L21.0438 34.7038L19.7401 33.1348C15.643 28.2052 13.8199 21.6482 14.5299 14.509C16.3129 14.3311 18.0603 14.312 19.7552 14.4466C20.3745 12.8363 21.1279 11.2666 22.022 9.75668C18.8052 9.31093 15.4214 9.34244 11.9488 9.88666L10.1777 10.1624L9.90028 11.9316C8.56043 20.4508 10.277 28.4586 14.741 34.7038C14.0572 35.6622 13.4458 36.6673 12.8909 37.7026ZM17.1708 21.3876C17.4345 23.0446 17.8618 24.6346 18.4528 26.1353C19.9432 25.6712 21.4698 25.3574 23.0266 25.213L25.0594 25.0226L25.2487 22.9927C25.843 16.6143 29.1979 10.6895 34.7552 6.14339C36.1417 7.27714 37.3902 8.49754 38.4934 9.78819C40.0732 9.08772 41.7174 8.50936 43.4188 8.0728C41.459 5.48624 39.0449 3.11962 36.2042 1.05366L34.7552 0L33.3062 1.05366C26.3256 6.13157 21.8702 13.0023 20.6026 20.5729C19.4403 20.7692 18.2983 21.0456 17.1708 21.3876Z" fill="#FFFFFE"/>
<path fill-rule="evenodd" clip-rule="evenodd" d="M96.1754 68.9541C96.0018 69.1917 95.7855 69.5003 95.5259 69.8784C95.2662 70.2566 94.9841 70.6728 94.6817 71.1264C94.3786 71.58 94.065 72.0534 93.7396 72.5451C93.4155 73.0368 93.1013 73.5121 92.7982 73.9716C92.4951 74.4312 92.2137 74.8579 91.954 75.2524C91.6943 75.647 91.4833 75.9686 91.3209 76.2168H90.0547C90.0113 75.9575 89.9548 75.6306 89.8844 75.236C89.8134 74.8415 89.7352 74.4147 89.6491 73.9552C89.5616 73.4963 89.4729 73.0204 89.3808 72.5287C89.2888 72.037 89.1968 71.5643 89.1047 71.1106C89.0127 70.6564 88.9292 70.2428 88.8529 69.8705C88.7773 69.497 88.7122 69.1917 88.6583 68.9541C88.204 70.3485 87.7603 71.7855 87.327 73.2665C86.8944 74.7476 86.4724 76.2496 86.0608 77.7733H84.5027C84.7624 76.8004 85.0352 75.8196 85.3218 74.8309C85.6091 73.8416 85.901 72.8694 86.1989 71.9129C86.4967 70.9564 86.7938 70.0242 87.0917 69.1162C87.3895 68.2083 87.6787 67.349 87.9601 66.5389H89.5025C89.6326 67.0142 89.7707 67.5761 89.9166 68.2247C90.0626 68.8727 90.2085 69.5515 90.3552 70.2592C90.5011 70.9669 90.6365 71.6726 90.7608 72.3744C90.8851 73.0775 90.9909 73.7149 91.0777 74.288C91.4669 73.7044 91.8975 73.0611 92.3682 72.3586C92.8389 71.6562 93.3123 70.9511 93.7889 70.2428C94.2649 69.5351 94.7277 68.8596 95.1768 68.2162C95.6258 67.5735 96.0288 67.0142 96.3864 66.5389H97.8959C97.7118 68.3652 97.466 70.2211 97.1576 72.1072C96.8486 73.9933 96.5107 75.882 96.1432 77.7733H94.568C94.8928 76.2168 95.1899 74.7069 95.4614 73.2423C95.7316 71.7776 95.9696 70.3485 96.1754 68.9541Z" fill="#FFFFFE"/>
<path fill-rule="evenodd" clip-rule="evenodd" d="M105.624 67.7867C105.386 67.7867 105.185 67.7112 105.023 67.5602C104.86 67.4086 104.779 67.209 104.779 66.9602C104.779 66.6359 104.887 66.3739 105.104 66.1737C105.321 65.9741 105.553 65.8737 105.802 65.8737C106.04 65.8737 106.243 65.9525 106.411 66.1087C106.579 66.2656 106.663 66.4737 106.663 66.733C106.663 67.0468 106.552 67.3009 106.33 67.4952C106.108 67.6895 105.872 67.7867 105.624 67.7867ZM102.539 67.7867C102.301 67.7867 102.101 67.7112 101.939 67.5602C101.776 67.4086 101.695 67.209 101.695 66.9602C101.695 66.6359 101.803 66.3739 102.02 66.1737C102.236 65.9741 102.469 65.8737 102.718 65.8737C102.956 65.8737 103.158 65.9525 103.327 66.1087C103.494 66.2656 103.578 66.4737 103.578 66.733C103.578 67.0468 103.467 67.3009 103.245 67.4952C103.023 67.6895 102.788 67.7867 102.539 67.7867ZM101.532 77.9839C101.056 77.9839 100.658 77.9136 100.339 77.7731C100.02 77.6333 99.76 77.4436 99.5601 77.2059C99.3596 76.9683 99.2163 76.6873 99.1302 76.363C99.0427 76.0387 99 75.6927 99 75.3251C99 75.0448 99.0243 74.7658 99.073 74.4901C99.1216 74.215 99.1782 73.9366 99.2432 73.6557L100.282 69.3432H101.792L100.834 73.3314C100.78 73.5802 100.71 73.8716 100.623 74.2065C100.536 74.5419 100.494 74.8767 100.494 75.2122C100.494 75.4065 100.512 75.593 100.55 75.7709C100.588 75.9494 100.658 76.1063 100.761 76.2409C100.864 76.3768 101.002 76.4845 101.175 76.5659C101.348 76.6466 101.565 76.6873 101.825 76.6873C102.29 76.6873 102.699 76.5875 103.05 76.3873C103.402 76.1871 103.697 75.952 103.935 75.6822C103.946 75.5096 103.962 75.331 103.984 75.1472C104.006 74.9634 104.043 74.7632 104.098 74.5472L105.348 69.3432H106.858L105.575 74.6772C105.52 74.926 105.475 75.1662 105.437 75.398C105.399 75.631 105.38 75.8706 105.38 76.1195C105.38 76.3683 105.402 76.6171 105.445 76.8652C105.488 77.114 105.564 77.3845 105.672 77.676L104.341 77.8703C104.286 77.7515 104.233 77.6169 104.179 77.4652C104.125 77.3143 104.081 77.1521 104.049 76.9788C103.929 77.0871 103.789 77.2007 103.627 77.3195C103.465 77.4383 103.278 77.5467 103.066 77.6438C102.856 77.741 102.623 77.8217 102.369 77.8867C102.114 77.9517 101.836 77.9839 101.532 77.9839Z" fill="#FFFFFE"/>
<path fill-rule="evenodd" clip-rule="evenodd" d="M110.738 76.7034C111.192 76.7034 111.582 76.6062 111.906 76.4119C112.231 76.2169 112.513 75.9904 112.751 75.7305C112.762 75.5467 112.78 75.355 112.808 75.1554C112.835 74.9552 112.87 74.7523 112.913 74.5475L113.887 70.5265C113.833 70.5055 113.743 70.4891 113.62 70.4779C113.495 70.4674 113.384 70.4615 113.286 70.4615C112.67 70.4615 112.112 70.581 111.615 70.8187C111.117 71.0563 110.692 71.3721 110.34 71.7666C109.988 72.1618 109.717 72.6207 109.529 73.1446C109.339 73.6691 109.245 74.2173 109.245 74.7904C109.245 75.0175 109.266 75.2473 109.309 75.479C109.352 75.7121 109.431 75.9169 109.544 76.0955C109.658 76.2734 109.809 76.4198 109.999 76.5327C110.189 76.6469 110.435 76.7034 110.738 76.7034ZM113.157 77.8706C113.102 77.7518 113.048 77.6192 112.994 77.4734C112.94 77.3277 112.897 77.1734 112.864 77.0113C112.626 77.2273 112.307 77.4432 111.906 77.6599C111.506 77.8759 111.014 77.9842 110.429 77.9842C109.953 77.9842 109.544 77.908 109.204 77.757C108.863 77.6061 108.584 77.3947 108.367 77.1248C108.151 76.8544 107.991 76.536 107.889 76.1683C107.786 75.8007 107.734 75.3957 107.734 74.9525C107.734 74.2284 107.856 73.5207 108.099 72.8288C108.343 72.1369 108.708 71.5211 109.195 70.9808C109.682 70.4399 110.294 70.0026 111.03 69.6672C111.766 69.3324 112.626 69.165 113.612 69.165C113.904 69.165 114.244 69.1971 114.634 69.2621C115.024 69.3271 115.359 69.4348 115.641 69.5864L114.39 74.6768C114.336 74.9256 114.29 75.1633 114.253 75.3904C114.215 75.6169 114.196 75.8552 114.196 76.1034C114.196 76.3522 114.217 76.6036 114.261 76.857C114.304 77.1117 114.38 77.3842 114.488 77.6756L113.157 77.8706Z" fill="#FFFFFE"/>
<path fill-rule="evenodd" clip-rule="evenodd" d="M118.319 76.7194C118.547 76.7194 118.776 76.6977 119.009 76.6544C119.242 76.6117 119.447 76.5415 119.626 76.4443C119.805 76.3465 119.951 76.2146 120.065 76.0472C120.178 75.8791 120.235 75.671 120.235 75.4222C120.235 75.2607 120.208 75.1176 120.154 74.9928C120.099 74.8688 120.013 74.7526 119.894 74.6442C119.775 74.5366 119.626 74.4315 119.447 74.3278C119.269 74.2261 119.055 74.1092 118.806 73.9799C118.557 73.8611 118.33 73.7422 118.124 73.6228C117.919 73.5046 117.737 73.3641 117.58 73.2013C117.424 73.0398 117.302 72.8474 117.215 72.6262C117.128 72.4043 117.086 72.1371 117.086 71.8233C117.086 71.0132 117.378 70.362 117.962 69.8703C118.547 69.3786 119.396 69.1324 120.511 69.1324C121.03 69.1324 121.487 69.1836 121.882 69.2867C122.277 69.3891 122.551 69.4836 122.703 69.5703L122.134 70.8018C121.983 70.7158 121.739 70.6239 121.404 70.5268C121.068 70.429 120.695 70.381 120.283 70.381C120.078 70.381 119.872 70.402 119.667 70.4454C119.461 70.4887 119.274 70.5616 119.107 70.6646C118.938 70.767 118.804 70.9023 118.701 71.0697C118.598 71.2371 118.547 71.4399 118.547 71.6776C118.547 71.9697 118.66 72.21 118.888 72.3991C119.115 72.5881 119.456 72.7857 119.91 72.9906C120.191 73.1205 120.443 73.2532 120.665 73.3877C120.887 73.523 121.076 73.6746 121.233 73.842C121.39 74.0101 121.51 74.2064 121.59 74.4335C121.672 74.6607 121.712 74.9305 121.712 75.2443C121.712 75.6979 121.625 76.0984 121.452 76.4443C121.279 76.7896 121.038 77.0759 120.73 77.303C120.422 77.5302 120.057 77.7002 119.634 77.8138C119.212 77.9273 118.752 77.9838 118.254 77.9838C117.886 77.9838 117.553 77.9595 117.256 77.9109C116.958 77.8623 116.699 77.8059 116.476 77.7409C116.254 77.6759 116.071 77.6083 115.925 77.538C115.778 77.4678 115.668 77.4113 115.592 77.368L116.176 76.1358C116.251 76.1791 116.357 76.2329 116.493 76.2979C116.628 76.3629 116.791 76.4279 116.98 76.4922C117.169 76.5572 117.378 76.6117 117.605 76.6544C117.832 76.6977 118.07 76.7194 118.319 76.7194Z" fill="#FFFFFE"/>
<path fill-rule="evenodd" clip-rule="evenodd" d="M126.16 67.8194C125.911 67.8194 125.704 67.7439 125.535 67.5922C125.368 67.4412 125.284 67.2305 125.284 66.96C125.284 66.6147 125.392 66.3416 125.609 66.1414C125.825 65.9418 126.068 65.8414 126.339 65.8414C126.588 65.8414 126.799 65.9202 126.972 66.0764C127.145 66.2333 127.232 66.4519 127.232 66.7329C127.232 67.0572 127.118 67.3198 126.891 67.5194C126.664 67.7196 126.42 67.8194 126.16 67.8194ZM124.407 77.7736H122.897L124.927 69.3431H126.437L124.407 77.7736Z" fill="#FFFFFE"/>
<path fill-rule="evenodd" clip-rule="evenodd" d="M131.778 69.165C131.908 69.165 132.054 69.1703 132.216 69.1808C132.378 69.1919 132.538 69.211 132.695 69.2379C132.852 69.2648 132.996 69.2917 133.125 69.3186C133.255 69.3462 133.353 69.3758 133.418 69.4079L132.979 70.7216C132.762 70.6349 132.514 70.5699 132.232 70.5266C131.95 70.4832 131.68 70.4616 131.421 70.4616C131.193 70.4616 130.969 70.478 130.747 70.5102C130.525 70.543 130.332 70.5863 130.17 70.6401L128.45 77.7735H126.939L128.887 69.6672C129.321 69.5162 129.786 69.3948 130.284 69.3022C130.781 69.211 131.28 69.165 131.778 69.165Z" fill="#FFFFFE"/>
<path fill-rule="evenodd" clip-rule="evenodd" d="M142.233 67.7543C141.421 67.7543 140.934 67.776 140.772 67.8193L138.694 76.4764C138.78 76.498 138.926 76.5171 139.132 76.5328C139.337 76.5492 139.673 76.5571 140.139 76.5571C140.993 76.5571 141.764 76.414 142.452 76.1278C143.139 75.8415 143.721 75.4417 144.197 74.9284C144.674 74.415 145.041 73.8045 145.301 73.0961C145.561 72.3884 145.691 71.6125 145.691 70.7702C145.691 69.819 145.415 69.0784 144.863 68.5487C144.311 68.0195 143.434 67.7543 142.233 67.7543ZM142.363 66.4249C144.029 66.4249 145.274 66.8168 146.096 67.6007C146.919 68.3839 147.33 69.4402 147.33 70.7702C147.33 71.6998 147.184 72.5939 146.892 73.4526C146.6 74.3119 146.146 75.0715 145.529 75.7306C144.912 76.3897 144.124 76.9142 143.166 77.3029C142.208 77.6922 141.064 77.8872 139.732 77.8872C139.278 77.8872 138.786 77.8648 138.255 77.8215C137.725 77.7788 137.26 77.7033 136.859 77.595L139.473 66.6842C139.928 66.5766 140.409 66.5063 140.918 66.4735C141.426 66.4413 141.908 66.4249 142.363 66.4249Z" fill="#FFFFFE"/>
<path fill-rule="evenodd" clip-rule="evenodd" d="M155.253 67.7867C155.015 67.7867 154.815 67.7112 154.652 67.5602C154.49 67.4086 154.409 67.209 154.409 66.9602C154.409 66.6359 154.517 66.3739 154.734 66.1737C154.95 65.9741 155.183 65.8737 155.431 65.8737C155.67 65.8737 155.872 65.9525 156.041 66.1087C156.208 66.2656 156.293 66.4737 156.293 66.733C156.293 67.0468 156.181 67.3009 155.959 67.4952C155.738 67.6895 155.502 67.7867 155.253 67.7867ZM152.168 67.7867C151.93 67.7867 151.731 67.7112 151.568 67.5602C151.405 67.4086 151.324 67.209 151.324 66.9602C151.324 66.6359 151.432 66.3739 151.649 66.1737C151.865 65.9741 152.098 65.8737 152.347 65.8737C152.585 65.8737 152.788 65.9525 152.956 66.1087C153.124 66.2656 153.208 66.4737 153.208 66.733C153.208 67.0468 153.096 67.3009 152.875 67.4952C152.653 67.6895 152.418 67.7867 152.168 67.7867ZM151.438 76.7037C151.925 76.7037 152.36 76.5632 152.745 76.2816C153.129 76.0006 153.454 75.6415 153.719 75.2037C153.984 74.7658 154.187 74.2826 154.327 73.7528C154.468 73.2237 154.539 72.7103 154.539 72.2127C154.539 71.6613 154.419 71.2234 154.181 70.8997C153.944 70.5754 153.532 70.4126 152.948 70.4126C152.46 70.4126 152.025 70.5538 151.641 70.8347C151.257 71.1157 150.932 71.4755 150.667 71.9127C150.401 72.3506 150.199 72.8344 150.058 73.3642C149.917 73.8933 149.847 74.4067 149.847 74.9036C149.847 75.4551 149.966 75.893 150.204 76.2166C150.442 76.5409 150.854 76.7037 151.438 76.7037ZM151.178 77.9839C150.291 77.9839 149.595 77.7219 149.092 77.1974C148.589 76.6735 148.337 75.952 148.337 75.0336C148.337 74.4067 148.426 73.7476 148.605 73.0556C148.783 72.3644 149.067 71.7263 149.457 71.1426C149.847 70.559 150.35 70.0785 150.967 69.6997C151.584 69.3215 152.331 69.1325 153.208 69.1325C154.095 69.1325 154.79 69.3951 155.294 69.9189C155.797 70.4428 156.049 71.1643 156.049 72.0827C156.049 72.7103 155.959 73.3688 155.781 74.0607C155.602 74.7527 155.318 75.3901 154.928 75.9737C154.539 76.5573 154.036 77.0385 153.418 77.4167C152.802 77.7948 152.055 77.9839 151.178 77.9839Z" fill="#FFFFFE"/>
<path fill-rule="evenodd" clip-rule="evenodd" d="M158.727 77.7734C158.597 77.222 158.473 76.6167 158.354 75.9576C158.234 75.2984 158.126 74.6098 158.029 73.8903C157.932 73.1721 157.851 72.4289 157.785 71.6615C157.721 70.8941 157.677 70.1214 157.656 69.3435H159.182C159.193 69.8726 159.217 70.4372 159.255 71.0372C159.293 71.6372 159.339 72.2373 159.393 72.8366C159.447 73.4367 159.512 74.015 159.588 74.5717C159.663 75.1284 159.744 75.6333 159.831 76.0875C160.156 75.6766 160.495 75.1934 160.846 74.6361C161.197 74.08 161.536 73.4964 161.861 72.8852C162.185 72.2753 162.483 71.6615 162.753 71.0451C163.024 70.4293 163.241 69.8621 163.403 69.3435H164.929C164.691 70.0564 164.388 70.7969 164.02 71.5644C163.652 72.3318 163.254 73.0854 162.826 73.8253C162.398 74.5665 161.95 75.2768 161.479 75.9576C161.009 76.6383 160.551 77.2436 160.107 77.7734H158.727Z" fill="#FFFFFE"/>
<path fill-rule="evenodd" clip-rule="evenodd" d="M166.894 74.0608C166.839 74.2984 166.785 74.5308 166.731 74.758C166.677 74.9844 166.65 75.2011 166.65 75.4066C166.65 75.7735 166.739 76.0657 166.918 76.2817C167.096 76.4976 167.429 76.6329 167.916 76.6867L167.575 77.9189C167.131 77.9084 166.756 77.8408 166.447 77.7161C166.139 77.592 165.89 77.4272 165.7 77.2218C165.51 77.0169 165.373 76.7734 165.286 76.4924C165.2 76.2114 165.156 75.9035 165.156 75.5687C165.156 75.3199 165.178 75.0606 165.221 74.7901C165.264 74.5203 165.324 74.2387 165.4 73.9472L167.445 65.4523L169.021 65.193L166.894 74.0608Z" fill="#FFFFFE"/>
<path fill-rule="evenodd" clip-rule="evenodd" d="M175.108 73.7851C174.481 73.8068 173.907 73.8475 173.387 73.9066C172.868 73.9656 172.419 74.0687 172.04 74.2145C171.661 74.3608 171.366 74.5578 171.155 74.8066C170.944 75.0554 170.838 75.3791 170.838 75.7795C170.838 75.8767 170.857 75.9791 170.896 76.0874C170.934 76.1951 170.998 76.2949 171.09 76.3868C171.182 76.4787 171.31 76.5548 171.471 76.6139C171.634 76.673 171.834 76.7032 172.072 76.7032C172.451 76.7032 172.806 76.6224 173.136 76.4603C173.466 76.2981 173.761 76.0841 174.021 75.8196C174.281 75.555 174.502 75.2471 174.686 74.8952C174.87 74.544 175.011 74.1744 175.108 73.7851ZM173.566 69.149C174.118 69.149 174.594 69.2271 174.995 69.3834C175.395 69.5403 175.731 69.7563 176.001 70.032C176.272 70.3077 176.472 70.6287 176.602 70.9964C176.732 71.364 176.797 71.7533 176.797 72.1642C176.797 72.9205 176.684 73.6499 176.455 74.3523C176.229 75.0554 175.904 75.6764 175.482 76.2167C175.06 76.757 174.546 77.187 173.939 77.5054C173.333 77.8245 172.646 77.984 171.877 77.984C171.434 77.984 171.053 77.9275 170.733 77.814C170.414 77.7004 170.154 77.5461 169.953 77.3518C169.754 77.1568 169.604 76.9323 169.507 76.6789C169.41 76.4248 169.361 76.1629 169.361 75.8924C169.361 75.3843 169.453 74.955 169.637 74.6037C169.821 74.2525 170.065 73.9578 170.368 73.7201C170.671 73.4825 171.026 73.2987 171.431 73.1693C171.837 73.0393 172.259 72.9369 172.698 72.8608C173.136 72.7853 173.58 72.7334 174.029 72.7072C174.478 72.6796 174.903 72.656 175.303 72.6343C175.314 72.5476 175.319 72.4774 175.319 72.4236V72.2936C175.319 72.0448 175.29 71.8097 175.23 71.5885C175.171 71.3666 175.06 71.1723 174.897 71.0049C174.735 70.8368 174.51 70.7049 174.223 70.6077C173.937 70.5106 173.561 70.462 173.095 70.462C172.89 70.462 172.676 70.4804 172.454 70.5184C172.232 70.5565 172.021 70.6051 171.821 70.6648C171.621 70.7239 171.442 70.783 171.285 70.8427C171.128 70.9018 171.017 70.9589 170.952 71.0128L170.822 69.732C171.039 69.6131 171.388 69.4864 171.869 69.3512C172.351 69.2166 172.917 69.149 173.566 69.149Z" fill="#FFFFFE"/>
<path fill-rule="evenodd" clip-rule="evenodd" d="M180.271 78C179.459 78 178.863 77.8221 178.485 77.4656C178.106 77.1085 177.917 76.5899 177.917 75.9091C177.917 75.466 177.992 74.8981 178.144 74.2068L179.881 66.9921L181.456 66.7328L180.823 69.3429H183.696L183.388 70.608H180.514L179.621 74.3362C179.491 74.8443 179.427 75.2874 179.427 75.6655C179.427 76.0227 179.524 76.2794 179.719 76.4356C179.914 76.5925 180.239 76.6713 180.693 76.6713C181.007 76.6713 181.315 76.6194 181.619 76.517C181.921 76.4139 182.154 76.3194 182.316 76.2334L182.43 77.5142C182.268 77.6114 181.992 77.7164 181.602 77.83C181.212 77.9436 180.769 78 180.271 78Z" fill="#FFFFFE"/>
<path fill-rule="evenodd" clip-rule="evenodd" d="M190.645 71.2887H192.187C192.544 71.2887 192.91 71.2591 193.283 71.1994C193.656 71.1397 193.997 71.032 194.306 70.8751C194.614 70.7182 194.868 70.5055 195.069 70.235C195.269 69.9646 195.369 69.6193 195.369 69.1971C195.369 68.6463 195.163 68.263 194.752 68.0463C194.341 67.8303 193.713 67.722 192.869 67.722C192.587 67.722 192.311 67.7325 192.041 67.7542C191.77 67.7758 191.586 67.7982 191.489 67.8192L190.645 71.2887ZM190.336 72.5203L189.395 76.5091C189.513 76.5307 189.692 76.5491 189.931 76.5655C190.168 76.5819 190.471 76.5898 190.839 76.5898C191.24 76.5898 191.668 76.5603 192.122 76.5005C192.576 76.4414 192.993 76.322 193.372 76.1441C193.751 75.9662 194.068 75.7141 194.322 75.3904C194.576 75.0661 194.704 74.6335 194.704 74.0932C194.704 73.5641 194.514 73.1689 194.135 72.9096C193.756 72.6502 193.145 72.5203 192.301 72.5203H190.336ZM190.482 77.887C190.265 77.887 190.03 77.8811 189.776 77.8706C189.522 77.8595 189.265 77.843 189.005 77.822C188.745 77.7997 188.491 77.7708 188.242 77.7328C187.993 77.6953 187.771 77.6487 187.576 77.5949L190.19 66.7005C190.645 66.5929 191.151 66.52 191.708 66.4819C192.265 66.4438 192.766 66.4248 193.21 66.4248C193.762 66.4248 194.268 66.4714 194.728 66.5633C195.188 66.6546 195.583 66.801 195.913 67.0005C196.243 67.2008 196.502 67.4627 196.692 67.787C196.882 68.1113 196.976 68.4999 196.976 68.9542C196.976 69.6133 196.779 70.1943 196.383 70.6972C195.988 71.1994 195.445 71.5756 194.752 71.8237C195.217 71.997 195.594 72.2616 195.88 72.6181C196.167 72.9745 196.31 73.4124 196.31 73.931C196.31 74.6768 196.159 75.3038 195.856 75.8119C195.553 76.32 195.139 76.7277 194.614 77.0356C194.089 77.3435 193.472 77.5627 192.764 77.692C192.054 77.822 191.294 77.887 190.482 77.887Z" fill="#FFFFFE"/>
<path fill-rule="evenodd" clip-rule="evenodd" d="M200.84 76.7034C201.295 76.7034 201.685 76.6062 202.009 76.4119C202.333 76.2169 202.615 75.9904 202.853 75.7305C202.864 75.5467 202.883 75.355 202.91 75.1554C202.937 74.9552 202.972 74.7523 203.016 74.5475L203.99 70.5265C203.936 70.5055 203.846 70.4891 203.722 70.4779C203.597 70.4674 203.487 70.4615 203.389 70.4615C202.772 70.4615 202.214 70.581 201.717 70.8187C201.219 71.0563 200.794 71.3721 200.443 71.7666C200.09 72.1618 199.82 72.6207 199.631 73.1446C199.441 73.6691 199.347 74.2173 199.347 74.7904C199.347 75.0175 199.368 75.2473 199.412 75.479C199.454 75.7121 199.533 75.9169 199.647 76.0955C199.76 76.2734 199.912 76.4198 200.101 76.5327C200.291 76.6469 200.537 76.7034 200.84 76.7034ZM203.259 77.8706C203.205 77.7518 203.151 77.6192 203.097 77.4734C203.043 77.3277 202.999 77.1734 202.967 77.0113C202.729 77.2273 202.41 77.4432 202.009 77.6599C201.608 77.8759 201.116 77.9842 200.532 77.9842C200.055 77.9842 199.647 77.908 199.306 77.757C198.965 77.6061 198.687 77.3947 198.47 77.1248C198.253 76.8544 198.094 76.536 197.991 76.1683C197.888 75.8007 197.837 75.3957 197.837 74.9525C197.837 74.2284 197.958 73.5207 198.202 72.8288C198.445 72.1369 198.811 71.5211 199.298 70.9808C199.785 70.4399 200.396 70.0026 201.132 69.6672C201.868 69.3324 202.729 69.165 203.714 69.165C204.006 69.165 204.347 69.1971 204.737 69.2621C205.126 69.3271 205.461 69.4348 205.744 69.5864L204.493 74.6768C204.439 74.9256 204.393 75.1633 204.355 75.3904C204.317 75.6169 204.298 75.8552 204.298 76.1034C204.298 76.3522 204.32 76.6036 204.363 76.857C204.406 77.1117 204.483 77.3842 204.59 77.6756L203.259 77.8706Z" fill="#FFFFFE"/>
<path fill-rule="evenodd" clip-rule="evenodd" d="M207.821 77.7734H206.312L208.26 69.6671C208.757 69.5161 209.296 69.3947 209.875 69.3028C210.453 69.2109 210.971 69.1649 211.425 69.1649C211.912 69.1649 212.332 69.2325 212.683 69.3678C213.035 69.503 213.319 69.6868 213.536 69.9185C213.752 70.1516 213.912 70.4319 214.015 70.7615C214.117 71.0917 214.169 71.4508 214.169 71.8394C214.169 72.0882 214.148 72.3502 214.104 72.6259C214.061 72.9016 214.007 73.18 213.942 73.4609L212.902 77.7734H211.393L212.351 73.7853C212.426 73.4826 212.499 73.1747 212.57 72.8609C212.64 72.5478 212.676 72.2504 212.676 71.9694C212.676 71.5374 212.556 71.1783 212.318 70.8915C212.08 70.6052 211.636 70.4615 210.987 70.4615C210.716 70.4615 210.451 70.4779 210.191 70.5107C209.931 70.5429 209.715 70.5862 209.542 70.64L207.821 77.7734Z" fill="#FFFFFE"/>
<path fill-rule="evenodd" clip-rule="evenodd" d="M215.257 77.7734L218.228 65.4525L219.803 65.1932L217.984 72.6988C218.341 72.4395 218.709 72.1559 219.088 71.848C219.467 71.5394 219.827 71.2348 220.168 70.9322C220.509 70.6295 220.823 70.34 221.109 70.0643C221.396 69.7892 221.631 69.549 221.816 69.3435H223.602C223.374 69.6245 223.085 69.9376 222.733 70.2836C222.381 70.6295 222.011 70.9781 221.621 71.3293C221.231 71.6806 220.839 72.018 220.444 72.3423C220.049 72.6666 219.694 72.9423 219.38 73.1688C219.673 73.4393 219.967 73.761 220.265 74.1338C220.563 74.5067 220.85 74.9013 221.126 75.3168C221.402 75.7337 221.653 76.1552 221.88 76.5819C222.108 77.0086 222.297 77.4058 222.449 77.7734H220.809C220.43 76.8977 219.978 76.0928 219.454 75.3575C218.928 74.6229 218.374 74.0229 217.79 73.5581L216.767 77.7734H215.257Z" fill="#FFFFFE"/>
<path fill-rule="evenodd" clip-rule="evenodd" d="M225.16 77.7734H223.65L225.68 69.3435H227.189L225.16 77.7734Z" fill="#FFFFFE"/>
<path fill-rule="evenodd" clip-rule="evenodd" d="M229.203 77.7734H227.692L229.641 69.6671C230.138 69.5161 230.677 69.3947 231.256 69.3028C231.835 69.2109 232.352 69.1649 232.807 69.1649C233.294 69.1649 233.712 69.2325 234.065 69.3678C234.417 69.503 234.701 69.6868 234.917 69.9185C235.133 70.1516 235.293 70.4319 235.396 70.7615C235.499 71.0917 235.55 71.4508 235.55 71.8394C235.55 72.0882 235.528 72.3502 235.486 72.6259C235.442 72.9016 235.388 73.18 235.323 73.4609L234.284 77.7734H232.774L233.732 73.7853C233.808 73.4826 233.881 73.1747 233.951 72.8609C234.021 72.5478 234.056 72.2504 234.056 71.9694C234.056 71.5374 233.937 71.1783 233.699 70.8915C233.461 70.6052 233.018 70.4615 232.368 70.4615C232.098 70.4615 231.832 70.4779 231.573 70.5107C231.313 70.5429 231.097 70.5862 230.923 70.64L229.203 77.7734Z" fill="#FFFFFE"/>
<path fill-rule="evenodd" clip-rule="evenodd" d="M238.148 77.7734H236.638L238.667 69.3435H240.177L238.148 77.7734Z" fill="#FFFFFE"/>
<path fill-rule="evenodd" clip-rule="evenodd" d="M247.954 70.4293C247.64 70.7103 247.215 71.1074 246.68 71.6208C246.143 72.1342 245.584 72.6856 244.999 73.2745C244.415 73.8634 243.854 74.4476 243.319 75.0254C242.783 75.6037 242.358 76.0981 242.044 76.509H246.574L246.282 77.7734H239.982L240.21 76.8005C240.534 76.3252 240.946 75.798 241.444 75.2197C241.941 74.642 242.458 74.0669 242.994 73.4931C243.53 72.9207 244.057 72.3804 244.577 71.8722C245.097 71.3641 245.551 70.9427 245.941 70.6079H241.898L242.19 69.3435H248.214L247.954 70.4293Z" fill="#FFFFFE"/>
</svg>
