<?xml version="1.0" encoding="UTF-8"?>
<svg width="30px" height="30px" viewBox="0 0 30 30" version="1.1" xmlns="http://www.w3.org/2000/svg" xmlns:xlink="http://www.w3.org/1999/xlink">
    <title>Group</title>
    <g id="Page-1" stroke="none" stroke-width="1" fill="none" fill-rule="evenodd">
        <g id="Group" transform="translate(0.001233, 0.001255)" fill="#FFFFFF">
            <path d="M21.0836672,0.0892450387 C22.6729672,0.161445039 23.7580672,0.413745039 24.7078672,0.782345039 C25.7039672,1.15724504 26.6065672,1.74514504 27.3524672,2.50484504 C28.1117672,3.25074504 28.6996672,4.15294504 29.0742672,5.14904504 C29.4435672,6.09884504 29.6958672,7.18394504 29.7684672,8.77324504 C29.8389319,10.3184215 29.8571133,10.8429902 29.8581218,14.5797709 L29.8581672,14.928445 C29.8581672,18.983045 29.8410672,19.491645 29.7680672,21.083645 C29.6958672,22.672945 29.4431672,23.758045 29.0742672,24.707845 C28.2985672,26.713245 26.7132672,28.298545 24.7078672,29.074245 C23.7584672,29.443145 22.6729672,29.695445 21.0840672,29.768045 C19.5388907,29.8385097 19.014322,29.857068 15.2775414,29.8580987 L14.9288672,29.858145 C10.8738672,29.858145 10.3656672,29.840645 8.77326717,29.768045 C7.18436717,29.695445 6.09886717,29.443145 5.14946717,29.074245 C4.15296717,28.699245 3.25076717,28.111745 2.50486717,27.352045 C1.74556717,26.606545 1.15806717,25.703945 0.783067174,24.707845 C0.414167174,23.758445 0.161467174,22.672945 0.0892671738,21.084045 C0.0201848209,19.5853156 0.000973748219,19.0466305 -0.00104733869,15.6080954 L-0.00104742011,14.2487948 C0.000972364136,10.810261 0.0201612915,10.271598 0.0888671738,8.77324504 C0.161067174,7.18394504 0.413367174,6.09884504 0.782367174,5.14904504 C1.15726717,4.15294504 1.74516717,3.25034504 2.50486717,2.50484504 C3.25036717,1.74514504 4.15296717,1.15764504 5.14906717,0.782645039 C6.09886717,0.413745039 7.18396717,0.161445039 8.77326717,0.0888450387 C10.2716201,0.0205156269 10.8102831,0.000994519642 14.2488169,-0.00106564726 L15.6081174,-0.00106556585 C19.0466513,0.000995903725 19.5853142,0.0205391563 21.0836672,0.0892450387 Z M15.2811144,2.68898861 L14.5753935,2.68898753 C10.911943,2.68990638 10.4217641,2.70612383 8.89526717,2.77584504 C7.43966717,2.84244504 6.64896717,3.08564504 6.12336717,3.28994504 C5.47466717,3.52914504 4.88786717,3.91084504 4.40666717,4.40674504 C3.91076717,4.88834504 3.52906717,5.47474504 3.28946717,6.12344504 C3.08516717,6.64944504 2.84196717,7.44014504 2.77576717,8.89574504 C2.71040354,10.3268359 2.69173412,10.8471004 2.68887987,13.9251335 L2.68887987,15.9322823 C2.69173412,19.010093 2.71040354,19.5303905 2.77576717,20.961845 C2.84196717,22.417445 3.08516717,23.207745 3.28946717,23.733745 C3.52906717,24.382445 3.91036717,24.968845 4.40626717,25.450445 C4.88786717,25.946345 5.47426717,26.327945 6.12296717,26.567245 C6.64896717,26.771945 7.43966717,27.015145 8.89526717,27.081345 C10.3740611,27.1487935 10.8799418,27.1662065 14.2407175,27.1680694 L15.6151065,27.1680694 C18.9763381,27.1662065 19.482549,27.1487935 20.9609672,27.081345 C22.4165672,27.015145 23.2072672,26.771945 23.7332672,26.567245 C25.0353672,26.064945 26.0644672,25.035845 26.5667672,23.733745 C26.7710672,23.207745 27.0142672,22.417445 27.0808672,20.961845 C27.1439641,19.5781056 27.1632735,19.0457919 27.1670275,16.2316668 L27.1670275,13.6257276 C27.1632735,10.8114041 27.1439641,10.2791329 27.0808672,8.89574504 C27.0146672,7.44014504 26.7714672,6.64944504 26.5667672,6.12344504 C26.3274672,5.47514504 25.9458672,4.88834504 25.4499672,4.40674504 C24.9683672,3.91084504 24.3819672,3.52914504 23.7332672,3.28994504 C23.2072672,3.08564504 22.4169672,2.84244504 20.9613672,2.77624504 C19.3867672,2.70434504 18.9146672,2.68894504 14.9282672,2.68894504 Z" id="Combined-Shape"></path>
            <path d="M14.9282672,7.26204504 C19.1621672,7.26204504 22.5946672,10.694145 22.5946672,14.928345 C22.5946672,19.162645 19.1621672,22.594745 14.9282672,22.594745 C10.6940672,22.594745 7.26156717,19.162645 7.26156717,14.928345 C7.26156717,10.694145 10.6940672,7.26204504 14.9282672,7.26204504 Z M14.9284672,9.95184504 C12.1799672,9.95184504 9.95186717,12.179945 9.95186717,14.928445 C9.95186717,17.676945 12.1799672,19.905045 14.9284672,19.905045 C17.6769672,19.905045 19.9050672,17.676945 19.9050672,14.928445 C19.9050672,12.179945 17.6769672,9.95184504 14.9284672,9.95184504 Z" id="Combined-Shape"></path>
            <path d="M21.1061672,6.95894504 C21.1061672,7.94834504 21.9083672,8.75054504 22.8977672,8.75054504 C23.8872672,8.75054504 24.6890672,7.94834504 24.6894672,6.95894504 C24.6894672,5.96944504 23.8872672,5.16724504 22.8977672,5.16724504 C21.9083672,5.16724504 21.1061672,5.96944504 21.1061672,6.95894504 Z" id="Path"></path>
        </g>
    </g>
</svg>