<svg width="26" height="26" viewBox="0 0 26 26" fill="none" xmlns="http://www.w3.org/2000/svg">
<path fill-rule="evenodd" clip-rule="evenodd" d="M0.00146484 12.4597C0.162109 5.43502 5.9751 -0.135962 13 0.00252703C20.0254 -0.135962 25.8384 5.43502 25.999 12.4597C25.8384 19.4843 20.0254 25.0553 13 24.9168C11.3535 24.9201 9.72021 24.6201 8.18213 24.0318L5.16309 25.9177C5.07715 25.9715 4.97754 26 4.87598 26C4.57666 26 4.33447 25.7575 4.33447 25.4584V21.7321C1.60303 19.424 0.0200195 16.0355 0.00146484 12.4597ZM20.8643 8.73342C21.1011 8.60446 21.3965 8.66909 21.5576 8.8851C21.7197 9.09994 21.6992 9.40121 21.5098 9.59237L15.0107 16.0918C14.8105 16.2919 14.4897 16.3042 14.2749 16.12L10.7676 13.114L5.13477 16.185C4.92432 16.299 4.66455 16.2616 4.49463 16.093C4.28271 15.8821 4.28174 15.5391 4.49268 15.327L10.9917 8.82766C11.1919 8.62747 11.5122 8.61526 11.7275 8.79946L15.2314 11.8043L20.8643 8.73342Z" fill="white"/>
</svg>
