<svg width="164" height="140" viewBox="0 0 164 140" fill="none" xmlns="http://www.w3.org/2000/svg">
<g clip-path="url(#clip0)">
<path d="M138.907 12.4812C138.274 12.027 137.451 11.9357 136.734 12.2398L14.4821 61.5751L0 67.585L43.7597 85.3011H43.8081V85.3252L55.5145 126.189C55.7502 127.011 56.4042 127.648 57.2329 127.861C58.0617 128.074 58.9415 127.833 59.5453 127.226L83.9234 102.293L116.822 115.231C118.178 115.785 119.713 115.685 120.985 114.959C122.258 114.233 123.125 112.963 123.339 111.514L139.945 14.9912C140.158 14.0197 139.744 13.0179 138.907 12.4812ZM68.017 95.8249L68.0654 95.656L68.1379 95.68L68.017 95.8249Z" fill="#F3D55B"/>
<path d="M83.9232 102.293L59.545 127.227C59.8291 126.917 60.0361 126.545 60.1485 126.141L68.0171 95.8251L68.1376 95.6802L78.613 100.073L83.2957 102.052L83.9232 102.293Z" fill="#F29C1F"/>
<path d="M139.085 12.6113L68.1379 95.68L68.0654 95.6559L68.017 95.8249L60.1485 126.14C60.0361 126.545 59.8294 126.917 59.545 127.226C58.9413 127.833 58.0614 128.074 57.2327 127.861C56.4039 127.648 55.7502 127.011 55.5142 126.189L43.8079 85.3252V85.3011H43.7838V85.2771L139.085 12.6113Z" fill="#F0C419"/>
</g>
<circle cx="132" cy="108" r="30" fill="#48C388" stroke="white" stroke-width="4"/>
<path d="M146 98L126.4 118L118 109.429" stroke="white" stroke-width="5"/>
<defs>
<clipPath id="clip0">
<rect width="140" height="140" fill="white"/>
</clipPath>
</defs>
</svg>
