<svg width="26" height="26" viewBox="0 0 26 26" fill="none" xmlns="http://www.w3.org/2000/svg">
<path fill-rule="evenodd" clip-rule="evenodd" d="M0.00335184 12.9951C0.00188699 5.81965 5.81732 0.0015321 12.9931 6.22367e-06C15.4252 -0.00237415 17.8095 0.678107 19.8744 1.96406C25.9653 5.75739 27.8276 13.77 24.0341 19.8608C20.2407 25.9517 12.228 27.8141 6.13714 24.0206L0.724055 25.9533C0.665461 25.9744 0.603938 25.985 0.541926 25.9847C0.475032 25.9848 0.409114 25.9725 0.346614 25.9484C0.067805 25.8408 -0.0713552 25.5273 0.036555 25.2484L2.05755 20.0039C0.716731 17.9121 0.00384012 15.4797 0.00335184 12.9951ZM17.5336 14.6275C18.3642 15.0606 19.6904 15.7102 19.6904 15.7102C19.8754 15.8014 19.9926 15.9899 19.9926 16.1964V17.2791C19.7201 18.8558 18.3442 20.0022 16.7446 19.9858C15.0434 19.9858 11.7783 17.9525 10.4062 16.5796C9.0346 15.2068 6.99993 11.9414 6.99993 10.2416C6.98382 8.64155 8.1303 7.26581 9.70697 6.99348H10.7895C10.8627 6.99354 10.9335 7.00837 10.9985 7.03583C11.1152 7.08491 11.2133 7.1742 11.2724 7.2912C11.2724 7.2912 11.9272 8.6175 12.3549 9.44904C12.8368 10.3888 11.933 11.4921 11.4174 12.0128C11.728 12.8217 12.1972 13.5605 12.7968 14.1858C13.4223 14.7855 14.1611 15.2545 14.9697 15.5651C15.4897 15.0497 16.5937 14.1436 17.5336 14.6275Z" fill="white"/>
</svg>
