<svg width="45" height="42" viewBox="0 0 45 42" fill="none" xmlns="http://www.w3.org/2000/svg">
<path d="M8 0V16H0.994141L1.14648 42H15.0469H17.0469H31H45V4H29V5V24H23.9961V0.0078125L8 0ZM10 2L21.9961 2.00781V24H17.0137L16.998 16H16H10V2ZM13 4V6H15V4H13ZM17.0391 4V6H19V4H17.0391ZM31 6H43V40H37.9609V36H36V40H31V24V6ZM13 8V10H15V8H13ZM17 8V10H19V8H17ZM34 8.00391V10H36V8.00391H34ZM38.0195 8.00781V10.0215H39.9805V8.00781H38.0195ZM34 12.0156V14H36V12.0156H34ZM38.0195 12.0156V14H39.9805V12.0156H38.0195ZM34 16V18H36V16H34ZM38 16V18H39.9805V16H38ZM3.00586 18H15.002L15.0137 24H14.998L15.041 40H9.98047V36H8.01953V40H3.13477L3.00586 18ZM6 20V22.0156H8.03906V20H6ZM10.0391 20V22.0156H12V20H10.0391ZM34 20.0078V21.998H36V20.0078H34ZM38 20.0078V21.998H39.9805V20.0078H38ZM6 23.9844V26H8.03906V23.9844H6ZM10.0391 23.9844V26H12V23.9844H10.0391ZM34 23.9922V26.0078H36V23.9922H34ZM38.0195 23.9922V26.0078H39.9805V23.9922H38.0195ZM17.0176 26H29V40H24V36H22V40H17.043L17.0176 26ZM6 28V30.0156H8.03906V28H6ZM10.0391 28V30.0156H12V28H10.0391ZM20 28V30.0156H22V28H20ZM24 28V30.0156H26V28H24ZM34 28V30.0156H36V28H34ZM38.0195 28V30.0156H39.9805V28H38.0195ZM20 31.9844V34H22V31.9844H20ZM24 31.9844V34H26V31.9844H24ZM34 31.9844V34H36V31.9844H34ZM38.0195 31.9844V34H39.9805V31.9844H38.0195Z" fill="white"/>
</svg>
