<svg width="50" height="50" viewBox="0 0 50 50" fill="none" xmlns="http://www.w3.org/2000/svg">
<path fill-rule="evenodd" clip-rule="evenodd" d="M5.48868 5.33755C11.1165 -0.434054 28.7511 -1.52496 38.8966 2.06493C38.9008 2.08237 38.905 2.09981 38.9092 2.11727C41.2695 2.94269 43.2215 4.01821 44.5177 5.34383C51.3878 12.3701 52.1685 39.0702 44.5177 45.3158C36.8668 51.5614 12.9773 51.5614 5.48254 45.3158C0.646249 41.3678 -0.820972 29.2467 0.489311 19.0881C1.18011 13.6229 2.68721 8.72298 4.94224 5.95172C5.11792 5.73542 5.29803 5.53253 5.48254 5.34383C5.48458 5.34174 5.48663 5.33964 5.48868 5.33755Z" fill="#1885D3"/>
<path d="M17.5053 11.7456C19.5351 10.1843 22.0333 9.40356 25 9.40356C27.9668 9.40356 30.4649 10.1843 32.4948 11.7456C34.5246 13.307 35.4614 15.3368 35.4614 17.5228C35.4614 19.7087 34.5246 21.8947 32.807 23.6123C35.3053 25.486 36.5543 28.1403 36.5543 31.2632C36.5543 33.9176 35.4613 36.1035 33.4316 37.9773C31.2456 39.6948 28.4351 40.6317 25 40.6317C21.5649 40.6317 18.7544 39.6949 16.7246 37.9773C14.5386 36.1035 13.6018 33.9176 13.6018 31.2632C13.6018 28.1404 14.851 25.6421 17.3491 23.6123C15.4754 21.8948 14.6947 19.865 14.6947 17.679C14.6947 15.4931 15.4754 13.307 17.5053 11.7456ZM21.721 34.0736C22.6578 34.6982 23.7509 35.1666 25 35.1666C26.2492 35.1666 27.3421 34.8544 28.279 34.0736C29.2158 33.449 29.8404 32.3561 29.8404 31.107C29.8404 29.8578 29.3719 28.7649 28.4351 28.1403C27.4983 27.5157 26.4053 27.0473 25.1561 27.0473C23.907 27.0473 22.8141 27.3595 21.8771 28.1403C20.9403 28.7649 20.4719 29.8578 20.4719 31.107C20.1597 32.3561 20.7842 33.2929 21.721 34.0736ZM22.1895 20.8018C22.9702 21.4264 23.907 21.8948 25 21.8948C26.093 21.8948 27.0298 21.5826 27.8105 20.8018C28.5912 20.1772 29.0597 19.2404 29.0597 18.3035C29.0597 17.2105 28.5912 16.4298 27.8105 15.8052C27.0298 15.1806 26.093 14.7122 24.8439 14.7122C23.7509 14.7122 22.8141 15.0244 21.8773 15.8052C21.0966 16.4298 20.6281 17.3666 20.6281 18.3035C20.9403 19.2403 21.2526 20.1772 22.1895 20.8018Z" fill="white"/>
</svg>
