<svg width="44" height="44" viewBox="0 0 44 44" fill="none" xmlns="http://www.w3.org/2000/svg">
<path d="M22 0C21.0655 0 19.3426 0.192248 17.8574 1.46094C17.3987 1.80832 16.3739 2.71144 14.8867 4H8C7.73479 4.00003 7.48045 4.10539 7.29292 4.29292C7.10539 4.48045 7.00003 4.73479 7 5V10.9629C3.47131 14.0841 0.333984 16.8789 0.333984 16.8789C0.228909 16.9727 0.14484 17.0877 0.0872841 17.2163C0.0297283 17.3448 -1.56864e-05 17.4841 6.20617e-09 17.625V43C2.65231e-05 43.2652 0.105392 43.5195 0.292922 43.7071C0.480453 43.8946 0.734792 44 1 44H43C43.2652 44 43.5195 43.8946 43.7071 43.7071C43.8946 43.5195 44 43.2652 44 43V17.625C44 17.4841 43.9703 17.3448 43.9127 17.2163C43.8552 17.0877 43.7711 16.9727 43.666 16.8789C43.666 16.8789 40.5288 14.0834 37 10.9629V5C37 4.73479 36.8946 4.48045 36.7071 4.29292C36.5195 4.10539 36.2652 4.00003 36 4H29.0527C27.6217 2.71245 26.5974 1.8048 26.1406 1.45898C24.6559 0.192049 22.934 0 22 0ZM22 2C22.6399 2 23.8865 2.15887 24.8496 2.98438C24.8661 2.9986 24.883 3.01227 24.9004 3.02539C24.9592 3.06944 25.6977 3.72773 26.0137 4H17.9609C18.2794 3.72856 19.0411 3.06923 19.0996 3.02539C19.117 3.01227 19.1339 2.9986 19.1504 2.98438C20.1135 2.15887 21.3601 2 22 2ZM9 6H14.9883C15.1442 6.03808 15.307 6.03808 15.4629 6H28.5137C28.628 6.02007 28.745 6.02007 28.8594 6H35V23.543L29.3613 27.9805C28.2981 27.1456 26.3568 25.6287 26.125 25.4434C24.5844 24.2104 22.9361 24 22 24C20.9903 24 19.424 24.3054 17.9082 25.418C17.6329 25.6197 15.6275 27.2012 14.6328 27.9766L9 23.541V11.5469C9.01516 11.4472 9.01516 11.3458 9 11.2461V6ZM21 9V13.2695L17.3047 11.1348L16.3047 12.8652L20.002 15L16.3047 17.1348L17.3047 18.8652L21 16.7305V21H23V16.7305L26.6953 18.8652L27.6953 17.1348L23.998 15L27.6953 12.8652L26.6953 11.1348L23 13.2695V9H21ZM7 13.6367V21.9668L2.02539 18.0508C2.25527 17.8458 4.69955 15.6761 7 13.6367ZM37 13.6367C39.3009 15.6763 41.7452 17.8481 41.9746 18.0527L37 21.9688V13.6367ZM2 20.5781L13.0098 29.2441C11.3807 30.5199 10.6487 31.0806 8.68359 32.625C5.27478 35.304 3.11172 37.0089 2 37.8848V20.5781ZM42 20.5781V37.8887C40.3542 36.6003 35.5084 32.8017 30.9824 29.252L42 20.5781ZM22 26C22.6399 26 23.7916 26.1388 24.875 27.0059C26.231 28.0903 41.4716 40.0162 42 40.4297V42H2V40.4277C2.27409 40.2119 5.88194 37.3707 9.91992 34.1973C14.1084 30.9055 18.5542 27.4252 19.0918 27.0312C20.2 26.2178 21.4337 26 22 26Z" fill="white"/>
</svg>
