<svg width="400" height="599" viewBox="0 0 400 599" fill="none" xmlns="http://www.w3.org/2000/svg">
<path fill-rule="evenodd" clip-rule="evenodd" d="M450.999 414.429C448.744 400.114 445.074 386.389 439.974 373.443C427.145 377.471 413.976 380.166 400.561 381.414L383.036 383.034L381.421 400.565C376.303 455.615 347.362 506.745 299.486 545.977C287.552 536.182 276.791 525.662 267.284 514.512C253.679 520.568 239.512 525.542 224.85 529.329C241.731 551.638 262.533 572.074 287 589.905L299.486 599L311.981 589.905C372.141 546.079 410.524 486.778 421.451 421.445C431.451 419.766 441.315 417.375 450.999 414.429ZM325.359 487.897C333.874 476.194 340.996 463.879 346.546 451.124C334.635 444.877 323.41 437.472 313.035 428.888L299.491 417.645L285.942 428.888C243.406 464.208 186.81 479.888 125.218 473.786C123.677 458.418 123.524 443.365 124.67 428.758C110.782 423.422 97.2332 416.921 84.2038 409.228C80.3618 436.948 80.6171 466.102 85.3129 496.012L87.7071 511.269L102.973 513.672C176.491 525.231 245.582 510.433 299.491 471.967C307.75 477.856 316.417 483.127 325.359 487.897ZM487.907 273.624C476.186 265.11 463.884 258.01 451.125 252.461C444.888 264.358 437.487 275.592 428.875 285.948L417.646 299.493L428.875 313.033C464.201 355.569 479.893 412.165 473.787 473.786C458.419 475.294 443.362 475.465 428.76 474.301C423.419 488.23 416.913 501.747 409.22 514.795C436.939 518.642 466.099 518.372 496.009 513.672L511.274 511.279L513.664 496.007C525.232 422.489 510.439 353.407 471.959 299.493C477.861 291.224 483.132 282.566 487.907 273.624ZM589.905 287.002C546.084 226.851 486.775 188.464 421.451 177.546C419.776 167.523 417.378 157.677 414.435 147.974C400.121 150.238 386.39 153.909 373.44 159.012C377.459 171.852 380.163 185.021 381.421 198.427L383.036 215.952L400.566 217.581C455.616 222.699 506.741 251.598 545.969 299.489C536.187 311.437 525.649 322.198 514.513 331.705C520.559 345.319 525.543 359.494 529.324 374.143C551.633 357.258 572.074 336.456 589.905 311.975L599 299.489L589.905 287.002ZM273.618 111.095C265.107 122.811 258.013 135.111 252.454 147.868C264.365 154.104 275.594 161.495 285.942 170.107L299.486 181.336L313.035 170.107C355.575 134.787 412.171 119.103 473.787 125.219C475.29 140.573 475.457 155.626 474.301 170.237C488.223 175.565 501.758 182.061 514.796 189.763C518.647 162.043 518.378 132.894 513.664 102.974L511.274 87.7079L496.009 85.3229C422.481 73.769 353.4 88.557 299.486 127.033C291.232 121.127 282.568 115.86 273.618 111.095ZM147.977 184.571C150.237 198.871 153.926 212.583 159.011 225.533C171.855 221.543 185.014 218.825 198.424 217.576L215.946 215.943L217.583 198.427C222.697 143.375 251.604 92.2505 299.486 53.0136C311.435 62.8043 322.19 73.328 331.702 84.469C345.317 78.423 359.488 73.4302 374.145 69.6624C357.26 47.3386 336.454 26.9314 311.981 9.0993L299.486 0L287 9.0993C226.859 52.9208 188.468 112.198 177.545 177.55C167.531 179.225 157.67 181.615 147.977 184.571ZM184.574 451.007C198.87 448.747 212.591 445.073 225.537 439.978C221.532 427.148 218.822 413.974 217.583 400.569L215.946 383.038L198.415 381.414C143.38 376.311 92.2452 347.375 53.0178 299.489C62.8037 287.559 73.3368 276.793 84.4776 267.286C78.4316 253.676 73.4388 239.51 69.671 224.847C47.3475 241.733 26.9218 262.534 9.09923 286.998L0 299.489L9.09923 311.975C52.9158 372.134 112.207 410.518 177.545 421.445C179.229 431.454 181.622 441.314 184.574 451.007ZM111.089 325.357C122.809 333.876 135.11 340.99 147.866 346.539C154.107 334.632 161.498 323.408 170.097 313.033L181.344 299.489L170.097 285.948C134.795 243.413 119.092 186.811 125.213 125.214C140.576 123.682 155.629 123.516 170.236 124.676C175.562 110.783 182.064 97.2248 189.771 84.1999C162.042 80.3578 132.893 80.6177 102.973 85.3229L87.7071 87.7032L85.3129 102.974C73.7729 176.488 88.5564 245.584 127.041 299.489C121.134 307.753 115.859 316.406 111.089 325.357Z" fill="#F9F9F9"/>
</svg>
