<svg width="599" height="169" viewBox="0 0 599 169" fill="none" xmlns="http://www.w3.org/2000/svg">
<path fill-rule="evenodd" clip-rule="evenodd" d="M450.999 116.926C448.744 112.887 445.074 109.015 439.974 105.362C427.145 106.498 413.976 107.259 400.561 107.611L383.036 108.068L381.421 113.014C376.303 128.546 347.362 142.971 299.486 154.04C287.552 151.277 276.791 148.309 267.284 145.163C253.679 146.871 239.512 148.275 224.85 149.343C241.731 155.637 262.533 161.403 287 166.434L299.486 169L311.981 166.434C372.141 154.069 410.524 137.338 421.451 118.905C431.451 118.431 441.315 117.757 450.999 116.926ZM325.359 137.654C333.874 134.352 340.996 130.877 346.546 127.279C334.635 125.516 323.41 123.427 313.035 121.005L299.491 117.833L285.942 121.005C243.406 130.97 186.81 135.394 125.218 133.672C123.677 129.337 123.524 125.09 124.67 120.968C110.782 119.463 97.2332 117.629 84.2038 115.458C80.3618 123.279 80.6171 131.505 85.3129 139.943L87.7071 144.248L102.973 144.926C176.491 148.187 245.582 144.012 299.491 133.159C307.75 134.821 316.417 136.308 325.359 137.654ZM487.907 77.1995C476.186 74.7972 463.884 72.7942 451.125 71.2285C444.888 74.585 437.487 77.7547 428.875 80.6765L417.646 84.4981L428.875 88.3181C464.201 100.319 479.893 116.287 473.787 133.672C458.419 134.098 443.362 134.146 428.76 133.818C423.419 137.748 416.913 141.561 409.22 145.243C436.939 146.328 466.099 146.252 496.009 144.926L511.274 144.251L513.664 139.942C525.232 119.2 510.439 99.7091 471.959 84.4981C477.861 82.165 483.132 79.7223 487.907 77.1995ZM589.905 80.9738C546.084 64.0031 486.775 53.1727 421.451 50.0922C419.776 47.2643 417.378 44.4864 414.435 41.7489C400.121 42.3877 386.39 43.4233 373.44 44.8632C377.459 48.4858 380.163 52.2013 381.421 55.9834L383.036 60.9279L400.566 61.3877C455.616 62.8317 506.741 70.985 545.969 84.4969C536.187 87.8678 525.649 90.9038 514.513 93.5863C520.559 97.4272 525.543 101.427 529.324 105.56C551.633 100.796 572.074 94.9267 589.905 88.0196L599 84.4969L589.905 80.9738ZM273.618 31.3439C265.107 34.6494 258.013 38.1198 252.454 41.7189C264.365 43.4784 275.594 45.5637 285.942 47.9935L299.486 51.1616L313.035 47.9935C355.575 38.0284 412.171 33.6035 473.787 35.3288C475.29 39.6609 475.457 43.9078 474.301 48.0301C488.223 49.5333 501.758 51.366 514.796 53.5392C518.647 45.7183 518.378 37.4942 513.664 29.0528L511.274 24.7456L496.009 24.0727C422.481 20.8129 353.4 24.9852 299.486 35.8408C291.232 34.1743 282.568 32.6884 273.618 31.3439ZM147.977 52.0742C150.237 56.1089 153.926 59.9775 159.011 63.6313C171.855 62.5056 185.014 61.7385 198.424 61.3861L215.946 60.9254L217.583 55.9834C222.697 40.4514 251.604 26.0273 299.486 14.9571C311.435 17.7194 322.19 20.6885 331.702 23.8318C345.317 22.126 359.488 20.7174 374.145 19.6543C357.26 13.356 336.454 7.59833 311.981 2.56725L299.486 0L287 2.56725C226.859 14.9309 188.468 31.6553 177.545 50.0935C167.531 50.5661 157.67 51.2402 147.977 52.0742ZM184.574 127.246C198.87 126.608 212.591 125.571 225.537 124.134C221.532 120.514 218.822 116.797 217.583 113.015L215.946 108.069L198.415 107.611C143.38 106.171 92.2452 98.0072 53.0178 84.4969C62.8037 81.131 73.3368 78.0936 84.4776 75.4112C78.4316 71.5715 73.4388 67.5747 69.671 63.4376C47.3475 68.2018 26.9218 74.0705 9.09923 80.9726L0 84.4969L9.09923 88.0196C52.9158 104.993 112.207 115.822 177.545 118.905C179.229 121.729 181.622 124.511 184.574 127.246ZM111.089 91.7952C122.809 94.1987 135.11 96.2058 147.866 97.7715C154.107 94.4122 161.498 91.2453 170.097 88.3181L181.344 84.4969L170.097 80.6765C134.795 68.6757 119.092 52.7064 125.213 35.3276C140.576 34.8954 155.629 34.8484 170.236 35.1758C175.562 31.2561 182.064 27.4307 189.771 23.7559C162.042 22.6719 132.893 22.7452 102.973 24.0727L87.7071 24.7443L85.3129 29.0528C73.7729 49.7937 88.5564 69.2884 127.041 84.4969C121.134 86.8284 115.859 89.2699 111.089 91.7952Z" fill="#F9F9F9"/>
</svg>
