<svg width="33" height="50" viewBox="0 0 33 50" fill="none" xmlns="http://www.w3.org/2000/svg">
<g clip-path="url(#clip0)">
<path fill-rule="evenodd" clip-rule="evenodd" d="M22.0117 4.30999L32.845 15.1433C33.1583 15.4567 33.3333 15.88 33.3333 16.3217V43.8217C33.3333 45.6633 31.8417 47.155 30 47.155H3.33333C1.49167 47.155 0 45.6633 0 43.8217V7.15499C0 5.31332 1.49167 3.82166 3.33333 3.82166H20.8333C21.275 3.82166 21.6983 3.99666 22.0117 4.30999ZM20 15.4883C20 16.4083 20.7467 17.155 21.6667 17.155H30.16L20 6.99499V15.4883ZM9.11193 24.3333H5.87193V38.3333H8.07193V33.0733H9.11193C11.3119 33.0733 12.3919 31.8533 12.3919 29.6133V27.7933C12.3919 25.5533 11.3119 24.3333 9.11193 24.3333ZM9.11193 26.3333C9.81193 26.3333 10.1919 26.6533 10.1919 27.6533V29.7533C10.1919 30.7533 9.81193 31.0733 9.11193 31.0733H8.07193V26.3333H9.11193ZM13.5086 38.3333H16.9886C19.1886 38.3333 20.2686 37.1133 20.2686 34.8733V27.7933C20.2686 25.5533 19.1886 24.3333 16.9886 24.3333H13.5086V38.3333ZM16.9486 26.3333C17.6486 26.3333 18.0686 26.6933 18.0686 27.6933V34.9733C18.0686 35.9733 17.6486 36.3333 16.9486 36.3333H15.7086V26.3333H16.9486ZM27.4927 26.3333H23.8727V30.5533H26.7127V32.5533H23.8727V38.3333H21.6727V24.3333H27.4927V26.3333Z" fill="#D44940"/>
</g>
<defs>
<clipPath id="clip0">
<rect width="33" height="50" fill="white"/>
</clipPath>
</defs>
</svg>
