<svg width="50" height="50" viewBox="0 0 50 50" fill="none" xmlns="http://www.w3.org/2000/svg">
<path fill-rule="evenodd" clip-rule="evenodd" d="M5.48868 5.33755C11.1165 -0.434054 28.7511 -1.52496 38.8966 2.06493C38.9008 2.08237 38.905 2.09981 38.9092 2.11727C41.2695 2.94269 43.2215 4.01821 44.5177 5.34383C51.3878 12.3701 52.1685 39.0702 44.5177 45.3158C36.8668 51.5614 12.9773 51.5614 5.48254 45.3158C0.646249 41.3678 -0.820972 29.2467 0.489311 19.0881C1.18011 13.6229 2.68721 8.72298 4.94224 5.95172C5.11792 5.73542 5.29803 5.53253 5.48254 5.34383C5.48458 5.34174 5.48663 5.33964 5.48868 5.33755Z" fill="#1885D3"/>
<path d="M14.0703 19.5527V9.87195H35.9299V15.0245L23.751 40.1631H16.4125L27.9668 15.6491H20.3159V19.5527H14.0703Z" fill="white"/>
</svg>
