<svg width="92" height="92" viewBox="0 0 92 92" fill="none" xmlns="http://www.w3.org/2000/svg">
<g filter="url(#filter0_d)">
<circle cx="46" cy="42" r="16" fill="#4DC48A" stroke="white" stroke-width="4"/>
<g clip-path="url(#clip0)">
<path d="M48.2968 41.4352C48.2968 42.7037 47.2685 43.732 46 43.732C44.7314 43.732 43.7031 42.7037 43.7031 41.4352C43.7031 40.1667 44.7314 39.1383 46 39.1383C47.2685 39.1383 48.2968 40.1667 48.2968 41.4352Z" fill="white"/>
<path d="M54.3492 33.6505C53.9294 33.231 53.3714 33 52.7782 33H39.2218C38.6286 33 38.0706 33.231 37.6505 33.6508C37.231 34.0708 37 34.6286 37 35.2218V37.4813C37 38.0746 37.231 38.6324 37.6508 39.0526C38.0708 39.4722 38.6286 39.703 39.2218 39.703H39.3345V35.8242C39.3345 35.533 39.5705 35.2968 39.8618 35.2968H52.1383C52.4295 35.2968 52.6657 35.533 52.6657 35.8242V39.703H52.7782C53.3714 39.703 53.9292 39.472 54.3495 39.0522C54.769 38.6324 55 38.0744 55 37.4813V35.2218C55 34.6286 54.769 34.0708 54.3492 33.6505Z" fill="white"/>
<path d="M40.3887 49.343C40.3887 49.7859 40.5612 50.202 40.8739 50.5143C41.1867 50.8275 41.6028 51 42.0457 51H49.9536C50.3965 51 50.8126 50.8275 51.1249 50.5148C51.438 50.202 51.6105 49.7859 51.6105 49.343V36.3515H40.3887V49.343ZM45.9997 38.0836C47.8477 38.0836 49.3512 39.5871 49.3512 41.4352C49.3512 43.2832 47.8477 44.7867 45.9997 44.7867C44.1516 44.7867 42.6481 43.2832 42.6481 41.4352C42.6481 39.5871 44.1516 38.0836 45.9997 38.0836ZM43.1755 47.1211H48.8238C49.1151 47.1211 49.3512 47.3572 49.3512 47.6485C49.3512 47.9396 49.1151 48.1758 48.8238 48.1758H43.1755C42.8842 48.1758 42.6481 47.9396 42.6481 47.6485C42.6481 47.3572 42.8842 47.1211 43.1755 47.1211Z" fill="white"/>
</g>
</g>
<defs>
<filter id="filter0_d" x="0" y="0" width="92" height="92" filterUnits="userSpaceOnUse" color-interpolation-filters="sRGB">
<feFlood flood-opacity="0" result="BackgroundImageFix"/>
<feColorMatrix in="SourceAlpha" type="matrix" values="0 0 0 0 0 0 0 0 0 0 0 0 0 0 0 0 0 0 127 0"/>
<feOffset dy="4"/>
<feGaussianBlur stdDeviation="14"/>
<feColorMatrix type="matrix" values="0 0 0 0 0 0 0 0 0 0 0 0 0 0 0 0 0 0 0.15 0"/>
<feBlend mode="normal" in2="BackgroundImageFix" result="effect1_dropShadow"/>
<feBlend mode="normal" in="SourceGraphic" in2="effect1_dropShadow" result="shape"/>
</filter>
<clipPath id="clip0">
<rect x="37" y="33" width="18" height="18" fill="white"/>
</clipPath>
</defs>
</svg>
