<svg width="50" height="50" viewBox="0 0 50 50" fill="none" xmlns="http://www.w3.org/2000/svg">
<path fill-rule="evenodd" clip-rule="evenodd" d="M5.48868 5.33755C11.1165 -0.434054 28.7511 -1.52496 38.8966 2.06493C38.9008 2.08237 38.905 2.09981 38.9092 2.11727C41.2695 2.94269 43.2215 4.01821 44.5177 5.34383C51.3878 12.3701 52.1685 39.0702 44.5177 45.3158C36.8668 51.5614 12.9773 51.5614 5.48254 45.3158C0.646249 41.3678 -0.820972 29.2467 0.489311 19.0881C1.18011 13.6229 2.68721 8.72298 4.94224 5.95172C5.11792 5.73542 5.29803 5.53253 5.48254 5.34383C5.48458 5.34174 5.48663 5.33964 5.48868 5.33755Z" fill="#1885D3"/>
<path d="M15.944 15.493V9.71582H34.3686V14.4001L28.1229 21.4264C30.465 21.8948 32.3387 22.8316 33.744 24.5491C34.9931 26.1105 35.7738 27.9842 35.7738 30.1702C35.7738 33.2929 34.6808 35.7912 32.4948 37.6649C30.3089 39.5387 27.6545 40.3194 24.2194 40.3194C20.9404 40.3194 17.5053 39.0702 14.0703 36.7281L16.8808 31.4193C19.6914 33.4492 22.3458 34.386 24.5317 34.386C25.937 34.386 27.03 34.0737 27.8107 33.4492C28.7475 32.8246 29.0598 31.8878 29.0598 30.6386C29.0598 29.3895 28.5914 28.4527 27.4985 27.672C26.5617 26.8913 25.1564 26.579 23.2827 26.579C22.3459 26.579 20.9406 26.8912 19.223 27.3597V22.3632L25.0002 15.493H15.944Z" fill="white"/>
</svg>
