<?xml version="1.0" encoding="UTF-8"?>
<svg width="131px" height="56px" viewBox="0 0 131 56" version="1.1" xmlns="http://www.w3.org/2000/svg" xmlns:xlink="http://www.w3.org/1999/xlink">
    <title>Group</title>
    <g id="Page-1" stroke="none" stroke-width="1" fill="none" fill-rule="evenodd">
        <g id="Group" transform="translate(0.859500, 0.000000)" fill="#FFFFFF">
            <path d="M38.6853718,27.8152471 L39.7267798,29.0731294 C42.9974296,33.0246588 44.4499567,38.2820706 43.8853718,44.0034824 C42.4624116,44.1451294 41.0662022,44.1601882 39.7141083,44.0524235 C39.2203899,45.3451294 38.6177906,46.6006588 37.9053718,47.8128941 C40.4720505,48.1696 43.1734224,48.1456 45.9437834,47.7088941 L47.3573574,47.4858353 L47.579343,46.0679529 C48.6498484,39.2397176 47.2794513,32.8232471 43.7159495,27.8152471 L38.6853718,27.8152471 Z" id="Fill-1"></path>
            <path d="M16.796704,27.8152471 L15.7562347,26.5578353 C12.4851155,22.6067765 11.0307112,17.3507765 11.5971733,11.6288941 C13.0206029,11.4863059 14.4154043,11.4712471 15.7684368,11.5790118 C16.2621552,10.2881882 16.8638159,9.03030588 17.5771733,7.81995294 C15.009556,7.46277647 12.3086534,7.48771765 9.53735379,7.92442353 L8.12377978,8.14512941 L7.90179422,9.56301176 C6.83269675,16.3912471 8.20309386,22.8096 11.7661264,27.8152471 L16.796704,27.8152471 Z" id="Fill-3"></path>
            <path d="M27.7398881,16.8414588 L28.9953032,15.7991059 C32.9351949,12.5181647 38.1779025,11.0616941 43.885231,11.6287529 C44.025556,13.0565176 44.040574,14.4536941 43.9340397,15.8108706 C45.2232455,16.3059294 46.4758448,16.9092235 47.6843285,17.6245176 C48.0400686,15.0504 48.0151949,12.3426353 47.5796715,9.5624 L47.3572166,8.14545882 L45.9436426,7.92475294 C39.1329567,6.85087059 32.7347978,8.22404706 27.7398881,11.7986353 L27.7398881,16.8414588 Z" id="Fill-5"></path>
            <path d="M16.4447184,16.4889412 L20.0016498,20.0555294 L20.1532383,18.4287059 C20.6272455,13.3167059 23.3051516,8.56752941 27.740639,4.92376471 C28.8477509,5.83247059 29.8441047,6.81082353 30.7245379,7.84564706 C31.9855848,7.28376471 33.297787,6.82023529 34.6559819,6.47011765 C33.0917581,4.39670588 31.1647545,2.50023529 28.8974982,0.844235294 L27.740639,0 L26.5837798,0.844235294 C21.0125523,4.91388235 17.4565596,10.4211765 16.4447184,16.4889412" id="Fill-7"></path>
            <path d="M20.0016968,35.5749176 L18.3788087,35.4252706 C13.2806498,34.9499765 8.5433935,32.2629176 4.91043321,27.8158588 C5.8166787,26.7071529 6.79238267,25.7076235 7.82534296,24.8248 C7.26404332,23.5608 6.80176895,22.2455059 6.45259928,20.8831529 C4.38480144,22.4516235 2.4934657,24.3829176 0.841949458,26.6558588 L-1.33387084e-14,27.8158588 L0.841949458,28.9749176 C4.90198556,34.5636235 10.392491,38.1283294 16.445704,39.1429176 L20.0016968,35.5749176 Z" id="Fill-9"></path>
            <path d="M54.6415812,26.656 C50.5829531,21.0696471 45.0882238,17.504 39.0368881,16.4894118 L35.4790181,20.0564706 L37.1033141,20.208 C42.2019422,20.6832941 46.9373213,23.3684706 50.5712202,27.816 C49.6659134,28.9261176 48.6892708,29.9251765 47.6572491,30.8084706 C48.2185487,32.0729412 48.6789458,33.3877647 49.0290542,34.7501176 C51.096852,33.1811765 52.990065,31.2494118 54.6415812,28.9750588 L55.4835307,27.816 L54.6415812,26.656 Z" id="Fill-11"></path>
            <path d="M35.4789711,35.5749176 L35.3292599,37.2031529 C34.8561913,42.3165647 32.1754693,47.0648 27.7409206,50.7090353 C26.6347473,49.7993882 25.6374549,48.8215059 24.7579603,47.7866824 C23.497852,48.3495059 22.1856498,48.8106824 20.8265162,49.1622118 C22.3907401,51.2342118 24.3168051,53.1339765 26.5840614,54.7890353 L27.7409206,55.6342118 L28.8973105,54.7890353 C34.4699458,50.7189176 38.025,45.2102118 39.0373105,39.1429176 L35.4789711,35.5749176 Z" id="Fill-13"></path>
            <path d="M27.7407798,38.7892706 L26.4853646,39.8339765 C22.5454729,43.1130353 17.303704,44.5713882 11.5973141,44.0038588 C11.4555812,42.5775059 11.4410325,41.1779765 11.5485054,39.8226824 C10.2611769,39.3257412 9.00576173,38.7219765 7.79915523,38.0071529 C7.44247653,40.5822118 7.46641155,43.2909176 7.90193502,46.0683294 L8.12345126,47.4857412 L9.53702527,47.7092706 C16.3477112,48.7822118 22.7477473,47.4071529 27.7407798,43.8349176 L27.7407798,38.7892706 Z" id="Fill-15"></path>
            <polygon id="Fill-17" points="64.6656137 25.6757647 68.5918953 25.6757647 68.5918953 10.4070588 64.6656137 10.4070588"></polygon>
            <path d="M79.2076859,22.4025412 C80.1434982,22.4025412 80.7146534,21.8298353 80.7146534,21.0058353 C80.7146534,20.2279529 80.1664946,19.5639529 79.2076859,19.5639529 L75.2579386,19.5639529 L75.2579386,22.4025412 L79.2076859,22.4025412 Z M79.0706462,16.3131294 C79.8698881,16.3131294 80.4175776,15.7408941 80.4175776,14.9856 C80.4175776,14.2303059 79.8698881,13.6806588 79.0706462,13.6806588 L75.2579386,13.6806588 L75.2579386,16.3131294 L79.0706462,16.3131294 Z M71.331657,10.4072471 L79.960935,10.4072471 C82.9744007,10.4072471 84.4128484,12.3757176 84.4128484,14.2985412 C84.4128484,16.1987765 83.2484801,17.4806588 81.8105018,17.8011294 C83.4310433,18.0528941 84.7099242,19.6096 84.7099242,21.5324235 C84.7099242,23.7531294 83.2259531,25.6759529 80.2350144,25.6759529 L71.331657,25.6759529 L71.331657,10.4072471 Z" id="Fill-19"></path>
            <path d="M91.3058051,20.0448 L95.5751552,20.0448 L93.4289819,13.8410353 L91.3058051,20.0448 Z M96.6024838,23.3643294 L90.2789458,23.3643294 L89.502231,25.6763294 L85.2333502,25.6763294 L90.9636751,10.4076235 L95.8947581,10.4076235 L101.64761,25.6763294 L97.3777906,25.6763294 L96.6024838,23.3643294 Z" id="Fill-20"></path>
            <path d="M78.3410036,37.5804235 C78.3410036,36.2985412 77.7698484,35.4519529 76.422917,35.4519529 C75.3045415,35.4519529 74.2086931,36.2298353 73.6835307,37.0312471 L73.6835307,44.9517176 L71.6288736,44.9517176 L71.6288736,37.5804235 C71.6288736,36.2985412 71.0807148,35.4519529 69.6882599,35.4519529 C68.6154079,35.4519529 67.542556,36.2528941 66.9943971,37.0543059 L66.9943971,44.9517176 L64.9397401,44.9517176 L64.9397401,33.8952471 L66.9943971,33.8952471 L66.9943971,35.4519529 C67.4510397,34.7648941 68.9124838,33.6204235 70.5560217,33.6204235 C72.222556,33.6204235 73.204361,34.4905412 73.546491,35.6806588 C74.1856968,34.6500706 75.6471408,33.6204235 77.2681516,33.6204235 C79.2998123,33.6204235 80.3956606,34.7423059 80.3956606,36.9625412 L80.3956606,44.9517176 L78.3410036,44.9517176 L78.3410036,37.5804235 Z" id="Fill-21"></path>
            <path d="M91.740296,39.412 C91.740296,37.3287059 90.5304043,35.452 88.3157112,35.452 C86.1240144,35.452 84.8915957,37.3287059 84.8915957,39.412 C84.8915957,41.5183529 86.1240144,43.3955294 88.3157112,43.3955294 C90.5304043,43.3955294 91.740296,41.5183529 91.740296,39.412 M82.7454224,39.412 C82.7454224,36.2298824 84.8915957,33.6204706 88.3157112,33.6204706 C91.7632924,33.6204706 93.8864693,36.2298824 93.8864693,39.412 C93.8864693,42.6171765 91.7632924,45.2265882 88.3157112,45.2265882 C84.8915957,45.2265882 82.7454224,42.6171765 82.7454224,39.412" id="Fill-22"></path>
            <path d="M101.372686,43.3954353 C103.427812,43.3954353 104.706224,41.7469647 104.706224,39.4349647 C104.706224,37.1229647 103.427812,35.4519059 101.372686,35.4519059 C100.117271,35.4519059 98.8613863,36.2076706 98.3136968,37.0999059 L98.3136968,41.7930824 C98.8613863,42.6857882 100.117271,43.3954353 101.372686,43.3954353 L101.372686,43.3954353 Z M96.2590397,29.6829647 L98.3136968,29.6829647 L98.3136968,35.4975529 C99.1809892,34.3074353 100.482866,33.6208471 101.920845,33.6208471 C104.797271,33.6208471 106.829401,35.8867294 106.829401,39.4349647 C106.829401,43.0523765 104.774744,45.2269647 101.920845,45.2269647 C100.436874,45.2269647 99.1354657,44.4712 98.3136968,43.3723765 L98.3136968,44.9521412 L96.2590397,44.9521412 L96.2590397,29.6829647 Z" id="Fill-23"></path>
            <path d="M109.225578,44.952 L111.280235,44.952 L111.280235,33.8955294 L109.225578,33.8955294 L109.225578,44.952 Z M108.905505,30.736 C108.905505,30.0032941 109.522184,29.408 110.22944,29.408 C110.960162,29.408 111.553845,30.0032941 111.553845,30.736 C111.553845,31.4682353 110.960162,32.0409412 110.22944,32.0409412 C109.522184,32.0409412 108.905505,31.4682353 108.905505,30.736 L108.905505,30.736 Z" id="Fill-24"></path>
            <polygon id="Fill-25" points="114.315289 44.9515294 116.369946 44.9515294 116.369946 29.6828235 114.315289 29.6828235"></polygon>
            <path d="M120.866632,38.6109647 L127.601758,38.6109647 C127.556235,37.1460235 126.57443,35.3144941 124.245693,35.3144941 C122.030531,35.3144941 120.981144,37.0999059 120.866632,38.6109647 M124.245693,33.6208471 C127.556235,33.6208471 129.610892,36.2076706 129.610892,39.5954353 L129.610892,40.0989647 L120.889628,40.0989647 C121.049664,41.9756706 122.419592,43.5328471 124.633816,43.5328471 C125.798184,43.5328471 127.076596,43.0744941 127.898365,42.2279059 L128.857173,43.5784941 C127.761325,44.6542588 126.209303,45.2269647 124.428256,45.2269647 C121.140711,45.2269647 118.720928,42.8919059 118.720928,39.4119059 C118.720928,36.2076706 121.026668,33.6208471 124.245693,33.6208471" id="Fill-26"></path>
        </g>
    </g>
</svg>