<svg width="186" height="38" viewBox="0 0 186 38" fill="none" xmlns="http://www.w3.org/2000/svg">
<path fill-rule="evenodd" clip-rule="evenodd" d="M49.1389 12.2567L50.3896 9.2604L51.626 12.2567H49.1389ZM49.5502 7.02808L45.741 15.9228H47.6461L48.4719 13.9094H52.2941L53.1213 15.9228H55.0739L51.2755 7.02808H49.5502Z" fill="white"/>
<path fill-rule="evenodd" clip-rule="evenodd" d="M56.759 8.72582H61.5295L56.6033 14.5153V15.9225H63.9309V14.283H59.0056L63.9309 8.49712V7.08887H56.759V8.72582Z" fill="white"/>
<path fill-rule="evenodd" clip-rule="evenodd" d="M69.5589 14.3925C68.2359 14.3925 67.424 13.4843 67.254 12.2702H71.9256C71.6941 13.5318 70.8187 14.3925 69.5589 14.3925ZM69.4364 6.94312C67.7006 6.94312 66.5015 7.61072 65.6879 8.58042L66.8776 9.78193C67.6171 9.03121 68.3689 8.65375 69.4364 8.65375C70.6505 8.65375 71.6336 9.37061 71.913 10.6915H65.2748C65.2633 10.9112 65.2507 11.0439 65.2507 11.2862V11.3121C65.2507 13.8241 66.6454 16.0675 69.5589 16.0675C72.1199 16.0675 73.9516 14.0168 73.9516 11.5059V11.4695C73.9516 8.79829 71.9855 6.94312 69.4364 6.94312Z" fill="white"/>
<path fill-rule="evenodd" clip-rule="evenodd" d="M79.6089 11.3961H77.571V8.77589H79.5702C80.5547 8.77589 81.1606 9.22422 81.1606 10.0749V10.0989C81.1606 10.8741 80.5786 11.3961 79.6089 11.3961ZM83.0416 10.0001V9.97669C83.0416 9.16279 82.7876 8.47175 82.3013 7.98535C81.72 7.4043 80.846 7.08862 79.73 7.08862H75.7153V15.9226H77.571V13.0464H79.1839L81.1388 15.9226H83.3231L81.1148 12.7318C82.252 12.3309 83.0416 11.4328 83.0416 10.0001Z" fill="white"/>
<path fill-rule="evenodd" clip-rule="evenodd" d="M90.7626 13.277C90.7626 13.9561 90.2166 14.283 89.3172 14.283H86.9507V12.2459H89.2447C90.2897 12.2459 90.7626 12.6212 90.7626 13.2536V13.277ZM86.9507 8.72508H88.9407C89.7901 8.72508 90.2644 9.07806 90.2644 9.67276V9.69753C90.2644 10.3889 89.7057 10.6917 88.8204 10.6917H86.9507V8.72508ZM90.9435 11.3118C91.5768 10.9588 92.1194 10.4012 92.1194 9.39444V9.37038C92.1194 8.76315 91.9273 8.27703 91.5254 7.86466C91.016 7.36813 90.2166 7.08911 89.2089 7.08911H85.1436V15.9217H89.3172C91.3087 15.9217 92.619 15.1092 92.619 13.4959V13.4722C92.619 12.2818 91.9631 11.6875 90.9435 11.3118Z" fill="white"/>
<path fill-rule="evenodd" clip-rule="evenodd" d="M97.2732 12.2567L98.5215 9.2604L99.7593 12.2567H97.2732ZM97.6862 7.02808L93.8743 15.9228H95.7799L96.6046 13.9094H100.426L101.252 15.9228H103.206L99.4068 7.02808H97.6862Z" fill="white"/>
<path fill-rule="evenodd" clip-rule="evenodd" d="M106.392 10.7035L104.22 7.08911H102.035L105.444 12.4389V15.9224H107.313V12.4037L110.735 7.08911H108.613L106.392 10.7035Z" fill="white"/>
<path fill-rule="evenodd" clip-rule="evenodd" d="M115.578 14.3579C114.025 14.3579 112.946 13.0582 112.946 11.5061V11.4824C112.946 9.92748 114.05 8.65399 115.578 8.65399C116.489 8.65399 117.193 9.04405 117.884 9.67288L119.074 8.30164C118.249 7.48879 117.254 6.94336 115.59 6.94336C112.885 6.94336 110.992 8.99373 110.992 11.5061V11.5302C110.992 14.0656 112.922 16.0674 115.517 16.0674C117.217 16.0674 118.224 15.4623 119.135 14.5021L117.944 13.3012C117.242 13.9444 116.611 14.3579 115.578 14.3579Z" fill="white"/>
<path fill-rule="evenodd" clip-rule="evenodd" d="M123.622 12.2567L124.874 9.2604L126.11 12.2567H123.622ZM124.034 7.02808L120.224 15.9228H122.131L122.955 13.9094H126.778L127.603 15.9228H129.556L125.76 7.02808H124.034Z" fill="white"/>
<path fill-rule="evenodd" clip-rule="evenodd" d="M137.033 7.08936V12.6577L132.775 7.08936H131.064V15.9225H132.895V10.1712L137.289 15.9225H138.878V7.08936H137.033Z" fill="white"/>
<path fill-rule="evenodd" clip-rule="evenodd" d="M51.441 27.2879C51.441 27.9775 50.8879 28.3099 49.9769 28.3099H47.5762V26.242H49.9029C50.9609 26.242 51.441 26.623 51.441 27.2637V27.2879ZM47.5762 22.6716H49.5959C50.4566 22.6716 50.9378 23.0285 50.9378 23.6316V23.6567C50.9378 24.3578 50.3704 24.6655 49.4726 24.6655H47.5762V22.6716ZM51.6264 25.2936C52.2668 24.9361 52.8199 24.3704 52.8199 23.3487V23.3246C52.8199 22.7093 52.6237 22.2167 52.2172 21.798C51.6997 21.2934 50.8879 21.0103 49.8655 21.0103H45.741V29.9713H49.9769C51.9955 29.9713 53.3252 29.1469 53.3252 27.5089V27.4847C53.3252 26.2783 52.6596 25.6757 51.6264 25.2936Z" fill="white"/>
<path fill-rule="evenodd" clip-rule="evenodd" d="M56.8035 26.3029H61.0876V24.6178H56.8035V22.697H61.6648V21.0107H54.9312V29.9714H61.7256V28.2852H56.8035V26.3029Z" fill="white"/>
<path fill-rule="evenodd" clip-rule="evenodd" d="M67.4528 24.6787L65.2491 21.0103H63.0339L66.4922 26.4383V29.9709H68.3886V26.4027L71.8596 21.0103H69.7061L67.4528 24.6787Z" fill="white"/>
<path fill-rule="evenodd" clip-rule="evenodd" d="M79.5299 26.6604L75.2077 21.0103H73.4724V29.9709H75.3316V24.1365L79.7882 29.9709H81.3996V21.0103H79.5299V26.6604Z" fill="white"/>
<path fill-rule="evenodd" clip-rule="evenodd" d="M87.651 28.4206C86.309 28.4206 85.4843 27.4978 85.3126 26.2663H90.0513C89.8177 27.5474 88.931 28.4206 87.651 28.4206ZM87.5279 20.8623C85.7672 20.8623 84.5477 21.5386 83.7236 22.5244L84.9305 23.7431C85.6813 22.9805 86.4449 22.5984 87.5279 22.5984C88.7586 22.5984 89.7544 23.3247 90.0394 24.6655H83.3056C83.2937 24.888 83.281 25.0235 83.281 25.269V25.2937C83.281 27.8417 84.6969 30.1191 87.651 30.1191C90.2477 30.1191 92.1061 28.0387 92.1061 25.4907V25.4544C92.1061 22.7458 90.1119 20.8623 87.5279 20.8623Z" fill="white"/>
<path fill-rule="evenodd" clip-rule="evenodd" d="M95.8687 21.0103H93.9856V29.9709H100.387V28.2484H95.8687V21.0103Z" fill="white"/>
<path fill-rule="evenodd" clip-rule="evenodd" d="M110.127 21.0103H107.973L106.003 23.9884L104.057 21.0103H101.841L104.858 25.4166L101.707 29.9709H103.861L105.953 26.82L108.033 29.9709H110.249L107.111 25.3803L110.127 21.0103Z" fill="white"/>
<path fill-rule="evenodd" clip-rule="evenodd" d="M115.02 26.2544L116.288 23.214L117.543 26.2544H115.02ZM115.438 20.9492L111.573 29.9714H113.507L114.343 27.9283H118.221L119.058 29.9714H121.04L117.186 20.9492H115.438Z" fill="white"/>
<path fill-rule="evenodd" clip-rule="evenodd" d="M124.496 21.0103H122.612V29.9709H129.014V28.2484H124.496V21.0103Z" fill="white"/>
<path fill-rule="evenodd" clip-rule="evenodd" d="M136.99 25.5155C136.99 25.9956 136.892 26.4506 136.707 26.8452L135.217 25.4907L134.012 26.8452L135.488 28.1124C135.119 28.2848 134.7 28.3829 134.234 28.3829C132.609 28.3829 131.45 27.0662 131.45 25.4907V25.4656C131.45 23.8904 132.584 22.5984 134.208 22.5984C135.833 22.5984 136.99 23.9152 136.99 25.4907V25.5155ZM138.971 25.4907V25.4656C138.971 22.9186 136.99 20.8623 134.234 20.8623C131.475 20.8623 129.469 22.9542 129.469 25.4907V25.5155C129.469 28.0634 131.45 30.1191 134.208 30.1191C135.217 30.1191 136.129 29.823 136.879 29.3313L137.889 30.242L139.095 28.8994L138.16 28.1001C138.677 27.3498 138.971 26.4506 138.971 25.4907Z" fill="white"/>
<path fill-rule="evenodd" clip-rule="evenodd" d="M150.489 27.2879C150.489 27.9775 149.936 28.3099 149.025 28.3099H146.625V26.242H148.951C150.01 26.242 150.489 26.623 150.489 27.2637V27.2879ZM146.625 22.6716H148.643C149.505 22.6716 149.985 23.0285 149.985 23.6316V23.6567C149.985 24.3578 149.419 24.6655 148.521 24.6655H146.625V22.6716ZM150.675 25.2936C151.314 24.9361 151.868 24.3704 151.868 23.3487V23.3246C151.868 22.7093 151.673 22.2167 151.267 21.798C150.748 21.2934 149.936 21.0103 148.914 21.0103H144.79V29.9713H149.025C151.045 29.9713 152.374 29.1469 152.374 27.5089V27.4847C152.374 26.2783 151.708 25.6757 150.675 25.2936Z" fill="white"/>
<path fill-rule="evenodd" clip-rule="evenodd" d="M156.789 26.2544L158.058 23.214L159.314 26.2544H156.789ZM157.208 20.9492L153.343 29.9714H155.276L156.112 27.9283H159.99L160.827 29.9714H162.809L158.956 20.9492H157.208Z" fill="white"/>
<path fill-rule="evenodd" clip-rule="evenodd" d="M170.389 26.6604L166.069 21.0103H164.332V29.9709H166.192V24.1365L170.648 29.9709H172.261V21.0103H170.389V26.6604Z" fill="white"/>
<path fill-rule="evenodd" clip-rule="evenodd" d="M182.498 21.0103H180.172L176.429 25.0475V21.0103H174.547V29.9709H176.429V27.2641L177.537 26.1188L180.381 29.9709H182.658L178.818 24.8261L182.498 21.0103Z" fill="white"/>
<path fill-rule="evenodd" clip-rule="evenodd" d="M184.06 29.9709H185.956V21.0103H184.06V29.9709Z" fill="white"/>
<path fill-rule="evenodd" clip-rule="evenodd" d="M28.611 26.291C28.4679 25.3829 28.2351 24.5122 27.9116 23.6909C27.0977 23.9464 26.2622 24.1174 25.4112 24.1966L24.2995 24.2993L24.197 25.4114C23.8723 28.9038 22.0363 32.1474 18.9991 34.6363C18.242 34.0149 17.5594 33.3475 16.9562 32.6402C16.0931 33.0243 15.1944 33.3399 14.2643 33.5801C15.3352 34.9954 16.6548 36.2918 18.207 37.423L18.9991 38L19.7918 37.423C23.6083 34.6428 26.0432 30.8808 26.7364 26.7361C27.3708 26.6296 27.9966 26.4779 28.611 26.291ZM20.6405 30.9517C21.1806 30.2093 21.6325 29.428 21.9845 28.6189C21.2289 28.2226 20.5168 27.7528 19.8587 27.2083L18.9994 26.495L18.1399 27.2083C15.4414 29.4489 11.8511 30.4436 7.94369 30.0565C7.84594 29.0816 7.83623 28.1267 7.90893 27.2C7.02793 26.8615 6.16839 26.4491 5.34181 25.961C5.09808 27.7196 5.11427 29.5691 5.41217 31.4665L5.56406 32.4344L6.53252 32.5869C11.1964 33.3202 15.5795 32.3814 18.9994 29.9411C19.5233 30.3147 20.0732 30.6491 20.6405 30.9517ZM30.9523 17.3585C30.2088 16.8183 29.4284 16.3679 28.6189 16.0159C28.2233 16.7706 27.7538 17.4833 27.2074 18.1403L26.4951 18.9996L27.2074 19.8585C29.4485 22.5569 30.444 26.1474 30.0566 30.0565C29.0817 30.1522 28.1265 30.1631 27.2001 30.0892C26.8613 30.9729 26.4486 31.8303 25.9605 32.6581C27.719 32.9022 29.5689 32.8851 31.4663 32.5869L32.4348 32.435L32.5863 31.4663C33.3202 26.8023 32.3818 22.4198 29.9406 18.9996C30.3151 18.475 30.6495 17.9257 30.9523 17.3585ZM37.423 18.2071C34.6431 14.3912 30.8806 11.956 26.7364 11.2633C26.6302 10.6275 26.478 10.0029 26.2914 9.38734C25.3833 9.53096 24.5123 9.76382 23.6907 10.0876C23.9456 10.9021 24.1172 11.7376 24.197 12.588L24.2995 13.6998L25.4115 13.8031C28.9039 14.1278 32.1472 15.9611 34.6357 18.9993C34.0152 19.7573 33.3467 20.4399 32.6402 21.0431C33.0238 21.9067 33.3399 22.806 33.5798 23.7353C34.9951 22.6641 36.2918 21.3445 37.423 19.7914L38 18.9993L37.423 18.2071ZM17.358 7.04773C16.8182 7.79099 16.3681 8.57132 16.0155 9.38058C16.7711 9.7762 17.4834 10.2451 18.1399 10.7914L18.9991 11.5038L19.8587 10.7914C22.5574 8.55077 26.1477 7.55581 30.0566 7.94376C30.1519 8.91783 30.1626 9.87275 30.0892 10.7997C30.9724 11.1377 31.8311 11.5497 32.6582 12.0384C32.9025 10.2798 32.8854 8.43065 32.5863 6.53257L32.4348 5.56411L31.4663 5.4128C26.8018 4.67983 22.4194 5.61798 18.9991 8.05888C18.4755 7.68416 17.9259 7.35004 17.358 7.04773ZM9.38755 11.709C9.53089 12.6162 9.76494 13.4861 10.0875 14.3076C10.9023 14.0545 11.7371 13.882 12.5879 13.8028L13.6994 13.6992L13.8033 12.588C14.1277 9.09558 15.9615 5.85229 18.9991 3.36313C19.7571 3.98424 20.4394 4.65186 21.0429 5.35863C21.9066 4.97508 22.8056 4.65834 23.7354 4.41932C22.6643 3.00312 21.3443 1.7085 19.7918 0.577251L18.9991 0L18.207 0.577251C14.3917 3.35724 11.9562 7.11775 11.2633 11.2636C10.628 11.3699 10.0024 11.5215 9.38755 11.709ZM11.7092 28.6115C12.6161 28.4681 13.4866 28.235 14.3078 27.9118C14.0538 27.0979 13.8819 26.2622 13.8033 25.4117L13.6994 24.2996L12.5873 24.1966C9.09586 23.8728 5.85195 22.0371 3.3634 18.9993C3.98421 18.2425 4.65242 17.5595 5.35918 16.9564C4.97563 16.093 4.65889 15.1943 4.41986 14.2641C3.00368 15.3353 1.7079 16.6549 0.577247 18.2069L0 18.9993L0.577247 19.7914C3.35693 23.6079 7.11831 26.0429 11.2633 26.7361C11.3701 27.371 11.522 27.9966 11.7092 28.6115ZM7.04738 20.6403C7.79091 21.1808 8.57125 21.6321 9.38051 21.9841C9.77641 21.2288 10.2453 20.5167 10.7908 19.8585L11.5043 18.9993L10.7908 18.1403C8.55127 15.4419 7.5551 11.8511 7.94341 7.94348C8.91804 7.8463 9.87296 7.83574 10.7996 7.90935C11.1375 7.02799 11.55 6.16785 12.0389 5.34156C10.2798 5.09783 8.43058 5.11431 6.53252 5.4128L5.56406 5.56381L5.41217 6.53257C4.68009 11.1962 5.61793 15.5796 8.05938 18.9993C7.68466 19.5236 7.34997 20.0725 7.04738 20.6403Z" fill="white"/>
</svg>
