<svg width="46" height="64" viewBox="0 0 46 64" fill="none" xmlns="http://www.w3.org/2000/svg">
<path fill-rule="evenodd" clip-rule="evenodd" d="M22.7392 2.53782C27.8516 2.53782 32.0111 7.22065 32.0111 12.9769C32.0111 18.9109 27.6785 24.1161 22.7392 24.1161C17.8003 24.1161 13.4683 18.9109 13.4683 12.9769C13.4683 7.22065 17.6275 2.53782 22.7392 2.53782ZM22.7392 26.6539C29.1412 26.6539 34.5498 20.3908 34.5498 12.9769C34.5498 5.82137 29.2514 0 22.7392 0C16.2274 0 10.9296 5.82137 10.9296 12.9769C10.9296 20.3908 16.3379 26.6539 22.7392 26.6539Z" fill="white"/>
<path fill-rule="evenodd" clip-rule="evenodd" d="M22.5113 47.924C21.7876 47.1986 21.7891 46.0181 22.515 45.2922C22.8662 44.9413 23.3334 44.7481 23.831 44.7481C24.3287 44.7481 24.7962 44.9413 25.1471 45.2922L28.3006 48.4449L31.4545 45.2925C32.1801 44.5671 33.361 44.5671 34.0863 45.2922C34.4372 45.643 34.6305 46.1103 34.6305 46.6078C34.6305 47.1052 34.4372 47.5723 34.0863 47.9234L28.2918 53.7158L22.5113 47.924ZM45.9833 51.4972C45.9833 46.403 44.3181 41.5851 41.1679 37.5637C41.1168 37.4919 36.5312 31.2595 29.0646 29.5888C28.9608 29.5657 28.8573 29.5401 28.7538 29.5149L28.4775 29.4485C28.4224 29.4357 28.3679 29.4224 28.3122 29.4108C26.6656 29.0402 24.991 28.8525 23.3316 28.8525C23.2805 28.8525 23.2305 28.8543 23.1803 28.8561L23.0373 28.8598L22.8906 28.8561C22.8403 28.8543 22.7904 28.8525 22.7396 28.8525C21.0799 28.8525 19.4053 29.0402 17.762 29.4102C17.703 29.4224 17.6485 29.4357 17.5937 29.4485L17.3091 29.5155C17.2102 29.5383 17.1113 29.5614 17.0133 29.587C11.7411 30.8627 7.13487 34.5099 4.90753 37.5585C1.7528 41.5851 0.087628 46.403 0.087628 51.4972L0.0471476 54.5751L0.0468432 54.7856L0.000285453 59.0866C-0.0182906 60.8416 0.870756 62.4246 2.37949 63.3213C3.86143 64.2018 5.73327 64.227 7.23744 63.3885L24.3856 53.8269C24.4994 53.7633 24.6032 53.6763 24.6936 53.5677L24.8358 53.3979L28.2903 56.8591L35.6577 49.4943C37.2498 47.9024 37.2498 45.3128 35.6577 43.7213C34.0656 42.1303 31.4751 42.1303 29.8833 43.7213L28.3006 45.3031L26.7185 43.7213C25.1261 42.13 22.5345 42.1303 20.9411 43.724C20.0929 44.572 19.664 45.7485 19.7641 46.9516L19.7766 47.1004L10.9002 50.6565L11.3716 45.1723C11.424 44.5619 10.9702 44.0228 10.3596 43.9702C9.7527 43.9212 9.21002 44.3739 9.15737 44.9821L8.58912 51.5915L8.51059 51.6457C8.07961 51.942 7.91465 52.4876 8.10853 52.9716C8.27867 53.3955 8.68347 53.6696 9.14063 53.6696C9.28185 53.6696 9.42094 53.6425 9.55334 53.5896L20.634 49.1501L20.7281 49.26C20.7981 49.3415 20.8644 49.4194 20.9381 49.493L23.3185 51.8781L6.15512 61.4483C5.32147 61.9132 4.33472 61.8992 3.51537 61.412C2.69542 60.9246 2.21239 60.0645 2.22274 59.111L2.27174 54.5967L2.28148 54.5988L2.35453 51.4208C2.35453 47.0605 3.77834 42.904 6.47227 39.4057C6.99364 38.7777 8.2388 37.4198 8.95557 36.7215C11.3534 34.5515 14.2594 32.9603 17.3648 32.1141C19.1432 31.6605 21.0492 31.4195 23.0333 31.3976C25.0217 31.4195 26.9276 31.6605 28.7027 32.1132C31.8118 32.9603 34.7175 34.5515 37.1098 36.7166C37.7989 37.3875 38.5626 38.2127 39.5913 39.3965C42.1175 42.6771 43.6954 47.2823 43.7164 51.4245L43.7471 60.3487C43.7492 60.9675 44.2545 61.4708 44.8735 61.4708C45.1749 61.4708 45.4582 61.3536 45.671 61.1404C45.8837 60.9271 46.0006 60.6438 46 60.3426L45.9833 51.4972Z" fill="white"/>
</svg>
