<svg width="82" height="120" viewBox="0 0 82 120" fill="none" xmlns="http://www.w3.org/2000/svg">
<g opacity="0.2">
<path fill-rule="evenodd" clip-rule="evenodd" d="M49.7746 102.101H1.793C0.802512 102.101 0 101.283 0 100.272V1.82897C0 0.818611 0.802512 0 1.793 0H68.9664C69.442 0 69.8979 0.192763 70.2341 0.535791L79.0077 9.48486C79.344 9.82789 79.533 10.2934 79.533 10.778V62.2377C79.533 63.2476 78.7304 64.0662 77.74 64.0662C76.75 64.0662 75.9474 63.2476 75.9474 62.2377V11.5354L68.2239 3.65795H3.58551V98.4438H49.7746C50.765 98.4438 51.5676 99.2624 51.5676 100.272C51.5676 101.283 50.765 102.101 49.7746 102.101Z" fill="white"/>
<path fill-rule="evenodd" clip-rule="evenodd" d="M20.3559 34.9807C19.8818 34.9807 19.4255 34.7889 19.0882 34.4449L14.7016 29.9703C14.0013 29.2559 14.0013 28.0978 14.7016 27.3835C15.4015 26.6696 16.5373 26.6696 17.2371 27.3835L20.2076 30.414L27.7298 20.8229C28.3483 20.0342 29.4762 19.9062 30.2499 20.5371C31.0227 21.168 31.1482 22.319 30.5297 23.1072L21.7561 34.2946C21.4372 34.7004 20.964 34.9493 20.4551 34.9776C20.4219 34.9796 20.3892 34.9807 20.3559 34.9807Z" fill="white"/>
<path fill-rule="evenodd" clip-rule="evenodd" d="M62.6594 32.7435H40.7262C39.7357 32.7435 38.9332 31.9249 38.9332 30.9145C38.9332 29.9047 39.7357 29.0861 40.7262 29.0861H62.6594C63.6499 29.0861 64.4524 29.9047 64.4524 30.9145C64.4524 31.9249 63.6499 32.7435 62.6594 32.7435Z" fill="white"/>
<path fill-rule="evenodd" clip-rule="evenodd" d="M51.6931 23.7938H40.7262C39.7362 23.7938 38.9332 22.9752 38.9332 21.9648C38.9332 20.955 39.7362 20.1364 40.7262 20.1364H51.6931C52.6835 20.1364 53.4861 20.955 53.4861 21.9648C53.4861 22.9752 52.6835 23.7938 51.6931 23.7938Z" fill="white"/>
<path fill-rule="evenodd" clip-rule="evenodd" d="M47.306 57.3544H40.7262C39.7357 57.3544 38.9332 56.5358 38.9332 55.5259C38.9332 54.5156 39.7357 53.697 40.7262 53.697H47.306C48.2965 53.697 49.099 54.5156 49.099 55.5259C49.099 56.5358 48.2965 57.3544 47.306 57.3544Z" fill="white"/>
<path fill-rule="evenodd" clip-rule="evenodd" d="M20.3559 59.5912C19.8818 59.5912 19.4255 59.3994 19.0882 59.0554L14.7016 54.5813C14.0013 53.8669 14.0013 52.7083 14.7016 51.994C15.4015 51.2801 16.5373 51.2801 17.2371 51.994L20.2076 55.0245L27.7298 45.4334C28.3483 44.6447 29.4762 44.5162 30.2499 45.1476C31.0227 45.7785 31.1482 46.93 30.5297 47.7183L21.7561 58.9051C21.4372 59.3109 20.964 59.5598 20.4551 59.5886C20.4219 59.5901 20.3892 59.5912 20.3559 59.5912Z" fill="white"/>
<path fill-rule="evenodd" clip-rule="evenodd" d="M58.2732 48.4048H40.7266C39.7361 48.4048 38.9336 47.5861 38.9336 46.5758C38.9336 45.5659 39.7361 44.7473 40.7266 44.7473H58.2732C59.2632 44.7473 60.0662 45.5659 60.0662 46.5758C60.0662 47.5861 59.2632 48.4048 58.2732 48.4048Z" fill="white"/>
<path fill-rule="evenodd" clip-rule="evenodd" d="M20.3559 84.2027C19.8818 84.2027 19.4255 84.0109 19.0882 83.6669L14.7016 79.1923C14.0013 78.4784 14.0013 77.3198 14.7016 76.6055C15.4015 75.8916 16.5373 75.8916 17.2371 76.6055L20.2076 79.6355L27.7298 70.0444C28.3483 69.2557 29.4762 69.1277 30.2499 69.7586C31.0227 70.3895 31.1482 71.541 30.5297 72.3293L21.7561 83.5161C21.4372 83.9219 20.964 84.1713 20.4551 84.1996C20.4219 84.2016 20.3892 84.2027 20.3559 84.2027Z" fill="white"/>
<path fill-rule="evenodd" clip-rule="evenodd" d="M64.854 66.3034C57.377 66.3034 51.2932 72.5088 51.2932 80.1364C51.2932 87.7634 57.377 93.9688 64.854 93.9688C72.3311 93.9688 78.4139 87.7634 78.4139 80.1364C78.4139 72.5088 72.3311 66.3034 64.854 66.3034ZM64.854 97.6267C55.3995 97.6267 47.7076 89.7801 47.7076 80.1364C47.7076 70.4916 55.3995 62.646 64.854 62.646C74.3086 62.646 81.9999 70.4916 81.9999 80.1364C81.9999 89.7801 74.3086 97.6267 64.854 97.6267Z" fill="white"/>
<path fill-rule="evenodd" clip-rule="evenodd" d="M56.08 120C55.8489 120 55.6162 119.954 55.3945 119.861C54.7244 119.578 54.2875 118.911 54.2875 118.172V93.5601H57.8735V113.756L63.5863 107.929C63.9226 107.586 64.3784 107.393 64.854 107.393C65.3292 107.393 65.7855 107.586 66.1218 107.929L71.8341 113.756V93.5601H75.4201V118.172C75.4201 118.911 74.9831 119.578 74.3131 119.861C73.6435 120.144 72.8717 119.988 72.3594 119.464L64.854 111.808L57.3482 119.464C57.005 119.814 56.5462 120 56.08 120Z" fill="white"/>
</g>
</svg>
