<svg width="150" height="30" viewBox="0 0 150 30" fill="none" xmlns="http://www.w3.org/2000/svg">
<path fill-rule="evenodd" clip-rule="evenodd" d="M20.7824 14.9065L21.3382 15.5743C23.083 17.672 23.8605 20.4648 23.563 23.5053C22.8048 23.5813 22.0612 23.5903 21.3405 23.5339C21.0783 24.221 20.7581 24.8885 20.3789 25.5329C21.7468 25.7212 23.1863 25.7065 24.6618 25.4729L25.415 25.3534L25.5325 24.6C26.0986 20.9709 25.3646 17.5626 23.4627 14.9033L20.7824 14.9065Z" fill="#0056C1"/>
<path fill-rule="evenodd" clip-rule="evenodd" d="M9.12372 14.9196L8.5686 14.2521C6.82356 12.1546 6.04517 9.36274 6.34379 6.32198C7.10204 6.24549 7.84517 6.23633 8.56608 6.29289C8.82853 5.60656 9.14799 4.93786 9.52769 4.29435C8.15937 4.1061 6.72028 4.12099 5.24387 4.3548L4.49066 4.47274L4.37341 5.22641C3.80799 8.85526 4.54196 12.265 6.44341 14.9226L9.12372 14.9196Z" fill="#0056C1"/>
<path fill-rule="evenodd" clip-rule="evenodd" d="M14.9446 9.08209L15.6129 8.52743C17.7101 6.7817 20.5026 6.00468 23.5439 6.30239C23.6194 7.06086 23.6284 7.80331 23.5725 8.52445C24.2595 8.78689 24.9273 9.10682 25.5717 9.48605C25.7597 8.11819 25.7448 6.67934 25.511 5.20224L25.3917 4.44949L24.6383 4.33293C21.0087 3.76659 17.6009 4.5001 14.9414 6.40224L14.9446 9.08209Z" fill="#0056C1"/>
<path fill-rule="evenodd" clip-rule="evenodd" d="M8.92578 8.90152L10.8231 10.7945L10.9028 9.92976C11.1522 7.21327 12.5759 4.68823 14.9372 2.74922C15.5276 3.23151 16.0591 3.75045 16.5288 4.29984C17.2005 4.00075 17.8994 3.75365 18.6227 3.56678C17.7879 2.46594 16.7601 1.45945 15.5512 0.580751L14.9343 0.132812L14.3187 0.582125C11.3526 2.74808 9.46097 5.67663 8.92578 8.90152Z" fill="#0056C1"/>
<path fill-rule="evenodd" clip-rule="evenodd" d="M10.8338 19.0408L9.96905 18.962C7.25233 18.7126 4.72684 17.288 2.78829 14.9271C3.27058 14.3372 3.78974 13.8057 4.33959 13.3358C4.03981 12.6648 3.79272 11.9659 3.60584 11.2422C2.50501 12.0769 1.49852 13.1042 0.619814 14.313L0.171875 14.9301L0.621417 15.5452C2.78783 18.5123 5.71546 20.4034 8.94127 20.9388L10.8338 19.0408Z" fill="#0056C1"/>
<path fill-rule="evenodd" clip-rule="evenodd" d="M29.2843 14.2804C27.1183 11.3145 24.1886 9.42312 20.964 8.8877L19.0703 10.785L19.936 10.8649C22.6527 11.1141 25.1773 12.5381 27.1163 14.8994C26.6344 15.4895 26.115 16.0213 25.5657 16.4912C25.8652 17.1627 26.1114 17.8611 26.2987 18.5848C27.3996 17.7496 28.4072 16.7223 29.2857 15.5127L29.7336 14.8964L29.2843 14.2804Z" fill="#0056C1"/>
<path fill-rule="evenodd" clip-rule="evenodd" d="M19.0799 19.0322L19.0011 19.8974C18.7522 22.615 17.3268 25.1394 14.966 27.0786C14.3763 26.5959 13.8443 26.077 13.3751 25.5276C12.7038 25.8273 12.0051 26.0731 11.2812 26.2606C12.116 27.361 13.1433 28.3691 14.3522 29.2471L14.969 29.6955L15.5848 29.246C18.5513 27.08 20.4425 24.1508 20.9779 20.9261L19.0799 19.0322Z" fill="#0056C1"/>
<path fill-rule="evenodd" clip-rule="evenodd" d="M14.9583 20.7443L14.2901 21.3004C12.1928 23.0449 9.40101 23.8229 6.36025 23.5249C6.28376 22.7669 6.27506 22.0236 6.33162 21.3031C5.64551 21.04 4.97613 20.7198 4.33284 20.3408C4.14437 21.7094 4.1588 23.1487 4.39239 24.6239L4.51124 25.3772L5.26468 25.4949C8.89422 26.0612 12.3032 25.3268 14.9613 23.4253L14.9583 20.7443Z" fill="#0056C1"/>
<path fill-rule="evenodd" clip-rule="evenodd" d="M38.4952 17.011H42.9026L41.2483 11.5368C41.1963 11.3708 41.1262 11.1044 41.0374 10.7378C40.9485 10.3714 40.8336 9.89343 40.6932 9.30419C40.597 9.71206 40.5026 10.1014 40.4101 10.4714C40.3176 10.842 40.223 11.1969 40.1271 11.5368L38.4952 17.011ZM32.2891 23.2107L37.8956 6.61816H43.4465L49.0639 23.2107H44.6566L43.8352 20.2411H37.5404L36.6965 23.2107H32.2891Z" fill="#0056C1"/>
<path fill-rule="evenodd" clip-rule="evenodd" d="M54.1585 19.8209H55.713C56.7635 19.8209 57.5075 19.6889 57.9442 19.4244C58.3809 19.1524 58.5992 18.7028 58.5992 18.0756C58.5992 17.3805 58.3995 16.8967 57.9996 16.6251C57.6076 16.3454 56.8674 16.2055 55.7794 16.2055H54.1585V19.8209ZM54.1585 13.2474H55.0466C56.1346 13.2474 56.8857 13.1267 57.3002 12.8847C57.7072 12.6355 57.9108 12.2086 57.9108 11.6041C57.9108 10.977 57.7184 10.5385 57.3337 10.2893C56.9636 10.0324 56.2235 9.90391 55.1132 9.90391H54.1585V13.2474ZM50.0508 23.2099V6.61719H54.5027C55.4279 6.61719 56.2086 6.6323 56.845 6.66253C57.4816 6.69276 57.9811 6.73833 58.3438 6.79856C59.0913 6.92703 59.7206 7.13474 60.2311 7.42169C60.8309 7.76177 61.2875 8.2152 61.6022 8.78177C61.9168 9.34856 62.0741 10.0099 62.0741 10.7654C62.0741 11.7099 61.8392 12.4596 61.369 13.0152C60.8991 13.5703 60.1496 13.9917 59.1211 14.2789C60.2682 14.3696 61.1709 14.7852 61.83 15.5254C62.4811 16.2584 62.807 17.2409 62.807 18.4722C62.807 19.364 62.6254 20.144 62.2628 20.8127C61.9001 21.4814 61.3745 22.001 60.6864 22.3711C60.1312 22.6734 59.4467 22.8886 58.6326 23.0171C58.2254 23.0778 57.6907 23.125 57.0284 23.1589C56.3659 23.1928 55.5685 23.2099 54.636 23.2099H50.0508Z" fill="#0056C1"/>
<path fill-rule="evenodd" clip-rule="evenodd" d="M68.1624 19.8209H69.7169C70.7674 19.8209 71.5114 19.6889 71.9481 19.4244C72.3848 19.1524 72.6031 18.7028 72.6031 18.0756C72.6031 17.3805 72.4034 16.8967 72.0038 16.6251C71.6115 16.3454 70.8713 16.2055 69.7833 16.2055H68.1624V19.8209ZM68.1624 13.2474H69.0505C70.1385 13.2474 70.8896 13.1267 71.3041 12.8847C71.7111 12.6355 71.9147 12.2086 71.9147 11.6041C71.9147 10.977 71.7223 10.5385 71.3376 10.2893C70.9675 10.0324 70.2276 9.90391 69.1171 9.90391H68.1624V13.2474ZM64.0547 23.2099V6.61719H68.5066C69.4318 6.61719 70.2125 6.6323 70.8491 6.66253C71.4855 6.69276 71.985 6.73833 72.348 6.79856C73.0952 6.92703 73.7245 7.13474 74.2352 7.42169C74.8348 7.76177 75.2914 8.2152 75.6061 8.78177C75.9207 9.34856 76.078 10.0099 76.078 10.7654C76.078 11.7099 75.8429 12.4596 75.3729 13.0152C74.903 13.5703 74.1535 13.9917 73.125 14.2789C74.2721 14.3696 75.1748 14.7852 75.8339 15.5254C76.485 16.2584 76.8109 17.2409 76.8109 18.4722C76.8109 19.364 76.6295 20.144 76.2667 20.8127C75.904 21.4814 75.3787 22.001 74.6903 22.3711C74.1351 22.6734 73.4506 22.8886 72.6365 23.0171C72.2293 23.0778 71.6946 23.125 71.0323 23.1589C70.3698 23.1928 69.5724 23.2099 68.6399 23.2099H64.0547Z" fill="#0056C1"/>
<path fill-rule="evenodd" clip-rule="evenodd" d="M82.4219 23.0337H85.4333V6.45605H82.4219V23.0337Z" fill="#008DD5"/>
<path fill-rule="evenodd" clip-rule="evenodd" d="M92.4107 12.5362C93.1145 10.5942 94.6062 9.72168 96.5764 9.72168C98.659 9.72168 100.489 10.9038 100.489 13.7747V23.0344H97.5334V14.7596C97.5334 13.212 96.9142 12.2266 95.4224 12.2266C93.987 12.2266 92.6077 13.0148 92.6077 15.6885V23.0344H89.6523V10.0313H92.0448L92.4107 12.5362Z" fill="#008DD5"/>
<path fill-rule="evenodd" clip-rule="evenodd" d="M102.32 10.0312H105.501L107.583 16.7581C108.315 19.1222 108.54 20.9233 108.54 20.9233H108.653C108.653 20.9233 108.878 19.1222 109.61 16.7861L111.693 10.0312H114.76L110.201 23.0343H106.851L102.32 10.0312Z" fill="#008DD5"/>
<path fill-rule="evenodd" clip-rule="evenodd" d="M124.358 15.1819C124.387 15.0131 124.387 14.8441 124.387 14.6751C124.387 13.1834 123.43 11.9733 121.825 11.9733C120.108 11.9733 119.011 13.1834 118.814 15.1819H124.358ZM124.612 19.0661L127.173 19.826C126.582 22.4717 124.358 23.3721 121.854 23.3721C118.307 23.3721 115.887 20.9513 115.887 16.6737C115.887 12.2829 118.223 9.72168 121.966 9.72168C125.428 9.72168 127.229 12.0578 127.229 15.3502C127.229 16.0263 127.117 16.6737 127.004 17.0955H118.729C118.842 19.4598 119.94 21.0642 121.966 21.0642C123.261 21.0642 124.19 20.5579 124.612 19.0661Z" fill="#008DD5"/>
<path fill-rule="evenodd" clip-rule="evenodd" d="M131.533 19.2067C131.758 20.6703 132.8 21.2895 134.264 21.2895C135.587 21.2895 136.572 20.783 136.572 19.7414C136.572 18.7844 136.093 18.2776 134.658 17.9401L132.744 17.4898C130.408 16.8986 129.479 15.6601 129.479 13.7465C129.479 10.6787 131.956 9.72168 134.489 9.72168C137.359 9.72168 139.105 10.7627 139.33 13.2958L136.515 13.634C136.403 12.4235 135.671 11.9167 134.32 11.9167C133.082 11.9167 132.322 12.4798 132.322 13.4369C132.322 14.2815 132.687 14.7876 133.926 15.0692L135.727 15.4634C138.148 16.026 139.443 17.2082 139.443 19.4882C139.443 22.3027 137.163 23.3719 134.208 23.3719C131.168 23.3719 129.422 22.4717 129 20.079L131.533 19.2067Z" fill="#008DD5"/>
<path fill-rule="evenodd" clip-rule="evenodd" d="M149.888 22.5834C148.959 23.1182 147.777 23.3712 146.454 23.3712C144.034 23.3712 142.542 22.1332 142.542 19.5436V12.3383H140.656V10.0306H142.542V7.27198L145.525 6.90625V10.0306H149.381V12.3383H145.497V18.9241C145.497 20.3034 146.088 20.8666 147.158 20.8666C148.002 20.8666 148.622 20.613 149.353 20.1065L149.888 22.5834Z" fill="#008DD5"/>
</svg>
