<svg width="202" height="40" viewBox="0 0 202 40" fill="none" xmlns="http://www.w3.org/2000/svg">
<path fill-rule="evenodd" clip-rule="evenodd" d="M27.9887 19.85L28.7372 20.7472C31.0869 23.5657 32.1339 27.318 31.7333 31.4032C30.7122 31.5054 29.7108 31.5174 28.7403 31.4417C28.3872 32.3648 27.956 33.2617 27.4453 34.1276C29.2874 34.3805 31.2259 34.3608 33.213 34.0469L34.2273 33.8863L34.3855 32.874C35.1478 27.998 34.1594 23.4186 31.5982 19.8457L27.9887 19.85Z" fill="white"/>
<path fill-rule="evenodd" clip-rule="evenodd" d="M12.2842 19.8667L11.5366 18.9698C9.18661 16.1517 8.13837 12.4006 8.54052 8.31503C9.56163 8.21227 10.5624 8.19996 11.5332 8.27596C11.8866 7.3538 12.3168 6.45534 12.8282 5.59073C10.9855 5.3378 9.04753 5.3578 7.05929 5.67196L6.04498 5.83042L5.88708 6.84303C5.12565 11.7187 6.11406 16.3 8.67468 19.8707L12.2842 19.8667Z" fill="white"/>
<path fill-rule="evenodd" clip-rule="evenodd" d="M20.1254 12.024L21.0253 11.2788C23.8496 8.93323 27.6102 7.88923 31.7057 8.28923C31.8075 9.30831 31.8195 10.3058 31.7443 11.2748C32.6695 11.6274 33.5687 12.0572 34.4366 12.5668C34.6898 10.7289 34.6697 8.7957 34.3548 6.81108L34.1942 5.79969L33.1795 5.64308C28.2918 4.88216 23.7025 5.86769 20.1211 8.42339L20.1254 12.024Z" fill="white"/>
<path fill-rule="evenodd" clip-rule="evenodd" d="M12.0234 11.7815L14.5785 14.3249L14.6858 13.1631C15.0217 9.51323 16.939 6.12062 20.1189 3.51538C20.9139 4.16338 21.6297 4.86061 22.2622 5.59877C23.1667 5.19692 24.108 4.86492 25.0819 4.61385C23.9578 3.13477 22.5737 1.78246 20.9457 0.601846L20.1148 0L19.2859 0.603692C15.2915 3.51385 12.7442 7.44862 12.0234 11.7815Z" fill="white"/>
<path fill-rule="evenodd" clip-rule="evenodd" d="M14.5885 25.4049L13.424 25.2991C9.76549 24.964 6.36449 23.0498 3.75391 19.8778C4.40339 19.0852 5.10253 18.3711 5.84299 17.7397C5.43929 16.8381 5.10653 15.8991 4.85488 14.9268C3.37242 16.0483 2.01701 17.4286 0.833693 19.0526L0.230469 19.8818L0.835852 20.7083C3.75329 24.6948 7.69584 27.2357 12.0399 27.9551L14.5885 25.4049Z" fill="white"/>
<path fill-rule="evenodd" clip-rule="evenodd" d="M39.4345 19.0092C36.5177 15.0243 32.5724 12.4831 28.2298 11.7637L25.6797 14.3129L26.8454 14.4203C30.5039 14.7551 33.9037 16.6683 36.5149 19.8409C35.866 20.6338 35.1666 21.3483 34.4268 21.9797C34.8301 22.8818 35.1617 23.8203 35.4139 24.7926C36.8964 23.6704 38.2533 22.2901 39.4364 20.6649L40.0396 19.8369L39.4345 19.0092Z" fill="white"/>
<path fill-rule="evenodd" clip-rule="evenodd" d="M25.6936 25.3916L25.5875 26.5541C25.2522 30.2054 23.3328 33.5971 20.1535 36.2027C19.3594 35.5541 18.643 34.8568 18.0111 34.1187C17.1072 34.5214 16.1662 34.8516 15.1914 35.1036C16.3155 36.5821 17.699 37.9365 19.327 39.1162L20.1575 39.7187L20.9868 39.1147C24.9818 36.2045 27.5285 32.2688 28.2496 27.9362L25.6936 25.3916Z" fill="white"/>
<path fill-rule="evenodd" clip-rule="evenodd" d="M20.1438 27.6935L19.2439 28.4406C16.4196 30.7846 12.66 31.8298 8.56508 31.4295C8.46208 30.4111 8.45036 29.4123 8.52653 28.4443C7.60257 28.0908 6.70113 27.6606 5.83484 27.1514C5.58103 28.9901 5.60046 30.924 5.91503 32.9061L6.07508 33.9181L7.08971 34.0763C11.9775 34.8372 16.5683 33.8504 20.1478 31.2957L20.1438 27.6935Z" fill="white"/>
<path fill-rule="evenodd" clip-rule="evenodd" d="M51.838 22.6766H57.7734L55.5456 15.3215C55.4756 15.0984 55.3812 14.7406 55.2615 14.248C55.1419 13.7557 54.9871 13.1135 54.798 12.3218C54.6685 12.8698 54.5414 13.3929 54.4168 13.8901C54.2922 14.388 54.1649 14.8649 54.0357 15.3215L51.838 22.6766ZM43.4805 31.0064L51.0306 8.71289H58.5059L66.0705 31.0064H60.1354L59.0292 27.0166H50.5523L49.4159 31.0064H43.4805Z" fill="white"/>
<path fill-rule="evenodd" clip-rule="evenodd" d="M72.9302 26.4532H75.0235C76.4382 26.4532 77.4401 26.276 78.0283 25.9206C78.6164 25.555 78.9103 24.951 78.9103 24.1083C78.9103 23.1744 78.6414 22.5243 78.1029 22.1594C77.5749 21.7837 76.5782 21.5957 75.113 21.5957H72.9302V26.4532ZM72.9302 17.6212H74.1261C75.5913 17.6212 76.6028 17.459 77.161 17.1338C77.7091 16.799 77.9832 16.2255 77.9832 15.4132C77.9832 14.5707 77.7242 13.9815 77.2061 13.6467C76.7077 13.3015 75.711 13.1289 74.2159 13.1289H72.9302V17.6212ZM67.3984 31.0067V8.71289H73.3937C74.6396 8.71289 75.6909 8.7332 76.548 8.77381C77.4053 8.81443 78.0779 8.87566 78.5664 8.95658C79.573 9.1292 80.4205 9.40827 81.1079 9.79381C81.9156 10.2507 82.5306 10.86 82.9543 11.6212C83.378 12.3827 83.5899 13.2714 83.5899 14.2864C83.5899 15.5554 83.2735 16.5627 82.6403 17.3092C82.0075 18.055 80.9981 18.6212 79.6131 19.007C81.1579 19.1289 82.3736 19.6874 83.2611 20.6818C84.1379 21.6667 84.5768 22.9867 84.5768 24.6412C84.5768 25.8394 84.3322 26.8874 83.844 27.7858C83.3555 28.6843 82.6477 29.3824 81.721 29.8797C80.9734 30.2858 80.0517 30.575 78.9553 30.7477C78.407 30.8292 77.6869 30.8926 76.795 30.9381C75.9028 30.9837 74.829 31.0067 73.5732 31.0067H67.3984Z" fill="white"/>
<path fill-rule="evenodd" clip-rule="evenodd" d="M91.7934 26.4532H93.8868C95.3015 26.4532 96.3034 26.276 96.8916 25.9206C97.4797 25.555 97.7736 24.951 97.7736 24.1083C97.7736 23.1744 97.5047 22.5243 96.9665 22.1594C96.4382 21.7837 95.4415 21.5957 93.9763 21.5957H91.7934V26.4532ZM91.7934 17.6212H92.9894C94.4546 17.6212 95.4661 17.459 96.0243 17.1338C96.5724 16.799 96.8465 16.2255 96.8465 15.4132C96.8465 14.5707 96.5875 13.9815 96.0694 13.6467C95.571 13.3015 94.5746 13.1289 93.0791 13.1289H91.7934V17.6212ZM86.2617 31.0067V8.71289H92.257C93.5029 8.71289 94.5542 8.7332 95.4116 8.77381C96.2686 8.81443 96.9412 8.87566 97.43 8.95658C98.4363 9.1292 99.2838 9.40827 99.9715 9.79381C100.779 10.2507 101.394 10.86 101.818 11.6212C102.241 12.3827 102.453 13.2714 102.453 14.2864C102.453 15.5554 102.136 16.5627 101.504 17.3092C100.871 18.055 99.8614 18.6212 98.4764 19.007C100.021 19.1289 101.237 19.6874 102.124 20.6818C103.001 21.6667 103.44 22.9867 103.44 24.6412C103.44 25.8394 103.196 26.8874 102.707 27.7858C102.219 28.6843 101.511 29.3824 100.584 29.8797C99.8368 30.2858 98.915 30.575 97.8186 30.7477C97.2703 30.8292 96.5502 30.8926 95.6583 30.9381C94.7661 30.9837 93.6922 31.0067 92.4365 31.0067H86.2617Z" fill="white"/>
<path fill-rule="evenodd" clip-rule="evenodd" d="M110.992 30.7696H115.048V8.49609H110.992V30.7696Z" fill="white"/>
<path fill-rule="evenodd" clip-rule="evenodd" d="M124.445 16.6644C125.393 14.0551 127.402 12.8828 130.055 12.8828C132.859 12.8828 135.323 14.4711 135.323 18.3283V30.7696H131.344V19.6517C131.344 17.5723 130.51 16.2483 128.501 16.2483C126.568 16.2483 124.71 17.3074 124.71 20.8997V30.7696H120.73V13.2988H123.952L124.445 16.6644Z" fill="white"/>
<path fill-rule="evenodd" clip-rule="evenodd" d="M137.789 13.2988H142.072L144.876 22.337C145.862 25.5133 146.165 27.9333 146.165 27.9333H146.317C146.317 27.9333 146.62 25.5133 147.605 22.3745L150.411 13.2988H154.542L148.402 30.7696H143.891L137.789 13.2988Z" fill="white"/>
<path fill-rule="evenodd" clip-rule="evenodd" d="M167.467 20.2191C167.506 19.9924 167.506 19.7653 167.506 19.5382C167.506 17.5339 166.217 15.908 164.056 15.908C161.744 15.908 160.266 17.5339 160.001 20.2191H167.467ZM167.809 25.4379L171.258 26.4588C170.462 30.0136 167.467 31.2234 164.094 31.2234C159.318 31.2234 156.059 27.9708 156.059 22.2234C156.059 16.324 159.204 12.8828 164.246 12.8828C168.908 12.8828 171.333 16.0216 171.333 20.4453C171.333 21.3536 171.182 22.2234 171.03 22.7902H159.887C160.038 25.9668 161.517 28.1225 164.246 28.1225C165.989 28.1225 167.24 27.4422 167.809 25.4379Z" fill="white"/>
<path fill-rule="evenodd" clip-rule="evenodd" d="M177.134 25.6268C177.437 27.5933 178.84 28.4253 180.811 28.4253C182.593 28.4253 183.919 27.7447 183.919 26.3453C183.919 25.0594 183.274 24.3785 181.342 23.925L178.764 23.32C175.619 22.5256 174.368 20.8616 174.368 18.2905C174.368 14.1687 177.703 12.8828 181.114 12.8828C184.98 12.8828 187.331 14.2816 187.634 17.685L183.843 18.1394C183.692 16.513 182.706 15.832 180.887 15.832C179.219 15.832 178.196 16.5887 178.196 17.8745C178.196 19.0093 178.688 19.6893 180.356 20.0677L182.782 20.5973C186.042 21.3533 187.785 22.9416 187.785 26.005C187.785 29.7865 184.715 31.2231 180.736 31.2231C176.642 31.2231 174.291 30.0136 173.723 26.7988L177.134 25.6268Z" fill="white"/>
<path fill-rule="evenodd" clip-rule="evenodd" d="M201.846 30.1653C200.595 30.8837 199.003 31.2237 197.222 31.2237C193.963 31.2237 191.953 29.5603 191.953 26.0809V16.4H189.414V13.2994H191.953V9.59295L195.971 9.10156V13.2994H201.164V16.4H195.933V25.2486C195.933 27.1019 196.729 27.8585 198.169 27.8585C199.307 27.8585 200.141 27.5179 201.126 26.8373L201.846 30.1653Z" fill="white"/>
</svg>
