<svg viewBox="0 0 755 755" fill="white" xmlns="http://www.w3.org/2000/svg" preserveAspectRatio="xMidYMid meet">
<path id="ibar-logo-paint" style="transition: 400ms ease all" stroke="#ECECEC" fill-rule="evenodd" clip-rule="evenodd" d="M232.639 568.455C250.682 565.612 267.982 560.986 284.299 554.559C279.223 538.388 275.825 521.789 274.252 504.881L272.211 482.792L250.115 480.756C180.727 474.305 116.281 437.827 66.8315 377.482C79.1785 362.441 92.4371 348.877 106.491 336.894C98.8589 319.745 92.5895 301.89 87.8163 283.409C59.6967 304.686 33.9386 330.905 11.4634 361.744L-1.65003e-05 377.482L11.4634 393.232C66.7029 469.059 141.448 517.438 223.796 531.211C225.913 543.815 228.926 556.249 232.639 568.455ZM140.038 410.094C154.789 420.826 170.311 429.803 186.389 436.798C194.261 421.785 203.596 407.637 214.414 394.56L228.586 377.489L214.414 360.41C169.896 306.797 150.133 235.462 157.824 157.829C177.194 155.886 196.167 155.694 214.579 157.138C221.304 139.634 229.499 122.556 239.195 106.133C204.255 101.291 167.509 101.612 129.81 107.531L110.58 110.549L107.55 129.791C92.981 222.455 111.632 309.54 160.117 377.489C152.695 387.898 146.051 398.823 140.038 410.094ZM410.115 614.974C420.847 600.201 429.795 584.696 436.79 568.613C421.795 560.752 407.634 551.424 394.581 540.569L377.508 526.415L360.443 540.569C306.829 585.094 235.493 604.874 157.824 597.177C155.923 577.807 155.708 558.829 157.174 540.423C139.618 533.691 122.581 525.491 106.135 515.795C101.286 550.733 101.626 587.486 107.55 625.186L110.567 644.427L129.815 647.439C222.48 662.02 309.554 643.375 377.508 594.873C387.932 602.312 398.844 608.956 410.115 614.974ZM393.253 743.537C469.069 688.303 517.453 613.548 531.215 531.211C543.849 529.1 556.259 526.077 568.488 522.368C565.635 504.326 561.008 487.02 554.575 470.696C538.392 475.762 521.793 479.171 504.896 480.756L482.807 482.792L480.753 504.887C474.302 574.274 437.878 638.713 377.514 688.157C362.454 675.828 348.891 662.546 336.908 648.51C319.748 656.13 301.881 662.412 283.417 667.178C304.7 695.298 330.919 721.061 361.776 743.537L377.514 755L393.253 743.537ZM614.973 344.877C600.205 334.15 584.701 325.208 568.623 318.202C560.762 333.215 551.446 347.369 540.591 360.41L526.438 377.482L540.591 394.56C585.11 448.179 604.878 519.514 597.17 597.177C577.817 599.072 558.844 599.283 540.428 597.826C533.712 615.373 525.525 632.433 515.816 648.867C550.756 653.721 587.496 653.381 625.208 647.439L644.45 644.427L647.456 625.186C662.019 532.51 643.38 445.437 594.883 377.482C602.328 367.078 608.966 356.159 614.973 344.877ZM522.361 186.516C504.336 189.364 487.053 194.014 470.73 200.423C475.759 216.612 479.186 233.199 480.76 250.101L482.818 272.186L504.896 274.25C574.285 280.695 638.724 317.131 688.18 377.482C675.839 392.543 662.575 406.099 648.532 418.088C656.153 435.249 662.446 453.11 667.195 471.586C695.333 450.303 721.055 424.078 743.531 393.232L755 377.482L743.531 361.744C688.297 285.941 613.581 237.551 531.21 223.783C529.098 211.162 526.087 198.733 522.361 186.516ZM186.535 232.643C189.383 250.663 194.015 267.956 200.437 284.274C216.608 279.227 233.213 275.811 250.109 274.25L272.205 272.186L274.252 250.09C280.685 180.72 317.157 116.269 377.514 66.8255C392.551 79.1599 406.12 92.4362 418.104 106.478C435.258 98.8579 453.113 92.5648 471.595 87.8157C450.311 59.6784 424.093 33.9332 393.259 11.469L377.514 -1.65004e-05L361.776 11.469C285.949 66.6968 237.569 141.43 223.796 223.783C211.18 225.906 198.752 228.923 186.535 232.643ZM344.909 140.02C334.171 154.793 325.205 170.297 318.21 186.376C333.218 194.242 347.366 203.558 360.443 214.396L377.514 228.572L394.581 214.396C448.195 169.9 519.536 150.108 597.176 157.823C599.106 177.187 599.316 196.16 597.854 214.571C615.365 221.285 632.455 229.479 648.872 239.194C653.714 204.243 653.387 167.502 647.456 129.791L644.456 110.549L625.208 107.531C532.549 92.9859 445.457 111.619 377.514 160.127C367.098 152.682 356.191 146.032 344.909 140.02Z"/>
</svg>
