<svg width="383" height="326" viewBox="0 0 383 326" fill="none" xmlns="http://www.w3.org/2000/svg">
<path fill-rule="evenodd" clip-rule="evenodd" d="M399.801 367.382C397.802 354.692 394.548 342.525 390.027 331.049C378.654 334.619 366.98 337.009 355.089 338.115L339.553 339.551L338.121 355.091C333.584 403.892 307.929 449.218 265.487 483.997C254.909 475.313 245.369 465.988 236.941 456.103C224.88 461.471 212.322 465.881 199.325 469.238C214.289 489.015 232.729 507.131 254.419 522.938L265.487 531L276.564 522.938C329.895 484.087 363.92 431.518 373.607 373.602C382.471 372.113 391.216 369.994 399.801 367.382ZM288.423 432.509C295.972 422.135 302.285 411.218 307.205 399.911C296.646 394.374 286.696 387.809 277.499 380.2L265.492 370.233L253.481 380.2C215.774 411.51 165.603 425.41 111.003 420C109.637 406.377 109.501 393.033 110.517 380.084C98.2061 375.354 86.1951 369.591 74.6447 362.771C71.239 387.345 71.4652 413.189 75.628 439.703L77.7504 453.228L91.2833 455.359C156.455 465.605 217.703 452.488 265.492 418.388C272.813 423.608 280.497 428.281 288.423 432.509ZM432.518 242.562C422.128 235.014 411.223 228.72 399.912 223.801C394.384 234.347 387.823 244.306 380.188 253.487L370.234 265.494L380.188 277.497C411.503 315.204 425.415 365.375 420.001 420C406.378 421.338 393.03 421.489 380.086 420.458C375.351 432.805 369.584 444.787 362.764 456.354C387.337 459.764 413.186 459.525 439.7 455.359L453.233 453.237L455.351 439.699C465.606 374.527 452.493 313.287 418.381 265.494C423.613 258.163 428.286 250.488 432.518 242.562ZM522.938 254.421C484.091 201.099 431.515 167.069 373.607 157.39C372.122 148.505 369.996 139.777 367.387 131.176C354.698 133.183 342.526 136.437 331.046 140.961C334.609 152.343 337.006 164.017 338.121 175.901L339.553 191.436L355.092 192.881C403.893 197.418 449.214 223.036 483.989 265.49C475.318 276.082 465.976 285.621 456.104 294.049C461.464 306.118 465.882 318.684 469.234 331.669C489.011 316.701 507.131 298.261 522.938 276.559L531 265.49L522.938 254.421ZM242.556 98.4828C235.012 108.869 228.722 119.773 223.795 131.081C234.354 136.61 244.308 143.162 253.481 150.796L265.487 160.75L277.499 150.796C315.209 119.486 365.38 105.582 420.001 111.004C421.334 124.615 421.482 137.959 420.458 150.911C432.798 155.634 444.797 161.393 456.355 168.221C459.769 143.647 459.53 117.807 455.351 91.2841L453.233 77.7511L439.7 75.6368C374.52 65.3945 313.281 78.5038 265.487 112.612C258.17 107.376 250.49 102.707 242.556 98.4828ZM131.179 163.618C133.182 176.295 136.452 188.45 140.96 199.93C152.346 196.393 164.011 193.983 175.899 192.876L191.431 191.428L192.883 175.901C197.416 127.099 223.042 81.778 265.487 46.9954C276.08 55.6746 285.614 65.0036 294.046 74.8799C306.116 69.5202 318.678 65.0942 331.671 61.7541C316.703 41.9646 298.259 23.8741 276.564 8.06632L265.487 0L254.419 8.06632C201.105 46.9131 167.072 99.4612 157.389 157.394C148.513 158.879 139.771 160.997 131.179 163.618ZM163.621 399.808C176.294 397.805 188.457 394.547 199.933 390.03C196.383 378.657 193.981 366.979 192.883 355.095L191.431 339.555L175.891 338.115C127.103 333.591 81.7733 307.94 46.9991 265.49C55.6741 254.914 65.0114 245.371 74.8875 236.943C69.5279 224.878 65.1019 212.32 61.7618 199.322C41.9725 214.291 23.8656 232.73 8.06626 254.417L0 265.49L8.06626 276.559C46.9086 329.889 99.4691 363.915 157.389 373.602C158.882 382.474 161.004 391.215 163.621 399.808ZM98.4779 288.421C108.868 295.973 119.772 302.28 131.08 307.199C136.613 296.644 143.164 286.694 150.787 277.497L160.757 265.49L150.787 253.487C119.493 215.78 105.573 165.604 110.999 111C124.618 109.642 137.962 109.494 150.91 110.523C155.632 98.2069 161.395 86.1876 168.228 74.6413C143.646 71.2354 117.806 71.4658 91.2833 75.6368L77.7504 77.7469L75.628 91.2841C65.3981 156.452 78.5032 217.705 112.619 265.49C107.383 272.816 102.706 280.487 98.4779 288.421Z" fill="#F8C84D"/>
</svg>
