<svg width="26" height="26" viewBox="0 0 26 26" fill="none" xmlns="http://www.w3.org/2000/svg">
<path fill-rule="evenodd" clip-rule="evenodd" d="M9.61411 20.2663C9.11195 20.2667 8.62172 20.1133 8.20936 19.8267C7.79701 19.5402 7.48231 19.1342 7.30763 18.6634C7.13294 18.1926 7.10665 17.6796 7.23228 17.1934C7.35791 16.7073 7.62944 16.2712 8.01033 15.944H6.4881C6.20361 16.4213 6.03213 16.9574 5.98677 17.5112C5.9414 18.065 6.02337 18.6218 6.22639 19.139C6.42942 19.6563 6.7481 20.1202 7.15806 20.4953C7.56802 20.8703 8.05837 21.1466 8.59158 21.303C9.12478 21.4593 9.68668 21.4916 10.2343 21.3973C10.7819 21.303 11.3006 21.0846 11.7508 20.7589C12.201 20.4332 12.5707 20.0088 12.8316 19.5182C13.0925 19.0276 13.2376 18.4839 13.2559 17.9285V7.68035C12.8705 7.59874 12.4723 7.59874 12.087 7.68035L12.0737 17.9285C12.0416 18.5592 11.7685 19.1534 11.3107 19.5885C10.853 20.0236 10.2456 20.2662 9.61411 20.2663Z" fill="#C5D9DF"/>
<path fill-rule="evenodd" clip-rule="evenodd" d="M3.93286 11.7444H8.51331C8.85318 8.21058 12.2647 6.3349 15.2413 8.31958C11.4762 4.28259 4.96588 6.7019 3.93286 11.7444Z" fill="#C5D9DF"/>
<path fill-rule="evenodd" clip-rule="evenodd" d="M13.2575 6.30743V6.79682C12.8906 6.59672 12.497 6.45035 12.0885 6.36219V5.94043C12.4926 6.01079 12.8857 6.13418 13.2575 6.30743Z" fill="#C5D9DF"/>
<path fill-rule="evenodd" clip-rule="evenodd" d="M12.0885 3.27637H13.2575V4.35007C12.8678 4.32497 12.4766 4.33404 12.0885 4.37719V3.27637Z" fill="#C5D9DF"/>
<path fill-rule="evenodd" clip-rule="evenodd" d="M7.35791 6.25307C12.6995 2.24355 21.8059 4.92103 22.8525 13.6198H17.9866C17.8915 6.67448 11.6937 4.47267 7.35791 6.25307Z" fill="#1F4A82"/>
<path d="M8.0384 15.4959H7.25016L6.91046 14.8027H5.14326L4.80356 15.4959H4.00159L5.60536 12.397H6.43445L8.0384 15.4959ZM6.54328 14.096C6.41639 13.8766 6.30289 13.6496 6.20341 13.4164C6.12828 13.2691 6.06907 13.1142 6.02677 12.9543C5.87901 13.3477 5.70182 13.7293 5.4967 14.096H6.54328ZM11.8713 14.5581C11.8718 14.685 11.8439 14.8104 11.7898 14.9251C11.7444 15.0352 11.6801 15.1364 11.5996 15.2241C11.5191 15.3072 11.4218 15.3721 11.3141 15.4143C11.2042 15.4685 11.0832 15.4964 10.9607 15.4959H8.17401V12.397H10.9603C11.0784 12.3965 11.195 12.4245 11.3 12.4785C11.4097 12.5304 11.5106 12.5992 11.599 12.6824C11.6853 12.7656 11.7505 12.8681 11.7892 12.9815C11.8434 13.0914 11.8713 13.2124 11.8708 13.3349L11.8713 14.5581ZM11.1781 13.3349C11.1815 13.3042 11.177 13.2731 11.1652 13.2446C11.1533 13.2161 11.1344 13.1911 11.1102 13.1718C11.0928 13.1491 11.07 13.1309 11.0439 13.1191C11.0179 13.1072 10.9893 13.102 10.9607 13.1039H8.85376V14.8027H10.9605C11.0173 14.8004 11.0709 14.776 11.11 14.7348C11.1335 14.712 11.1517 14.6844 11.1635 14.6539C11.1752 14.6234 11.1802 14.5907 11.178 14.5581L11.1781 13.3349ZM16.3702 13.0903H14.0867V13.5932H16.2885V14.2864H14.0867V15.496H13.4069V12.397H16.3699L16.3702 13.0903Z" fill="#1F4A82"/>
<path d="M12.9986 15.4959H12.3054V12.397H12.9986V15.4959Z" fill="#1F4A82"/>
<path d="M1.2415 12.6957L0.0454102 12.1112L0.0589705 11.9346L1.3366 11.5273L1.32304 11.7176L0.94248 11.8263L0.888065 12.3428L1.25506 12.5182L1.2415 12.6957ZM0.765848 12.2879L0.806703 11.8665L0.45309 11.9619C0.364669 11.9926 0.273671 12.0154 0.181188 12.0299C0.260485 12.0557 0.337721 12.0875 0.412235 12.125L0.765848 12.2879ZM1.32304 11.5132L1.20134 11.4861L0.671273 10.7928C0.657713 10.8607 0.657713 10.9145 0.644152 10.9694L0.576177 11.3228L0.454481 11.3093L0.589041 10.5885L0.697698 10.602L1.15979 11.1865L1.24133 11.2952C1.25489 11.2272 1.25489 11.1735 1.26845 11.1048L1.34999 10.6971L1.48594 10.7243L1.32304 11.5132ZM1.2415 9.69194C1.35756 9.71718 1.46241 9.77911 1.54053 9.86857C1.57613 9.91674 1.59965 9.97274 1.60912 10.0319C1.61859 10.091 1.61373 10.1516 1.59494 10.2085C1.5861 10.2671 1.56284 10.3226 1.52725 10.37C1.49166 10.4175 1.44484 10.4553 1.39102 10.4802C1.27851 10.5263 1.15329 10.5311 1.03758 10.4937H1.01046L1.15997 9.84128C1.08837 9.81809 1.01064 9.82294 0.94248 9.85484C0.906691 9.87051 0.875454 9.895 0.851682 9.926C0.827909 9.95701 0.812376 9.99353 0.806529 10.0322C0.793833 10.0846 0.798895 10.1397 0.82092 10.1889C0.842946 10.2381 0.880689 10.2786 0.928224 10.3041L0.873809 10.4536C0.790693 10.4136 0.725287 10.3443 0.690151 10.259C0.655015 10.1737 0.652626 10.0784 0.683442 9.99148C0.692269 9.93268 0.715597 9.87701 0.75132 9.82948C0.787043 9.78195 0.834038 9.74406 0.888065 9.71923C0.941814 9.69028 1.00103 9.67289 1.0619 9.66819C1.12277 9.66349 1.18395 9.67158 1.2415 9.69194ZM1.28236 9.86857L1.16066 10.358C1.21883 10.376 1.28167 10.3714 1.3366 10.3451C1.37299 10.3347 1.4054 10.3135 1.42964 10.2845C1.45388 10.2554 1.46883 10.2197 1.47255 10.182C1.48195 10.1502 1.4844 10.1167 1.47972 10.0839C1.47504 10.051 1.46334 10.0196 1.44543 9.99166C1.40664 9.93321 1.34904 9.88978 1.28218 9.86857H1.28236ZM1.73089 9.63752L0.888065 9.3385L0.92892 9.21681L1.05062 9.25766C1.0165 9.21688 0.988989 9.17101 0.969079 9.12171C0.962369 9.10676 0.958899 9.09055 0.958899 9.07416C0.958899 9.05777 0.962369 9.04157 0.969079 9.02661C0.987868 8.97351 1.02074 8.92652 1.06418 8.89066L1.18587 8.98576C1.15178 9.00748 1.12742 9.04156 1.1179 9.08085C1.11118 9.09581 1.10772 9.11201 1.10772 9.1284C1.10772 9.14479 1.11118 9.161 1.1179 9.17595C1.13118 9.20607 1.14959 9.23366 1.17231 9.25749L1.33538 9.33902L1.78392 9.48853L1.73089 9.63752ZM1.94838 8.94438L1.89397 9.08033L0.752114 8.61824L0.806529 8.46873L1.21421 8.64536C1.18874 8.60252 1.17419 8.55409 1.17182 8.50432C1.16946 8.45454 1.17936 8.40495 1.20065 8.35989C1.21475 8.31195 1.2432 8.26948 1.28218 8.2382C1.31877 8.19858 1.36595 8.17028 1.41814 8.15666C1.47172 8.14542 1.5265 8.14086 1.58121 8.1431C1.64254 8.14212 1.70317 8.15615 1.75784 8.18396C1.82135 8.203 1.88046 8.23442 1.93178 8.27639C1.9831 8.31838 2.02561 8.37009 2.05686 8.42857C2.07911 8.47494 2.09178 8.52532 2.09411 8.5767C2.09644 8.62807 2.08838 8.6794 2.07042 8.72759C2.05229 8.773 2.02283 8.81301 1.98485 8.84381C1.94687 8.87461 1.90164 8.89517 1.85346 8.90353L1.94838 8.94438ZM1.52697 8.78044C1.59832 8.81638 1.67866 8.83058 1.75801 8.82129C1.79913 8.81816 1.8386 8.80383 1.87215 8.77987C1.90571 8.7559 1.93207 8.72321 1.94838 8.68534C1.95945 8.65441 1.96396 8.62151 1.96163 8.58873C1.95929 8.55596 1.95016 8.52403 1.93482 8.49498C1.88348 8.41699 1.80658 8.35933 1.71733 8.3319C1.63276 8.29098 1.53642 8.28137 1.44543 8.30478C1.41387 8.31085 1.38455 8.32537 1.3606 8.3468C1.33666 8.36824 1.31898 8.39578 1.30948 8.42648C1.29508 8.45667 1.28875 8.49009 1.29113 8.52345C1.29351 8.55682 1.3045 8.589 1.32304 8.61685C1.37188 8.69168 1.44332 8.74899 1.52697 8.78044ZM2.42404 7.61147C2.44835 7.67194 2.45309 7.73852 2.4376 7.80183C2.43841 7.86078 2.41923 7.91826 2.38318 7.96491C2.37173 8.00352 2.35081 8.03866 2.32234 8.06713C2.29386 8.09561 2.25872 8.11653 2.22011 8.12798C2.1876 8.14257 2.15201 8.14896 2.11646 8.1466C2.0809 8.14423 2.04647 8.13318 2.01618 8.11442C1.97587 8.09929 1.94219 8.07042 1.92109 8.03288C1.90753 7.99203 1.89397 7.96491 1.88023 7.92422C1.87808 7.88319 1.88266 7.84208 1.89379 7.80253C1.90001 7.75531 1.91381 7.7094 1.93465 7.66658C1.96648 7.58206 1.9937 7.49588 2.01618 7.40841C2.00914 7.40068 1.99947 7.39584 1.98906 7.39485C1.96822 7.37852 1.94371 7.36751 1.91766 7.36279C1.89161 7.35806 1.8648 7.35976 1.83955 7.36773C1.78638 7.39335 1.74348 7.43626 1.71785 7.48942C1.69453 7.54088 1.68069 7.59612 1.677 7.6525C1.69443 7.6988 1.72234 7.74046 1.75854 7.77419L1.677 7.89589C1.63004 7.86637 1.59237 7.82419 1.56834 7.77419C1.54373 7.7234 1.53889 7.66527 1.55478 7.61112C1.55884 7.54248 1.58242 7.47643 1.62276 7.42075C1.6476 7.35962 1.68456 7.30415 1.73141 7.25768C1.77227 7.23056 1.79939 7.20327 1.84007 7.20327C1.87502 7.18969 1.91378 7.18969 1.94873 7.20327C1.99544 7.22302 2.04085 7.24572 2.08468 7.27124L2.26131 7.36634C2.33885 7.41114 2.42068 7.44807 2.50557 7.47656C2.53935 7.49351 2.57645 7.50277 2.61423 7.50368L2.54625 7.63963C2.50433 7.63706 2.46307 7.62784 2.42404 7.61234V7.61147ZM2.12501 7.46196C2.11163 7.54579 2.08882 7.62784 2.05704 7.70656C2.02992 7.77454 2.02992 7.81522 2.01618 7.84251C2.01618 7.86964 2.02974 7.89693 2.02974 7.92405C2.0433 7.93761 2.0706 7.96491 2.08416 7.96491C2.10184 7.97682 2.12215 7.98427 2.14334 7.98664C2.16453 7.989 2.18598 7.98619 2.20585 7.97847C2.24405 7.95401 2.27649 7.92157 2.30095 7.88337C2.32718 7.83297 2.34117 7.77711 2.3418 7.7203C2.34317 7.69504 2.33901 7.66979 2.32961 7.64631C2.32021 7.62283 2.3058 7.60169 2.28739 7.58435C2.25862 7.53991 2.21577 7.50642 2.16569 7.48925L2.12501 7.46196ZM2.99427 7.51637L2.85832 7.46196C2.88544 7.43483 2.89917 7.40754 2.91273 7.39398C2.93046 7.37051 2.93999 7.34186 2.93985 7.31244C2.94342 7.2889 2.93862 7.26485 2.92629 7.24447C2.9064 7.21088 2.88366 7.17906 2.85832 7.14937C2.84476 7.13581 2.84476 7.12225 2.83119 7.10852L1.87971 6.95901L1.96125 6.82305L2.50488 6.91815C2.57285 6.93171 2.64083 6.94527 2.72236 6.95901C2.66596 6.9162 2.61566 6.8659 2.57285 6.80949L2.20585 6.37487L2.28739 6.25317L2.91325 7.00073C2.96161 7.05721 3.00699 7.11616 3.0492 7.17736C3.07336 7.21882 3.08736 7.26541 3.09006 7.31331C3.09408 7.35572 3.08458 7.39832 3.06294 7.43501C3.04443 7.46565 3.02146 7.49337 2.99479 7.51724L2.99427 7.51637ZM3.22531 5.9126L3.32041 5.80394C3.3581 5.83264 3.38868 5.86964 3.40979 5.91205C3.43089 5.95447 3.44195 6.00117 3.44211 6.04855C3.45193 6.13581 3.42757 6.22348 3.37413 6.29316C3.3443 6.34053 3.30453 6.38086 3.25759 6.41135C3.21064 6.44185 3.15763 6.46179 3.10223 6.46979C2.97294 6.47768 2.84581 6.43391 2.74879 6.34809C2.67708 6.30363 2.61662 6.24318 2.57216 6.17146C2.53269 6.10629 2.51817 6.02903 2.5313 5.95397C2.53025 5.91622 2.53694 5.87864 2.55096 5.84357C2.56499 5.8085 2.58604 5.77667 2.61284 5.75005C2.63456 5.71231 2.66391 5.67952 2.69903 5.65378C2.73414 5.62803 2.77424 5.6099 2.81677 5.60054C2.85502 5.58855 2.89537 5.58477 2.93518 5.58944C2.975 5.59412 3.01338 5.60714 3.04781 5.62766L2.97984 5.74935C2.93202 5.73196 2.8805 5.72729 2.83033 5.73579C2.78612 5.75028 2.74793 5.77894 2.72167 5.81733C2.69701 5.84171 2.67905 5.87204 2.66952 5.90538C2.65998 5.93872 2.65921 5.97396 2.66725 6.00769C2.70051 6.0977 2.76262 6.17417 2.84389 6.22518C2.9101 6.28725 2.99774 6.32133 3.08849 6.32028C3.1235 6.32023 3.15794 6.31152 3.18876 6.29493C3.21958 6.27834 3.24582 6.25438 3.26513 6.22518C3.2839 6.20567 3.29748 6.18175 3.30461 6.15563C3.31175 6.12951 3.31222 6.10202 3.30598 6.07567C3.304 6.04468 3.2959 6.01439 3.28214 5.98655C3.26838 5.95871 3.24925 5.93387 3.22584 5.91347L3.22531 5.9126ZM3.93202 5.34167C3.93861 5.40667 3.9293 5.4723 3.9049 5.53291C3.89153 5.58912 3.86338 5.64074 3.82336 5.68242C3.80124 5.71849 3.77155 5.74933 3.73634 5.77281C3.70113 5.79628 3.66124 5.81183 3.61943 5.81837C3.55128 5.82617 3.48281 5.8066 3.42907 5.76396C3.40202 5.73564 3.37913 5.70362 3.36109 5.66886C3.3457 5.62998 3.33654 5.5889 3.33397 5.54716C3.34753 5.50631 3.34753 5.46563 3.37483 5.43851C3.38972 5.39407 3.41277 5.35279 3.4428 5.31681C3.48894 5.23817 3.5296 5.15644 3.5645 5.0722L3.53738 5.04508C3.49961 5.01193 3.45163 4.99273 3.40143 4.99067C3.34182 5.01107 3.28973 5.04893 3.25191 5.09932C3.21291 5.13998 3.18894 5.19272 3.18394 5.24884C3.186 5.29904 3.2052 5.34702 3.23835 5.38479L3.1297 5.49344C3.09293 5.45131 3.0693 5.39933 3.06172 5.34393C3.04583 5.28978 3.05067 5.23165 3.07528 5.18086C3.09321 5.11555 3.12573 5.05515 3.17038 5.00423C3.20847 4.95222 3.25432 4.90637 3.30633 4.86828C3.34363 4.84639 3.38507 4.83248 3.42802 4.82742C3.4658 4.82833 3.50291 4.8376 3.53668 4.85454C3.58199 4.87966 3.62305 4.91175 3.65838 4.94964L3.80789 5.07133C3.91655 5.15287 3.99825 5.20729 4.02538 5.23441C4.06623 5.24797 4.09335 5.26153 4.13403 5.27526L4.03894 5.39696C4.00105 5.38414 3.96525 5.3658 3.93271 5.34254L3.93202 5.34167ZM3.66151 5.13861C3.63712 5.22066 3.60049 5.29855 3.55285 5.36966C3.52551 5.40743 3.50269 5.44827 3.48487 5.49136V5.57289C3.49556 5.59721 3.51498 5.61662 3.53929 5.62731C3.56498 5.65201 3.59878 5.66653 3.63439 5.66816C3.68069 5.65073 3.72234 5.62282 3.75608 5.58663C3.78974 5.54257 3.81298 5.49145 3.82406 5.43712C3.8331 5.38697 3.82842 5.33531 3.8105 5.2876C3.78164 5.2447 3.74474 5.2078 3.70184 5.17895L3.66151 5.13861ZM4.25955 5.13861L3.60709 4.51275L3.70219 4.40409L3.79728 4.49919C3.78218 4.44336 3.78309 4.38441 3.7999 4.32907C3.81672 4.27374 3.84877 4.22425 3.89238 4.18626C3.92612 4.15006 3.96777 4.12216 4.01408 4.10472C4.05077 4.08308 4.09336 4.07359 4.13577 4.0776C4.17866 4.09003 4.21961 4.10834 4.25747 4.13202C4.27103 4.14558 4.31188 4.17287 4.36612 4.22711L4.76181 4.60802L4.65315 4.71668L4.25886 4.33681C4.22702 4.30424 4.19037 4.27674 4.1502 4.25528C4.12006 4.24316 4.08743 4.23851 4.0551 4.24172C4.02034 4.25975 3.98832 4.28264 3.96001 4.30969C3.93831 4.33092 3.9211 4.3563 3.90943 4.38431C3.89775 4.41233 3.89183 4.44241 3.89203 4.47277C3.89756 4.51319 3.91119 4.55209 3.9321 4.58713C3.95301 4.62217 3.98077 4.65263 4.01373 4.67669L4.36717 5.03013L4.25955 5.13861ZM5.76823 2.92323C5.87844 3.04707 5.94104 3.20604 5.94486 3.37177C5.94455 3.45578 5.92315 3.53837 5.88263 3.61197C5.84211 3.68557 5.78377 3.74782 5.71294 3.79301C5.65352 3.84766 5.58118 3.8863 5.50272 3.90531C5.42426 3.92432 5.34225 3.92306 5.26441 3.90167C5.10274 3.8656 4.96141 3.7681 4.87029 3.62976L4.81588 3.56179L5.57699 2.96374C5.50928 2.87805 5.41258 2.82005 5.30509 2.80067C5.25343 2.79426 5.20099 2.79947 5.1516 2.81592C5.10221 2.83237 5.05712 2.85965 5.01963 2.89577C4.9527 2.937 4.90415 3.00236 4.884 3.07834C4.86384 3.15433 4.87362 3.23515 4.91132 3.30414L4.76181 3.37212C4.71259 3.27054 4.70293 3.15428 4.73469 3.04597C4.77071 2.93894 4.8368 2.84454 4.92505 2.77407C5.01042 2.70658 5.1153 2.66847 5.22408 2.66541C5.32702 2.65014 5.43213 2.66927 5.5231 2.71983C5.61719 2.77085 5.70026 2.83998 5.76753 2.92323H5.76823ZM5.67313 3.07275L5.04727 3.5757C5.11617 3.6717 5.21763 3.73936 5.33273 3.76606C5.38549 3.77279 5.43905 3.76906 5.49036 3.75507C5.54167 3.74108 5.58972 3.71711 5.63176 3.68453C5.67592 3.65376 5.71238 3.61322 5.73831 3.56606C5.76425 3.5189 5.77894 3.46639 5.78127 3.41262C5.78764 3.28985 5.74894 3.16898 5.67244 3.07275H5.67313ZM6.31186 3.31735L5.83464 2.55658L5.95634 2.48861L6.02431 2.59726C6.02671 2.54201 6.03582 2.48725 6.05143 2.43419C6.08196 2.38809 6.12388 2.35067 6.17313 2.32554C6.21977 2.28949 6.27725 2.2703 6.3362 2.27112C6.38687 2.27088 6.43564 2.2904 6.47215 2.32554C6.46797 2.26874 6.47975 2.21191 6.50617 2.16147C6.53259 2.11102 6.5726 2.06897 6.62166 2.04007C6.6528 2.01794 6.68837 2.00282 6.72592 1.99577C6.76347 1.98871 6.8021 1.98989 6.83915 1.99922C6.91552 2.02367 6.97905 2.07745 7.01578 2.14873L7.34419 2.67828L7.22249 2.74625L6.92347 2.2706C6.89404 2.23612 6.86681 2.19983 6.84193 2.16194C6.81625 2.15088 6.78827 2.14623 6.7604 2.14838C6.74353 2.14553 6.72623 2.14648 6.70978 2.15117C6.69332 2.15586 6.67813 2.16418 6.6653 2.1755C6.63927 2.1883 6.6169 2.20748 6.60027 2.23125C6.58364 2.25502 6.5733 2.28261 6.5702 2.31145C6.56441 2.34736 6.56626 2.38409 6.57563 2.41923C6.58501 2.45437 6.6017 2.48713 6.62462 2.51538L6.89652 2.95001L6.77483 3.03154L6.4605 2.54267C6.43099 2.49571 6.3888 2.45805 6.33881 2.43402C6.31889 2.42655 6.29748 2.42388 6.27634 2.42624C6.25519 2.42859 6.2349 2.43591 6.21711 2.44758C6.17958 2.46868 6.1507 2.50236 6.13558 2.54267C6.12366 2.56036 6.11621 2.58067 6.11385 2.60186C6.11149 2.62305 6.11429 2.6445 6.12202 2.66437C6.12822 2.73083 6.157 2.79316 6.20355 2.841L6.44816 3.23512L6.31186 3.31735ZM8.02446 2.21636C8.00414 2.27659 7.97178 2.33207 7.92937 2.37943C7.89032 2.42286 7.84439 2.45957 7.79342 2.48809C7.75888 2.50835 7.72051 2.52123 7.68074 2.52589C7.64097 2.53056 7.60066 2.52692 7.56237 2.51521C7.52802 2.50789 7.49566 2.49322 7.46751 2.47222C7.43936 2.45121 7.41609 2.42436 7.3993 2.39351C7.3839 2.35463 7.37475 2.31356 7.37218 2.27182C7.37309 2.23404 7.38235 2.19693 7.3993 2.16316C7.42303 2.12866 7.45036 2.09678 7.48083 2.06806C7.51179 2.0345 7.54861 2.00687 7.58949 1.98653C7.6717 1.94067 7.7451 1.88056 7.80628 1.80902C7.79855 1.80198 7.79371 1.79232 7.79272 1.7819C7.77202 1.73737 7.73903 1.69967 7.69763 1.67325C7.63166 1.66959 7.56592 1.6837 7.50726 1.7141C7.45801 1.73923 7.41609 1.77666 7.38556 1.82276C7.37138 1.87159 7.37138 1.92344 7.38556 1.97227L7.23605 2.02669C7.22242 1.9686 7.22242 1.90814 7.23605 1.85005C7.24151 1.798 7.26567 1.7497 7.30403 1.7141C7.35375 1.66164 7.41393 1.62018 7.48066 1.59241C7.53544 1.56027 7.5951 1.5373 7.65729 1.52443C7.69836 1.52058 7.73978 1.5252 7.77899 1.53799C7.81698 1.55683 7.84967 1.58486 7.87408 1.61953C7.90344 1.65597 7.92643 1.69711 7.94206 1.74122L8.03716 1.91786C8.07359 1.99698 8.11421 2.0741 8.15885 2.1489L8.24039 2.23044L8.10444 2.29841C8.07105 2.27831 8.0433 2.25008 8.02377 2.21636H8.02446ZM7.86139 1.91733C7.82054 1.95819 7.75274 2.01243 7.67103 2.08041C7.6294 2.10533 7.59259 2.13754 7.56237 2.1755C7.54542 2.19414 7.53578 2.21829 7.53525 2.24348C7.53017 2.25481 7.52875 2.26745 7.53118 2.27963C7.53361 2.29181 7.53977 2.30293 7.54881 2.31145C7.55298 2.3302 7.56324 2.34704 7.578 2.35933C7.59275 2.37163 7.61115 2.3787 7.63035 2.37943C7.65266 2.38703 7.67634 2.38976 7.69979 2.38742C7.72325 2.38508 7.74593 2.37773 7.7663 2.36587C7.81554 2.34074 7.85746 2.30331 7.88799 2.25721C7.91385 2.21651 7.92799 2.16947 7.92885 2.12126C7.92643 2.06902 7.91248 2.01796 7.88799 1.97175L7.86139 1.91733ZM8.41858 2.16194L8.09175 1.31946L8.2277 1.26505L8.26855 1.38674C8.28237 1.33153 8.30936 1.28049 8.3472 1.23798C8.38505 1.19548 8.43262 1.16277 8.48586 1.14265C8.53357 1.12473 8.58523 1.12005 8.63538 1.12909C8.6775 1.12857 8.71916 1.13785 8.75707 1.15621C8.82511 1.2198 8.87646 1.29915 8.90658 1.38726L9.09695 1.89021L8.961 1.95819L8.75777 1.44168C8.7448 1.39899 8.72651 1.35811 8.70335 1.31998C8.67677 1.29408 8.64405 1.27536 8.60826 1.26557C8.57154 1.26415 8.53484 1.26873 8.4996 1.27913C8.44265 1.30445 8.3951 1.34702 8.36365 1.40082C8.34049 1.48278 8.35002 1.57053 8.39025 1.6456L8.56688 2.1077L8.41858 2.16194ZM9.95438 1.15621C9.97628 1.21295 9.98637 1.27356 9.98403 1.33433C9.9817 1.3951 9.967 1.45476 9.94082 1.50965C9.91939 1.56472 9.88445 1.6135 9.83921 1.65151C9.79397 1.68951 9.73989 1.71552 9.68196 1.72714C9.62517 1.74652 9.5645 1.75169 9.50525 1.7422C9.446 1.73272 9.38998 1.70886 9.34208 1.67273C9.25019 1.60245 9.18732 1.50086 9.16545 1.38726C9.16545 1.3737 9.15189 1.36014 9.15189 1.34641L9.80435 1.16978C9.78377 1.09186 9.73542 1.02416 9.6684 0.979409C9.63954 0.957882 9.60565 0.944091 9.56996 0.939345C9.53427 0.934598 9.49796 0.939053 9.46447 0.952288C9.41076 0.962449 9.3623 0.991108 9.32752 1.03329C9.29274 1.07546 9.27384 1.1285 9.2741 1.18316L9.12459 1.21028C9.11739 1.12086 9.14417 1.032 9.1996 0.961462C9.25503 0.890918 9.33502 0.843875 9.42362 0.829723C9.47931 0.808245 9.5394 0.800708 9.59867 0.807769C9.65794 0.814829 9.71458 0.836272 9.76367 0.87023C9.81445 0.900964 9.85781 0.942535 9.89066 0.991972C9.92351 1.04141 9.94503 1.09749 9.95369 1.15621H9.95438ZM9.81843 1.29217L9.34278 1.42812C9.35957 1.486 9.39257 1.53788 9.43787 1.57763C9.46715 1.59828 9.50099 1.61153 9.5365 1.61626C9.57201 1.62098 9.60814 1.61703 9.6418 1.60475C9.70782 1.59018 9.766 1.55142 9.80487 1.49609C9.8299 1.43104 9.83445 1.35988 9.81791 1.29217H9.81843ZM10.5389 1.36014L10.5933 1.48184C10.5614 1.50507 10.5239 1.5192 10.4846 1.52269C10.4403 1.53637 10.393 1.53637 10.3487 1.52269C10.3337 1.52009 10.3196 1.51374 10.3077 1.50423C10.2958 1.49471 10.2865 1.48235 10.2807 1.46828C10.2536 1.45472 10.2398 1.38674 10.2127 1.3052L10.1041 0.802255L9.99541 0.829375L9.96829 0.70768L10.0769 0.680559L10.0225 0.463072L10.1442 0.341376L10.2258 0.654308L10.3753 0.613453L10.4024 0.735148L10.2529 0.762269L10.3615 1.27878C10.3728 1.30519 10.3818 1.33245 10.3887 1.36032C10.4022 1.37388 10.4158 1.37388 10.4295 1.38744H10.4839C10.4975 1.3744 10.5112 1.3744 10.5382 1.36014H10.5389ZM10.7292 1.45524L10.5112 0.232024L10.6607 0.204903L10.8781 1.42812L10.7292 1.45524ZM11.8302 0.81651C11.8462 0.93857 11.8224 1.06254 11.7623 1.16995C11.7287 1.21982 11.6845 1.26157 11.6327 1.29213C11.581 1.32269 11.5231 1.3413 11.4632 1.34658C11.4073 1.35615 11.3498 1.35254 11.2955 1.33604C11.2412 1.31953 11.1915 1.29058 11.1503 1.25149C11.0636 1.16379 11.0106 1.04828 11.0008 0.925341V0.898046L11.6668 0.81651C11.6579 0.74008 11.6245 0.66857 11.5717 0.612584C11.5434 0.584878 11.5089 0.564274 11.4711 0.552458C11.4333 0.540642 11.3933 0.537952 11.3542 0.544608C11.302 0.550262 11.2533 0.573551 11.2162 0.610628C11.179 0.647705 11.1556 0.696353 11.1498 0.748535H10.9867C10.9957 0.659167 11.0362 0.575918 11.101 0.513658C11.1657 0.451398 11.2505 0.414182 11.3401 0.408657C11.4003 0.398144 11.4621 0.401228 11.5209 0.417683C11.5797 0.434139 11.6341 0.463547 11.68 0.503753C11.764 0.587934 11.8167 0.698283 11.8294 0.81651H11.8302ZM11.6672 0.938206L11.1779 0.992621C11.1841 1.05247 11.2077 1.10919 11.2459 1.15569C11.2721 1.18232 11.3043 1.20236 11.3397 1.21418C11.3752 1.22599 11.4129 1.22924 11.4498 1.22367C11.5183 1.21449 11.5811 1.18068 11.6265 1.12857C11.6602 1.07135 11.6742 1.00466 11.6663 0.938728L11.6672 0.938206ZM12.0613 1.27808L12.0063 0.381536L12.1423 0.367976V0.503927C12.1687 0.455124 12.2006 0.409509 12.2374 0.367976C12.268 0.351898 12.2998 0.338238 12.3325 0.327121C12.3891 0.329312 12.4446 0.343224 12.4956 0.367976L12.4411 0.517487C12.41 0.494402 12.3709 0.484647 12.3325 0.490366C12.3166 0.489956 12.3008 0.493469 12.2866 0.500594C12.2724 0.50772 12.2601 0.518239 12.251 0.531221C12.2368 0.540437 12.2248 0.552411 12.2154 0.566424C12.2061 0.580437 12.1996 0.596198 12.1965 0.612757C12.1853 0.670923 12.1807 0.730188 12.183 0.78939L12.2101 1.26505L12.0613 1.27808ZM12.6185 0.177087V0.000976562H12.768L12.7815 0.177609L12.6185 0.177087ZM12.6456 1.23758L12.6322 0.340855H12.7817L12.7953 1.23792L12.6456 1.23758ZM13.0262 1.22402L13.0397 0.326947L13.1757 0.340507V0.462203C13.2069 0.415396 13.2495 0.377183 13.2993 0.351063C13.3492 0.324943 13.4048 0.31175 13.4611 0.312691C13.5139 0.311635 13.5658 0.325821 13.6106 0.353546C13.6334 0.358869 13.6548 0.368866 13.6735 0.382902C13.6922 0.396937 13.7078 0.414706 13.7193 0.435082C13.7409 0.467752 13.7549 0.5049 13.7601 0.543739C13.7736 0.592367 13.7781 0.643003 13.7737 0.69325L13.7601 1.23688H13.6106V0.69412C13.6153 0.648352 13.6107 0.602106 13.5971 0.558168C13.5871 0.526333 13.5682 0.498029 13.5427 0.476632C13.5083 0.461273 13.4715 0.452092 13.434 0.449511C13.3706 0.446572 13.3081 0.465813 13.2574 0.503927C13.2046 0.573957 13.18 0.661253 13.1885 0.748535L13.175 1.23792L13.0262 1.22402ZM14.507 0.898046L14.6565 0.911607C14.6566 0.967082 14.6657 1.02217 14.6836 1.07468C14.7077 1.12467 14.7453 1.16686 14.7923 1.19637C14.8477 1.22712 14.9072 1.25 14.9689 1.26435C15.0231 1.27125 15.0779 1.27125 15.132 1.26435C15.1767 1.25727 15.2186 1.2385 15.2537 1.20993C15.2848 1.18179 15.3042 1.14302 15.3081 1.10128C15.3126 1.08535 15.3137 1.06868 15.3113 1.05231C15.309 1.03594 15.3033 1.02023 15.2946 1.00618C15.2739 0.965095 15.2405 0.931752 15.1995 0.911085C15.1372 0.869072 15.0688 0.837153 14.9966 0.81651C14.8879 0.762095 14.8062 0.721414 14.7655 0.694815C14.7183 0.659525 14.6809 0.612719 14.6569 0.558864C14.6389 0.506466 14.6343 0.450434 14.6433 0.395792C14.6593 0.336532 14.687 0.281083 14.7248 0.23272C14.7737 0.185198 14.8347 0.152054 14.9011 0.136928C14.9775 0.123312 15.0558 0.123312 15.1322 0.136928C15.2141 0.147405 15.2929 0.1752 15.3632 0.218464C15.4259 0.255607 15.4739 0.313186 15.4992 0.381536C15.5299 0.44482 15.5394 0.51634 15.5263 0.585463L15.3632 0.571902C15.3701 0.538187 15.3688 0.50332 15.3594 0.470206C15.3501 0.437093 15.333 0.406691 15.3095 0.381536C15.2605 0.326243 15.1919 0.292146 15.1183 0.28644C15.0424 0.261266 14.9597 0.266119 14.8872 0.3C14.8648 0.308577 14.8452 0.323331 14.8308 0.342558C14.8163 0.361784 14.8076 0.384699 14.8057 0.408657C14.7997 0.429592 14.799 0.451698 14.8038 0.472956C14.8085 0.494214 14.8185 0.513946 14.8328 0.530352C14.8953 0.58672 14.9696 0.628313 15.0503 0.652048C15.1436 0.681928 15.231 0.727942 15.3085 0.787999C15.3674 0.823479 15.4147 0.875458 15.4444 0.937511C15.4731 0.991647 15.4827 1.05389 15.4715 1.11414C15.4593 1.18158 15.426 1.24341 15.3764 1.29078C15.3322 1.3467 15.2697 1.38518 15.1998 1.39943C15.1195 1.41982 15.0355 1.41982 14.9552 1.39943C14.8579 1.39334 14.764 1.36096 14.6836 1.30573C14.6136 1.26745 14.5603 1.20449 14.5341 1.12909C14.5044 1.05595 14.495 0.976098 14.507 0.898046ZM15.608 1.50965L15.8119 0.6404L15.9614 0.66752L15.7573 1.55051L15.608 1.50965ZM15.9342 1.67273L16.0701 1.72714C16.063 1.74586 16.0619 1.76629 16.0667 1.7857C16.0715 1.80512 16.0822 1.82259 16.0972 1.8358C16.1129 1.85812 16.1332 1.8769 16.1566 1.89094C16.18 1.90499 16.2061 1.91397 16.2332 1.91733C16.2582 1.93091 16.2862 1.93801 16.3147 1.93801C16.3432 1.93801 16.3712 1.93091 16.3962 1.91733C16.4199 1.90974 16.4417 1.89739 16.4604 1.88103C16.4791 1.86468 16.4942 1.84467 16.5049 1.82224C16.5332 1.76696 16.5516 1.70719 16.5593 1.6456C16.5225 1.67207 16.4799 1.68955 16.4351 1.69665C16.3903 1.70374 16.3444 1.70025 16.3012 1.68646C16.2461 1.67711 16.1944 1.65331 16.1516 1.61748C16.1087 1.58165 16.0761 1.53508 16.0571 1.48253C16.0117 1.37939 16.0069 1.26294 16.0435 1.15639C16.0584 1.07764 16.0909 1.00328 16.1386 0.938901C16.184 0.878312 16.2451 0.831296 16.3152 0.80295C16.3863 0.782514 16.4617 0.782514 16.5327 0.80295C16.5818 0.814487 16.6272 0.837874 16.6652 0.871061C16.7031 0.904249 16.7323 0.946226 16.7502 0.993317L16.7773 0.88466L16.9133 0.925515L16.7229 1.67307C16.6979 1.77412 16.6568 1.8705 16.6012 1.95854C16.5574 2.00562 16.5007 2.0387 16.4381 2.05363C16.3567 2.0689 16.2728 2.06425 16.1935 2.04007C16.1042 2.01996 16.0234 1.97242 15.9625 1.90412C15.9406 1.87018 15.9267 1.83174 15.9218 1.79167C15.9169 1.7516 15.9211 1.71094 15.9342 1.67273ZM16.1923 1.18316C16.1648 1.2717 16.1648 1.36652 16.1923 1.45506C16.2257 1.51243 16.2789 1.55569 16.3418 1.57676C16.3746 1.58389 16.4086 1.58393 16.4414 1.57689C16.4743 1.56984 16.5052 1.55587 16.5322 1.53591C16.6016 1.48155 16.6497 1.40459 16.6681 1.31842C16.6836 1.27694 16.6904 1.23272 16.6881 1.18851C16.6857 1.1443 16.6742 1.10105 16.6544 1.06147C16.6426 1.02823 16.6228 0.998419 16.5967 0.974698C16.5707 0.950976 16.5391 0.93408 16.5049 0.925515C16.4743 0.919149 16.4426 0.919505 16.4121 0.926558C16.3816 0.933611 16.353 0.947194 16.3283 0.96637C16.2919 0.991234 16.2611 1.02331 16.2377 1.06061C16.2143 1.09791 16.1989 1.13963 16.1923 1.18316ZM16.7904 0.544434L16.899 0.571555C16.8776 0.630938 16.834 0.679684 16.7773 0.707506C16.7219 0.732703 16.6593 0.737505 16.6007 0.721066C16.537 0.701293 16.4804 0.663565 16.4376 0.61241C16.4065 0.559046 16.3966 0.495942 16.4098 0.435603L16.5049 0.462724C16.5057 0.496217 16.515 0.528953 16.532 0.557821C16.5412 0.571923 16.5532 0.584015 16.5672 0.593367C16.5812 0.602719 16.597 0.609137 16.6136 0.612236C16.6484 0.626284 16.6874 0.626284 16.7222 0.612236C16.7512 0.597008 16.7749 0.573453 16.7904 0.544608V0.544434ZM17.0079 1.4415C17.0274 1.3763 17.0605 1.31596 17.105 1.26443C17.1495 1.2129 17.2044 1.17135 17.266 1.14248C17.3628 1.10856 17.4683 1.10856 17.565 1.14248C17.6199 1.1617 17.6701 1.19229 17.7122 1.23226C17.7544 1.27223 17.7877 1.32067 17.8098 1.3744C17.831 1.43129 17.8407 1.49181 17.8384 1.55247C17.8361 1.61314 17.8218 1.67274 17.7963 1.72784C17.7721 1.81547 17.7252 1.89516 17.6603 1.95888C17.6036 2.00874 17.534 2.04157 17.4594 2.05359C17.3849 2.06562 17.3084 2.05635 17.2389 2.02686C17.1849 2.01025 17.1351 1.9822 17.0929 1.94461C17.0506 1.90702 17.017 1.86077 16.9943 1.80902C16.9514 1.68939 16.9562 1.55782 17.0079 1.44168V1.4415ZM17.1574 1.49592C17.116 1.58038 17.1064 1.67687 17.1302 1.76782C17.1442 1.79974 17.1647 1.82835 17.1905 1.85178C17.2162 1.87521 17.2467 1.89293 17.2798 1.90377C17.3123 1.91836 17.3479 1.92476 17.3834 1.92239C17.419 1.92003 17.4534 1.90898 17.4837 1.89021C17.5647 1.84215 17.6233 1.76394 17.6468 1.67273C17.6879 1.59314 17.6976 1.50096 17.6739 1.41456C17.6603 1.38084 17.6401 1.35021 17.6144 1.32451C17.5887 1.29882 17.5581 1.27859 17.5244 1.26505C17.4919 1.25045 17.4563 1.24406 17.4207 1.24643C17.3852 1.24879 17.3507 1.25984 17.3204 1.27861C17.2425 1.32994 17.1848 1.40685 17.1574 1.49609V1.49592ZM17.7961 2.24348L18.1631 1.42794L18.2848 1.48236L18.2304 1.60405C18.2712 1.56994 18.317 1.54243 18.3663 1.52252C18.4031 1.52032 18.4399 1.52491 18.475 1.53608C18.522 1.5644 18.5632 1.60125 18.5967 1.64474L18.488 1.75339C18.4623 1.72335 18.4297 1.70001 18.3929 1.68542C18.3793 1.67665 18.3638 1.67097 18.3477 1.66878C18.3316 1.66659 18.3153 1.66793 18.2997 1.67273C18.2696 1.68601 18.242 1.70442 18.2182 1.72714C18.1788 1.77163 18.1467 1.8221 18.1231 1.87665L17.9327 2.31128L17.7961 2.24348ZM18.6796 2.50165L18.6387 2.6376C18.601 2.62862 18.5644 2.61489 18.5301 2.59674C18.487 2.58019 18.4494 2.55195 18.4214 2.51521C18.4044 2.48634 18.3951 2.4536 18.3943 2.42011C18.4085 2.36259 18.4314 2.30758 18.4623 2.25704L18.6933 1.79494L18.5982 1.74053L18.6527 1.63187L18.7478 1.68629L18.8561 1.49609L19.0327 1.48253L18.8832 1.75444L19.0191 1.82241L18.9647 1.93107L18.8288 1.86309L18.5977 2.32519C18.5783 2.34905 18.5644 2.37688 18.5569 2.40672C18.5559 2.41411 18.5567 2.42162 18.559 2.42869C18.5614 2.43576 18.5653 2.44221 18.5704 2.44758C18.584 2.46114 18.5975 2.4747 18.6113 2.4747C18.63 2.49173 18.6543 2.50137 18.6796 2.50182V2.50165ZM19.3055 2.89577C19.2426 2.90658 19.1788 2.91112 19.1151 2.90933C19.0565 2.89853 19.0009 2.87535 18.952 2.84135C18.8791 2.80937 18.8209 2.75117 18.789 2.67828C18.7709 2.60938 18.7806 2.53614 18.8161 2.47435C18.8296 2.4335 18.8705 2.40638 18.8976 2.37926C18.9385 2.36569 18.9656 2.35213 19.0063 2.3384C19.0473 2.33624 19.0884 2.34082 19.128 2.35196C19.1721 2.36937 19.2175 2.38304 19.2639 2.39282C19.3462 2.43384 19.4328 2.46573 19.5221 2.48791C19.5356 2.46079 19.5356 2.46079 19.5356 2.44706C19.5521 2.42902 19.5634 2.40682 19.5681 2.38286C19.5729 2.3589 19.5711 2.33409 19.5628 2.31111C19.552 2.28349 19.5357 2.25841 19.5147 2.23746C19.4938 2.21651 19.4687 2.20015 19.4411 2.18941C19.3974 2.15751 19.3455 2.13864 19.2916 2.13499C19.2394 2.14861 19.1922 2.17691 19.1556 2.21653L19.0339 2.13499C19.0692 2.08776 19.116 2.05035 19.1699 2.02634C19.222 2.0071 19.2784 2.00241 19.3329 2.01278C19.3977 2.03152 19.4613 2.05422 19.5233 2.08075C19.5809 2.11078 19.6317 2.15218 19.6728 2.20245C19.6999 2.2433 19.7272 2.27042 19.7272 2.31111C19.7408 2.34605 19.7408 2.38482 19.7272 2.41976C19.7075 2.46648 19.6848 2.51188 19.6593 2.55571L19.5642 2.73235C19.4962 2.85404 19.4555 2.93627 19.4425 2.96339C19.4313 3.00295 19.4267 3.04406 19.4289 3.08509L19.2794 3.00355C19.2907 2.96392 19.2907 2.93679 19.3049 2.89594L19.3055 2.89577ZM19.4685 2.58283C19.3834 2.57599 19.3004 2.55291 19.2239 2.51486C19.177 2.50716 19.1313 2.49343 19.088 2.474C19.0591 2.47681 19.0312 2.48608 19.0064 2.50112C18.9929 2.50112 18.9656 2.52824 18.952 2.54198C18.9386 2.58143 18.9386 2.62422 18.952 2.66367C18.9724 2.70496 19.0058 2.73837 19.0471 2.75877C19.0975 2.785 19.1534 2.79899 19.2102 2.79963C19.2584 2.79877 19.3055 2.78463 19.3461 2.75877C19.3802 2.7201 19.412 2.67947 19.4412 2.63708L19.4685 2.58283ZM19.5636 3.19444L20.2703 2.18871L20.392 2.27025L19.6853 3.28971L19.5636 3.19444ZM20.4198 3.71095C20.3555 3.70958 20.2916 3.70047 20.2295 3.68383C20.1745 3.66746 20.1235 3.63968 20.08 3.6023C20.0456 3.58138 20.0159 3.55373 19.9925 3.52101C19.9692 3.48829 19.9527 3.45119 19.944 3.41193C19.9392 3.37603 19.9416 3.33954 19.9509 3.30454C19.9603 3.26955 19.9764 3.23674 19.9984 3.208C20.0241 3.17795 20.0568 3.15462 20.0935 3.14003C20.1302 3.11838 20.1728 3.10889 20.2152 3.11291C20.2528 3.11549 20.2895 3.12467 20.3239 3.14003C20.351 3.15359 20.3919 3.18088 20.4456 3.208C20.5211 3.25968 20.6034 3.30063 20.6902 3.3297L20.7173 3.30258C20.7505 3.26481 20.7697 3.21683 20.7717 3.16663C20.7488 3.11213 20.7112 3.06506 20.6631 3.03067C20.644 3.00982 20.621 2.99304 20.5953 2.98135C20.5696 2.96967 20.5418 2.96332 20.5136 2.9627C20.4629 2.96246 20.4141 2.98198 20.3776 3.01711L20.2689 2.90846C20.3125 2.87107 20.3634 2.84329 20.4185 2.82692C20.4727 2.81181 20.5305 2.81662 20.5815 2.84048C20.6443 2.86429 20.7037 2.89626 20.7582 2.93558C20.8069 2.97739 20.8523 3.02283 20.8941 3.07153C20.9077 3.12594 20.935 3.15306 20.935 3.19322C20.9324 3.23076 20.9232 3.26754 20.9078 3.30188C20.8839 3.34455 20.8567 3.38524 20.8263 3.42358L20.7046 3.58665C20.6399 3.65077 20.585 3.72405 20.5415 3.80414C20.5257 3.83948 20.5121 3.87576 20.5007 3.91279L20.379 3.80414C20.3922 3.77945 20.4058 3.73877 20.4193 3.71147L20.4198 3.71095ZM20.6238 3.42549C20.5428 3.39846 20.4652 3.36199 20.3927 3.31683C20.3383 3.28971 20.2976 3.27598 20.271 3.26242H20.1895C20.169 3.2726 20.1506 3.28645 20.1351 3.30327C20.1215 3.31746 20.1118 3.33494 20.1071 3.354C20.1023 3.37305 20.1026 3.39302 20.108 3.41193C20.1112 3.43714 20.1203 3.46125 20.1344 3.48237C20.1486 3.50348 20.1674 3.52103 20.1895 3.53362C20.2287 3.56687 20.2753 3.59019 20.3254 3.6016C20.3769 3.60713 20.4288 3.59771 20.475 3.57448C20.5158 3.56092 20.5429 3.52006 20.5836 3.46582L20.6238 3.42549ZM20.6509 4.02354L21.2218 3.33039L21.3305 3.42549L21.2489 3.52059C21.3026 3.5047 21.3594 3.5026 21.4141 3.51448C21.4688 3.52636 21.5196 3.55184 21.5619 3.58856C21.5977 3.62573 21.6296 3.66652 21.657 3.71026C21.6786 3.74695 21.6881 3.78954 21.6841 3.83195C21.6815 3.87369 21.6724 3.91477 21.657 3.95365C21.6227 3.98758 21.591 4.02388 21.5619 4.0623L21.2084 4.49693L21.0867 4.38827L21.4402 3.96686C21.4728 3.93502 21.5002 3.89838 21.5217 3.8582C21.5353 3.83108 21.5217 3.79023 21.5217 3.76311C21.5071 3.72636 21.4838 3.69372 21.4537 3.66801C21.4071 3.63196 21.3496 3.61278 21.2907 3.6136C21.2467 3.61899 21.2044 3.63395 21.1668 3.65744C21.1293 3.68093 21.0973 3.71237 21.0732 3.74955L20.7603 4.11655L20.6509 4.02354ZM21.3713 4.66226L22.0509 4.06422L22.146 4.17287L22.0509 4.25441C22.1011 4.25275 22.1513 4.25731 22.2004 4.26797C22.2508 4.29168 22.2968 4.32384 22.3364 4.36307C22.3731 4.4052 22.3968 4.45717 22.4044 4.51258C22.4154 4.56404 22.4057 4.61779 22.3772 4.66209C22.4343 4.65049 22.4935 4.65446 22.5486 4.67357C22.6036 4.69269 22.6525 4.72625 22.6902 4.77075C22.716 4.79753 22.7355 4.82974 22.7472 4.86502C22.759 4.9003 22.7627 4.93776 22.7581 4.97467C22.7542 5.01554 22.7412 5.05502 22.7201 5.09028C22.6991 5.12553 22.6705 5.1557 22.6364 5.1786L22.1744 5.57272L22.0793 5.46406L22.5007 5.09706L22.5958 5.00197C22.6079 4.97183 22.6125 4.9392 22.6093 4.90687L22.5685 4.82534C22.5235 4.78242 22.4667 4.75402 22.4054 4.7438C22.3319 4.74924 22.2635 4.7834 22.215 4.8389L21.8209 5.17877L21.7258 5.05708L22.1604 4.67652C22.2041 4.64695 22.2374 4.60437 22.2555 4.55482C22.2614 4.53277 22.2607 4.50947 22.2534 4.48783C22.2462 4.46619 22.2327 4.44717 22.2147 4.43313C22.1864 4.40129 22.1498 4.37803 22.1089 4.36601C22.0681 4.35399 22.0247 4.35369 21.9836 4.36515C21.9242 4.39309 21.8692 4.42971 21.8206 4.47381L21.4671 4.77283L21.3713 4.66226Z" fill="#1F4A82"/>
<path d="M22.7442 6.17186C22.6799 6.15859 22.6194 6.13069 22.5676 6.09032C22.5183 6.06521 22.4764 6.02778 22.4459 5.98167C22.3913 5.91729 22.3622 5.83504 22.3644 5.75062C22.3765 5.67994 22.4154 5.61666 22.473 5.57399C22.5026 5.54674 22.5416 5.53209 22.5819 5.53313C22.6229 5.53098 22.664 5.53556 22.7035 5.5467C22.738 5.55959 22.7701 5.57796 22.7986 5.60111C22.8258 5.62823 22.8666 5.65552 22.9073 5.6962C22.9638 5.77088 23.0328 5.83522 23.1112 5.8864C23.1248 5.87284 23.1384 5.87283 23.1384 5.85927C23.1608 5.85071 23.1804 5.83597 23.1948 5.81674C23.2093 5.79751 23.218 5.77458 23.2199 5.75062C23.2207 5.72018 23.2151 5.6899 23.2034 5.66179C23.1917 5.63368 23.1741 5.60838 23.1519 5.58755C23.1267 5.53712 23.0831 5.4982 23.0302 5.47872C22.9805 5.46364 22.9269 5.46851 22.8807 5.49228L22.8127 5.35633C22.862 5.32773 22.9199 5.31809 22.9758 5.32921C23.0305 5.32867 23.0836 5.348 23.1251 5.38362C23.1878 5.41883 23.2395 5.47055 23.2748 5.53313C23.3126 5.5815 23.3403 5.63694 23.3563 5.6962C23.3735 5.73436 23.3782 5.77692 23.3699 5.8179C23.3602 5.85368 23.3415 5.8864 23.3157 5.913C23.282 5.9476 23.2456 5.9794 23.2068 6.00809L23.0438 6.12979C22.9669 6.17808 22.8942 6.23262 22.8263 6.29286C22.8004 6.32216 22.7777 6.35402 22.7583 6.38796L22.6632 6.252C22.6868 6.22207 22.714 6.19515 22.7442 6.17186ZM23.0026 5.95437C22.9343 5.90594 22.8707 5.85136 22.8124 5.7913C22.7842 5.75623 22.7522 5.72434 22.7171 5.6962C22.6914 5.68514 22.6634 5.68048 22.6356 5.68264C22.6084 5.68264 22.5949 5.69621 22.5678 5.70977C22.5527 5.72103 22.54 5.73529 22.5307 5.75165C22.5213 5.76801 22.5154 5.78612 22.5133 5.80486C22.516 5.85277 22.53 5.89937 22.5542 5.94081C22.5877 5.98063 22.6292 6.01302 22.6759 6.03591C22.7225 6.05797 22.7741 6.06732 22.8254 6.06303C22.8745 6.04883 22.9206 6.02579 22.9614 5.99505L23.0026 5.95437ZM23.057 6.3485L23.1656 6.45732C23.1418 6.47134 23.1218 6.49114 23.1075 6.51489C23.0933 6.53865 23.0852 6.5656 23.0841 6.59327C23.0781 6.65073 23.0925 6.70847 23.1248 6.75634C23.1544 6.80326 23.1965 6.84092 23.2465 6.865C23.2664 6.87273 23.2878 6.87553 23.309 6.87317C23.3302 6.87081 23.3505 6.86335 23.3682 6.85144C23.3822 6.84339 23.3936 6.83135 23.4009 6.81684C23.4081 6.80233 23.4109 6.786 23.4089 6.76991C23.4022 6.71405 23.3886 6.65925 23.3682 6.60684C23.3355 6.53314 23.3126 6.45546 23.3002 6.37579C23.2905 6.33488 23.2953 6.29186 23.3138 6.25409C23.3338 6.21691 23.3616 6.18447 23.3953 6.15899C23.426 6.13377 23.4642 6.11941 23.5039 6.11814C23.545 6.11598 23.5861 6.12057 23.6257 6.1317C23.6558 6.14496 23.6834 6.16337 23.7072 6.18611C23.7459 6.21564 23.7782 6.25258 23.8025 6.29477C23.8308 6.34657 23.8536 6.40124 23.8704 6.45785C23.8841 6.50675 23.8841 6.55845 23.8704 6.60736C23.8523 6.65688 23.819 6.69945 23.7753 6.72905L23.6802 6.60736C23.6979 6.59546 23.7122 6.57922 23.7217 6.56018C23.7313 6.54114 23.7357 6.51996 23.7347 6.4987C23.74 6.47444 23.7391 6.4492 23.7319 6.4254C23.7248 6.40161 23.7117 6.38004 23.6938 6.36275C23.6531 6.30834 23.6258 6.26765 23.5851 6.26765C23.5702 6.26093 23.554 6.25745 23.5376 6.25745C23.5212 6.25745 23.505 6.26093 23.49 6.26765C23.4765 6.28121 23.4628 6.29477 23.4628 6.30851C23.456 6.32103 23.4525 6.33504 23.4525 6.34927C23.4525 6.36351 23.456 6.37752 23.4628 6.39004C23.4717 6.43202 23.4854 6.47285 23.5036 6.51174C23.5273 6.58734 23.5455 6.66456 23.558 6.74278C23.5659 6.76505 23.5687 6.78878 23.5664 6.81227C23.564 6.83576 23.5566 6.85846 23.5445 6.87874C23.5255 6.91673 23.4975 6.94942 23.4628 6.97383C23.4179 7.00146 23.3661 7.01559 23.3134 7.01452C23.2861 7.01589 23.2588 7.01178 23.2332 7.00244C23.2075 6.99309 23.1839 6.97869 23.1639 6.9601C23.109 6.92554 23.0626 6.87908 23.0281 6.82415C22.9682 6.7521 22.9389 6.65939 22.9466 6.56598C22.9491 6.52406 22.9601 6.48309 22.9791 6.44562C22.998 6.40815 23.0245 6.37497 23.0568 6.34814L23.057 6.3485ZM23.3153 7.27268L24.09 6.82415L24.1716 6.9601L23.3833 7.40864L23.3153 7.27268ZM23.7366 8.07466L24.8918 7.599L25.2047 8.38724L25.0688 8.44165L24.8242 7.81579L24.4572 7.95174L24.6747 8.49538L24.5387 8.54979L24.3212 8.00616L23.8047 8.22365L23.7366 8.07466ZM24.5114 8.83577C24.5735 8.8068 24.6416 8.79293 24.7101 8.79528C24.7786 8.79764 24.8456 8.81616 24.9055 8.84933C24.9519 8.87216 24.9929 8.90455 25.0259 8.94438C25.0589 8.9842 25.083 9.03055 25.0968 9.08038C25.1184 9.13244 25.1285 9.18861 25.1261 9.24496C25.1238 9.3013 25.1091 9.35645 25.0832 9.40653C25.0199 9.51332 24.9175 9.5913 24.7977 9.62401C24.7125 9.66221 24.6185 9.67634 24.5259 9.66487C24.4544 9.65291 24.3881 9.61978 24.3357 9.56977C24.2799 9.51747 24.2381 9.45211 24.214 9.37958C24.1926 9.32744 24.1828 9.27131 24.1852 9.21503C24.1875 9.15874 24.2019 9.10363 24.2275 9.05344C24.2904 8.94693 24.3921 8.86891 24.5113 8.83577H24.5114ZM24.5657 8.98529C24.5212 8.99408 24.4789 9.01188 24.4416 9.03759C24.4042 9.0633 24.3725 9.09638 24.3484 9.1348C24.3128 9.19655 24.303 9.2698 24.3211 9.33872C24.3325 9.37363 24.352 9.40536 24.378 9.43133C24.4039 9.45731 24.4357 9.4768 24.4706 9.48824C24.5141 9.50601 24.561 9.51401 24.608 9.51166C24.655 9.50932 24.7009 9.4967 24.7425 9.47468C24.787 9.4659 24.8293 9.4481 24.8667 9.42239C24.9041 9.39668 24.9358 9.36359 24.9599 9.32516C24.9787 9.29487 24.9898 9.26044 24.9921 9.22489C24.9945 9.18934 24.9881 9.15375 24.9735 9.12124C24.9626 9.08815 24.9449 9.05773 24.9215 9.03197C24.8981 9.0062 24.8695 8.98568 24.8376 8.97173C24.7483 8.9427 24.6514 8.94753 24.5655 8.98529H24.5657ZM24.4162 9.95033L25.2996 9.75997L25.3268 9.88166L25.2051 9.90878C25.2571 9.93254 25.3028 9.96835 25.3382 10.0132C25.3737 10.0581 25.3979 10.1108 25.409 10.167C25.4209 10.2158 25.4254 10.2662 25.4226 10.3165C25.4128 10.3563 25.3942 10.3935 25.3682 10.4251C25.3344 10.4555 25.298 10.4828 25.2593 10.5067C25.2126 10.5146 25.167 10.5283 25.1235 10.5473L24.5797 10.669L24.5526 10.5195L25.0827 10.3978C25.1317 10.3906 25.1782 10.372 25.2186 10.3434C25.2327 10.3342 25.2448 10.3222 25.2542 10.3082C25.2635 10.2942 25.2699 10.2784 25.2731 10.2619C25.2868 10.2269 25.2868 10.188 25.2731 10.153C25.26 10.0936 25.2263 10.0406 25.178 10.0035C25.1007 9.96986 25.0139 9.96504 24.9334 9.98997L24.4577 10.0986L24.4162 9.95033ZM24.7152 11.4726L24.8238 11.459C24.7792 11.4376 24.7408 11.4051 24.7123 11.3647C24.6837 11.3242 24.666 11.2772 24.6608 11.228C24.6496 11.1588 24.6591 11.0878 24.6881 11.024C24.7186 10.9548 24.7711 10.8975 24.8374 10.861C24.9067 10.8156 24.986 10.7876 25.0684 10.7794C25.1498 10.7635 25.2339 10.7682 25.313 10.793C25.3872 10.8068 25.4545 10.845 25.5043 10.9016C25.5474 10.9569 25.5755 11.0225 25.5858 11.0918C25.5949 11.142 25.5902 11.1936 25.5723 11.2413C25.5578 11.2821 25.5346 11.3192 25.5043 11.35L25.9389 11.282L25.9525 11.4315L24.7293 11.6082L24.7152 11.4726ZM25.0822 10.9289C24.9908 10.9368 24.9047 10.9751 24.8376 11.0376C24.8157 11.0638 24.7996 11.0942 24.7902 11.127C24.7809 11.1598 24.7785 11.1942 24.7833 11.228C24.79 11.2591 24.8031 11.2885 24.8218 11.3142C24.8405 11.34 24.8644 11.3615 24.892 11.3775C24.9653 11.422 25.053 11.4367 25.1368 11.4183C25.232 11.4099 25.3223 11.3719 25.3949 11.3097C25.4213 11.2862 25.4413 11.2564 25.4532 11.2232C25.4651 11.1899 25.4684 11.1542 25.4629 11.1193C25.4584 11.0857 25.4462 11.0535 25.4274 11.0252C25.4086 10.997 25.3836 10.9734 25.3543 10.9562C25.2676 10.923 25.1736 10.9135 25.082 10.9289H25.0822ZM24.8103 12.4376L24.932 12.4241C24.8822 12.397 24.84 12.3579 24.8092 12.3105C24.7784 12.263 24.7598 12.2086 24.7553 12.1522C24.7498 12.1007 24.7592 12.0488 24.7824 12.0026C24.7935 11.9603 24.8172 11.9224 24.8504 11.894C24.8803 11.8652 24.9183 11.8463 24.9593 11.8396C25.0037 11.8264 25.0492 11.8173 25.0952 11.8124L25.6524 11.7716L25.666 11.9211L25.163 11.962C25.1117 11.9587 25.0604 11.968 25.0135 11.9891C24.9726 12.0026 24.932 12.0162 24.9184 12.0571C24.9013 12.0908 24.892 12.1279 24.8911 12.1657C24.9009 12.2139 24.9193 12.26 24.9455 12.3017C24.9713 12.3317 25.004 12.3551 25.0408 12.3696C25.0988 12.382 25.1582 12.3866 25.2174 12.3832L25.6931 12.3423L25.7066 12.4919L24.8231 12.5734L24.8103 12.4376Z" fill="#1F4A82"/>
<path d="M1.69055 19.0703L3.09057 18.9344L3.18567 19.0974L2.24792 20.1032L2.16638 19.9401L2.45184 19.6411L2.19368 19.179L1.786 19.2334L1.69055 19.0703ZM2.34301 19.1654L2.54694 19.5324L2.81884 19.2605C2.87523 19.1904 2.93906 19.1267 3.00921 19.0703C2.92924 19.0949 2.84745 19.1131 2.7646 19.1248L2.34301 19.1654ZM2.30216 20.1303L2.41082 20.0623L3.32145 20.1983C3.28059 20.144 3.25347 20.0896 3.22635 20.0488L3.00886 19.7358L3.13056 19.6814L3.53824 20.293L3.44314 20.3474L2.6549 20.2388L2.51895 20.2115C2.55979 20.2626 2.59615 20.3172 2.62761 20.3746L2.85866 20.728L2.75 20.7958L2.30216 20.1303ZM3.47113 21.2313L3.56623 21.3672C3.48015 21.4025 3.38569 21.4119 3.29433 21.3945C3.20194 21.366 3.12102 21.3088 3.06328 21.2313C3.02144 21.1916 2.98973 21.1425 2.97082 21.0881C2.95192 21.0336 2.94636 20.9754 2.95462 20.9184C2.98675 20.7947 3.06445 20.6879 3.17211 20.6192C3.22217 20.5756 3.28039 20.5424 3.34339 20.5215C3.40639 20.5006 3.47292 20.4924 3.53911 20.4975C3.59705 20.4979 3.65412 20.5117 3.70595 20.5376C3.75778 20.5635 3.80299 20.6009 3.83813 20.647C3.87558 20.6892 3.90346 20.739 3.91987 20.7931C3.93628 20.8471 3.94084 20.904 3.93323 20.9599C3.89752 21.0817 3.82066 21.1874 3.71574 21.2589C3.70443 21.2711 3.69044 21.2803 3.67488 21.2861L3.24026 20.756C3.17248 20.806 3.12437 20.8781 3.10431 20.9599C3.09961 21.0341 3.12399 21.1072 3.17228 21.1637C3.20092 21.2054 3.24448 21.2346 3.29398 21.2452C3.35289 21.2607 3.41532 21.2559 3.47113 21.2315V21.2313ZM3.34944 20.6877L3.67558 21.0818C3.7287 21.0467 3.76731 20.9936 3.78424 20.9323C3.79149 20.8964 3.79035 20.8594 3.78091 20.824C3.77147 20.7887 3.75398 20.756 3.72982 20.7285C3.68983 20.6769 3.63137 20.6428 3.56675 20.6334C3.49055 20.6319 3.41531 20.6507 3.34874 20.6878L3.34944 20.6877ZM3.47113 21.6798L4.20513 21.1089L4.28667 21.2176L4.17801 21.2991C4.23605 21.2851 4.2966 21.2851 4.35464 21.2991C4.37146 21.3013 4.38755 21.3074 4.40168 21.3168C4.4158 21.3262 4.4276 21.3387 4.43618 21.3533C4.45884 21.3708 4.47688 21.3936 4.48872 21.4197C4.50057 21.4457 4.50587 21.4743 4.50415 21.5028L4.35464 21.5435C4.34953 21.5089 4.33551 21.4761 4.31396 21.4484C4.30267 21.4334 4.2884 21.4208 4.27204 21.4114C4.25569 21.4021 4.23758 21.3962 4.21886 21.3942C4.18217 21.3858 4.14372 21.3906 4.11021 21.4078C4.05306 21.4261 4.00158 21.4589 3.9607 21.5028L3.56658 21.8019L3.47113 21.6798ZM3.97408 22.2099L3.86542 22.1148L4.83047 21.272L4.93913 21.3806L4.59925 21.6797C4.64878 21.6745 4.69884 21.6803 4.74585 21.6968C4.79286 21.7132 4.83565 21.7398 4.87115 21.7747C4.90802 21.8134 4.93586 21.8598 4.95269 21.9105C4.97007 21.9583 4.97474 22.0099 4.96625 22.06C4.95894 22.1193 4.93949 22.1765 4.9091 22.228C4.87871 22.2794 4.83803 22.3241 4.78962 22.3591C4.69185 22.4572 4.56099 22.5154 4.42262 22.5221C4.31707 22.5238 4.21491 22.4849 4.13715 22.4135C4.09949 22.3803 4.07189 22.3373 4.05747 22.2892C4.04306 22.2411 4.04242 22.19 4.05562 22.1416L3.97408 22.2099ZM4.31396 21.897C4.25396 21.9517 4.20344 22.0159 4.16445 22.0872C4.15552 22.1273 4.15578 22.1689 4.16521 22.2089C4.17463 22.2489 4.19297 22.2863 4.21886 22.3182C4.27231 22.3626 4.33974 22.3867 4.40923 22.3862C4.50344 22.3658 4.59174 22.3242 4.6674 22.2645C4.74203 22.2067 4.79477 22.1252 4.81691 22.0334C4.82265 22.0018 4.8207 21.9692 4.81123 21.9384C4.80176 21.9076 4.78505 21.8796 4.76249 21.8566C4.73775 21.832 4.70784 21.8131 4.67493 21.8013C4.64202 21.7896 4.60691 21.7852 4.57213 21.7887C4.47682 21.7973 4.38656 21.8354 4.31379 21.8975L4.31396 21.897ZM5.12949 23.0931C5.06065 23.0926 4.99214 23.0835 4.92557 23.0659C4.87101 23.0423 4.82055 23.0103 4.77606 22.9708C4.73999 22.9487 4.70916 22.919 4.68568 22.8838C4.66221 22.8486 4.64666 22.8087 4.6401 22.7669C4.63772 22.6972 4.66203 22.6292 4.70808 22.5767C4.73889 22.5464 4.77598 22.5232 4.81674 22.5088C4.85629 22.4976 4.8974 22.493 4.93843 22.4952C4.98215 22.4963 5.02453 22.5105 5.06013 22.5359C5.1032 22.5537 5.14404 22.5765 5.18182 22.6038C5.26366 22.6568 5.35006 22.7023 5.43999 22.7398L5.46711 22.7125C5.49736 22.6785 5.51636 22.636 5.52153 22.5908C5.51147 22.5264 5.47751 22.4682 5.42643 22.4277C5.37946 22.3903 5.32298 22.3668 5.26336 22.3598C5.20896 22.3613 5.15653 22.3804 5.11385 22.4142L5.00519 22.2925C5.0541 22.2585 5.10969 22.2353 5.16826 22.2245C5.22742 22.2159 5.28774 22.2206 5.3449 22.2381C5.40672 22.2693 5.4658 22.3057 5.52153 22.3469C5.57447 22.3892 5.62036 22.4397 5.65748 22.4964C5.68294 22.532 5.69717 22.5744 5.69833 22.6181C5.69484 22.6574 5.68071 22.6949 5.65748 22.7268C5.64392 22.7403 5.61662 22.7812 5.56238 22.8354L5.42643 22.9849C5.36413 23.0499 5.30517 23.1179 5.2498 23.1889C5.22466 23.2196 5.21036 23.2578 5.20912 23.2975L5.07317 23.2024C5.0863 23.1635 5.10523 23.1267 5.12932 23.0934L5.12949 23.0931ZM5.36054 22.8349C5.27636 22.7999 5.19464 22.7592 5.11593 22.7132C5.07815 22.6859 5.03731 22.6631 4.99424 22.6452C4.96712 22.6452 4.93982 22.6317 4.9127 22.6452C4.88558 22.6588 4.85829 22.6588 4.84473 22.6861C4.81749 22.7156 4.80284 22.7546 4.80387 22.7947C4.82128 22.8411 4.84919 22.8827 4.88541 22.9164C4.9325 22.9447 4.98266 22.9675 5.03492 22.9844C5.08956 22.9934 5.14559 22.9888 5.19799 22.9708C5.22511 22.9573 5.26597 22.9164 5.31969 22.8757L5.36054 22.8349ZM6.08098 22.5903L6.20267 22.4545L6.32437 22.5496L6.20267 22.6856L6.08098 22.5903ZM5.37393 23.4189L5.97197 22.712L6.09367 22.8071L5.49562 23.5138L5.37393 23.4189ZM6.35253 22.7799L6.46119 22.6304L6.59714 22.7255L6.48849 22.8615L6.35253 22.7799ZM5.30595 23.7994L5.41461 23.7179C5.42817 23.7314 5.45546 23.7587 5.46902 23.7587C5.47884 23.7702 5.4924 23.7779 5.50732 23.7804C5.52224 23.7829 5.53755 23.78 5.55056 23.7723C5.56412 23.7723 5.60498 23.7314 5.65922 23.6636L6.2437 22.9025L6.37965 22.9976L5.79517 23.7587C5.71363 23.8538 5.65922 23.9082 5.6048 23.9218C5.57044 23.935 5.53305 23.9382 5.49695 23.931C5.46086 23.9238 5.42755 23.9065 5.40087 23.8811C5.36672 23.8576 5.33514 23.8305 5.30665 23.8003L5.30595 23.7994ZM6.6107 24.0713C6.54342 24.0851 6.47406 24.0851 6.40678 24.0713C6.34819 24.0606 6.29259 24.0374 6.2437 24.0034C6.16925 23.9668 6.11111 23.9038 6.08063 23.8267C6.06753 23.756 6.08216 23.683 6.12149 23.6228C6.14258 23.5852 6.17626 23.5564 6.21658 23.5412C6.25545 23.5258 6.29653 23.5166 6.33828 23.514C6.37931 23.5118 6.42043 23.5164 6.45997 23.5275C6.4871 23.5411 6.54151 23.5546 6.59593 23.5819C6.68301 23.6265 6.77403 23.6628 6.86783 23.6906C6.87353 23.675 6.88282 23.661 6.89495 23.6497C6.90841 23.6301 6.91776 23.6079 6.92242 23.5845C6.92708 23.5612 6.92696 23.5371 6.92207 23.5138C6.89794 23.4561 6.85507 23.4082 6.80037 23.3778C6.75278 23.3436 6.69591 23.3246 6.6373 23.3234C6.58418 23.3347 6.53635 23.3634 6.50135 23.405L6.37965 23.2963C6.42413 23.2569 6.4746 23.2248 6.52917 23.2012C6.58267 23.1876 6.63874 23.1876 6.69224 23.2012C6.76439 23.2165 6.83338 23.2441 6.89616 23.2827C6.95175 23.3213 7.00202 23.367 7.04568 23.4187C7.0728 23.4595 7.10009 23.4867 7.10009 23.5273C7.10229 23.5641 7.0977 23.6009 7.08653 23.636C7.06263 23.6787 7.03537 23.7194 7.005 23.7577L6.89634 23.9343C6.83765 24.0052 6.78747 24.0828 6.74683 24.1654C6.72989 24.1991 6.72063 24.2362 6.71971 24.274L6.57019 24.1789C6.5858 24.1442 6.59927 24.1086 6.61053 24.0722L6.6107 24.0713ZM6.80107 23.7859C6.71304 23.7654 6.62673 23.7381 6.5429 23.7043C6.50079 23.679 6.45489 23.6606 6.40695 23.6499C6.37906 23.6478 6.35107 23.6525 6.32541 23.6636C6.30494 23.6738 6.2865 23.6875 6.271 23.7043C6.25797 23.7188 6.24869 23.7364 6.24396 23.7553C6.23923 23.7742 6.2392 23.794 6.24388 23.813C6.26374 23.8581 6.29692 23.8961 6.33897 23.9218C6.38562 23.9578 6.4431 23.977 6.50204 23.9762C6.55345 23.9817 6.60535 23.9723 6.65156 23.9491C6.70062 23.9222 6.73896 23.8792 6.76021 23.8274L6.80107 23.7859ZM6.88261 24.3568L7.33114 23.5685L7.46709 23.6365L7.39912 23.7452C7.45176 23.7184 7.50999 23.7044 7.56906 23.7044C7.62812 23.7044 7.68635 23.7184 7.73899 23.7452C7.78447 23.7701 7.82557 23.8023 7.86069 23.8405C7.89331 23.8746 7.9167 23.9165 7.92867 23.9621C7.93083 24.0032 7.92625 24.0443 7.9151 24.0838C7.89538 24.1306 7.87267 24.176 7.84713 24.2198L7.57523 24.6954L7.42571 24.6275L7.69762 24.1518C7.73076 24.114 7.74997 24.0661 7.75203 24.0159C7.75593 23.9818 7.74618 23.9476 7.72491 23.9208C7.70779 23.8882 7.67847 23.8638 7.64338 23.8528C7.58464 23.823 7.51772 23.8135 7.45301 23.8257C7.41293 23.8413 7.37653 23.865 7.34612 23.8954C7.31572 23.9258 7.29197 23.9622 7.27638 24.0023L7.03177 24.4369L6.88261 24.3568ZM8.28263 25.0228L8.70404 23.8538L9.13867 23.9898C9.23376 24.0306 9.30174 24.0578 9.35615 24.0849C9.415 24.1192 9.46594 24.1655 9.50567 24.2208C9.54696 24.296 9.57023 24.3797 9.57364 24.4654C9.5793 24.5668 9.56543 24.6683 9.53279 24.7645C9.49792 24.8444 9.45725 24.9217 9.41109 24.9957C9.36832 25.0482 9.31793 25.0941 9.26158 25.1316C9.21611 25.1629 9.1655 25.1859 9.11207 25.1996C9.05398 25.2114 8.99465 25.216 8.93544 25.2132C8.86575 25.2103 8.79694 25.1965 8.73151 25.1723L8.28263 25.0228ZM8.50011 24.9413L8.75828 25.0228C8.82374 25.0468 8.89253 25.0606 8.96221 25.0635C9.00927 25.069 9.05689 25.0595 9.09816 25.0362C9.15689 25.0141 9.20855 24.9766 9.24767 24.9275C9.29458 24.8609 9.33121 24.7876 9.35633 24.71C9.39334 24.615 9.40734 24.5125 9.39718 24.411C9.38647 24.3361 9.34762 24.2681 9.28853 24.2208C9.22297 24.1842 9.15481 24.1524 9.0846 24.1257L8.82643 24.0442L8.50011 24.9413ZM10.2263 25.2945L10.3893 25.3625C10.342 25.4385 10.27 25.4961 10.1854 25.5256C10.1406 25.5458 10.0919 25.5562 10.0427 25.5562C9.99348 25.5562 9.94483 25.5458 9.89996 25.5256C9.84131 25.5168 9.78532 25.4952 9.73598 25.4624C9.68664 25.4295 9.64516 25.3861 9.6145 25.3354C9.58505 25.2791 9.56855 25.2169 9.5662 25.1534C9.56386 25.0899 9.57573 25.0267 9.60094 24.9684C9.61459 24.9062 9.64096 24.8476 9.67839 24.7961C9.71582 24.7447 9.7635 24.7015 9.81842 24.6694C9.92303 24.6152 10.0437 24.6008 10.1581 24.6287C10.2151 24.642 10.2687 24.667 10.3155 24.7021C10.3623 24.7372 10.4013 24.7816 10.43 24.8326C10.4562 24.8875 10.4709 24.9471 10.4732 25.0079C10.4756 25.0686 10.4655 25.1292 10.4436 25.1859C10.4436 25.1994 10.43 25.2132 10.43 25.2267L9.75045 25.0501C9.73501 25.0871 9.72822 25.1272 9.73057 25.1672C9.73292 25.2072 9.74435 25.2462 9.76401 25.2812C9.80113 25.3439 9.85872 25.3919 9.92708 25.4171C9.98109 25.4343 10.0397 25.4294 10.0902 25.4035C10.1194 25.3966 10.1468 25.3833 10.1704 25.3646C10.1939 25.3459 10.2131 25.3223 10.2266 25.2954L10.2263 25.2945ZM9.79165 24.9275L10.3082 25.0635C10.3253 25.0049 10.3205 24.942 10.2946 24.8867C10.2779 24.8543 10.2548 24.8255 10.2268 24.8022C10.1988 24.7788 10.1664 24.7613 10.1315 24.7507C10.0638 24.7344 9.99262 24.7391 9.9276 24.7643C9.86487 24.8018 9.81698 24.8597 9.792 24.9284L9.79165 24.9275ZM10.4577 25.9741L10.7023 24.7643L10.8518 24.7916L10.8247 24.9004C10.8634 24.8635 10.9098 24.8357 10.9606 24.8189C11.0141 24.8052 11.0702 24.8052 11.1237 24.8189C11.2001 24.8278 11.2717 24.8611 11.3276 24.914C11.3801 24.9646 11.4137 25.0318 11.4227 25.1042C11.4499 25.1834 11.4499 25.2695 11.4227 25.3488C11.4053 25.4309 11.3731 25.5092 11.3276 25.5798C11.28 25.644 11.2134 25.6915 11.1373 25.7158C11.0675 25.7409 10.9921 25.7456 10.9198 25.7293C10.8699 25.7257 10.8224 25.7067 10.7838 25.6749C10.7567 25.6476 10.7158 25.6205 10.7023 25.5798L10.6072 26.0011L10.4577 25.9741ZM10.7567 25.2265C10.7427 25.2714 10.7379 25.3186 10.7425 25.3653C10.7472 25.412 10.7612 25.4573 10.7838 25.4985C10.7966 25.5284 10.8173 25.5543 10.8436 25.5734C10.8699 25.5925 10.9009 25.6042 10.9333 25.6071C10.9692 25.6152 11.0065 25.6145 11.042 25.605C11.0775 25.5955 11.1102 25.5776 11.1373 25.5527C11.173 25.5223 11.2022 25.4849 11.2231 25.4429C11.244 25.4009 11.2562 25.3551 11.2589 25.3083C11.2743 25.2665 11.281 25.2221 11.2787 25.1777C11.2764 25.1333 11.265 25.0898 11.2454 25.0499C11.2299 25.0187 11.2075 24.9915 11.1797 24.9704C11.152 24.9493 11.1198 24.9349 11.0855 24.9283C11.0513 24.9217 11.016 24.9231 10.9825 24.9324C10.9489 24.9417 10.9179 24.9587 10.892 24.9819C10.8206 25.0462 10.7728 25.1324 10.7562 25.2269L10.7567 25.2265ZM11.5043 25.3483C11.5085 25.2791 11.5277 25.2117 11.5606 25.1507C11.5935 25.0897 11.6392 25.0366 11.6946 24.995C11.7832 24.9378 11.8891 24.9137 11.9936 24.927C12.0526 24.9251 12.1113 24.9362 12.1654 24.9597C12.2196 24.9832 12.2678 25.0185 12.3066 25.063C12.3469 25.1116 12.3762 25.1683 12.3926 25.2292C12.409 25.2902 12.4121 25.354 12.4017 25.4162C12.3953 25.5076 12.3674 25.5961 12.3201 25.6746C12.2779 25.7412 12.2162 25.7934 12.1435 25.8241C12.0704 25.8538 11.9905 25.8632 11.9125 25.8512C11.8528 25.8494 11.7941 25.8351 11.7403 25.8094C11.6864 25.7836 11.6385 25.747 11.5995 25.7017C11.5223 25.6016 11.4878 25.475 11.5037 25.3496L11.5043 25.3483ZM11.6809 25.3618C11.6695 25.4061 11.6685 25.4525 11.6779 25.4973C11.6874 25.542 11.707 25.584 11.7353 25.62C11.7545 25.6534 11.7823 25.6811 11.8157 25.7002C11.8492 25.7194 11.8871 25.7292 11.9257 25.7288C11.9625 25.7322 11.9997 25.728 12.0348 25.7163C12.0699 25.7046 12.1022 25.6857 12.1296 25.6608C12.1946 25.59 12.233 25.4987 12.2383 25.4027C12.2443 25.3132 12.2254 25.2238 12.1838 25.1443C12.1579 25.1157 12.1265 25.0925 12.0915 25.0761C12.0565 25.0598 12.0185 25.0507 11.9799 25.0492C11.943 25.0437 11.9052 25.0469 11.8698 25.0587C11.8343 25.0706 11.8022 25.0906 11.776 25.1172C11.7443 25.1497 11.7196 25.1883 11.7032 25.2306C11.6868 25.2729 11.6791 25.318 11.6805 25.3634L11.6809 25.3618ZM12.4964 25.5929L12.6595 25.5793C12.6593 25.6057 12.6653 25.6318 12.6771 25.6554C12.689 25.6791 12.7062 25.6996 12.7275 25.7153C12.7495 25.735 12.7753 25.7499 12.8034 25.7593C12.8314 25.7687 12.8611 25.7722 12.8905 25.7697C12.9522 25.774 13.0137 25.7599 13.0672 25.729C13.0823 25.7177 13.0949 25.7034 13.1043 25.687C13.1136 25.6706 13.1195 25.6525 13.1216 25.6337C13.1206 25.6181 13.1164 25.6029 13.1095 25.5889C13.1025 25.5749 13.0928 25.5624 13.0809 25.5522C13.0538 25.5386 12.9994 25.5251 12.9178 25.4979C12.8325 25.4838 12.75 25.4563 12.6732 25.4164C12.6285 25.396 12.5907 25.3629 12.5646 25.3213C12.5476 25.2875 12.5384 25.2504 12.5374 25.2126C12.54 25.1709 12.5492 25.1298 12.5646 25.091L12.6461 25.0094C12.6815 24.9936 12.7177 24.9799 12.7548 24.9686C12.7956 24.9686 12.8499 24.955 12.8907 24.955C12.9602 24.9593 13.0288 24.9731 13.0946 24.9959C13.1392 25.0166 13.1802 25.0441 13.2163 25.0774C13.2447 25.1229 13.2633 25.1738 13.2708 25.2269L13.1077 25.2405C13.101 25.1996 13.082 25.1617 13.0533 25.1318C13.0092 25.1023 12.9567 25.088 12.9038 25.091C12.8761 25.0842 12.8475 25.0832 12.8194 25.0878C12.7914 25.0925 12.7646 25.1028 12.7407 25.1181C12.7266 25.1273 12.7145 25.1393 12.7051 25.1533C12.6958 25.1673 12.6894 25.1831 12.6863 25.1996C12.6863 25.2132 12.6998 25.2267 12.7134 25.254C12.7289 25.2708 12.7474 25.2845 12.7678 25.2947C12.8974 25.326 13.0246 25.3667 13.1484 25.4164C13.1926 25.4309 13.2308 25.4595 13.257 25.4979C13.2738 25.5364 13.2831 25.5777 13.2841 25.6196C13.2855 25.6469 13.2814 25.6742 13.2721 25.6999C13.2627 25.7256 13.2483 25.7491 13.2297 25.7692C13.1927 25.8114 13.1461 25.844 13.0938 25.8643C13.0287 25.8885 12.959 25.8978 12.8898 25.8915C12.7882 25.8978 12.6874 25.869 12.6044 25.81C12.5425 25.7542 12.5038 25.6773 12.4959 25.5944L12.4964 25.5929ZM13.4342 24.8182L13.4206 24.6415L13.5837 24.628L13.5972 24.8046L13.4342 24.8182ZM13.475 25.8787L13.4342 24.9816L13.5972 24.968L13.6244 25.8651L13.475 25.8787ZM14.209 25.6883L14.2497 25.8243C14.209 25.8243 14.1682 25.8378 14.128 25.8378C14.0824 25.8476 14.0349 25.8429 13.9921 25.8243C13.964 25.8141 13.9402 25.7949 13.9241 25.7698C13.8913 25.7171 13.8769 25.655 13.8832 25.5932L13.8288 25.0767L13.7202 25.0903L13.7066 24.9686L13.8283 24.955L13.8012 24.7375L13.9507 24.6289L13.9778 24.9418L14.1409 24.9282L14.1544 25.0499L13.9914 25.0635L14.0458 25.58C14.0458 25.6207 14.0458 25.648 14.0593 25.6615C14.0598 25.6686 14.0628 25.6752 14.0678 25.6802C14.0728 25.6852 14.0794 25.6882 14.0865 25.6887C14.1 25.7022 14.1136 25.7022 14.1409 25.7022C14.1682 25.7022 14.1814 25.6895 14.2078 25.6895L14.209 25.6883ZM14.9293 25.7427L14.6711 24.5331L14.8478 24.5058L15.0924 25.7154L14.9293 25.7427ZM15.3914 25.6747L15.1603 24.8055L15.2963 24.7784L15.3234 24.9001C15.3488 24.8478 15.3849 24.8014 15.4294 24.7639C15.4739 24.7264 15.5257 24.6987 15.5816 24.6826C15.6351 24.6691 15.6911 24.6691 15.7446 24.6826C15.788 24.6857 15.8299 24.6997 15.8663 24.7234C15.9009 24.7535 15.9287 24.7905 15.9479 24.8321C15.9695 24.8746 15.9833 24.9207 15.9887 24.968L16.1382 25.4981L15.9752 25.5388L15.8392 25.0087C15.8259 24.9616 15.8076 24.9161 15.7848 24.8728C15.7598 24.8516 15.7325 24.8334 15.7033 24.8185H15.5816C15.5507 24.8259 15.5217 24.8393 15.496 24.858C15.4704 24.8766 15.4486 24.9002 15.4321 24.9272C15.3912 24.9679 15.3912 25.0489 15.4185 25.1718L15.5402 25.6476L15.3914 25.6747ZM16.2476 25.2126L16.3971 25.1445C16.4242 25.1989 16.4515 25.2398 16.5058 25.2533C16.5612 25.2784 16.6238 25.2832 16.6824 25.2669C16.7403 25.2501 16.7922 25.217 16.8319 25.1716C16.8433 25.1562 16.8516 25.1386 16.8563 25.12C16.8609 25.1013 16.8619 25.082 16.859 25.063C16.8419 25.0304 16.8126 25.006 16.7775 24.995H16.6144C16.5281 24.9999 16.4416 24.9954 16.3563 24.9814C16.331 24.9828 16.3058 24.9786 16.2823 24.9692C16.2588 24.9598 16.2376 24.9454 16.2203 24.927C16.1903 24.9013 16.1669 24.8687 16.1523 24.8319C16.1456 24.7916 16.1456 24.7505 16.1523 24.7102C16.1621 24.6744 16.1809 24.6417 16.2067 24.6151C16.2239 24.5826 16.2532 24.5581 16.2883 24.5471C16.3299 24.5209 16.376 24.5025 16.4242 24.4927C16.4852 24.4714 16.5499 24.4621 16.6144 24.4656C16.6689 24.4668 16.7215 24.4859 16.7639 24.52C16.8053 24.5465 16.8383 24.5842 16.859 24.6287L16.7095 24.6967C16.7013 24.675 16.6886 24.6553 16.6722 24.6389C16.6558 24.6225 16.6361 24.6098 16.6144 24.6016C16.5655 24.5877 16.5138 24.5877 16.4649 24.6016C16.4129 24.6157 16.3659 24.6439 16.329 24.6831C16.3018 24.7104 16.2881 24.7375 16.3018 24.7646C16.3018 24.7919 16.3154 24.8055 16.3427 24.819C16.3631 24.8314 16.3871 24.8362 16.4107 24.8326C16.4242 24.8462 16.4786 24.8462 16.5602 24.8326C16.642 24.8281 16.724 24.8326 16.8048 24.8462C16.8277 24.8467 16.8502 24.8518 16.8711 24.8611C16.892 24.8705 16.9108 24.8839 16.9265 24.9006C16.9481 24.9103 16.967 24.9254 16.9812 24.9444C16.9955 24.9634 17.0047 24.9857 17.008 25.0092C17.0216 25.0581 17.0216 25.1099 17.008 25.1588C16.9841 25.2126 16.9466 25.2595 16.8994 25.2947C16.8492 25.3378 16.788 25.366 16.7227 25.3762C16.6274 25.414 16.5221 25.4188 16.4237 25.3898C16.3492 25.3493 16.288 25.2882 16.2473 25.2139L16.2476 25.2126ZM17.8378 24.9816L17.797 24.8599C17.7801 24.9158 17.7504 24.967 17.7103 25.0095C17.6702 25.0519 17.6208 25.0845 17.5659 25.1045C17.5178 25.1213 17.4673 25.1305 17.4164 25.1316C17.3679 25.1327 17.3203 25.1184 17.2804 25.0908C17.2425 25.0719 17.2098 25.0439 17.1853 25.0092C17.1622 24.9711 17.1439 24.9302 17.1309 24.8875L16.8999 24.371L17.0494 24.3166L17.2533 24.7787C17.2731 24.8254 17.2958 24.8708 17.3213 24.9147C17.3431 24.9487 17.3772 24.973 17.4164 24.9826C17.4621 24.9911 17.5092 24.9864 17.5524 24.9691C17.5966 24.9546 17.6348 24.926 17.661 24.8875C17.6884 24.853 17.7028 24.8099 17.7019 24.7659C17.6981 24.7095 17.6843 24.6543 17.661 24.6028L17.4706 24.1542L17.6202 24.0998L17.9736 24.9289L17.8378 24.9816ZM18.1912 24.8321L17.7836 24.0166L17.9195 23.9623L17.9739 24.084C17.9822 24.0329 17.9958 23.9827 18.0148 23.9345C18.0385 23.904 18.0659 23.8766 18.0963 23.853C18.1533 23.8345 18.2138 23.8298 18.273 23.8394L18.2865 23.9889C18.2455 23.9851 18.204 23.9897 18.1648 24.0025C18.124 24.016 18.1104 24.0433 18.0833 24.0705C18.0722 24.1009 18.0675 24.1333 18.0697 24.1656C18.0816 24.2262 18.0998 24.2855 18.1241 24.3424L18.3416 24.7636L18.1912 24.8321ZM19.2378 24.1934C19.2175 24.2536 19.1851 24.3091 19.1427 24.3564C19.1037 24.3999 19.0578 24.4366 19.0068 24.4651C18.9347 24.5126 18.8476 24.532 18.7622 24.5195C18.7253 24.5143 18.6902 24.5006 18.6595 24.4795C18.6288 24.4584 18.6035 24.4304 18.5855 24.3978C18.5701 24.3589 18.561 24.3179 18.5584 24.2761C18.5494 24.2395 18.5542 24.2008 18.572 24.1675C18.5957 24.133 18.6231 24.1011 18.6535 24.0724C18.6871 24.0378 18.7234 24.006 18.7622 23.9773C18.8415 23.9274 18.9146 23.8681 18.9797 23.8006C18.9783 23.7904 18.9735 23.7808 18.9661 23.7735C18.939 23.7191 18.8981 23.6782 18.8574 23.6782C18.7911 23.6665 18.7228 23.6812 18.6671 23.7191C18.6402 23.7275 18.6155 23.7416 18.5945 23.7604C18.5735 23.7791 18.5567 23.8022 18.5454 23.8279C18.5317 23.8768 18.5317 23.9285 18.5454 23.9774L18.3959 24.0319C18.3779 23.9795 18.3733 23.9234 18.3823 23.8688C18.3878 23.8167 18.412 23.7685 18.4503 23.7328C18.5003 23.6771 18.5602 23.6311 18.6269 23.5971C18.6827 23.5671 18.7421 23.5443 18.8036 23.5291C18.8478 23.5151 18.8953 23.5151 18.9395 23.5291C18.9762 23.5437 19.0089 23.567 19.0346 23.5971C19.0679 23.6332 19.0954 23.6742 19.1161 23.7187L19.2248 23.8954C19.2731 23.9722 19.3276 24.045 19.3879 24.1129C19.4014 24.1535 19.4423 24.1671 19.4694 24.1944L19.3335 24.276C19.2986 24.2523 19.2665 24.2249 19.2375 24.1944L19.2378 24.1934ZM19.0475 23.9079C19.0066 23.9488 18.9388 24.003 18.8573 24.071C18.8189 24.1001 18.7826 24.1319 18.7486 24.1661C18.7383 24.1768 18.7305 24.1897 18.7258 24.2038C18.7212 24.2179 18.7197 24.2328 18.7215 24.2476C18.7206 24.271 18.7252 24.2943 18.7351 24.3156C18.7568 24.3497 18.7909 24.374 18.8302 24.3835C18.8824 24.3812 18.9334 24.3673 18.9797 24.3429C19.0289 24.3177 19.0708 24.2802 19.1014 24.234C19.1272 24.1933 19.1414 24.1463 19.1422 24.0981C19.1285 24.0446 19.1055 23.994 19.0742 23.9486L19.0475 23.9079ZM19.632 24.1118L19.1154 23.3507L19.2371 23.2827L19.3051 23.3914C19.3066 23.3324 19.3238 23.2749 19.3548 23.2248C19.3859 23.1746 19.4297 23.1336 19.4817 23.1059C19.5283 23.0798 19.5788 23.0614 19.6313 23.0515C19.6769 23.0425 19.7242 23.0472 19.7672 23.0651C19.8047 23.0782 19.8377 23.1018 19.8623 23.133C19.903 23.1657 19.9356 23.2074 19.9574 23.2547L20.2835 23.7033L20.1476 23.7984L19.8347 23.3363C19.806 23.2975 19.7742 23.2612 19.7396 23.2276C19.7052 23.2123 19.6684 23.2031 19.6309 23.2005C19.5821 23.2076 19.5361 23.2278 19.4979 23.2589C19.4596 23.29 19.4304 23.3308 19.4134 23.3771C19.3863 23.4451 19.4134 23.5131 19.4814 23.6082L19.7669 24.0296L19.632 24.1118ZM20.7465 22.943L20.8825 22.8615C20.9327 22.9426 20.952 23.0392 20.9369 23.1334C20.9151 23.2216 20.8619 23.2989 20.7874 23.3509C20.7451 23.3883 20.6953 23.4162 20.6413 23.4326C20.5873 23.449 20.5304 23.4536 20.4744 23.446C20.409 23.4363 20.3462 23.4132 20.2901 23.3781C20.234 23.3431 20.1857 23.2968 20.1483 23.2422C20.0887 23.1797 20.0425 23.1057 20.0123 23.0247C19.9965 22.9479 20.0011 22.8682 20.0259 22.7937C20.0589 22.7263 20.1052 22.6662 20.1618 22.617C20.2374 22.5639 20.3276 22.5354 20.42 22.5355C20.5041 22.5356 20.5856 22.5644 20.6511 22.617L20.5424 22.7257C20.5008 22.69 20.4477 22.6707 20.3929 22.6713C20.3444 22.6702 20.2968 22.6844 20.2569 22.712C20.2263 22.7331 20.2016 22.7616 20.1849 22.7949C20.1683 22.8282 20.1604 22.8652 20.1618 22.9024C20.1612 22.9486 20.1706 22.9943 20.1894 23.0366C20.2081 23.0788 20.2358 23.1164 20.2705 23.147C20.3282 23.2245 20.4091 23.2817 20.5016 23.31C20.5375 23.3157 20.5741 23.3137 20.6093 23.3044C20.6444 23.295 20.6772 23.2784 20.7055 23.2556C20.753 23.2237 20.7869 23.1752 20.8006 23.1197C20.7995 23.0572 20.7806 22.9962 20.7462 22.9441L20.7465 22.943ZM21.4669 22.3857L21.6029 22.2906C21.6282 22.3279 21.6458 22.37 21.6547 22.4142C21.6637 22.4585 21.6637 22.504 21.6549 22.5483C21.646 22.5925 21.6285 22.6346 21.6032 22.672C21.578 22.7094 21.5455 22.7414 21.5078 22.7662C21.4657 22.8101 21.415 22.8448 21.3589 22.8682C21.3028 22.8916 21.2424 22.9032 21.1817 22.9022C21.0531 22.888 20.9333 22.8305 20.8419 22.7391C20.7504 22.6477 20.6929 22.5279 20.6787 22.3994C20.6793 22.3428 20.6917 22.287 20.7151 22.2355C20.7385 22.184 20.7724 22.138 20.8147 22.1004C20.8556 22.0603 20.9048 22.0297 20.9589 22.0109C21.013 21.9921 21.0706 21.9855 21.1276 21.9916C21.1924 21.994 21.2559 22.0098 21.3144 22.0378C21.3728 22.0659 21.4249 22.1056 21.4673 22.1546L21.4944 22.1819L20.9915 22.6576C21.0558 22.714 21.1371 22.7475 21.2225 22.7527C21.2965 22.7553 21.3689 22.7312 21.4264 22.6847C21.4466 22.668 21.463 22.6473 21.4747 22.6239C21.4864 22.6005 21.4931 22.5749 21.4944 22.5487C21.5031 22.4931 21.4933 22.4362 21.4664 22.3867L21.4669 22.3857ZM20.896 22.5623L21.2901 22.2089C21.2423 22.1623 21.18 22.1335 21.1135 22.1273C21.0765 22.1207 21.0385 22.1234 21.0029 22.1353C20.9672 22.1472 20.9352 22.1678 20.9096 22.1953C20.8833 22.2165 20.8623 22.2434 20.8481 22.2741C20.834 22.3047 20.8271 22.3382 20.828 22.3719C20.8274 22.4418 20.8513 22.5096 20.8957 22.5635L20.896 22.5623ZM22.3096 21.9914L21.3039 21.1896L21.8748 20.5509L21.9965 20.6459L21.5344 21.1623L21.8473 21.4071L22.2415 20.9585L22.3631 21.0536L21.969 21.5021L22.4176 21.8692L22.3096 21.9914ZM23.3562 20.7137L23.2475 20.6322C23.2684 20.6857 23.2757 20.7435 23.2685 20.8005C23.2614 20.8574 23.2401 20.9117 23.2067 20.9584C23.1731 20.9981 23.1317 21.0305 23.085 21.0535C23.0494 21.0788 23.007 21.093 22.9633 21.0941C22.9164 21.0971 22.8695 21.0878 22.8273 21.067C22.7817 21.055 22.7398 21.0316 22.7056 20.999L22.2164 20.6861L22.3115 20.5502L22.7461 20.8356C22.7923 20.8728 22.8424 20.9047 22.8957 20.9307C22.9306 20.9443 22.9694 20.9443 23.0043 20.9307C23.0485 20.9162 23.0867 20.8876 23.113 20.8492C23.1275 20.8326 23.1386 20.8133 23.1456 20.7924C23.1526 20.7715 23.1554 20.7495 23.1538 20.7275C23.1578 20.6851 23.1483 20.6425 23.1267 20.6058C23.0912 20.5555 23.0447 20.5139 22.9907 20.4841L22.5693 20.2122L22.6644 20.0905L23.4391 20.607L23.3562 20.7137ZM23.5872 20.4147L22.7581 19.9801L22.8261 19.8584L22.9478 19.9126C22.9178 19.866 22.9018 19.8117 22.9018 19.7562C22.9018 19.7007 22.9178 19.6464 22.9478 19.5997C22.9729 19.5504 23.0104 19.5085 23.0565 19.478C23.0943 19.4543 23.1353 19.436 23.1782 19.4236C23.2239 19.422 23.2696 19.4265 23.3141 19.4372C23.358 19.4626 23.4034 19.4853 23.4501 19.5051L23.9666 19.777L23.885 19.913L23.3821 19.6413C23.3141 19.614 23.2734 19.6006 23.2326 19.5868C23.1985 19.583 23.1644 19.5927 23.1375 19.614C23.1038 19.6338 23.0758 19.6618 23.0559 19.6955C23.0262 19.7493 23.0166 19.812 23.0288 19.8723C23.0424 19.9267 23.0968 19.981 23.2055 20.0354L23.6675 20.2802L23.5872 20.4147ZM24.3755 19.0555L24.2668 19.0149C24.2935 19.0552 24.3077 19.1025 24.3077 19.1508C24.3077 19.1992 24.2935 19.2464 24.2668 19.2868C24.2533 19.3205 24.233 19.3511 24.2073 19.3768C24.1816 19.4025 24.151 19.4227 24.1173 19.4363C24.0515 19.4749 23.976 19.4937 23.8998 19.4907C23.8098 19.4874 23.7216 19.4642 23.6416 19.4227C23.5661 19.3842 23.4972 19.3337 23.4377 19.2732C23.3825 19.2242 23.3484 19.1556 23.3426 19.082C23.3355 19.047 23.3355 19.011 23.3425 18.976C23.3495 18.941 23.3634 18.9077 23.3835 18.8782C23.4038 18.8299 23.4366 18.7879 23.4786 18.7565C23.5193 18.7307 23.5663 18.7165 23.6145 18.7157L23.1931 18.5119L23.2746 18.376L24.4436 18.9332L24.3755 19.0555ZM23.723 19.2868C23.805 19.3348 23.9007 19.3539 23.9949 19.3412C24.0764 19.3141 24.1309 19.2869 24.158 19.2195C24.1746 19.193 24.1835 19.1624 24.1835 19.1311C24.1835 19.0998 24.1746 19.0692 24.158 19.0427C24.1196 18.9616 24.0514 18.8983 23.9676 18.8661C23.8764 18.8154 23.7727 18.7918 23.6686 18.7981C23.6345 18.806 23.6023 18.8209 23.5743 18.8418C23.5462 18.8627 23.5228 18.8893 23.5055 18.9198C23.492 18.9497 23.4851 18.9821 23.4851 19.0149C23.4851 19.0477 23.492 19.0801 23.5055 19.11C23.5521 19.1952 23.6299 19.259 23.7227 19.2878L23.723 19.2868Z" fill="#1F4A82"/>
</svg>
