<svg width="1693" height="1090" viewBox="0 0 1693 1090" fill="none" xmlns="http://www.w3.org/2000/svg">
<path d="M1671.14 348.402C1636.34 364.385 1600.27 372.285 1563.14 373.724C1440.41 378.48 1305.96 312.669 1166.64 234.796C1021.03 153.413 870.097 58.8564 721.639 17.9023C595.294 -16.9514 484.928 5.26923 388.639 55.5834C295.105 104.457 214.853 179.839 146.139 255.167C98.868 306.987 9.13848 412 1.63848 536C-5.86152 660 44.2166 997.014 614.639 873.761C683.747 858.829 760.482 836.529 845.639 805.5C917.187 779.43 984.155 765.147 1046.64 760.852C1347.52 740.168 1587.94 847.566 1691.64 1089" stroke="#ECF0F3" stroke-width="2"/>
<path d="M614.639 873.761C683.747 858.829 760.482 836.529 845.639 805.5C917.187 779.43 984.155 765.147 1046.64 760.852" stroke="#F3E9F3" stroke-width="6"/>
<path d="M1166.64 234.796C1305.96 312.669 1440.41 378.48 1563.14 373.724" stroke="#F3E9F3" stroke-width="6"/>
<path d="M146.139 255.167C214.853 179.839 295.105 104.457 388.639 55.5835" stroke="#F3E9F3" stroke-width="6"/>
</svg>
