<svg width="1172" height="760" viewBox="0 0 1172 760" fill="none" xmlns="http://www.w3.org/2000/svg">
<path d="M477.622 19.1973C436.974 43.6053 347.501 113.841 314.795 199.52C282.09 285.199 303.509 343.338 329.406 375.467C347.911 398.426 393.675 452.23 503.586 489.274M668.34 522.608C902.1 545.086 1075.39 475.879 1132.81 438.466" stroke="white" stroke-opacity="0.7" stroke-width="5"/>
<path d="M668.34 522.608C601.621 516.193 547.487 504.071 503.586 489.274" stroke="white" stroke-opacity="0.5" stroke-width="3"/>
<path d="M708.974 457.779C723.271 423.892 747.185 338.958 728.472 270.322C709.759 201.686 669.741 175.067 638.819 166.788M359.18 229.685C202.462 322.556 104.893 531.752 86.0379 581.462" stroke="white" stroke-opacity="0.5" stroke-width="2"/>
<path d="M638.82 166.788C607.897 158.51 515.898 136.815 359.18 229.685" stroke="white" stroke-opacity="0.7" stroke-width="6"/>
</svg>
