<svg width="818" height="727" viewBox="0 0 818 727" fill="none" xmlns="http://www.w3.org/2000/svg">
<path d="M807 168.655C790.206 176.368 772.802 180.18 754.88 180.875C695.653 183.17 630.769 151.41 563.531 113.829C493.262 74.5538 420.422 28.9212 348.777 9.15695C287.803 -7.66325 234.541 3.06031 188.072 27.3417C142.934 50.928 104.205 87.307 71.0432 123.66C48.2306 148.668 4.92759 199.347 1.30813 259.188C-2.31133 319.03 21.8561 651.672 297.139 592.19C330.49 584.984 367.522 574.222 408.618 559.248C443.147 546.666 475.466 539.773 505.62 537.701C650.823 527.719 766.851 609.548 816.894 726.063" stroke="#ECF0F3" stroke-width="2"/>
<path d="M297.139 591.553C330.49 584.347 367.522 573.585 408.618 558.61C443.147 546.029 475.465 539.136 505.62 537.063" stroke="#F3E9F3" stroke-width="6"/>
<path d="M563.531 113.829C630.77 151.41 695.653 183.17 754.88 180.875" stroke="#F3E9F3" stroke-width="6"/>
<path d="M71.043 123.66C104.204 87.307 142.933 50.928 188.072 27.3417" stroke="#F3E9F3" stroke-width="6"/>
</svg>
