<svg width="65" height="40" viewBox="0 0 65 40" fill="none" xmlns="http://www.w3.org/2000/svg">
<path fill-rule="evenodd" clip-rule="evenodd" d="M9.41953 18.839C6.12111 23.0522 4.04396 28.9278 4.04396 35.4688H1.53846C1.53846 28.4586 3.76134 22.066 7.41514 17.3988C11.0692 12.7312 16.2129 9.73216 22 9.73216C27.7871 9.73216 32.9308 12.7312 36.5849 17.3988C40.2387 22.066 42.4615 28.4586 42.4615 35.4688H39.956C39.956 28.9278 37.8789 23.0522 34.5805 18.839C31.2823 14.6261 26.8216 12.1325 22 12.1325C17.1784 12.1325 12.7177 14.6261 9.41953 18.839Z" fill="url(#paint0_radial)"/>
<path fill-rule="evenodd" clip-rule="evenodd" d="M20.7474 34.5353V2.53125H23.2529V34.5353H20.7474Z" fill="url(#paint1_radial)"/>
<path fill-rule="evenodd" clip-rule="evenodd" d="M20.2089 2H23.7913V9.29435C29.0402 9.8447 33.6547 12.7868 37.011 17.074C40.7436 21.8418 43 28.3511 43 35.4688V36H39.4176V35.4688C39.4176 29.0353 37.374 23.2764 34.1543 19.1637C31.3556 15.5887 27.7283 13.3163 23.7913 12.7842V35.0666H20.2089V12.7842C16.2719 13.3162 12.6445 15.5886 9.84568 19.1637C6.62601 23.2764 4.58242 29.0353 4.58242 35.4688V36H1V35.4688C1 28.3511 3.25642 21.8418 6.98899 17.074C10.3454 12.7868 14.9599 9.84461 20.2089 9.29432V2ZM20.2089 10.3634C15.3493 10.909 11.0295 13.651 7.84128 17.7235C4.3582 22.1727 2.19044 28.2445 2.08125 34.9375H3.50999C3.61914 28.5013 5.70641 22.7129 8.99338 18.5142C11.9651 14.7183 15.8884 12.2505 20.2089 11.7123V10.3634ZM21.2858 11.6188V10.2792C21.5228 10.2687 21.7608 10.2634 22 10.2634C22.2392 10.2634 22.4774 10.2687 22.7144 10.2792V11.6188C22.4773 11.6071 22.2391 11.6012 22 11.6012C21.761 11.6012 21.5229 11.6071 21.2858 11.6188ZM21.2858 12.6828V34.0041H22.7144V12.6828C22.4772 12.6701 22.239 12.6637 22 12.6637C21.7611 12.6637 21.523 12.6701 21.2858 12.6828ZM23.7913 11.7123C28.1117 12.2506 32.035 14.7184 35.0066 18.5142C38.2936 22.7129 40.3809 28.5013 40.49 34.9375H41.9188C41.8096 28.2445 39.6418 22.1727 36.1587 17.7235C32.9705 13.651 28.6509 10.9091 23.7913 10.3635V11.7123ZM22.7144 9.21568C22.4774 9.20586 22.2393 9.20091 22 9.20091C21.7608 9.20091 21.5227 9.20586 21.2858 9.21567V3.0625H22.7144V9.21568Z" fill="url(#paint2_radial)"/>
<path fill-rule="evenodd" clip-rule="evenodd" d="M19.9589 1.75H24.0413V9.07066C29.2769 9.68848 33.8657 12.6508 37.2079 16.9199C40.9775 21.7351 43.25 28.2997 43.25 35.4688V36.25H39.1676V35.4688C39.1676 29.0868 37.1401 23.3831 33.9575 19.3178C31.259 15.8709 27.7935 13.6639 24.0413 13.0734V35.3166H19.9589V13.0734C16.2066 13.6638 12.7411 15.8708 10.0425 19.3178C6.85993 23.3831 4.83242 29.0868 4.83242 35.4688V36.25H0.75V35.4688C0.75 28.2997 3.02249 21.7351 6.79214 16.9199C10.1344 12.6507 14.7233 9.68838 19.9589 9.07063V1.75ZM20.4589 2.25V9.51948L20.235 9.54296C15.0657 10.0849 10.5088 12.9836 7.18584 17.2281C3.49035 21.9486 1.25 28.4025 1.25 35.4688V35.75H4.33242V35.4688C4.33242 28.9839 6.3921 23.1696 9.64883 19.0096C12.4801 15.393 16.1624 13.0787 20.1754 12.5364L20.4589 12.4981V34.8166H23.5413V12.4981L23.8248 12.5365C27.8378 13.0788 31.5199 15.3931 34.3512 19.0096C37.6079 23.1696 39.6676 28.9839 39.6676 35.4688V35.75H42.75V35.4688C42.75 28.4025 40.5097 21.9486 36.8142 17.2281C33.4913 12.9837 28.9344 10.085 23.7653 9.54298L23.5413 9.5195V2.25H20.4589ZM20.4974 2.28125H23.5029V9.54902C28.7649 10.0192 33.4081 12.9354 36.7817 17.2447C40.4726 21.9592 42.7115 28.4072 42.7115 35.4688V35.7188H39.706V35.4688C39.706 28.9792 37.645 23.159 34.3836 18.9931C31.4711 15.2728 27.6553 12.9244 23.5029 12.4652V34.7853H20.4974V12.4652C16.3448 12.9243 12.5289 15.2727 9.61638 18.9931C6.35503 23.159 4.29396 28.9792 4.29396 35.4688V35.7188H1.28846V35.4688C1.28846 28.4072 3.52741 21.9592 7.21829 17.2447C10.5919 12.9353 15.2352 10.0191 20.4974 9.549V2.28125ZM20.4974 10.0511C15.4144 10.5196 10.9075 13.3434 7.61199 17.5529C4.03863 22.1173 1.84158 28.3584 1.78941 35.2188H3.79496C3.84714 28.7265 5.92941 22.8915 9.22268 18.6848C12.2153 14.8623 16.168 12.4234 20.4974 11.9622V10.0511ZM20.9974 11.9179V10.0128C21.3293 9.99245 21.6636 9.98215 22 9.98215C22.3365 9.98215 22.6709 9.99246 23.0029 10.0128V11.9179C22.6706 11.8944 22.3362 11.8825 22 11.8825C21.6639 11.8825 21.3296 11.8944 20.9974 11.9179ZM20.9974 12.4192V34.2853H23.0029V12.4192C22.6705 12.3948 22.3361 12.3825 22 12.3825C21.664 12.3825 21.3297 12.3948 20.9974 12.4192ZM23.5029 11.9622C27.8322 12.4235 31.7848 14.8623 34.7773 18.6848C38.0706 22.8915 40.1529 28.7265 40.205 35.2188H42.2106C42.1584 28.3584 39.9614 22.1173 36.388 17.5529C33.0926 13.3435 28.5857 10.5197 23.5029 10.0511V11.9622ZM23.0029 9.51185C22.6709 9.49214 22.3365 9.48216 22 9.48216C21.6636 9.48216 21.3293 9.49214 20.9974 9.51184V2.78125H23.0029V9.51185ZM21.0358 2.8125H22.9644V9.47626L22.7041 9.46547C22.4705 9.45579 22.2358 9.45091 22 9.45091C21.7643 9.45091 21.5296 9.45579 21.2962 9.46546L21.0358 9.47625V2.8125ZM21.5358 3.3125V8.95705C21.6901 8.95296 21.8448 8.95091 22 8.95091C22.1553 8.95091 22.3101 8.95296 22.4644 8.95705V3.3125H21.5358ZM21.5358 10.5202V11.3585C21.6902 11.3536 21.8449 11.3512 22 11.3512C22.1552 11.3512 22.31 11.3536 22.4644 11.3585V10.5202C22.3101 10.5157 22.1553 10.5134 22 10.5134C21.8448 10.5134 21.6901 10.5157 21.5358 10.5202ZM21.2748 10.0295C21.5154 10.0188 21.7571 10.0134 22 10.0134C22.2429 10.0134 22.4848 10.0188 22.7255 10.0295L22.9644 10.0401V11.8814L22.7021 11.8685C22.4691 11.857 22.235 11.8512 22 11.8512C21.7651 11.8512 21.5311 11.857 21.2981 11.8685L21.0358 11.8814V10.0401L21.2748 10.0295ZM20.4589 10.0838V11.933L20.2398 11.9603C15.9966 12.489 12.1291 14.9144 9.19024 18.6683C5.93937 22.8208 3.86825 28.5557 3.75996 34.9417L3.75579 35.1875H1.82714L1.83129 34.9334C1.94129 28.1903 4.12519 22.0647 7.64443 17.5694C10.8659 13.4544 15.2426 10.6694 20.181 10.115L20.4589 10.0838ZM23.5413 10.0838L23.8192 10.115C28.7575 10.6695 33.1342 13.4545 36.3556 17.5694C39.8748 22.0647 42.0587 28.1903 42.1687 34.9334L42.1729 35.1875H40.2442L40.24 34.9417C40.1318 28.5557 38.0606 22.8208 34.8098 18.6683C31.871 14.9144 28.0036 12.4891 23.7604 11.9604L23.5413 11.9331V10.0838ZM19.9589 10.6456C15.2909 11.2539 11.1319 13.9258 8.03814 17.8776C4.6352 22.2244 2.49473 28.1453 2.33637 34.6875H3.26516C3.42342 28.2995 5.51546 22.5512 8.79653 18.3601C11.7511 14.5861 15.6481 12.0959 19.9589 11.4931V10.6456ZM24.0413 10.6456V11.4932C28.352 12.096 32.249 14.5862 35.2035 18.3601C38.4845 22.5512 40.5766 28.2995 40.7348 34.6875H41.6636C41.5053 28.1453 39.3648 22.2244 35.9619 17.8776C32.8681 13.9258 28.7093 11.254 24.0413 10.6456ZM21.5358 12.9219V33.7541H22.4644V12.9219C22.31 12.9165 22.1552 12.9137 22 12.9137C21.8449 12.9137 21.6902 12.9165 21.5358 12.9219ZM21.2725 12.4331C21.5141 12.4202 21.7566 12.4137 22 12.4137C22.2435 12.4137 22.4861 12.4202 22.7278 12.4331L22.9644 12.4458V34.2541H21.0358V12.4458L21.2725 12.4331Z" fill="url(#paint3_radial)"/>
<defs>
<radialGradient id="paint0_radial" cx="0" cy="0" r="1" gradientUnits="userSpaceOnUse" gradientTransform="translate(6.37097 9.88679) rotate(29.7412) scale(38.0528 210.715)">
<stop stop-color="#00A7D3"/>
<stop offset="1" stop-color="#079CC4"/>
</radialGradient>
<radialGradient id="paint1_radial" cx="0" cy="0" r="1" gradientUnits="userSpaceOnUse" gradientTransform="translate(6.37097 9.88679) rotate(29.7412) scale(38.0528 210.715)">
<stop stop-color="#00A7D3"/>
<stop offset="1" stop-color="#079CC4"/>
</radialGradient>
<radialGradient id="paint2_radial" cx="0" cy="0" r="1" gradientUnits="userSpaceOnUse" gradientTransform="translate(6.37097 9.88679) rotate(29.7412) scale(38.0528 210.715)">
<stop stop-color="#00A7D3"/>
<stop offset="1" stop-color="#079CC4"/>
</radialGradient>
<radialGradient id="paint3_radial" cx="0" cy="0" r="1" gradientUnits="userSpaceOnUse" gradientTransform="translate(6.37097 9.88679) rotate(29.7412) scale(38.0528 210.715)">
<stop stop-color="#00A7D3"/>
<stop offset="1" stop-color="#079CC4"/>
</radialGradient>
</defs>
</svg>
